%
M48
M72
T01C0.0122
T02C0.0276
T03C0.0315
T04C0.0320
T05C0.0394
T06C0.0400
T07C0.0472
%
T01
X12575Y12548
X15429Y12548
X16315Y12548
X16807Y13040
X15823Y13729
X14445Y13729
X13953Y13729
X13461Y13729
X12968Y13729
X12968Y14615
X13461Y14615
X13953Y14615
X14445Y14615
X16709Y14615
X17594Y14517
X17594Y14910
X17594Y15402
X17594Y15895
X18086Y16190
X17594Y16485
X19169Y16190
X20055Y16584
X19169Y16780
X20941Y16977
X20941Y17469
X18677Y17863
X17594Y17863
X18185Y18847
X18677Y18847
X21138Y18847
X22516Y18847
X22516Y19438
X20350Y19930
X19661Y19536
X21531Y20324
X22516Y20717
X20744Y21308
X21827Y21702
X19169Y20422
X18677Y20422
X25468Y19832
X25862Y20225
X26354Y20225
X26846Y20225
X27708Y20668
X28114Y20680
X28470Y20680
X28815Y20668
X30180Y20570
X30586Y20521
X31399Y20521
X32137Y20521
X32493Y21160
X33835Y20521
X34130Y20717
X34775Y20127
X35577Y19925
X35856Y20106
X36523Y19930
X36708Y20201
X37046Y19856
X37046Y19536
X36505Y19586
X35869Y19733
X35760Y19393
X35132Y19111
X34788Y19111
X34819Y18774
X34806Y18355
X36253Y18042
X36689Y17961
X37033Y18158
X37279Y17568
X37575Y17174
X36787Y16903
X35618Y16879
X34923Y16749
X34935Y16417
X34585Y15944
X34309Y15698
X34610Y15427
X33675Y15107
X33921Y14836
X33244Y15107
X33441Y15402
X32973Y14812
X33096Y14271
X34843Y15021
X36984Y15304
X37575Y15304
X40035Y15402
X41109Y15402
X41108Y14425
X40774Y14418
X40429Y14418
X44169Y14615
X44895Y14935
X45289Y14923
X46138Y14615
X46618Y15353
X46322Y15612
X47183Y16276
X46494Y16867
X45215Y16276
X44624Y16867
X44034Y17457
X44895Y17974
X43775Y18257
X42557Y18048
X41653Y18048
X41171Y17862
X40761Y17863
X40552Y18121
X40331Y17863
X39961Y17863
X40171Y18800
X39905Y19063
X41278Y19032
X42557Y19032
X43739Y18933
X45081Y19229
X45609Y18669
X46494Y18669
X49939Y17457
X50431Y17457
X50431Y16965
X50924Y16965
X51846Y16584
X52892Y16965
X53384Y16965
X53876Y16965
X53876Y17457
X53384Y17457
X52892Y17457
X52892Y18835
X53384Y18835
X53876Y18835
X52302Y19426
X51416Y19426
X51256Y20225
X49841Y20508
X49054Y20508
X49054Y21591
X50333Y21591
X45018Y21591
X42754Y21566
X41921Y21487
X41487Y21554
X40577Y21985
X40146Y22046
X40577Y22341
X41118Y22329
X42210Y22175
X41155Y23067
X40577Y23067
X38953Y23375
X37833Y22870
X38510Y22772
X37722Y22538
X37735Y21972
X37316Y21972
X37956Y21529
X38953Y21800
X39919Y21111
X40134Y20578
X40983Y20331
X41497Y20410
X42557Y20410
X43739Y20410
X45018Y20607
X38467Y20736
X36246Y21203
X35483Y21468
X34965Y21579
X34425Y21627
X34577Y21987
X34322Y22258
X35384Y22727
X36148Y23080
X33874Y22932
X33327Y22917
X33456Y23481
X33456Y23769
X33827Y23581
X33059Y23471
X32130Y23185
X31768Y23215
X31411Y23185
X30427Y23276
X30427Y22883
X28864Y22797
X28532Y22784
X28999Y23658
X28224Y21702
X27732Y21702
X27240Y21702
X29578Y21603
X30377Y21726
X31029Y19819
X30304Y19659
X29934Y19659
X29504Y19635
X29159Y19635
X28606Y20041
X26846Y19438
X26354Y19438
X25862Y19438
X29012Y18454
X30291Y18454
X31042Y17912
X29799Y17666
X30390Y17383
X31374Y17273
X30390Y16584
X29824Y16719
X29651Y16214
X29651Y15845
X29233Y15636
X28815Y15636
X27634Y15895
X27105Y16214
X25936Y16214
X26243Y15895
X25272Y15698
X24681Y15698
X24090Y15698
X25813Y15083
X26686Y15612
X27498Y14873
X27658Y14467
X28027Y14418
X28397Y14394
X28815Y14381
X28520Y13729
X26514Y13791
X25173Y13828
X24435Y13643
X24779Y13040
X24583Y12745
X24090Y12843
X23500Y12647
X24484Y12068
X24841Y12179
X26649Y12056
X27043Y12179
X27142Y12560
X28027Y12548
X28520Y12843
X31374Y12843
X28520Y11269
X28027Y11269
X26649Y11269
X26108Y11355
X26120Y10998
X24841Y10998
X24361Y11010
X21433Y9989
X20941Y9497
X21925Y9202
X21433Y8710
X20055Y8414
X18972Y8906
X18382Y8906
X17791Y8906
X18972Y9497
X18972Y9989
X18382Y9989
X17791Y9989
X17791Y10580
X18382Y10580
X18972Y10580
X20055Y10678
X20055Y11515
X20744Y11859
X19218Y11748
X43389Y23862
X42939Y23424
X40530Y23761
X33675Y19881
X33675Y19536
X34788Y19505
X33244Y18906
X32432Y18478
X32063Y18650
X32752Y18158
X33244Y17076
X35729Y16301
X32063Y15402
X26649Y16780
X26256Y17174
X25862Y17568
X25272Y16977
X21335Y15599
X20941Y16091
X19022Y15206
X19624Y14898
X19317Y14615
X20055Y14295
X21039Y14123
X21728Y13828
X20055Y13508
X20547Y12843
X12968Y10580
X13461Y10580
X13953Y10580
X14445Y10580
X14445Y9989
X13953Y9989
X13461Y9989
X12968Y9989
X17791Y7725
X18382Y7725
X18849Y7750
X18849Y7110
X18382Y6839
X17791Y6839
X18579Y5954
X17336Y5683
X17853Y5363
X18443Y5363
X19464Y4969
X19464Y4477
X20055Y4969
X20547Y5166
X21138Y5166
X22712Y5461
X21236Y5954
X21187Y7110
X21187Y7750
X24976Y8414
X24976Y8906
X26157Y8906
X26157Y8414
X26994Y8550
X26994Y8193
X26994Y7811
X26157Y7922
X26157Y7430
X25370Y7233
X26994Y7442
X26994Y6975
X26994Y6569
X26994Y6200
X29110Y5855
X29110Y5166
X29110Y4477
X27068Y4145
X25173Y4576
X25665Y4969
X24681Y4182
X23795Y4182
X22712Y4182
X21138Y4182
X20547Y4182
X19464Y4084
X24189Y3198
X31239Y3407
X32358Y3690
X33736Y4010
X34191Y4084
X34191Y4440
X35803Y4084
X36947Y4084
X35865Y4539
X36910Y4957
X37689Y4870
X37587Y5523
X35865Y5523
X34351Y5400
X34351Y5031
X33750Y5526
X33625Y6089
X31964Y6150
X31079Y6150
X31374Y6938
X31768Y6938
X32334Y6815
X33602Y7068
X34560Y7282
X33736Y7922
X33564Y8205
X32953Y8186
X32530Y8168
X31915Y8094
X32192Y7314
X32604Y7333
X34376Y8217
X34733Y8217
X35212Y8710
X35705Y8710
X36197Y8710
X37212Y7917
X35896Y7787
X35865Y6999
X37673Y6938
X38264Y6741
X39740Y6544
X40134Y6544
X39740Y6938
X39309Y7344
X40487Y7703
X40835Y7738
X40835Y8082
X40268Y8172
X40268Y8566
X39874Y8566
X41266Y8741
X41709Y9694
X42201Y9694
X42796Y9800
X41856Y10186
X42201Y10580
X41266Y9915
X40724Y9792
X38362Y9792
X37968Y9792
X37575Y9792
X33441Y9792
X33047Y9792
X32653Y9792
X30488Y9792
X30094Y9792
X29701Y9792
X28618Y9989
X28618Y9583
X28249Y9595
X27966Y9841
X24976Y9399
X22319Y9595
X29117Y8006
X29117Y7353
X29117Y6725
X32100Y5363
X32493Y4576
X38599Y3985
X39042Y3950
X39762Y3930
X40304Y4285
X39224Y4555
X40810Y5248
X40134Y5855
X39691Y5818
X40847Y6138
X42102Y6347
X42771Y6757
X42771Y7408
X43549Y7722
X42771Y8060
X44760Y7971
X44747Y8316
X44772Y7602
X44772Y7245
X44858Y6741
X45449Y7233
X46039Y7233
X45867Y6680
X46279Y6575
X46563Y6244
X45584Y5892
X45237Y5895
X46039Y5855
X46039Y5461
X45461Y5215
X45252Y4871
X43639Y4737
X42771Y4379
X42037Y4493
X42771Y5068
X43579Y5265
X43424Y5753
X42771Y5744
X43577Y3987
X44760Y4145
X45744Y3887
X51416Y4465
X51846Y4969
X51416Y5154
X52302Y5154
X52929Y5166
X53421Y5166
X53913Y5166
X53913Y4182
X53421Y4182
X52929Y4182
X53187Y6433
X53323Y6839
X53052Y7110
X53815Y6839
X53052Y7799
X52240Y7651
X51453Y7664
X50690Y7799
X50075Y7824
X49583Y7824
X48894Y7774
X50690Y7110
X50530Y6433
X51846Y8316
X53323Y8316
X53815Y8316
X53815Y8906
X53323Y8906
X52831Y8906
X50567Y8906
X50075Y8906
X49583Y8906
X47319Y8710
X46827Y8710
X46827Y9399
X47319Y9399
X45055Y9497
X44661Y9891
X44132Y9448
X44102Y9005
X44464Y9005
X47319Y10087
X46827Y10580
X47319Y11072
X47319Y11662
X45559Y11342
X44760Y11662
X45547Y10875
X43739Y10334
X49171Y11925
X51034Y11724
X51846Y11662
X52560Y11958
X38067Y19475
X37046Y18970
X36480Y18995
X31817Y19536
X40035Y16682
X41109Y16682
X48401Y14615
X49357Y14615
X49607Y14984
X49336Y15612
X51379Y14984
X51157Y14664
X51846Y14455
X52831Y14344
X53618Y13889
X51846Y13582
X52314Y12843
X38036Y7264
X50764Y10801
X51846Y10776
X53538Y10057
X55451Y9977
X56239Y9977
X56928Y9977
X57813Y9977
X57026Y11256
X56239Y11256
X55451Y11256
X55451Y11945
X55451Y12831
X55451Y13815
X55451Y14603
X56239Y14603
X57026Y14603
X57715Y14603
X61258Y14111
X53876Y15981
X53384Y15981
X52892Y15981
X53680Y14898
X49046Y13643
X48163Y13692
X47774Y13680
X47306Y13680
X46950Y13668
X46138Y13729
X45276Y13692
X44895Y13692
X44169Y13729
X44760Y12843
X45646Y12843
X46630Y12843
X47319Y12843
X48955Y16276
X25173Y14320
X24189Y14320
X23205Y14517
X22024Y14517
X18185Y15402
X55094Y8119
T02
X38651Y4618
X36537Y4618
X35258Y4618
X33144Y4618
X33144Y5405
X35258Y5405
X36537Y5405
X38651Y5405
X38651Y6193
X36537Y6193
X35258Y6193
X33144Y6193
X33144Y6980
X33144Y7768
X35258Y7768
X35258Y6980
X36537Y6980
X36537Y7768
X38651Y7768
X38651Y6980
T03
X34947Y22300
X36856Y22300
T04
X40338Y2115
X39338Y2115
X38370Y2115
X37370Y2115
X36401Y2115
X35401Y2115
X34433Y2115
X33433Y2115
X32464Y2115
X31464Y2115
T05
X15323Y5446
X16323Y5446
X16323Y6446
X15323Y6446
X15323Y7446
X16323Y7446
X23590Y7446
X24590Y7446
X24590Y6446
X23590Y6446
X23590Y5446
X24590Y5446
X20850Y2115
X19850Y2115
X51930Y2115
X50930Y2115
X48169Y5446
X47169Y5446
X47169Y6446
X48169Y6446
X48169Y7446
X47169Y7446
X55437Y7446
X56437Y7446
X56437Y6446
X55437Y6446
X55437Y5446
X56437Y5446
X54118Y11351
X53118Y11351
X50531Y11351
X49531Y11351
X49531Y12351
X50531Y12351
X50531Y13351
X49531Y13351
X62386Y12351
X61386Y12351
X61386Y13351
X62386Y13351
X62386Y11351
X61386Y11351
X54118Y12351
X53118Y12351
X42264Y11351
X41264Y11351
X41264Y12351
X42264Y12351
X42264Y13351
X41264Y13351
X30496Y13351
X29496Y13351
X29496Y12351
X30496Y12351
X30496Y11351
X29496Y11351
X22228Y11351
X21228Y11351
X18685Y11351
X17685Y11351
X17685Y12351
X18685Y12351
X55437Y19257
X56437Y19257
X56437Y18257
X55437Y18257
X55437Y17257
X56437Y17257
X48169Y17257
X47169Y17257
X47169Y18257
X48169Y18257
X48169Y19257
X47169Y19257
X53118Y13351
X54118Y13351
X24590Y17257
X23590Y17257
X23590Y18257
X24590Y18257
X24590Y19257
X23590Y19257
X16323Y19257
X15323Y19257
X15323Y18257
X16323Y18257
X16323Y17257
X15323Y17257
X17685Y13351
X18685Y13351
X10417Y11351
X9417Y11351
X9417Y12351
X10417Y12351
X10417Y13351
X9417Y13351
X21228Y13351
X22228Y13351
X22228Y12351
X21228Y12351
T06
X34401Y12277
X37401Y12277
T07
X34425Y23493
X37378Y23493
M30
