G75*
%MOIN*%
%OFA0B0*%
%FSLAX25Y25*%
%IPPOS*%
%LPD*%
%AMOC8*
5,1,8,0,0,1.08239X$1,22.5*
%
%ADD10C,0.00000*%
%ADD11C,0.00572*%
%ADD12R,0.04337X0.04731*%
%ADD13C,0.07400*%
%ADD14R,0.06109X0.01581*%
%ADD15R,0.01581X0.06109*%
%ADD16R,0.03550X0.03943*%
%ADD17R,0.06306X0.05518*%
%ADD18R,0.04731X0.04337*%
%ADD19R,0.07487X0.06699*%
%ADD20R,0.03156X0.04337*%
%ADD21R,0.03156X0.02762*%
%ADD22R,0.07900X0.04700*%
%ADD23R,0.06306X0.09455*%
%ADD24R,0.05124X0.05124*%
%ADD25R,0.01975X0.07290*%
%ADD26R,0.08274X0.08274*%
%ADD27C,0.05550*%
%ADD28OC8,0.10400*%
%ADD29R,0.05400X0.04337*%
%ADD30OC8,0.05600*%
%ADD31C,0.07000*%
%ADD32R,0.05912X0.05912*%
%ADD33R,0.04337X0.05400*%
%ADD34C,0.05156*%
%ADD35R,0.05124X0.02565*%
D10*
X0191692Y0005402D02*
X0526337Y0005402D01*
X0644447Y0123513D02*
X0644413Y0126367D01*
X0644309Y0129219D01*
X0644137Y0132068D01*
X0643896Y0134912D01*
X0643586Y0137750D01*
X0643208Y0140579D01*
X0642761Y0143398D01*
X0642247Y0146205D01*
X0641664Y0148999D01*
X0641015Y0151779D01*
X0640298Y0154541D01*
X0639515Y0157286D01*
X0638666Y0160011D01*
X0637752Y0162715D01*
X0636772Y0165395D01*
X0635727Y0168052D01*
X0634619Y0170682D01*
X0633448Y0173285D01*
X0632214Y0175858D01*
X0630918Y0178401D01*
X0629561Y0180913D01*
X0628144Y0183390D01*
X0626668Y0185833D01*
X0625132Y0188239D01*
X0623540Y0190607D01*
X0621890Y0192936D01*
X0620185Y0195225D01*
X0618424Y0197472D01*
X0616610Y0199675D01*
X0614744Y0201834D01*
X0612825Y0203948D01*
X0610856Y0206014D01*
X0608838Y0208032D01*
X0606772Y0210001D01*
X0604658Y0211920D01*
X0602499Y0213786D01*
X0600296Y0215600D01*
X0598049Y0217361D01*
X0595760Y0219066D01*
X0593431Y0220716D01*
X0591063Y0222308D01*
X0588657Y0223844D01*
X0586214Y0225320D01*
X0583737Y0226737D01*
X0581225Y0228094D01*
X0578682Y0229390D01*
X0576109Y0230624D01*
X0573506Y0231795D01*
X0570876Y0232903D01*
X0568219Y0233948D01*
X0565539Y0234928D01*
X0562835Y0235842D01*
X0560110Y0236691D01*
X0557365Y0237474D01*
X0554603Y0238191D01*
X0551823Y0238840D01*
X0549029Y0239423D01*
X0546222Y0239937D01*
X0543403Y0240384D01*
X0540574Y0240762D01*
X0537736Y0241072D01*
X0534892Y0241313D01*
X0532043Y0241485D01*
X0529191Y0241589D01*
X0526337Y0241623D01*
X0191692Y0241623D01*
X0188838Y0241589D01*
X0185986Y0241485D01*
X0183137Y0241313D01*
X0180293Y0241072D01*
X0177455Y0240762D01*
X0174626Y0240384D01*
X0171807Y0239937D01*
X0169000Y0239423D01*
X0166206Y0238840D01*
X0163426Y0238191D01*
X0160664Y0237474D01*
X0157919Y0236691D01*
X0155194Y0235842D01*
X0152490Y0234928D01*
X0149810Y0233948D01*
X0147153Y0232903D01*
X0144523Y0231795D01*
X0141920Y0230624D01*
X0139347Y0229390D01*
X0136804Y0228094D01*
X0134292Y0226737D01*
X0131815Y0225320D01*
X0129372Y0223844D01*
X0126966Y0222308D01*
X0124598Y0220716D01*
X0122269Y0219066D01*
X0119980Y0217361D01*
X0117733Y0215600D01*
X0115530Y0213786D01*
X0113371Y0211920D01*
X0111257Y0210001D01*
X0109191Y0208032D01*
X0107173Y0206014D01*
X0105204Y0203948D01*
X0103285Y0201834D01*
X0101419Y0199675D01*
X0099605Y0197472D01*
X0097844Y0195225D01*
X0096139Y0192936D01*
X0094489Y0190607D01*
X0092897Y0188239D01*
X0091361Y0185833D01*
X0089885Y0183390D01*
X0088468Y0180913D01*
X0087111Y0178401D01*
X0085815Y0175858D01*
X0084581Y0173285D01*
X0083410Y0170682D01*
X0082302Y0168052D01*
X0081257Y0165395D01*
X0080277Y0162715D01*
X0079363Y0160011D01*
X0078514Y0157286D01*
X0077731Y0154541D01*
X0077014Y0151779D01*
X0076365Y0148999D01*
X0075782Y0146205D01*
X0075268Y0143398D01*
X0074821Y0140579D01*
X0074443Y0137750D01*
X0074133Y0134912D01*
X0073892Y0132068D01*
X0073720Y0129219D01*
X0073616Y0126367D01*
X0073582Y0123513D01*
X0073616Y0120659D01*
X0073720Y0117807D01*
X0073892Y0114958D01*
X0074133Y0112114D01*
X0074443Y0109276D01*
X0074821Y0106447D01*
X0075268Y0103628D01*
X0075782Y0100821D01*
X0076365Y0098027D01*
X0077014Y0095247D01*
X0077731Y0092485D01*
X0078514Y0089740D01*
X0079363Y0087015D01*
X0080277Y0084311D01*
X0081257Y0081631D01*
X0082302Y0078974D01*
X0083410Y0076344D01*
X0084581Y0073741D01*
X0085815Y0071168D01*
X0087111Y0068625D01*
X0088468Y0066113D01*
X0089885Y0063636D01*
X0091361Y0061193D01*
X0092897Y0058787D01*
X0094489Y0056419D01*
X0096139Y0054090D01*
X0097844Y0051801D01*
X0099605Y0049554D01*
X0101419Y0047351D01*
X0103285Y0045192D01*
X0105204Y0043078D01*
X0107173Y0041012D01*
X0109191Y0038994D01*
X0111257Y0037025D01*
X0113371Y0035106D01*
X0115530Y0033240D01*
X0117733Y0031426D01*
X0119980Y0029665D01*
X0122269Y0027960D01*
X0124598Y0026310D01*
X0126966Y0024718D01*
X0129372Y0023182D01*
X0131815Y0021706D01*
X0134292Y0020289D01*
X0136804Y0018932D01*
X0139347Y0017636D01*
X0141920Y0016402D01*
X0144523Y0015231D01*
X0147153Y0014123D01*
X0149810Y0013078D01*
X0152490Y0012098D01*
X0155194Y0011184D01*
X0157919Y0010335D01*
X0160664Y0009552D01*
X0163426Y0008835D01*
X0166206Y0008186D01*
X0169000Y0007603D01*
X0171807Y0007089D01*
X0174626Y0006642D01*
X0177455Y0006264D01*
X0180293Y0005954D01*
X0183137Y0005713D01*
X0185986Y0005541D01*
X0188838Y0005437D01*
X0191692Y0005403D01*
X0526337Y0005403D02*
X0529191Y0005437D01*
X0532043Y0005541D01*
X0534892Y0005713D01*
X0537736Y0005954D01*
X0540574Y0006264D01*
X0543403Y0006642D01*
X0546222Y0007089D01*
X0549029Y0007603D01*
X0551823Y0008186D01*
X0554603Y0008835D01*
X0557365Y0009552D01*
X0560110Y0010335D01*
X0562835Y0011184D01*
X0565539Y0012098D01*
X0568219Y0013078D01*
X0570876Y0014123D01*
X0573506Y0015231D01*
X0576109Y0016402D01*
X0578682Y0017636D01*
X0581225Y0018932D01*
X0583737Y0020289D01*
X0586214Y0021706D01*
X0588657Y0023182D01*
X0591063Y0024718D01*
X0593431Y0026310D01*
X0595760Y0027960D01*
X0598049Y0029665D01*
X0600296Y0031426D01*
X0602499Y0033240D01*
X0604658Y0035106D01*
X0606772Y0037025D01*
X0608838Y0038994D01*
X0610856Y0041012D01*
X0612825Y0043078D01*
X0614744Y0045192D01*
X0616610Y0047351D01*
X0618424Y0049554D01*
X0620185Y0051801D01*
X0621890Y0054090D01*
X0623540Y0056419D01*
X0625132Y0058787D01*
X0626668Y0061193D01*
X0628144Y0063636D01*
X0629561Y0066113D01*
X0630918Y0068625D01*
X0632214Y0071168D01*
X0633448Y0073741D01*
X0634619Y0076344D01*
X0635727Y0078974D01*
X0636772Y0081631D01*
X0637752Y0084311D01*
X0638666Y0087015D01*
X0639515Y0089740D01*
X0640298Y0092485D01*
X0641015Y0095247D01*
X0641664Y0098027D01*
X0642247Y0100821D01*
X0642761Y0103628D01*
X0643208Y0106447D01*
X0643586Y0109276D01*
X0643896Y0112114D01*
X0644137Y0114958D01*
X0644309Y0117807D01*
X0644413Y0120659D01*
X0644447Y0123513D01*
D11*
X0445365Y0085100D02*
X0438057Y0085100D01*
X0445365Y0085100D02*
X0445365Y0083382D01*
X0438057Y0083382D01*
X0438057Y0085100D01*
X0438057Y0083953D02*
X0445365Y0083953D01*
X0445365Y0084524D02*
X0438057Y0084524D01*
X0438057Y0085095D02*
X0445365Y0085095D01*
X0445365Y0082541D02*
X0438057Y0082541D01*
X0445365Y0082541D02*
X0445365Y0080823D01*
X0438057Y0080823D01*
X0438057Y0082541D01*
X0438057Y0081394D02*
X0445365Y0081394D01*
X0445365Y0081965D02*
X0438057Y0081965D01*
X0438057Y0082536D02*
X0445365Y0082536D01*
X0445365Y0079982D02*
X0438057Y0079982D01*
X0445365Y0079982D02*
X0445365Y0078264D01*
X0438057Y0078264D01*
X0438057Y0079982D01*
X0438057Y0078835D02*
X0445365Y0078835D01*
X0445365Y0079406D02*
X0438057Y0079406D01*
X0438057Y0079977D02*
X0445365Y0079977D01*
X0445365Y0077423D02*
X0438057Y0077423D01*
X0445365Y0077423D02*
X0445365Y0075705D01*
X0438057Y0075705D01*
X0438057Y0077423D01*
X0438057Y0076276D02*
X0445365Y0076276D01*
X0445365Y0076847D02*
X0438057Y0076847D01*
X0438057Y0077418D02*
X0445365Y0077418D01*
X0445365Y0074864D02*
X0438057Y0074864D01*
X0445365Y0074864D02*
X0445365Y0073146D01*
X0438057Y0073146D01*
X0438057Y0074864D01*
X0438057Y0073717D02*
X0445365Y0073717D01*
X0445365Y0074288D02*
X0438057Y0074288D01*
X0438057Y0074859D02*
X0445365Y0074859D01*
X0445365Y0072305D02*
X0438057Y0072305D01*
X0445365Y0072305D02*
X0445365Y0070587D01*
X0438057Y0070587D01*
X0438057Y0072305D01*
X0438057Y0071158D02*
X0445365Y0071158D01*
X0445365Y0071729D02*
X0438057Y0071729D01*
X0438057Y0072300D02*
X0445365Y0072300D01*
X0445365Y0069746D02*
X0438057Y0069746D01*
X0445365Y0069746D02*
X0445365Y0068028D01*
X0438057Y0068028D01*
X0438057Y0069746D01*
X0438057Y0068599D02*
X0445365Y0068599D01*
X0445365Y0069170D02*
X0438057Y0069170D01*
X0438057Y0069741D02*
X0445365Y0069741D01*
X0445365Y0067187D02*
X0438057Y0067187D01*
X0445365Y0067187D02*
X0445365Y0065469D01*
X0438057Y0065469D01*
X0438057Y0067187D01*
X0438057Y0066040D02*
X0445365Y0066040D01*
X0445365Y0066611D02*
X0438057Y0066611D01*
X0438057Y0067182D02*
X0445365Y0067182D01*
X0445365Y0056807D02*
X0438057Y0056807D01*
X0438057Y0058525D01*
X0445365Y0058525D01*
X0445365Y0056807D01*
X0445365Y0057378D02*
X0438057Y0057378D01*
X0438057Y0057949D02*
X0445365Y0057949D01*
X0445365Y0058520D02*
X0438057Y0058520D01*
X0438057Y0054248D02*
X0445365Y0054248D01*
X0438057Y0054248D02*
X0438057Y0055966D01*
X0445365Y0055966D01*
X0445365Y0054248D01*
X0445365Y0054819D02*
X0438057Y0054819D01*
X0438057Y0055390D02*
X0445365Y0055390D01*
X0445365Y0055961D02*
X0438057Y0055961D01*
X0438057Y0051689D02*
X0445365Y0051689D01*
X0438057Y0051689D02*
X0438057Y0053407D01*
X0445365Y0053407D01*
X0445365Y0051689D01*
X0445365Y0052260D02*
X0438057Y0052260D01*
X0438057Y0052831D02*
X0445365Y0052831D01*
X0445365Y0053402D02*
X0438057Y0053402D01*
X0438057Y0049130D02*
X0445365Y0049130D01*
X0438057Y0049130D02*
X0438057Y0050848D01*
X0445365Y0050848D01*
X0445365Y0049130D01*
X0445365Y0049701D02*
X0438057Y0049701D01*
X0438057Y0050272D02*
X0445365Y0050272D01*
X0445365Y0050843D02*
X0438057Y0050843D01*
X0438057Y0046571D02*
X0445365Y0046571D01*
X0438057Y0046571D02*
X0438057Y0048289D01*
X0445365Y0048289D01*
X0445365Y0046571D01*
X0445365Y0047142D02*
X0438057Y0047142D01*
X0438057Y0047713D02*
X0445365Y0047713D01*
X0445365Y0048284D02*
X0438057Y0048284D01*
X0438057Y0044012D02*
X0445365Y0044012D01*
X0438057Y0044012D02*
X0438057Y0045730D01*
X0445365Y0045730D01*
X0445365Y0044012D01*
X0445365Y0044583D02*
X0438057Y0044583D01*
X0438057Y0045154D02*
X0445365Y0045154D01*
X0445365Y0045725D02*
X0438057Y0045725D01*
X0438057Y0041453D02*
X0445365Y0041453D01*
X0438057Y0041453D02*
X0438057Y0043171D01*
X0445365Y0043171D01*
X0445365Y0041453D01*
X0445365Y0042024D02*
X0438057Y0042024D01*
X0438057Y0042595D02*
X0445365Y0042595D01*
X0445365Y0043166D02*
X0438057Y0043166D01*
X0438057Y0038894D02*
X0445365Y0038894D01*
X0438057Y0038894D02*
X0438057Y0040612D01*
X0445365Y0040612D01*
X0445365Y0038894D01*
X0445365Y0039465D02*
X0438057Y0039465D01*
X0438057Y0040036D02*
X0445365Y0040036D01*
X0445365Y0040607D02*
X0438057Y0040607D01*
X0417767Y0038894D02*
X0410459Y0038894D01*
X0410459Y0040612D01*
X0417767Y0040612D01*
X0417767Y0038894D01*
X0417767Y0039465D02*
X0410459Y0039465D01*
X0410459Y0040036D02*
X0417767Y0040036D01*
X0417767Y0040607D02*
X0410459Y0040607D01*
X0410459Y0041453D02*
X0417767Y0041453D01*
X0410459Y0041453D02*
X0410459Y0043171D01*
X0417767Y0043171D01*
X0417767Y0041453D01*
X0417767Y0042024D02*
X0410459Y0042024D01*
X0410459Y0042595D02*
X0417767Y0042595D01*
X0417767Y0043166D02*
X0410459Y0043166D01*
X0410459Y0044012D02*
X0417767Y0044012D01*
X0410459Y0044012D02*
X0410459Y0045730D01*
X0417767Y0045730D01*
X0417767Y0044012D01*
X0417767Y0044583D02*
X0410459Y0044583D01*
X0410459Y0045154D02*
X0417767Y0045154D01*
X0417767Y0045725D02*
X0410459Y0045725D01*
X0410459Y0046571D02*
X0417767Y0046571D01*
X0410459Y0046571D02*
X0410459Y0048289D01*
X0417767Y0048289D01*
X0417767Y0046571D01*
X0417767Y0047142D02*
X0410459Y0047142D01*
X0410459Y0047713D02*
X0417767Y0047713D01*
X0417767Y0048284D02*
X0410459Y0048284D01*
X0410459Y0049130D02*
X0417767Y0049130D01*
X0410459Y0049130D02*
X0410459Y0050848D01*
X0417767Y0050848D01*
X0417767Y0049130D01*
X0417767Y0049701D02*
X0410459Y0049701D01*
X0410459Y0050272D02*
X0417767Y0050272D01*
X0417767Y0050843D02*
X0410459Y0050843D01*
X0410459Y0051689D02*
X0417767Y0051689D01*
X0410459Y0051689D02*
X0410459Y0053407D01*
X0417767Y0053407D01*
X0417767Y0051689D01*
X0417767Y0052260D02*
X0410459Y0052260D01*
X0410459Y0052831D02*
X0417767Y0052831D01*
X0417767Y0053402D02*
X0410459Y0053402D01*
X0410459Y0054248D02*
X0417767Y0054248D01*
X0410459Y0054248D02*
X0410459Y0055966D01*
X0417767Y0055966D01*
X0417767Y0054248D01*
X0417767Y0054819D02*
X0410459Y0054819D01*
X0410459Y0055390D02*
X0417767Y0055390D01*
X0417767Y0055961D02*
X0410459Y0055961D01*
X0410459Y0056807D02*
X0417767Y0056807D01*
X0410459Y0056807D02*
X0410459Y0058525D01*
X0417767Y0058525D01*
X0417767Y0056807D01*
X0417767Y0057378D02*
X0410459Y0057378D01*
X0410459Y0057949D02*
X0417767Y0057949D01*
X0417767Y0058520D02*
X0410459Y0058520D01*
X0410459Y0067187D02*
X0417767Y0067187D01*
X0417767Y0065469D01*
X0410459Y0065469D01*
X0410459Y0067187D01*
X0410459Y0066040D02*
X0417767Y0066040D01*
X0417767Y0066611D02*
X0410459Y0066611D01*
X0410459Y0067182D02*
X0417767Y0067182D01*
X0417767Y0069746D02*
X0410459Y0069746D01*
X0417767Y0069746D02*
X0417767Y0068028D01*
X0410459Y0068028D01*
X0410459Y0069746D01*
X0410459Y0068599D02*
X0417767Y0068599D01*
X0417767Y0069170D02*
X0410459Y0069170D01*
X0410459Y0069741D02*
X0417767Y0069741D01*
X0417767Y0072305D02*
X0410459Y0072305D01*
X0417767Y0072305D02*
X0417767Y0070587D01*
X0410459Y0070587D01*
X0410459Y0072305D01*
X0410459Y0071158D02*
X0417767Y0071158D01*
X0417767Y0071729D02*
X0410459Y0071729D01*
X0410459Y0072300D02*
X0417767Y0072300D01*
X0417767Y0074864D02*
X0410459Y0074864D01*
X0417767Y0074864D02*
X0417767Y0073146D01*
X0410459Y0073146D01*
X0410459Y0074864D01*
X0410459Y0073717D02*
X0417767Y0073717D01*
X0417767Y0074288D02*
X0410459Y0074288D01*
X0410459Y0074859D02*
X0417767Y0074859D01*
X0417767Y0077423D02*
X0410459Y0077423D01*
X0417767Y0077423D02*
X0417767Y0075705D01*
X0410459Y0075705D01*
X0410459Y0077423D01*
X0410459Y0076276D02*
X0417767Y0076276D01*
X0417767Y0076847D02*
X0410459Y0076847D01*
X0410459Y0077418D02*
X0417767Y0077418D01*
X0417767Y0079982D02*
X0410459Y0079982D01*
X0417767Y0079982D02*
X0417767Y0078264D01*
X0410459Y0078264D01*
X0410459Y0079982D01*
X0410459Y0078835D02*
X0417767Y0078835D01*
X0417767Y0079406D02*
X0410459Y0079406D01*
X0410459Y0079977D02*
X0417767Y0079977D01*
X0417767Y0082541D02*
X0410459Y0082541D01*
X0417767Y0082541D02*
X0417767Y0080823D01*
X0410459Y0080823D01*
X0410459Y0082541D01*
X0410459Y0081394D02*
X0417767Y0081394D01*
X0417767Y0081965D02*
X0410459Y0081965D01*
X0410459Y0082536D02*
X0417767Y0082536D01*
X0417767Y0085100D02*
X0410459Y0085100D01*
X0417767Y0085100D02*
X0417767Y0083382D01*
X0410459Y0083382D01*
X0410459Y0085100D01*
X0410459Y0083953D02*
X0417767Y0083953D01*
X0417767Y0084524D02*
X0410459Y0084524D01*
X0410459Y0085095D02*
X0417767Y0085095D01*
X0308554Y0085100D02*
X0301246Y0085100D01*
X0308554Y0085100D02*
X0308554Y0083382D01*
X0301246Y0083382D01*
X0301246Y0085100D01*
X0301246Y0083953D02*
X0308554Y0083953D01*
X0308554Y0084524D02*
X0301246Y0084524D01*
X0301246Y0085095D02*
X0308554Y0085095D01*
X0308554Y0082541D02*
X0301246Y0082541D01*
X0308554Y0082541D02*
X0308554Y0080823D01*
X0301246Y0080823D01*
X0301246Y0082541D01*
X0301246Y0081394D02*
X0308554Y0081394D01*
X0308554Y0081965D02*
X0301246Y0081965D01*
X0301246Y0082536D02*
X0308554Y0082536D01*
X0308554Y0079982D02*
X0301246Y0079982D01*
X0308554Y0079982D02*
X0308554Y0078264D01*
X0301246Y0078264D01*
X0301246Y0079982D01*
X0301246Y0078835D02*
X0308554Y0078835D01*
X0308554Y0079406D02*
X0301246Y0079406D01*
X0301246Y0079977D02*
X0308554Y0079977D01*
X0308554Y0077423D02*
X0301246Y0077423D01*
X0308554Y0077423D02*
X0308554Y0075705D01*
X0301246Y0075705D01*
X0301246Y0077423D01*
X0301246Y0076276D02*
X0308554Y0076276D01*
X0308554Y0076847D02*
X0301246Y0076847D01*
X0301246Y0077418D02*
X0308554Y0077418D01*
X0308554Y0074864D02*
X0301246Y0074864D01*
X0308554Y0074864D02*
X0308554Y0073146D01*
X0301246Y0073146D01*
X0301246Y0074864D01*
X0301246Y0073717D02*
X0308554Y0073717D01*
X0308554Y0074288D02*
X0301246Y0074288D01*
X0301246Y0074859D02*
X0308554Y0074859D01*
X0308554Y0072305D02*
X0301246Y0072305D01*
X0308554Y0072305D02*
X0308554Y0070587D01*
X0301246Y0070587D01*
X0301246Y0072305D01*
X0301246Y0071158D02*
X0308554Y0071158D01*
X0308554Y0071729D02*
X0301246Y0071729D01*
X0301246Y0072300D02*
X0308554Y0072300D01*
X0308554Y0069746D02*
X0301246Y0069746D01*
X0308554Y0069746D02*
X0308554Y0068028D01*
X0301246Y0068028D01*
X0301246Y0069746D01*
X0301246Y0068599D02*
X0308554Y0068599D01*
X0308554Y0069170D02*
X0301246Y0069170D01*
X0301246Y0069741D02*
X0308554Y0069741D01*
X0308554Y0067187D02*
X0301246Y0067187D01*
X0308554Y0067187D02*
X0308554Y0065469D01*
X0301246Y0065469D01*
X0301246Y0067187D01*
X0301246Y0066040D02*
X0308554Y0066040D01*
X0308554Y0066611D02*
X0301246Y0066611D01*
X0301246Y0067182D02*
X0308554Y0067182D01*
X0308554Y0056807D02*
X0301246Y0056807D01*
X0301246Y0058525D01*
X0308554Y0058525D01*
X0308554Y0056807D01*
X0308554Y0057378D02*
X0301246Y0057378D01*
X0301246Y0057949D02*
X0308554Y0057949D01*
X0308554Y0058520D02*
X0301246Y0058520D01*
X0301246Y0054248D02*
X0308554Y0054248D01*
X0301246Y0054248D02*
X0301246Y0055966D01*
X0308554Y0055966D01*
X0308554Y0054248D01*
X0308554Y0054819D02*
X0301246Y0054819D01*
X0301246Y0055390D02*
X0308554Y0055390D01*
X0308554Y0055961D02*
X0301246Y0055961D01*
X0301246Y0051689D02*
X0308554Y0051689D01*
X0301246Y0051689D02*
X0301246Y0053407D01*
X0308554Y0053407D01*
X0308554Y0051689D01*
X0308554Y0052260D02*
X0301246Y0052260D01*
X0301246Y0052831D02*
X0308554Y0052831D01*
X0308554Y0053402D02*
X0301246Y0053402D01*
X0301246Y0049130D02*
X0308554Y0049130D01*
X0301246Y0049130D02*
X0301246Y0050848D01*
X0308554Y0050848D01*
X0308554Y0049130D01*
X0308554Y0049701D02*
X0301246Y0049701D01*
X0301246Y0050272D02*
X0308554Y0050272D01*
X0308554Y0050843D02*
X0301246Y0050843D01*
X0301246Y0046571D02*
X0308554Y0046571D01*
X0301246Y0046571D02*
X0301246Y0048289D01*
X0308554Y0048289D01*
X0308554Y0046571D01*
X0308554Y0047142D02*
X0301246Y0047142D01*
X0301246Y0047713D02*
X0308554Y0047713D01*
X0308554Y0048284D02*
X0301246Y0048284D01*
X0301246Y0044012D02*
X0308554Y0044012D01*
X0301246Y0044012D02*
X0301246Y0045730D01*
X0308554Y0045730D01*
X0308554Y0044012D01*
X0308554Y0044583D02*
X0301246Y0044583D01*
X0301246Y0045154D02*
X0308554Y0045154D01*
X0308554Y0045725D02*
X0301246Y0045725D01*
X0301246Y0041453D02*
X0308554Y0041453D01*
X0301246Y0041453D02*
X0301246Y0043171D01*
X0308554Y0043171D01*
X0308554Y0041453D01*
X0308554Y0042024D02*
X0301246Y0042024D01*
X0301246Y0042595D02*
X0308554Y0042595D01*
X0308554Y0043166D02*
X0301246Y0043166D01*
X0301246Y0038894D02*
X0308554Y0038894D01*
X0301246Y0038894D02*
X0301246Y0040612D01*
X0308554Y0040612D01*
X0308554Y0038894D01*
X0308554Y0039465D02*
X0301246Y0039465D01*
X0301246Y0040036D02*
X0308554Y0040036D01*
X0308554Y0040607D02*
X0301246Y0040607D01*
X0280956Y0038894D02*
X0273648Y0038894D01*
X0273648Y0040612D01*
X0280956Y0040612D01*
X0280956Y0038894D01*
X0280956Y0039465D02*
X0273648Y0039465D01*
X0273648Y0040036D02*
X0280956Y0040036D01*
X0280956Y0040607D02*
X0273648Y0040607D01*
X0273648Y0041453D02*
X0280956Y0041453D01*
X0273648Y0041453D02*
X0273648Y0043171D01*
X0280956Y0043171D01*
X0280956Y0041453D01*
X0280956Y0042024D02*
X0273648Y0042024D01*
X0273648Y0042595D02*
X0280956Y0042595D01*
X0280956Y0043166D02*
X0273648Y0043166D01*
X0273648Y0044012D02*
X0280956Y0044012D01*
X0273648Y0044012D02*
X0273648Y0045730D01*
X0280956Y0045730D01*
X0280956Y0044012D01*
X0280956Y0044583D02*
X0273648Y0044583D01*
X0273648Y0045154D02*
X0280956Y0045154D01*
X0280956Y0045725D02*
X0273648Y0045725D01*
X0273648Y0046571D02*
X0280956Y0046571D01*
X0273648Y0046571D02*
X0273648Y0048289D01*
X0280956Y0048289D01*
X0280956Y0046571D01*
X0280956Y0047142D02*
X0273648Y0047142D01*
X0273648Y0047713D02*
X0280956Y0047713D01*
X0280956Y0048284D02*
X0273648Y0048284D01*
X0273648Y0049130D02*
X0280956Y0049130D01*
X0273648Y0049130D02*
X0273648Y0050848D01*
X0280956Y0050848D01*
X0280956Y0049130D01*
X0280956Y0049701D02*
X0273648Y0049701D01*
X0273648Y0050272D02*
X0280956Y0050272D01*
X0280956Y0050843D02*
X0273648Y0050843D01*
X0273648Y0051689D02*
X0280956Y0051689D01*
X0273648Y0051689D02*
X0273648Y0053407D01*
X0280956Y0053407D01*
X0280956Y0051689D01*
X0280956Y0052260D02*
X0273648Y0052260D01*
X0273648Y0052831D02*
X0280956Y0052831D01*
X0280956Y0053402D02*
X0273648Y0053402D01*
X0273648Y0054248D02*
X0280956Y0054248D01*
X0273648Y0054248D02*
X0273648Y0055966D01*
X0280956Y0055966D01*
X0280956Y0054248D01*
X0280956Y0054819D02*
X0273648Y0054819D01*
X0273648Y0055390D02*
X0280956Y0055390D01*
X0280956Y0055961D02*
X0273648Y0055961D01*
X0273648Y0056807D02*
X0280956Y0056807D01*
X0273648Y0056807D02*
X0273648Y0058525D01*
X0280956Y0058525D01*
X0280956Y0056807D01*
X0280956Y0057378D02*
X0273648Y0057378D01*
X0273648Y0057949D02*
X0280956Y0057949D01*
X0280956Y0058520D02*
X0273648Y0058520D01*
X0273648Y0067187D02*
X0280956Y0067187D01*
X0280956Y0065469D01*
X0273648Y0065469D01*
X0273648Y0067187D01*
X0273648Y0066040D02*
X0280956Y0066040D01*
X0280956Y0066611D02*
X0273648Y0066611D01*
X0273648Y0067182D02*
X0280956Y0067182D01*
X0280956Y0069746D02*
X0273648Y0069746D01*
X0280956Y0069746D02*
X0280956Y0068028D01*
X0273648Y0068028D01*
X0273648Y0069746D01*
X0273648Y0068599D02*
X0280956Y0068599D01*
X0280956Y0069170D02*
X0273648Y0069170D01*
X0273648Y0069741D02*
X0280956Y0069741D01*
X0280956Y0072305D02*
X0273648Y0072305D01*
X0280956Y0072305D02*
X0280956Y0070587D01*
X0273648Y0070587D01*
X0273648Y0072305D01*
X0273648Y0071158D02*
X0280956Y0071158D01*
X0280956Y0071729D02*
X0273648Y0071729D01*
X0273648Y0072300D02*
X0280956Y0072300D01*
X0280956Y0074864D02*
X0273648Y0074864D01*
X0280956Y0074864D02*
X0280956Y0073146D01*
X0273648Y0073146D01*
X0273648Y0074864D01*
X0273648Y0073717D02*
X0280956Y0073717D01*
X0280956Y0074288D02*
X0273648Y0074288D01*
X0273648Y0074859D02*
X0280956Y0074859D01*
X0280956Y0077423D02*
X0273648Y0077423D01*
X0280956Y0077423D02*
X0280956Y0075705D01*
X0273648Y0075705D01*
X0273648Y0077423D01*
X0273648Y0076276D02*
X0280956Y0076276D01*
X0280956Y0076847D02*
X0273648Y0076847D01*
X0273648Y0077418D02*
X0280956Y0077418D01*
X0280956Y0079982D02*
X0273648Y0079982D01*
X0280956Y0079982D02*
X0280956Y0078264D01*
X0273648Y0078264D01*
X0273648Y0079982D01*
X0273648Y0078835D02*
X0280956Y0078835D01*
X0280956Y0079406D02*
X0273648Y0079406D01*
X0273648Y0079977D02*
X0280956Y0079977D01*
X0280956Y0082541D02*
X0273648Y0082541D01*
X0280956Y0082541D02*
X0280956Y0080823D01*
X0273648Y0080823D01*
X0273648Y0082541D01*
X0273648Y0081394D02*
X0280956Y0081394D01*
X0280956Y0081965D02*
X0273648Y0081965D01*
X0273648Y0082536D02*
X0280956Y0082536D01*
X0280956Y0085100D02*
X0273648Y0085100D01*
X0280956Y0085100D02*
X0280956Y0083382D01*
X0273648Y0083382D01*
X0273648Y0085100D01*
X0273648Y0083953D02*
X0280956Y0083953D01*
X0280956Y0084524D02*
X0273648Y0084524D01*
X0273648Y0085095D02*
X0280956Y0085095D01*
D12*
X0265191Y0072410D03*
X0265191Y0065717D03*
X0314846Y0059684D03*
X0314846Y0052991D03*
X0406554Y0065781D03*
X0406554Y0072474D03*
X0448581Y0058946D03*
X0448581Y0052253D03*
X0387952Y0087095D03*
X0381259Y0087095D03*
X0336770Y0087095D03*
X0330078Y0087095D03*
X0393463Y0170363D03*
X0393463Y0177056D03*
X0393463Y0182174D03*
X0393463Y0188867D03*
X0384728Y0196485D03*
X0384728Y0203178D03*
X0332440Y0201859D03*
X0325058Y0201859D03*
X0317676Y0201859D03*
X0310294Y0201859D03*
X0310294Y0208552D03*
X0317676Y0208552D03*
X0325058Y0208552D03*
X0332440Y0208552D03*
X0325058Y0214654D03*
X0317676Y0214654D03*
X0310294Y0214654D03*
X0310294Y0221347D03*
X0317676Y0221347D03*
X0325058Y0221347D03*
X0325058Y0195757D03*
X0332440Y0195757D03*
X0332440Y0189064D03*
X0325058Y0189064D03*
X0332440Y0181977D03*
X0332440Y0175284D03*
D13*
X0153227Y0054457D03*
X0163227Y0054457D03*
X0163227Y0064457D03*
X0153227Y0064457D03*
X0153227Y0074457D03*
X0163227Y0074457D03*
X0235904Y0074457D03*
X0245904Y0074457D03*
X0245904Y0064457D03*
X0235904Y0064457D03*
X0235904Y0054457D03*
X0245904Y0054457D03*
X0222282Y0113513D03*
X0212282Y0113513D03*
X0186849Y0113513D03*
X0176849Y0113513D03*
X0176849Y0123513D03*
X0186849Y0123513D03*
X0186849Y0133513D03*
X0176849Y0133513D03*
X0212282Y0133513D03*
X0222282Y0133513D03*
X0222282Y0123513D03*
X0212282Y0123513D03*
X0294959Y0123513D03*
X0304959Y0123513D03*
X0304959Y0133513D03*
X0294959Y0133513D03*
X0294959Y0113513D03*
X0304959Y0113513D03*
X0412637Y0113513D03*
X0422637Y0113513D03*
X0422637Y0123513D03*
X0412637Y0123513D03*
X0412637Y0133513D03*
X0422637Y0133513D03*
X0495314Y0133513D03*
X0505314Y0133513D03*
X0505314Y0123513D03*
X0495314Y0123513D03*
X0495314Y0113513D03*
X0505314Y0113513D03*
X0531180Y0113513D03*
X0541180Y0113513D03*
X0541180Y0123513D03*
X0531180Y0123513D03*
X0531180Y0133513D03*
X0541180Y0133513D03*
X0613857Y0133513D03*
X0623857Y0133513D03*
X0623857Y0123513D03*
X0613857Y0123513D03*
X0613857Y0113513D03*
X0623857Y0113513D03*
X0564369Y0074457D03*
X0554369Y0074457D03*
X0554369Y0064457D03*
X0564369Y0064457D03*
X0564369Y0054457D03*
X0554369Y0054457D03*
X0481692Y0054457D03*
X0471692Y0054457D03*
X0471692Y0064457D03*
X0481692Y0064457D03*
X0481692Y0074457D03*
X0471692Y0074457D03*
X0471692Y0172568D03*
X0481692Y0172568D03*
X0481692Y0182568D03*
X0471692Y0182568D03*
X0471692Y0192568D03*
X0481692Y0192568D03*
X0554369Y0192568D03*
X0564369Y0192568D03*
X0564369Y0182568D03*
X0554369Y0182568D03*
X0554369Y0172568D03*
X0564369Y0172568D03*
X0245904Y0172568D03*
X0235904Y0172568D03*
X0235904Y0182568D03*
X0245904Y0182568D03*
X0245904Y0192568D03*
X0235904Y0192568D03*
X0163227Y0192568D03*
X0153227Y0192568D03*
X0153227Y0182568D03*
X0163227Y0182568D03*
X0163227Y0172568D03*
X0153227Y0172568D03*
X0104172Y0133513D03*
X0094172Y0133513D03*
X0094172Y0123513D03*
X0104172Y0123513D03*
X0104172Y0113513D03*
X0094172Y0113513D03*
D14*
X0342479Y0179615D03*
X0342479Y0181583D03*
X0342479Y0183552D03*
X0342479Y0185520D03*
X0342479Y0187489D03*
X0342479Y0189457D03*
X0342479Y0191426D03*
X0342479Y0193394D03*
X0342479Y0195363D03*
X0342479Y0197331D03*
X0342479Y0199300D03*
X0342597Y0201269D03*
X0375550Y0201269D03*
X0375550Y0199300D03*
X0375550Y0197331D03*
X0375550Y0195363D03*
X0375550Y0193394D03*
X0375550Y0191426D03*
X0375550Y0189457D03*
X0375550Y0187489D03*
X0375550Y0185520D03*
X0375550Y0183552D03*
X0375550Y0181583D03*
X0375550Y0179615D03*
D15*
X0369841Y0173906D03*
X0367873Y0173906D03*
X0365904Y0173906D03*
X0363936Y0173906D03*
X0361967Y0173906D03*
X0359999Y0173906D03*
X0358030Y0173906D03*
X0356062Y0173906D03*
X0354093Y0173906D03*
X0352125Y0173906D03*
X0350156Y0173906D03*
X0348188Y0173906D03*
X0348188Y0206977D03*
X0350156Y0206977D03*
X0352125Y0206977D03*
X0354093Y0206977D03*
X0356062Y0206977D03*
X0358030Y0206977D03*
X0359999Y0206977D03*
X0361967Y0206977D03*
X0363936Y0206977D03*
X0365904Y0206977D03*
X0367873Y0206977D03*
X0369841Y0206977D03*
D16*
X0398461Y0202113D03*
X0398461Y0196113D03*
D17*
X0391618Y0197076D03*
X0391618Y0204556D03*
X0393463Y0228040D03*
X0393463Y0235520D03*
X0418070Y0234536D03*
X0425944Y0234536D03*
X0425944Y0227056D03*
X0418070Y0227056D03*
D18*
X0393463Y0221347D03*
X0393463Y0214654D03*
X0369290Y0214455D03*
X0362597Y0214455D03*
X0364526Y0165343D03*
X0371219Y0165343D03*
X0371219Y0158700D03*
X0364526Y0158700D03*
X0357440Y0158387D03*
X0350747Y0158387D03*
X0348581Y0034930D03*
X0341889Y0034930D03*
X0334802Y0034930D03*
X0328109Y0034930D03*
X0355668Y0034930D03*
X0362361Y0034930D03*
X0369448Y0034930D03*
X0376141Y0034930D03*
X0383227Y0034930D03*
X0389920Y0034930D03*
D19*
X0384123Y0222272D03*
X0384123Y0233296D03*
D20*
X0339054Y0215575D03*
D21*
X0331180Y0214787D03*
X0331180Y0222268D03*
X0339054Y0222268D03*
D22*
X0385511Y0184405D03*
X0385511Y0174805D03*
D23*
X0296269Y0204654D03*
X0296269Y0231032D03*
D24*
X0310294Y0227646D03*
X0317676Y0227646D03*
X0325058Y0227646D03*
X0325058Y0235914D03*
X0317676Y0235914D03*
X0310294Y0235914D03*
D25*
X0353896Y0221839D03*
X0356456Y0221839D03*
X0359015Y0221839D03*
X0361574Y0221839D03*
X0364133Y0221839D03*
D26*
X0373778Y0234930D03*
X0344251Y0234930D03*
D27*
X0349467Y0223001D03*
X0368562Y0223001D03*
D28*
X0374015Y0122774D03*
X0344015Y0122774D03*
D29*
X0381652Y0158158D03*
X0389526Y0161898D03*
X0381652Y0165639D03*
D30*
X0383700Y0021150D03*
X0393385Y0021150D03*
X0403385Y0021150D03*
X0373700Y0021150D03*
X0364015Y0021150D03*
X0354015Y0021150D03*
X0344330Y0021150D03*
X0334330Y0021150D03*
X0324644Y0021150D03*
X0314644Y0021150D03*
D31*
X0208503Y0021150D03*
X0198503Y0021150D03*
X0509300Y0021150D03*
X0519300Y0021150D03*
D32*
X0496810Y0013867D03*
X0496810Y0028434D03*
X0221219Y0028434D03*
X0221219Y0013867D03*
D33*
X0237952Y0017213D03*
X0241692Y0025087D03*
X0234211Y0025087D03*
X0476337Y0025087D03*
X0483818Y0025087D03*
X0480078Y0017213D03*
D34*
X0386515Y0046180D03*
X0365373Y0046180D03*
X0352578Y0046180D03*
X0331436Y0046180D03*
X0331436Y0054054D03*
X0352578Y0054054D03*
X0365373Y0054054D03*
X0386515Y0054054D03*
X0386515Y0061928D03*
X0365373Y0061928D03*
X0352578Y0061928D03*
X0331436Y0061928D03*
X0331436Y0069802D03*
X0331436Y0077676D03*
X0352578Y0077676D03*
X0352578Y0069802D03*
X0365373Y0069802D03*
X0365373Y0077676D03*
X0386515Y0077676D03*
X0386515Y0069802D03*
D35*
X0400156Y0227056D03*
X0400156Y0230796D03*
X0410393Y0227056D03*
X0410393Y0234536D03*
X0400156Y0234536D03*
M02*
