G75*
%MOIN*%
%OFA0B0*%
%FSLAX25Y25*%
%IPPOS*%
%LPD*%
%AMOC8*
5,1,8,0,0,1.08239X$1,22.5*
%
%ADD10C,0.00000*%
%ADD11R,0.01020X0.00030*%
%ADD12R,0.01800X0.00030*%
%ADD13R,0.02310X0.00030*%
%ADD14R,0.02730X0.00030*%
%ADD15R,0.03090X0.00030*%
%ADD16R,0.03450X0.00030*%
%ADD17R,0.03750X0.00030*%
%ADD18R,0.03990X0.00030*%
%ADD19R,0.04260X0.00030*%
%ADD20R,0.04500X0.00030*%
%ADD21R,0.04710X0.00030*%
%ADD22R,0.04950X0.00030*%
%ADD23R,0.05160X0.00030*%
%ADD24R,0.05340X0.00030*%
%ADD25R,0.05550X0.00030*%
%ADD26R,0.05730X0.00030*%
%ADD27R,0.05910X0.00030*%
%ADD28R,0.06090X0.00030*%
%ADD29R,0.06210X0.00030*%
%ADD30R,0.06390X0.00030*%
%ADD31R,0.06570X0.00030*%
%ADD32R,0.06690X0.00030*%
%ADD33R,0.06870X0.00030*%
%ADD34R,0.06990X0.00030*%
%ADD35R,0.07140X0.00030*%
%ADD36R,0.07290X0.00030*%
%ADD37R,0.07410X0.00030*%
%ADD38R,0.07530X0.00030*%
%ADD39R,0.07650X0.00030*%
%ADD40R,0.07770X0.00030*%
%ADD41R,0.07920X0.00030*%
%ADD42R,0.08040X0.00030*%
%ADD43R,0.08160X0.00030*%
%ADD44R,0.08280X0.00030*%
%ADD45R,0.08370X0.00030*%
%ADD46R,0.08490X0.00030*%
%ADD47R,0.08610X0.00030*%
%ADD48R,0.08730X0.00030*%
%ADD49R,0.08850X0.00030*%
%ADD50R,0.08910X0.00030*%
%ADD51R,0.09030X0.00030*%
%ADD52R,0.09150X0.00030*%
%ADD53R,0.09270X0.00030*%
%ADD54R,0.09330X0.00030*%
%ADD55R,0.09450X0.00030*%
%ADD56R,0.09540X0.00030*%
%ADD57R,0.09630X0.00030*%
%ADD58R,0.09750X0.00030*%
%ADD59R,0.09810X0.00030*%
%ADD60R,0.09930X0.00030*%
%ADD61R,0.09990X0.00030*%
%ADD62R,0.10110X0.00030*%
%ADD63R,0.10170X0.00030*%
%ADD64R,0.10290X0.00030*%
%ADD65R,0.10350X0.00030*%
%ADD66R,0.10440X0.00030*%
%ADD67R,0.10530X0.00030*%
%ADD68R,0.10590X0.00030*%
%ADD69R,0.10710X0.00030*%
%ADD70R,0.10770X0.00030*%
%ADD71R,0.10830X0.00030*%
%ADD72R,0.10950X0.00030*%
%ADD73R,0.11010X0.00030*%
%ADD74R,0.11070X0.00030*%
%ADD75R,0.11160X0.00030*%
%ADD76R,0.11250X0.00030*%
%ADD77R,0.11310X0.00030*%
%ADD78R,0.11370X0.00030*%
%ADD79R,0.11430X0.00030*%
%ADD80R,0.11550X0.00030*%
%ADD81R,0.11610X0.00030*%
%ADD82R,0.11670X0.00030*%
%ADD83R,0.11730X0.00030*%
%ADD84R,0.11790X0.00030*%
%ADD85R,0.11910X0.00030*%
%ADD86R,0.11970X0.00030*%
%ADD87R,0.12030X0.00030*%
%ADD88R,0.12090X0.00030*%
%ADD89R,0.12150X0.00030*%
%ADD90R,0.12210X0.00030*%
%ADD91R,0.12270X0.00030*%
%ADD92R,0.12330X0.00030*%
%ADD93R,0.12390X0.00030*%
%ADD94R,0.12450X0.00030*%
%ADD95R,0.12510X0.00030*%
%ADD96R,0.12570X0.00030*%
%ADD97R,0.12630X0.00030*%
%ADD98R,0.12690X0.00030*%
%ADD99R,0.12750X0.00030*%
%ADD100R,0.12810X0.00030*%
%ADD101R,0.12870X0.00030*%
%ADD102R,0.12930X0.00030*%
%ADD103R,0.12990X0.00030*%
%ADD104R,0.13050X0.00030*%
%ADD105R,0.13110X0.00030*%
%ADD106R,0.13170X0.00030*%
%ADD107R,0.13230X0.00030*%
%ADD108R,0.13290X0.00030*%
%ADD109R,0.13350X0.00030*%
%ADD110R,0.13410X0.00030*%
%ADD111R,0.13470X0.00030*%
%ADD112R,0.13530X0.00030*%
%ADD113R,0.13590X0.00030*%
%ADD114R,0.13650X0.00030*%
%ADD115R,0.13710X0.00030*%
%ADD116R,0.13770X0.00030*%
%ADD117R,0.13830X0.00030*%
%ADD118R,0.13890X0.00030*%
%ADD119R,0.13950X0.00030*%
%ADD120R,0.14010X0.00030*%
%ADD121R,0.14070X0.00030*%
%ADD122R,0.14130X0.00030*%
%ADD123R,0.14160X0.00030*%
%ADD124R,0.14190X0.00030*%
%ADD125R,0.14250X0.00030*%
%ADD126R,0.14310X0.00030*%
%ADD127R,0.14370X0.00030*%
%ADD128R,0.14430X0.00030*%
%ADD129R,0.14490X0.00030*%
%ADD130R,0.14550X0.00030*%
%ADD131R,0.14610X0.00030*%
%ADD132R,0.14670X0.00030*%
%ADD133R,0.14700X0.00030*%
%ADD134R,0.14730X0.00030*%
%ADD135R,0.14790X0.00030*%
%ADD136R,0.14850X0.00030*%
%ADD137R,0.14910X0.00030*%
%ADD138R,0.14970X0.00030*%
%ADD139R,0.15030X0.00030*%
%ADD140R,0.15090X0.00030*%
%ADD141R,0.15150X0.00030*%
%ADD142R,0.15210X0.00030*%
%ADD143R,0.15270X0.00030*%
%ADD144R,0.15330X0.00030*%
%ADD145R,0.15390X0.00030*%
%ADD146R,0.15450X0.00030*%
%ADD147R,0.15510X0.00030*%
%ADD148R,0.15570X0.00030*%
%ADD149R,0.15630X0.00030*%
%ADD150R,0.15690X0.00030*%
%ADD151R,0.15750X0.00030*%
%ADD152R,0.15810X0.00030*%
%ADD153R,0.15870X0.00030*%
%ADD154R,0.15930X0.00030*%
%ADD155R,0.01470X0.00030*%
%ADD156R,0.06090X0.00030*%
%ADD157R,0.06060X0.00030*%
%ADD158R,0.01500X0.00030*%
%ADD159R,0.01350X0.00030*%
%ADD160R,0.01260X0.00030*%
%ADD161R,0.05520X0.00030*%
%ADD162R,0.01200X0.00030*%
%ADD163R,0.05430X0.00030*%
%ADD164R,0.05400X0.00030*%
%ADD165R,0.01230X0.00030*%
%ADD166R,0.01170X0.00030*%
%ADD167R,0.05310X0.00030*%
%ADD168R,0.05280X0.00030*%
%ADD169R,0.01140X0.00030*%
%ADD170R,0.05220X0.00030*%
%ADD171R,0.01170X0.00030*%
%ADD172R,0.01110X0.00030*%
%ADD173R,0.05130X0.00030*%
%ADD174R,0.05070X0.00030*%
%ADD175R,0.05070X0.00030*%
%ADD176R,0.01080X0.00030*%
%ADD177R,0.05010X0.00030*%
%ADD178R,0.04980X0.00030*%
%ADD179R,0.01050X0.00030*%
%ADD180R,0.04890X0.00030*%
%ADD181R,0.04830X0.00030*%
%ADD182R,0.04800X0.00030*%
%ADD183R,0.04770X0.00030*%
%ADD184R,0.04740X0.00030*%
%ADD185R,0.04680X0.00030*%
%ADD186R,0.04620X0.00030*%
%ADD187R,0.01020X0.00030*%
%ADD188R,0.04590X0.00030*%
%ADD189R,0.04560X0.00030*%
%ADD190R,0.04530X0.00030*%
%ADD191R,0.04470X0.00030*%
%ADD192R,0.04440X0.00030*%
%ADD193R,0.04410X0.00030*%
%ADD194R,0.04380X0.00030*%
%ADD195R,0.04350X0.00030*%
%ADD196R,0.00030X0.00030*%
%ADD197R,0.04320X0.00030*%
%ADD198R,0.04290X0.00030*%
%ADD199R,0.00990X0.00030*%
%ADD200R,0.00060X0.00030*%
%ADD201R,0.00090X0.00030*%
%ADD202R,0.04230X0.00030*%
%ADD203R,0.00090X0.00030*%
%ADD204R,0.04200X0.00030*%
%ADD205R,0.00990X0.00030*%
%ADD206R,0.00120X0.00030*%
%ADD207R,0.04170X0.00030*%
%ADD208R,0.00120X0.00030*%
%ADD209R,0.00150X0.00030*%
%ADD210R,0.04140X0.00030*%
%ADD211R,0.04110X0.00030*%
%ADD212R,0.00180X0.00030*%
%ADD213R,0.04080X0.00030*%
%ADD214R,0.00210X0.00030*%
%ADD215R,0.04050X0.00030*%
%ADD216R,0.04020X0.00030*%
%ADD217R,0.00240X0.00030*%
%ADD218R,0.04020X0.00030*%
%ADD219R,0.03990X0.00030*%
%ADD220R,0.00270X0.00030*%
%ADD221R,0.03960X0.00030*%
%ADD222R,0.00270X0.00030*%
%ADD223R,0.00300X0.00030*%
%ADD224R,0.03930X0.00030*%
%ADD225R,0.03900X0.00030*%
%ADD226R,0.00330X0.00030*%
%ADD227R,0.00360X0.00030*%
%ADD228R,0.03870X0.00030*%
%ADD229R,0.03840X0.00030*%
%ADD230R,0.03840X0.00030*%
%ADD231R,0.03810X0.00030*%
%ADD232R,0.00390X0.00030*%
%ADD233R,0.03780X0.00030*%
%ADD234R,0.00390X0.00030*%
%ADD235R,0.00420X0.00030*%
%ADD236R,0.00420X0.00030*%
%ADD237R,0.00450X0.00030*%
%ADD238R,0.03720X0.00030*%
%ADD239R,0.00480X0.00030*%
%ADD240R,0.03690X0.00030*%
%ADD241R,0.03660X0.00030*%
%ADD242R,0.03630X0.00030*%
%ADD243R,0.00510X0.00030*%
%ADD244R,0.03600X0.00030*%
%ADD245R,0.00540X0.00030*%
%ADD246R,0.03570X0.00030*%
%ADD247R,0.03540X0.00030*%
%ADD248R,0.00570X0.00030*%
%ADD249R,0.00570X0.00030*%
%ADD250R,0.03510X0.00030*%
%ADD251R,0.00600X0.00030*%
%ADD252R,0.03480X0.00030*%
%ADD253R,0.00630X0.00030*%
%ADD254R,0.00660X0.00030*%
%ADD255R,0.03420X0.00030*%
%ADD256R,0.03390X0.00030*%
%ADD257R,0.03390X0.00030*%
%ADD258R,0.00690X0.00030*%
%ADD259R,0.03360X0.00030*%
%ADD260R,0.00690X0.00030*%
%ADD261R,0.00720X0.00030*%
%ADD262R,0.03330X0.00030*%
%ADD263R,0.00720X0.00030*%
%ADD264R,0.03300X0.00030*%
%ADD265R,0.00750X0.00030*%
%ADD266R,0.03270X0.00030*%
%ADD267R,0.00780X0.00030*%
%ADD268R,0.03240X0.00030*%
%ADD269R,0.03210X0.00030*%
%ADD270R,0.00810X0.00030*%
%ADD271R,0.03180X0.00030*%
%ADD272R,0.00840X0.00030*%
%ADD273R,0.03150X0.00030*%
%ADD274R,0.03120X0.00030*%
%ADD275R,0.00960X0.00030*%
%ADD276R,0.03120X0.00030*%
%ADD277R,0.00240X0.00030*%
%ADD278R,0.03090X0.00030*%
%ADD279R,0.00870X0.00030*%
%ADD280R,0.00870X0.00030*%
%ADD281R,0.03060X0.00030*%
%ADD282R,0.00900X0.00030*%
%ADD283R,0.03030X0.00030*%
%ADD284R,0.03000X0.00030*%
%ADD285R,0.00930X0.00030*%
%ADD286R,0.02970X0.00030*%
%ADD287R,0.02940X0.00030*%
%ADD288R,0.02940X0.00030*%
%ADD289R,0.02910X0.00030*%
%ADD290R,0.02880X0.00030*%
%ADD291R,0.02850X0.00030*%
%ADD292R,0.02820X0.00030*%
%ADD293R,0.02790X0.00030*%
%ADD294R,0.02760X0.00030*%
%ADD295R,0.02700X0.00030*%
%ADD296R,0.02670X0.00030*%
%ADD297R,0.02670X0.00030*%
%ADD298R,0.02640X0.00030*%
%ADD299R,0.02610X0.00030*%
%ADD300R,0.02580X0.00030*%
%ADD301R,0.02550X0.00030*%
%ADD302R,0.02520X0.00030*%
%ADD303R,0.02490X0.00030*%
%ADD304R,0.01290X0.00030*%
%ADD305R,0.02490X0.00030*%
%ADD306R,0.02460X0.00030*%
%ADD307R,0.02430X0.00030*%
%ADD308R,0.01290X0.00030*%
%ADD309R,0.01320X0.00030*%
%ADD310R,0.01320X0.00030*%
%ADD311R,0.02400X0.00030*%
%ADD312R,0.02370X0.00030*%
%ADD313R,0.02340X0.00030*%
%ADD314R,0.01380X0.00030*%
%ADD315R,0.01410X0.00030*%
%ADD316R,0.02280X0.00030*%
%ADD317R,0.01440X0.00030*%
%ADD318R,0.02250X0.00030*%
%ADD319R,0.00540X0.00030*%
%ADD320R,0.02220X0.00030*%
%ADD321R,0.02220X0.00030*%
%ADD322R,0.01470X0.00030*%
%ADD323R,0.02190X0.00030*%
%ADD324R,0.02160X0.00030*%
%ADD325R,0.02130X0.00030*%
%ADD326R,0.01530X0.00030*%
%ADD327R,0.02100X0.00030*%
%ADD328R,0.01560X0.00030*%
%ADD329R,0.02070X0.00030*%
%ADD330R,0.02040X0.00030*%
%ADD331R,0.02040X0.00030*%
%ADD332R,0.01590X0.00030*%
%ADD333R,0.02010X0.00030*%
%ADD334R,0.01590X0.00030*%
%ADD335R,0.01620X0.00030*%
%ADD336R,0.01980X0.00030*%
%ADD337R,0.01620X0.00030*%
%ADD338R,0.01950X0.00030*%
%ADD339R,0.01650X0.00030*%
%ADD340R,0.01920X0.00030*%
%ADD341R,0.01680X0.00030*%
%ADD342R,0.01890X0.00030*%
%ADD343R,0.01860X0.00030*%
%ADD344R,0.01710X0.00030*%
%ADD345R,0.01830X0.00030*%
%ADD346R,0.01740X0.00030*%
%ADD347R,0.01770X0.00030*%
%ADD348R,0.01770X0.00030*%
%ADD349R,0.01890X0.00030*%
%ADD350R,0.01920X0.00030*%
%ADD351R,0.00840X0.00030*%
%ADD352R,0.02070X0.00030*%
%ADD353R,0.01140X0.00030*%
%ADD354R,0.02190X0.00030*%
%ADD355R,0.02370X0.00030*%
%ADD356R,0.02520X0.00030*%
%ADD357R,0.02790X0.00030*%
%ADD358R,0.02820X0.00030*%
%ADD359R,0.02970X0.00030*%
%ADD360R,0.03270X0.00030*%
%ADD361R,0.03420X0.00030*%
%ADD362R,0.03690X0.00030*%
%ADD363R,0.04290X0.00030*%
%ADD364R,0.04650X0.00030*%
%ADD365R,0.04890X0.00030*%
%ADD366R,0.04920X0.00030*%
%ADD367R,0.05040X0.00030*%
%ADD368R,0.05100X0.00030*%
%ADD369R,0.05190X0.00030*%
%ADD370R,0.05250X0.00030*%
%ADD371R,0.05370X0.00030*%
%ADD372R,0.05490X0.00030*%
%ADD373R,0.04170X0.00030*%
%ADD374R,0.05640X0.00030*%
%ADD375R,0.05880X0.00030*%
%ADD376R,0.15360X0.00030*%
%ADD377R,0.14100X0.00030*%
%ADD378R,0.11850X0.00030*%
%ADD379R,0.11490X0.00030*%
%ADD380R,0.11130X0.00030*%
%ADD381R,0.10890X0.00030*%
%ADD382R,0.10650X0.00030*%
%ADD383R,0.10410X0.00030*%
%ADD384R,0.10230X0.00030*%
%ADD385R,0.09900X0.00030*%
%ADD386R,0.09690X0.00030*%
%ADD387R,0.09510X0.00030*%
%ADD388R,0.09210X0.00030*%
%ADD389R,0.08790X0.00030*%
%ADD390R,0.08250X0.00030*%
%ADD391R,0.08130X0.00030*%
%ADD392R,0.08010X0.00030*%
%ADD393R,0.07890X0.00030*%
%ADD394R,0.07260X0.00030*%
%ADD395R,0.07110X0.00030*%
%ADD396R,0.06810X0.00030*%
%ADD397R,0.06510X0.00030*%
%ADD398R,0.06030X0.00030*%
%ADD399R,0.05700X0.00030*%
%ADD400R,0.04470X0.00030*%
%ADD401R,0.00300X0.00050*%
%ADD402R,0.00200X0.00050*%
%ADD403R,0.00250X0.00050*%
%ADD404R,0.00350X0.00050*%
%ADD405R,0.01400X0.00050*%
%ADD406R,0.01700X0.00050*%
%ADD407R,0.01900X0.00050*%
%ADD408R,0.02050X0.00050*%
%ADD409R,0.02150X0.00050*%
%ADD410R,0.00400X0.00050*%
%ADD411R,0.00900X0.00050*%
%ADD412R,0.00450X0.00050*%
%ADD413R,0.00700X0.00050*%
%ADD414R,0.00500X0.00050*%
%ADD415R,0.00600X0.00050*%
%ADD416R,0.00550X0.00050*%
%ADD417R,0.02350X0.00050*%
%ADD418R,0.02300X0.00050*%
%ADD419R,0.02250X0.00050*%
%ADD420R,0.02200X0.00050*%
%ADD421R,0.01650X0.00050*%
%ADD422R,0.01800X0.00050*%
%ADD423R,0.00750X0.00050*%
%ADD424R,0.00650X0.00050*%
%ADD425R,0.00850X0.00050*%
%ADD426R,0.02000X0.00050*%
%ADD427R,0.01750X0.00050*%
%ADD428R,0.01500X0.00050*%
%ADD429R,0.00150X0.00050*%
%ADD430C,0.00600*%
%ADD431R,0.05400X0.02900*%
%ADD432R,0.02900X0.05400*%
%ADD433C,0.07400*%
%ADD434R,0.08274X0.08274*%
%ADD435C,0.05550*%
%ADD436OC8,0.10400*%
%ADD437OC8,0.05600*%
%ADD438C,0.07000*%
%ADD439C,0.05156*%
%ADD440C,0.04731*%
%ADD441R,0.04731X0.04337*%
D10*
X0191692Y0005402D02*
X0526337Y0005402D01*
X0644447Y0123513D02*
X0644413Y0126367D01*
X0644309Y0129219D01*
X0644137Y0132068D01*
X0643896Y0134912D01*
X0643586Y0137750D01*
X0643208Y0140579D01*
X0642761Y0143398D01*
X0642247Y0146205D01*
X0641664Y0148999D01*
X0641015Y0151779D01*
X0640298Y0154541D01*
X0639515Y0157286D01*
X0638666Y0160011D01*
X0637752Y0162715D01*
X0636772Y0165395D01*
X0635727Y0168052D01*
X0634619Y0170682D01*
X0633448Y0173285D01*
X0632214Y0175858D01*
X0630918Y0178401D01*
X0629561Y0180913D01*
X0628144Y0183390D01*
X0626668Y0185833D01*
X0625132Y0188239D01*
X0623540Y0190607D01*
X0621890Y0192936D01*
X0620185Y0195225D01*
X0618424Y0197472D01*
X0616610Y0199675D01*
X0614744Y0201834D01*
X0612825Y0203948D01*
X0610856Y0206014D01*
X0608838Y0208032D01*
X0606772Y0210001D01*
X0604658Y0211920D01*
X0602499Y0213786D01*
X0600296Y0215600D01*
X0598049Y0217361D01*
X0595760Y0219066D01*
X0593431Y0220716D01*
X0591063Y0222308D01*
X0588657Y0223844D01*
X0586214Y0225320D01*
X0583737Y0226737D01*
X0581225Y0228094D01*
X0578682Y0229390D01*
X0576109Y0230624D01*
X0573506Y0231795D01*
X0570876Y0232903D01*
X0568219Y0233948D01*
X0565539Y0234928D01*
X0562835Y0235842D01*
X0560110Y0236691D01*
X0557365Y0237474D01*
X0554603Y0238191D01*
X0551823Y0238840D01*
X0549029Y0239423D01*
X0546222Y0239937D01*
X0543403Y0240384D01*
X0540574Y0240762D01*
X0537736Y0241072D01*
X0534892Y0241313D01*
X0532043Y0241485D01*
X0529191Y0241589D01*
X0526337Y0241623D01*
X0191692Y0241623D01*
X0188838Y0241589D01*
X0185986Y0241485D01*
X0183137Y0241313D01*
X0180293Y0241072D01*
X0177455Y0240762D01*
X0174626Y0240384D01*
X0171807Y0239937D01*
X0169000Y0239423D01*
X0166206Y0238840D01*
X0163426Y0238191D01*
X0160664Y0237474D01*
X0157919Y0236691D01*
X0155194Y0235842D01*
X0152490Y0234928D01*
X0149810Y0233948D01*
X0147153Y0232903D01*
X0144523Y0231795D01*
X0141920Y0230624D01*
X0139347Y0229390D01*
X0136804Y0228094D01*
X0134292Y0226737D01*
X0131815Y0225320D01*
X0129372Y0223844D01*
X0126966Y0222308D01*
X0124598Y0220716D01*
X0122269Y0219066D01*
X0119980Y0217361D01*
X0117733Y0215600D01*
X0115530Y0213786D01*
X0113371Y0211920D01*
X0111257Y0210001D01*
X0109191Y0208032D01*
X0107173Y0206014D01*
X0105204Y0203948D01*
X0103285Y0201834D01*
X0101419Y0199675D01*
X0099605Y0197472D01*
X0097844Y0195225D01*
X0096139Y0192936D01*
X0094489Y0190607D01*
X0092897Y0188239D01*
X0091361Y0185833D01*
X0089885Y0183390D01*
X0088468Y0180913D01*
X0087111Y0178401D01*
X0085815Y0175858D01*
X0084581Y0173285D01*
X0083410Y0170682D01*
X0082302Y0168052D01*
X0081257Y0165395D01*
X0080277Y0162715D01*
X0079363Y0160011D01*
X0078514Y0157286D01*
X0077731Y0154541D01*
X0077014Y0151779D01*
X0076365Y0148999D01*
X0075782Y0146205D01*
X0075268Y0143398D01*
X0074821Y0140579D01*
X0074443Y0137750D01*
X0074133Y0134912D01*
X0073892Y0132068D01*
X0073720Y0129219D01*
X0073616Y0126367D01*
X0073582Y0123513D01*
X0073616Y0120659D01*
X0073720Y0117807D01*
X0073892Y0114958D01*
X0074133Y0112114D01*
X0074443Y0109276D01*
X0074821Y0106447D01*
X0075268Y0103628D01*
X0075782Y0100821D01*
X0076365Y0098027D01*
X0077014Y0095247D01*
X0077731Y0092485D01*
X0078514Y0089740D01*
X0079363Y0087015D01*
X0080277Y0084311D01*
X0081257Y0081631D01*
X0082302Y0078974D01*
X0083410Y0076344D01*
X0084581Y0073741D01*
X0085815Y0071168D01*
X0087111Y0068625D01*
X0088468Y0066113D01*
X0089885Y0063636D01*
X0091361Y0061193D01*
X0092897Y0058787D01*
X0094489Y0056419D01*
X0096139Y0054090D01*
X0097844Y0051801D01*
X0099605Y0049554D01*
X0101419Y0047351D01*
X0103285Y0045192D01*
X0105204Y0043078D01*
X0107173Y0041012D01*
X0109191Y0038994D01*
X0111257Y0037025D01*
X0113371Y0035106D01*
X0115530Y0033240D01*
X0117733Y0031426D01*
X0119980Y0029665D01*
X0122269Y0027960D01*
X0124598Y0026310D01*
X0126966Y0024718D01*
X0129372Y0023182D01*
X0131815Y0021706D01*
X0134292Y0020289D01*
X0136804Y0018932D01*
X0139347Y0017636D01*
X0141920Y0016402D01*
X0144523Y0015231D01*
X0147153Y0014123D01*
X0149810Y0013078D01*
X0152490Y0012098D01*
X0155194Y0011184D01*
X0157919Y0010335D01*
X0160664Y0009552D01*
X0163426Y0008835D01*
X0166206Y0008186D01*
X0169000Y0007603D01*
X0171807Y0007089D01*
X0174626Y0006642D01*
X0177455Y0006264D01*
X0180293Y0005954D01*
X0183137Y0005713D01*
X0185986Y0005541D01*
X0188838Y0005437D01*
X0191692Y0005403D01*
X0526337Y0005403D02*
X0529191Y0005437D01*
X0532043Y0005541D01*
X0534892Y0005713D01*
X0537736Y0005954D01*
X0540574Y0006264D01*
X0543403Y0006642D01*
X0546222Y0007089D01*
X0549029Y0007603D01*
X0551823Y0008186D01*
X0554603Y0008835D01*
X0557365Y0009552D01*
X0560110Y0010335D01*
X0562835Y0011184D01*
X0565539Y0012098D01*
X0568219Y0013078D01*
X0570876Y0014123D01*
X0573506Y0015231D01*
X0576109Y0016402D01*
X0578682Y0017636D01*
X0581225Y0018932D01*
X0583737Y0020289D01*
X0586214Y0021706D01*
X0588657Y0023182D01*
X0591063Y0024718D01*
X0593431Y0026310D01*
X0595760Y0027960D01*
X0598049Y0029665D01*
X0600296Y0031426D01*
X0602499Y0033240D01*
X0604658Y0035106D01*
X0606772Y0037025D01*
X0608838Y0038994D01*
X0610856Y0041012D01*
X0612825Y0043078D01*
X0614744Y0045192D01*
X0616610Y0047351D01*
X0618424Y0049554D01*
X0620185Y0051801D01*
X0621890Y0054090D01*
X0623540Y0056419D01*
X0625132Y0058787D01*
X0626668Y0061193D01*
X0628144Y0063636D01*
X0629561Y0066113D01*
X0630918Y0068625D01*
X0632214Y0071168D01*
X0633448Y0073741D01*
X0634619Y0076344D01*
X0635727Y0078974D01*
X0636772Y0081631D01*
X0637752Y0084311D01*
X0638666Y0087015D01*
X0639515Y0089740D01*
X0640298Y0092485D01*
X0641015Y0095247D01*
X0641664Y0098027D01*
X0642247Y0100821D01*
X0642761Y0103628D01*
X0643208Y0106447D01*
X0643586Y0109276D01*
X0643896Y0112114D01*
X0644137Y0114958D01*
X0644309Y0117807D01*
X0644413Y0120659D01*
X0644447Y0123513D01*
D11*
X0367001Y0130845D03*
X0366971Y0130725D03*
X0366911Y0130545D03*
X0366911Y0130515D03*
X0366851Y0130335D03*
X0366851Y0130305D03*
X0366821Y0130245D03*
X0366821Y0130215D03*
X0366761Y0130065D03*
X0366761Y0130035D03*
X0366701Y0129885D03*
X0366671Y0129825D03*
X0366671Y0129795D03*
X0366611Y0129675D03*
X0366611Y0129645D03*
X0366551Y0129525D03*
X0366551Y0129495D03*
X0366521Y0129465D03*
X0366521Y0129435D03*
X0366461Y0129315D03*
X0362561Y0133095D03*
X0362561Y0133125D03*
X0361301Y0133395D03*
X0361901Y0135675D03*
X0361901Y0135705D03*
X0356111Y0133515D03*
X0356111Y0133485D03*
X0354911Y0133095D03*
X0358721Y0130695D03*
X0358721Y0130665D03*
X0351101Y0129135D03*
X0351071Y0129195D03*
X0351011Y0129285D03*
X0351011Y0129315D03*
X0350951Y0129435D03*
X0350921Y0129495D03*
X0358751Y0123975D03*
X0354101Y0136935D03*
D12*
X0355031Y0132045D03*
X0355031Y0132015D03*
X0352391Y0132135D03*
X0352391Y0132165D03*
X0352391Y0132195D03*
X0358721Y0132195D03*
X0358721Y0132165D03*
X0358721Y0132135D03*
X0358751Y0124005D03*
D13*
X0358736Y0124035D03*
X0362336Y0131325D03*
X0362336Y0131355D03*
X0365066Y0133185D03*
X0365066Y0133215D03*
X0365066Y0133245D03*
X0365066Y0133275D03*
X0365066Y0136515D03*
X0358736Y0133245D03*
X0358736Y0133215D03*
X0355106Y0131355D03*
X0352376Y0133215D03*
X0352376Y0133245D03*
X0353876Y0137475D03*
D14*
X0352376Y0134115D03*
X0358736Y0134115D03*
X0365066Y0134115D03*
X0365066Y0134145D03*
X0365066Y0134085D03*
X0365066Y0134055D03*
X0365066Y0136215D03*
X0365066Y0136245D03*
X0362276Y0130845D03*
X0362276Y0130815D03*
X0355196Y0130845D03*
X0358736Y0124065D03*
X0358736Y0141885D03*
D15*
X0358736Y0141855D03*
X0358736Y0134835D03*
X0358736Y0124095D03*
D16*
X0358736Y0124125D03*
X0355316Y0130065D03*
X0362156Y0130065D03*
X0365066Y0135465D03*
X0365066Y0135495D03*
X0365066Y0135525D03*
X0365066Y0135555D03*
X0365066Y0135645D03*
X0365066Y0135675D03*
X0358736Y0135495D03*
X0352376Y0135495D03*
X0358736Y0141825D03*
D17*
X0358736Y0136005D03*
X0362096Y0129795D03*
X0355346Y0129795D03*
X0358736Y0124155D03*
D18*
X0358736Y0124185D03*
X0358736Y0136365D03*
X0358736Y0141765D03*
D19*
X0358721Y0136725D03*
X0355451Y0129405D03*
X0362021Y0129405D03*
X0358751Y0124215D03*
D20*
X0358751Y0124245D03*
X0355481Y0129255D03*
X0358721Y0136965D03*
X0358721Y0136995D03*
D21*
X0358736Y0137175D03*
X0358736Y0141675D03*
X0358736Y0124275D03*
D22*
X0358736Y0124305D03*
X0355556Y0129045D03*
D23*
X0361901Y0128955D03*
X0358751Y0124335D03*
D24*
X0358751Y0124365D03*
D25*
X0358736Y0124395D03*
X0355556Y0128835D03*
D26*
X0355556Y0128805D03*
X0361886Y0128805D03*
X0358736Y0124425D03*
D27*
X0358736Y0124455D03*
X0358736Y0141495D03*
D28*
X0358736Y0124485D03*
D29*
X0358736Y0124515D03*
X0358736Y0141435D03*
D30*
X0358736Y0141405D03*
X0358736Y0124545D03*
D31*
X0358736Y0124575D03*
D32*
X0358736Y0124605D03*
X0358736Y0141345D03*
D33*
X0358736Y0124635D03*
D34*
X0358736Y0124665D03*
X0358736Y0141285D03*
D35*
X0358751Y0124695D03*
D36*
X0358736Y0124725D03*
D37*
X0358736Y0124755D03*
X0358736Y0141195D03*
D38*
X0358736Y0141165D03*
X0358736Y0124785D03*
D39*
X0358736Y0124815D03*
X0358736Y0141135D03*
D40*
X0358736Y0141105D03*
X0358736Y0124845D03*
D41*
X0358751Y0124875D03*
D42*
X0358751Y0124905D03*
D43*
X0358751Y0124935D03*
D44*
X0358751Y0124965D03*
D45*
X0358736Y0124995D03*
X0358736Y0140955D03*
D46*
X0358736Y0140925D03*
X0358736Y0125025D03*
D47*
X0358736Y0125055D03*
X0358736Y0140895D03*
D48*
X0358736Y0140865D03*
X0358736Y0125085D03*
D49*
X0358736Y0125115D03*
D50*
X0358736Y0125145D03*
X0358736Y0140805D03*
D51*
X0358736Y0140775D03*
X0358736Y0125175D03*
D52*
X0358736Y0125205D03*
X0358736Y0140745D03*
D53*
X0358736Y0125235D03*
D54*
X0358736Y0125265D03*
X0358736Y0140685D03*
D55*
X0358736Y0140655D03*
X0358736Y0125295D03*
D56*
X0358751Y0125325D03*
D57*
X0358736Y0125355D03*
X0358736Y0140595D03*
D58*
X0358736Y0125385D03*
D59*
X0358736Y0125415D03*
X0358736Y0140535D03*
D60*
X0358736Y0125445D03*
D61*
X0358736Y0125475D03*
X0358736Y0140475D03*
D62*
X0358736Y0140445D03*
X0358736Y0125505D03*
D63*
X0358736Y0125535D03*
X0358736Y0140415D03*
D64*
X0358736Y0125565D03*
D65*
X0358736Y0125595D03*
X0358736Y0140355D03*
D66*
X0358751Y0125625D03*
D67*
X0358736Y0125655D03*
X0358736Y0140295D03*
D68*
X0358736Y0140265D03*
X0358736Y0125685D03*
D69*
X0358736Y0125715D03*
D70*
X0358736Y0125745D03*
X0358736Y0140205D03*
D71*
X0358736Y0140175D03*
X0358736Y0125775D03*
D72*
X0358736Y0125805D03*
D73*
X0358736Y0125835D03*
X0358736Y0140115D03*
D74*
X0358736Y0140085D03*
X0358736Y0125865D03*
D75*
X0358751Y0125895D03*
D76*
X0358736Y0125925D03*
X0358736Y0140025D03*
D77*
X0358736Y0139995D03*
X0358736Y0125955D03*
D78*
X0358736Y0125985D03*
X0358736Y0139965D03*
D79*
X0358736Y0139935D03*
X0358736Y0126015D03*
D80*
X0358736Y0126045D03*
D81*
X0358736Y0126075D03*
X0358736Y0139875D03*
D82*
X0358736Y0139845D03*
X0358736Y0126105D03*
D83*
X0358736Y0126135D03*
X0358736Y0139815D03*
D84*
X0358736Y0139785D03*
X0358736Y0126165D03*
D85*
X0358736Y0126195D03*
X0358736Y0139725D03*
D86*
X0358736Y0126225D03*
D87*
X0358736Y0126255D03*
X0358736Y0139695D03*
D88*
X0358736Y0139665D03*
X0358736Y0126285D03*
D89*
X0358736Y0126315D03*
X0358736Y0139635D03*
D90*
X0358736Y0139605D03*
X0358736Y0126345D03*
D91*
X0358736Y0126375D03*
X0358736Y0139575D03*
D92*
X0358736Y0139545D03*
X0358736Y0126405D03*
D93*
X0358736Y0126435D03*
X0358736Y0139515D03*
D94*
X0358736Y0139485D03*
X0358736Y0126465D03*
D95*
X0358736Y0126495D03*
X0358736Y0139455D03*
D96*
X0358736Y0139425D03*
X0358736Y0126525D03*
D97*
X0358736Y0126555D03*
X0358736Y0139395D03*
D98*
X0358736Y0139365D03*
X0358736Y0126585D03*
D99*
X0358736Y0126615D03*
X0358736Y0139335D03*
D100*
X0358736Y0139305D03*
X0358736Y0126645D03*
D101*
X0358736Y0126675D03*
X0358736Y0139275D03*
D102*
X0358736Y0139245D03*
X0358736Y0126705D03*
D103*
X0358736Y0126735D03*
X0358736Y0139215D03*
D104*
X0358736Y0139185D03*
X0358736Y0126765D03*
D105*
X0358736Y0126795D03*
X0358736Y0139155D03*
D106*
X0358736Y0139125D03*
X0358736Y0126825D03*
D107*
X0358736Y0126855D03*
X0358736Y0139095D03*
D108*
X0358736Y0139065D03*
X0358736Y0126885D03*
D109*
X0358736Y0126915D03*
X0358736Y0139035D03*
D110*
X0358736Y0139005D03*
X0358736Y0126945D03*
D111*
X0358736Y0126975D03*
X0358736Y0138945D03*
X0358736Y0138975D03*
D112*
X0358736Y0138915D03*
X0358736Y0127005D03*
D113*
X0358736Y0127035D03*
X0358736Y0127065D03*
X0358736Y0138885D03*
D114*
X0358736Y0138855D03*
X0358736Y0127095D03*
D115*
X0358736Y0127125D03*
X0358736Y0138825D03*
D116*
X0358736Y0138795D03*
X0358736Y0127155D03*
D117*
X0358736Y0127185D03*
X0358736Y0138735D03*
X0358736Y0138765D03*
D118*
X0358736Y0138705D03*
X0358736Y0127245D03*
X0358736Y0127215D03*
D119*
X0358736Y0127275D03*
X0358736Y0138675D03*
D120*
X0358736Y0138645D03*
X0358736Y0127305D03*
D121*
X0358736Y0127335D03*
X0358736Y0138615D03*
D122*
X0358736Y0138555D03*
X0358736Y0127365D03*
D123*
X0358751Y0127395D03*
D124*
X0358736Y0127425D03*
X0358736Y0138525D03*
D125*
X0358736Y0138495D03*
X0358736Y0127455D03*
D126*
X0358736Y0127485D03*
X0358736Y0138435D03*
X0358736Y0138465D03*
D127*
X0358736Y0138405D03*
X0358736Y0127545D03*
X0358736Y0127515D03*
D128*
X0358736Y0127575D03*
X0358736Y0138375D03*
D129*
X0358736Y0138345D03*
X0358736Y0138315D03*
X0358736Y0127605D03*
D130*
X0358736Y0127635D03*
X0358736Y0127665D03*
X0358736Y0138285D03*
D131*
X0358736Y0138255D03*
X0358736Y0127695D03*
D132*
X0358736Y0127725D03*
X0358736Y0138195D03*
X0358736Y0138225D03*
D133*
X0358751Y0127755D03*
D134*
X0358736Y0127785D03*
X0358736Y0138165D03*
D135*
X0358736Y0138135D03*
X0358736Y0138105D03*
X0358736Y0127815D03*
D136*
X0358736Y0127845D03*
X0358736Y0127875D03*
X0358736Y0138075D03*
D137*
X0358736Y0138045D03*
X0358736Y0138015D03*
X0358736Y0127905D03*
D138*
X0358736Y0127935D03*
X0358736Y0127965D03*
X0358736Y0137985D03*
D139*
X0358736Y0137955D03*
X0358736Y0137925D03*
X0358736Y0127995D03*
D140*
X0358736Y0128025D03*
X0358736Y0128055D03*
X0358736Y0137895D03*
D141*
X0358736Y0137865D03*
X0358736Y0137835D03*
X0358736Y0128085D03*
D142*
X0358736Y0128115D03*
X0358736Y0128145D03*
X0358736Y0137805D03*
D143*
X0358736Y0137775D03*
X0358736Y0137745D03*
X0358736Y0128205D03*
X0358736Y0128175D03*
D144*
X0358736Y0128235D03*
X0358736Y0137715D03*
D145*
X0358736Y0137655D03*
X0358736Y0128295D03*
X0358736Y0128265D03*
D146*
X0358736Y0128325D03*
X0358736Y0137625D03*
D147*
X0358736Y0128385D03*
X0358736Y0128355D03*
D148*
X0358736Y0128415D03*
X0358736Y0128445D03*
D149*
X0358736Y0128475D03*
X0358736Y0128505D03*
D150*
X0358736Y0128535D03*
D151*
X0358736Y0128565D03*
X0358736Y0128595D03*
D152*
X0358736Y0128625D03*
X0358736Y0128655D03*
D153*
X0358736Y0128685D03*
X0358736Y0128715D03*
D154*
X0358736Y0128745D03*
D155*
X0365066Y0131475D03*
X0365066Y0131505D03*
X0365066Y0131535D03*
X0365066Y0131565D03*
X0365066Y0136995D03*
X0351506Y0128775D03*
D156*
X0355556Y0128775D03*
D157*
X0361901Y0128775D03*
D158*
X0362471Y0132405D03*
X0362471Y0132435D03*
X0358721Y0131595D03*
X0358721Y0131565D03*
X0358721Y0131535D03*
X0354971Y0132435D03*
X0352391Y0131595D03*
X0352391Y0131565D03*
X0352391Y0131535D03*
X0363431Y0137205D03*
X0365951Y0128775D03*
D159*
X0366056Y0128805D03*
X0365066Y0131235D03*
X0365066Y0131265D03*
X0365066Y0131295D03*
X0365066Y0131325D03*
X0361796Y0134745D03*
X0361826Y0134805D03*
X0361826Y0134835D03*
X0361856Y0134895D03*
X0361886Y0135105D03*
X0363416Y0137145D03*
X0365066Y0137055D03*
X0358736Y0131295D03*
X0358736Y0131265D03*
X0354956Y0132615D03*
X0354956Y0132645D03*
X0355646Y0134775D03*
X0355646Y0134805D03*
X0355616Y0134835D03*
X0355616Y0134865D03*
X0355556Y0135075D03*
X0355556Y0135105D03*
X0355556Y0135135D03*
X0352376Y0131295D03*
X0352376Y0131265D03*
X0351416Y0128805D03*
D160*
X0351371Y0128835D03*
X0352391Y0131085D03*
X0352391Y0131115D03*
X0352391Y0131145D03*
X0354941Y0132735D03*
X0354941Y0132765D03*
X0354941Y0132795D03*
X0355781Y0134415D03*
X0355781Y0134445D03*
X0355751Y0134475D03*
X0355751Y0134505D03*
X0354071Y0137085D03*
X0352391Y0137085D03*
X0351581Y0137505D03*
X0361661Y0134415D03*
X0361661Y0134385D03*
X0361691Y0134445D03*
X0361691Y0134475D03*
X0361901Y0135255D03*
X0361901Y0135285D03*
X0363401Y0137085D03*
X0365891Y0137505D03*
X0358721Y0131145D03*
X0358721Y0131115D03*
X0358721Y0131085D03*
X0366101Y0128835D03*
D161*
X0361901Y0128835D03*
X0358751Y0141555D03*
D162*
X0354071Y0137055D03*
X0355841Y0134265D03*
X0355841Y0134235D03*
X0355871Y0134205D03*
X0355871Y0134175D03*
X0354941Y0132855D03*
X0354941Y0132825D03*
X0352391Y0131025D03*
X0352391Y0130995D03*
X0351311Y0128865D03*
X0358721Y0130995D03*
X0358721Y0131025D03*
X0362531Y0132825D03*
X0362531Y0132855D03*
X0362531Y0132885D03*
X0361571Y0134145D03*
X0361601Y0134205D03*
X0361601Y0134235D03*
X0361901Y0135345D03*
X0361901Y0135375D03*
X0361901Y0135405D03*
X0366191Y0128895D03*
D163*
X0355556Y0128865D03*
D164*
X0361901Y0128865D03*
D165*
X0365066Y0131025D03*
X0365066Y0131055D03*
X0365066Y0131085D03*
X0366146Y0128865D03*
X0362516Y0132765D03*
X0362516Y0132795D03*
X0361616Y0134265D03*
X0361616Y0134295D03*
X0361646Y0134325D03*
X0361646Y0134355D03*
X0361886Y0135315D03*
X0363386Y0137055D03*
X0365066Y0137085D03*
X0355826Y0134325D03*
X0355826Y0134295D03*
X0355796Y0134355D03*
X0355796Y0134385D03*
X0355556Y0135285D03*
X0355556Y0135315D03*
X0355556Y0135345D03*
X0355556Y0135375D03*
X0352376Y0131055D03*
X0358736Y0131055D03*
D166*
X0358736Y0130965D03*
X0358736Y0130935D03*
X0354926Y0132885D03*
X0354926Y0132915D03*
X0355886Y0134115D03*
X0355886Y0134145D03*
X0354086Y0137025D03*
X0352376Y0137115D03*
X0361886Y0135435D03*
X0361586Y0134175D03*
X0361526Y0134025D03*
X0363386Y0137025D03*
X0352376Y0130965D03*
X0352376Y0130935D03*
X0351296Y0128895D03*
D167*
X0355556Y0128895D03*
X0358736Y0141585D03*
D168*
X0361901Y0128895D03*
D169*
X0358721Y0130875D03*
X0358721Y0130905D03*
X0362531Y0132915D03*
X0362531Y0132945D03*
X0361481Y0133905D03*
X0361541Y0134055D03*
X0361901Y0135465D03*
X0361901Y0135495D03*
X0363371Y0136995D03*
X0365981Y0137475D03*
X0355931Y0134025D03*
X0355931Y0133995D03*
X0352391Y0130905D03*
X0352391Y0130875D03*
X0351251Y0128925D03*
X0366251Y0128955D03*
D170*
X0361901Y0128925D03*
X0355571Y0128925D03*
D171*
X0355916Y0134055D03*
X0355916Y0134085D03*
X0355556Y0135405D03*
X0355556Y0135435D03*
X0355556Y0135465D03*
X0361556Y0134115D03*
X0361556Y0134085D03*
X0365066Y0137115D03*
X0365066Y0130995D03*
X0365066Y0130965D03*
X0365066Y0130935D03*
X0365066Y0130905D03*
X0366206Y0128925D03*
D172*
X0366266Y0128985D03*
X0366296Y0129015D03*
X0365066Y0130815D03*
X0365066Y0130845D03*
X0365066Y0130875D03*
X0362546Y0132975D03*
X0362546Y0133005D03*
X0361436Y0133785D03*
X0361466Y0133845D03*
X0361466Y0133875D03*
X0361496Y0133935D03*
X0361886Y0135525D03*
X0365066Y0137145D03*
X0355976Y0133905D03*
X0355976Y0133875D03*
X0356006Y0133845D03*
X0356006Y0133815D03*
X0356006Y0133785D03*
X0354926Y0132975D03*
X0355556Y0135495D03*
X0355556Y0135525D03*
X0355556Y0135555D03*
X0355556Y0135585D03*
X0354086Y0136995D03*
X0351476Y0137475D03*
X0352376Y0130845D03*
X0351206Y0128985D03*
X0351236Y0128955D03*
X0358736Y0130845D03*
D173*
X0355556Y0128955D03*
X0358736Y0141615D03*
D174*
X0355556Y0128985D03*
D175*
X0361886Y0128985D03*
D176*
X0358721Y0130785D03*
X0358721Y0130815D03*
X0361391Y0133635D03*
X0361391Y0133665D03*
X0361421Y0133695D03*
X0361421Y0133725D03*
X0361421Y0133755D03*
X0361451Y0133815D03*
X0361901Y0135555D03*
X0361901Y0135585D03*
X0361901Y0135615D03*
X0363371Y0136965D03*
X0354101Y0136965D03*
X0352391Y0137145D03*
X0354911Y0133035D03*
X0354911Y0133005D03*
X0356051Y0133665D03*
X0356051Y0133695D03*
X0356021Y0133725D03*
X0356021Y0133755D03*
X0352391Y0130815D03*
X0352391Y0130785D03*
X0351161Y0129045D03*
X0351191Y0129015D03*
X0366311Y0129045D03*
X0366311Y0129075D03*
X0366341Y0129105D03*
D177*
X0361886Y0129015D03*
X0355556Y0129015D03*
D178*
X0361901Y0129045D03*
X0358721Y0137355D03*
D179*
X0355556Y0135675D03*
X0355556Y0135645D03*
X0355556Y0135615D03*
X0356066Y0133635D03*
X0356066Y0133605D03*
X0356096Y0133575D03*
X0356096Y0133545D03*
X0354896Y0133065D03*
X0352376Y0130755D03*
X0352376Y0130725D03*
X0351086Y0129165D03*
X0351116Y0129105D03*
X0351146Y0129075D03*
X0358736Y0130725D03*
X0358736Y0130755D03*
X0361346Y0133515D03*
X0361346Y0133545D03*
X0361376Y0133575D03*
X0361376Y0133605D03*
X0362546Y0133065D03*
X0362546Y0133035D03*
X0361886Y0135645D03*
X0363356Y0136935D03*
X0366026Y0137445D03*
X0365066Y0130785D03*
X0365066Y0130755D03*
X0365066Y0130725D03*
X0365066Y0130695D03*
X0366476Y0129345D03*
X0366446Y0129285D03*
X0366416Y0129225D03*
X0366386Y0129195D03*
X0366386Y0129165D03*
X0366356Y0129135D03*
D180*
X0361916Y0129075D03*
X0355556Y0129075D03*
D181*
X0355526Y0129105D03*
X0358736Y0137265D03*
D182*
X0358721Y0137235D03*
X0361931Y0129105D03*
D183*
X0355526Y0129135D03*
D184*
X0361931Y0129135D03*
X0358721Y0137205D03*
D185*
X0358721Y0137145D03*
X0355511Y0129165D03*
X0361931Y0129165D03*
D186*
X0361961Y0129195D03*
X0355511Y0129195D03*
X0358721Y0137085D03*
D187*
X0352391Y0137175D03*
X0351431Y0137445D03*
X0356141Y0133455D03*
X0356141Y0133425D03*
X0352391Y0130695D03*
X0352391Y0130665D03*
X0350741Y0129945D03*
X0350831Y0129705D03*
X0350891Y0129555D03*
X0350981Y0129375D03*
X0350981Y0129345D03*
X0351041Y0129255D03*
X0351041Y0129225D03*
X0361331Y0133455D03*
X0361331Y0133485D03*
X0366941Y0130635D03*
X0366881Y0130425D03*
X0366791Y0130155D03*
X0366791Y0130125D03*
X0366731Y0129975D03*
X0366731Y0129945D03*
X0366641Y0129735D03*
X0366641Y0129705D03*
X0366581Y0129585D03*
X0366581Y0129555D03*
X0366491Y0129405D03*
X0366491Y0129375D03*
X0366431Y0129255D03*
D188*
X0355496Y0129225D03*
D189*
X0361961Y0129225D03*
X0358721Y0137025D03*
X0358721Y0137055D03*
D190*
X0361976Y0129255D03*
D191*
X0355466Y0129285D03*
D192*
X0361991Y0129285D03*
X0358721Y0136905D03*
X0358721Y0136935D03*
D193*
X0355466Y0129315D03*
D194*
X0361991Y0129315D03*
X0358721Y0136845D03*
X0358721Y0136875D03*
D195*
X0358736Y0136815D03*
X0355466Y0129345D03*
X0362006Y0129345D03*
D196*
X0359876Y0129885D03*
X0359846Y0129825D03*
X0358736Y0129375D03*
X0357596Y0129855D03*
X0352376Y0129375D03*
X0350036Y0134445D03*
X0350036Y0134475D03*
X0350516Y0136065D03*
X0354266Y0136065D03*
X0355556Y0136995D03*
X0354746Y0134475D03*
X0354746Y0134445D03*
X0362726Y0134475D03*
X0363176Y0136065D03*
X0366956Y0136065D03*
X0367406Y0134475D03*
X0365066Y0129375D03*
D197*
X0355451Y0129375D03*
X0358721Y0136785D03*
X0353171Y0137595D03*
X0364301Y0137595D03*
D198*
X0362006Y0129375D03*
D199*
X0365066Y0130605D03*
X0365066Y0130635D03*
X0365066Y0130665D03*
X0366776Y0130095D03*
X0366806Y0130185D03*
X0366866Y0130365D03*
X0366866Y0130395D03*
X0366896Y0130455D03*
X0366896Y0130485D03*
X0366926Y0130575D03*
X0366926Y0130605D03*
X0366956Y0130665D03*
X0366956Y0130695D03*
X0367016Y0130875D03*
X0367016Y0130905D03*
X0367016Y0130935D03*
X0367046Y0130995D03*
X0367046Y0131025D03*
X0367046Y0131055D03*
X0367076Y0131115D03*
X0367076Y0131145D03*
X0367076Y0131175D03*
X0367106Y0131265D03*
X0366746Y0130005D03*
X0366716Y0129915D03*
X0366656Y0129765D03*
X0366596Y0129615D03*
X0361256Y0133275D03*
X0361316Y0133425D03*
X0356156Y0133395D03*
X0356156Y0133365D03*
X0354896Y0133155D03*
X0354896Y0133125D03*
X0355556Y0135705D03*
X0355556Y0135735D03*
X0355556Y0135765D03*
X0354116Y0136905D03*
X0363356Y0136905D03*
X0365066Y0137175D03*
X0350396Y0131115D03*
X0350426Y0130995D03*
X0350456Y0130875D03*
X0350516Y0130665D03*
X0350516Y0130635D03*
X0350546Y0130575D03*
X0350546Y0130545D03*
X0350546Y0130515D03*
X0350576Y0130485D03*
X0350576Y0130455D03*
X0350576Y0130425D03*
X0350606Y0130365D03*
X0350606Y0130335D03*
X0350606Y0130305D03*
X0350666Y0130185D03*
X0350666Y0130155D03*
X0350666Y0130125D03*
X0350696Y0130095D03*
X0350696Y0130065D03*
X0350696Y0130035D03*
X0350726Y0130005D03*
X0350726Y0129975D03*
X0350756Y0129915D03*
X0350756Y0129885D03*
X0350816Y0129765D03*
X0350816Y0129735D03*
X0350846Y0129675D03*
X0350846Y0129645D03*
X0350876Y0129615D03*
X0350876Y0129585D03*
X0350906Y0129525D03*
X0350966Y0129405D03*
X0352376Y0130635D03*
D200*
X0352391Y0129405D03*
X0357521Y0129975D03*
X0357551Y0129945D03*
X0357551Y0129915D03*
X0357581Y0129885D03*
X0358721Y0129405D03*
X0359861Y0129855D03*
X0359891Y0129915D03*
X0359921Y0129945D03*
X0365051Y0129405D03*
X0362711Y0134415D03*
X0362711Y0134445D03*
X0363191Y0136095D03*
X0361901Y0136965D03*
X0361901Y0136995D03*
X0366941Y0136095D03*
X0367421Y0134445D03*
X0367421Y0134415D03*
X0354251Y0136095D03*
X0350501Y0136095D03*
D201*
X0350516Y0136125D03*
X0354266Y0136125D03*
X0355556Y0136935D03*
X0355556Y0136965D03*
X0354746Y0134415D03*
X0354746Y0134385D03*
X0363206Y0136125D03*
X0366926Y0136125D03*
X0365066Y0129435D03*
X0359966Y0130035D03*
X0357506Y0130005D03*
X0357476Y0130065D03*
X0352376Y0129435D03*
D202*
X0355436Y0129435D03*
X0358736Y0136695D03*
X0358736Y0141735D03*
X0353096Y0137565D03*
X0364376Y0137565D03*
D203*
X0367436Y0134385D03*
X0359936Y0130005D03*
X0359936Y0129975D03*
X0358736Y0129435D03*
X0350036Y0134385D03*
X0350036Y0134415D03*
D204*
X0358721Y0136635D03*
X0358721Y0136665D03*
X0362021Y0129435D03*
D205*
X0358736Y0130635D03*
X0356186Y0133305D03*
X0356186Y0133335D03*
X0361286Y0133335D03*
X0361286Y0133365D03*
X0361886Y0135735D03*
X0366086Y0137415D03*
X0358736Y0141975D03*
X0366986Y0130815D03*
X0366986Y0130785D03*
X0366986Y0130755D03*
X0366836Y0130275D03*
X0366686Y0129855D03*
X0350936Y0129465D03*
X0350786Y0129795D03*
X0350786Y0129825D03*
X0350786Y0129855D03*
X0350636Y0130215D03*
X0350636Y0130245D03*
X0350636Y0130275D03*
X0350486Y0130755D03*
X0350486Y0130785D03*
D206*
X0352391Y0129465D03*
X0357431Y0130155D03*
X0357491Y0130035D03*
X0359981Y0130065D03*
X0363191Y0136155D03*
X0366941Y0136155D03*
X0350531Y0136155D03*
D207*
X0353036Y0137535D03*
X0358736Y0136605D03*
X0355436Y0129465D03*
X0362036Y0129465D03*
D208*
X0360011Y0130125D03*
X0358721Y0129465D03*
X0357461Y0130095D03*
X0354761Y0134325D03*
X0354761Y0134355D03*
X0354251Y0136155D03*
X0350021Y0134355D03*
X0350021Y0134325D03*
X0361901Y0136905D03*
X0361901Y0136935D03*
X0362711Y0134385D03*
X0362711Y0134355D03*
X0367421Y0134355D03*
D209*
X0367436Y0134325D03*
X0367436Y0134295D03*
X0366926Y0136185D03*
X0366926Y0136215D03*
X0363206Y0136185D03*
X0362696Y0134325D03*
X0362696Y0134295D03*
X0355556Y0136875D03*
X0355556Y0136905D03*
X0354236Y0136185D03*
X0350516Y0136185D03*
X0352376Y0129495D03*
X0357386Y0130245D03*
X0357416Y0130185D03*
X0357446Y0130125D03*
X0358736Y0129495D03*
X0359996Y0130095D03*
X0360026Y0130155D03*
X0360056Y0130215D03*
X0365066Y0129495D03*
X0365066Y0129465D03*
D210*
X0358721Y0136575D03*
X0355421Y0129495D03*
D211*
X0355406Y0129525D03*
X0362036Y0129495D03*
X0358736Y0136545D03*
D212*
X0361901Y0136845D03*
X0361901Y0136875D03*
X0363221Y0136215D03*
X0367451Y0134265D03*
X0360101Y0130305D03*
X0360071Y0130245D03*
X0360041Y0130185D03*
X0358721Y0129525D03*
X0357401Y0130215D03*
X0357371Y0130275D03*
X0357341Y0130335D03*
X0352391Y0129525D03*
X0350021Y0134265D03*
X0350021Y0134295D03*
X0350531Y0136215D03*
X0354251Y0136215D03*
X0354761Y0134295D03*
X0354761Y0134265D03*
D213*
X0358721Y0136485D03*
X0358721Y0136515D03*
X0362051Y0129525D03*
D214*
X0360146Y0130395D03*
X0360116Y0130335D03*
X0360086Y0130275D03*
X0358736Y0129555D03*
X0357356Y0130305D03*
X0357326Y0130365D03*
X0352376Y0129555D03*
X0350006Y0134205D03*
X0350006Y0134235D03*
X0350546Y0136245D03*
X0354236Y0136245D03*
X0355556Y0136815D03*
X0355556Y0136845D03*
X0354776Y0134235D03*
X0354776Y0134205D03*
X0362696Y0134205D03*
X0362696Y0134235D03*
X0362696Y0134265D03*
X0363206Y0136245D03*
X0366926Y0136245D03*
X0367436Y0134235D03*
X0365066Y0129585D03*
X0365066Y0129555D03*
X0365066Y0129525D03*
D215*
X0358736Y0136455D03*
X0355406Y0129555D03*
D216*
X0362051Y0129555D03*
X0358721Y0136395D03*
X0358721Y0136425D03*
D217*
X0361901Y0136785D03*
X0361901Y0136815D03*
X0363221Y0136275D03*
X0362681Y0134175D03*
X0367451Y0134175D03*
X0367451Y0134205D03*
X0360191Y0130485D03*
X0360131Y0130365D03*
X0358721Y0129585D03*
X0357281Y0130455D03*
X0352391Y0129585D03*
X0354221Y0136275D03*
X0352391Y0137355D03*
X0350531Y0136275D03*
D218*
X0355391Y0129585D03*
D219*
X0362066Y0129585D03*
X0362066Y0129615D03*
D220*
X0360236Y0130605D03*
X0358736Y0129615D03*
X0357236Y0130545D03*
X0357236Y0130575D03*
X0352376Y0129615D03*
X0354776Y0134145D03*
X0354776Y0134175D03*
X0354236Y0136305D03*
X0350546Y0136305D03*
X0361886Y0136755D03*
X0363236Y0136305D03*
X0362696Y0134145D03*
X0366896Y0136305D03*
D221*
X0358721Y0136305D03*
X0358721Y0136335D03*
X0355391Y0129615D03*
D222*
X0357266Y0130485D03*
X0357266Y0130515D03*
X0360206Y0130515D03*
X0360206Y0130545D03*
X0365066Y0129645D03*
X0365066Y0129615D03*
X0367466Y0134145D03*
X0365066Y0137355D03*
X0355556Y0136785D03*
X0355556Y0136755D03*
X0350006Y0134175D03*
X0350006Y0134145D03*
D223*
X0349991Y0134115D03*
X0349991Y0134085D03*
X0350561Y0136335D03*
X0354221Y0136335D03*
X0354791Y0134115D03*
X0354791Y0134085D03*
X0361901Y0136725D03*
X0363221Y0136335D03*
X0362681Y0134115D03*
X0362681Y0134085D03*
X0367451Y0134115D03*
X0366911Y0136335D03*
X0360281Y0130695D03*
X0360251Y0130635D03*
X0360221Y0130575D03*
X0358721Y0129675D03*
X0358721Y0129645D03*
X0357221Y0130605D03*
X0357191Y0130635D03*
X0357191Y0130665D03*
X0357161Y0130725D03*
X0352391Y0129675D03*
X0352391Y0129645D03*
D224*
X0355376Y0129645D03*
X0362066Y0129645D03*
X0358736Y0136275D03*
D225*
X0358721Y0136245D03*
X0358721Y0136215D03*
X0355391Y0129675D03*
X0362081Y0129675D03*
D226*
X0360266Y0130665D03*
X0360296Y0130725D03*
X0360296Y0130755D03*
X0360326Y0130785D03*
X0357176Y0130695D03*
X0357146Y0130755D03*
X0365066Y0129705D03*
X0365066Y0129675D03*
X0362666Y0134025D03*
X0362666Y0134055D03*
X0363236Y0136365D03*
X0361886Y0136695D03*
X0366896Y0136365D03*
X0367466Y0134085D03*
X0367466Y0134055D03*
X0355556Y0136665D03*
X0355556Y0136695D03*
X0355556Y0136725D03*
X0354206Y0136365D03*
X0354776Y0134055D03*
X0349976Y0134055D03*
X0350546Y0136365D03*
X0350576Y0136395D03*
X0350606Y0136455D03*
D227*
X0350621Y0136485D03*
X0350591Y0136425D03*
X0349991Y0134025D03*
X0354791Y0134025D03*
X0354791Y0133995D03*
X0354221Y0136395D03*
X0361901Y0136635D03*
X0361901Y0136665D03*
X0363251Y0136395D03*
X0366851Y0136455D03*
X0366881Y0136425D03*
X0366881Y0136395D03*
X0367481Y0134025D03*
X0360371Y0130905D03*
X0360341Y0130845D03*
X0360341Y0130815D03*
X0358721Y0129735D03*
X0358721Y0129705D03*
X0357131Y0130785D03*
X0357131Y0130815D03*
X0357101Y0130845D03*
X0357101Y0130875D03*
X0352391Y0129735D03*
X0352391Y0129705D03*
D228*
X0355376Y0129705D03*
X0358736Y0136185D03*
D229*
X0358721Y0136155D03*
X0358721Y0136125D03*
X0362081Y0129705D03*
D230*
X0355361Y0129735D03*
D231*
X0362096Y0129735D03*
X0358736Y0136095D03*
D232*
X0355556Y0136605D03*
X0355556Y0136635D03*
X0354206Y0136425D03*
X0354806Y0133965D03*
X0349976Y0133965D03*
X0349976Y0133995D03*
X0349976Y0133935D03*
X0350666Y0136545D03*
X0350696Y0136605D03*
X0362666Y0133995D03*
X0362666Y0133965D03*
X0367466Y0133995D03*
X0366806Y0136545D03*
X0365066Y0129795D03*
X0365066Y0129765D03*
X0365066Y0129735D03*
X0360356Y0130875D03*
X0357056Y0130965D03*
X0352376Y0129765D03*
D233*
X0355361Y0129765D03*
X0362111Y0129765D03*
X0358721Y0136035D03*
X0358721Y0136065D03*
D234*
X0363236Y0136425D03*
X0366836Y0136485D03*
X0360386Y0130965D03*
X0360386Y0130935D03*
X0358736Y0129765D03*
X0357086Y0130905D03*
X0357086Y0130935D03*
X0350636Y0136515D03*
D235*
X0350681Y0136575D03*
X0350741Y0136665D03*
X0349991Y0133905D03*
X0349991Y0133875D03*
X0349991Y0133845D03*
X0352391Y0129795D03*
X0357041Y0130995D03*
X0357041Y0131025D03*
X0360431Y0131025D03*
X0360431Y0131055D03*
X0354791Y0133935D03*
X0354191Y0136455D03*
X0366791Y0136575D03*
X0367481Y0133965D03*
X0367481Y0133935D03*
X0367481Y0133905D03*
D236*
X0366821Y0136515D03*
X0366761Y0136605D03*
X0363251Y0136455D03*
X0361901Y0136575D03*
X0361901Y0136605D03*
X0362651Y0133935D03*
X0362651Y0133905D03*
X0360461Y0131115D03*
X0360401Y0130995D03*
X0358721Y0129795D03*
X0357011Y0131055D03*
X0357011Y0131085D03*
X0350711Y0136635D03*
D237*
X0350756Y0136695D03*
X0350786Y0136755D03*
X0352376Y0137325D03*
X0355556Y0136575D03*
X0355556Y0136545D03*
X0355556Y0136515D03*
X0354806Y0133905D03*
X0354806Y0133875D03*
X0356966Y0131205D03*
X0356966Y0131175D03*
X0356996Y0131145D03*
X0356996Y0131115D03*
X0358736Y0129825D03*
X0360446Y0131085D03*
X0360476Y0131145D03*
X0360476Y0131175D03*
X0360506Y0131235D03*
X0365066Y0129855D03*
X0365066Y0129825D03*
X0367466Y0133815D03*
X0367466Y0133845D03*
X0367466Y0133875D03*
X0366746Y0136635D03*
X0366716Y0136665D03*
X0366716Y0136695D03*
X0365066Y0137325D03*
X0363266Y0136485D03*
X0361886Y0136545D03*
X0349976Y0133815D03*
X0352376Y0129825D03*
D238*
X0355361Y0129825D03*
X0362111Y0129825D03*
X0358721Y0135945D03*
X0358721Y0135975D03*
X0358751Y0141795D03*
D239*
X0350831Y0136815D03*
X0350801Y0136785D03*
X0350771Y0136725D03*
X0354191Y0136515D03*
X0354191Y0136485D03*
X0354821Y0133845D03*
X0356921Y0131325D03*
X0356921Y0131295D03*
X0356951Y0131265D03*
X0356951Y0131235D03*
X0358721Y0129885D03*
X0358721Y0129855D03*
X0360491Y0131205D03*
X0360521Y0131265D03*
X0360521Y0131295D03*
X0360551Y0131355D03*
X0362651Y0133845D03*
X0362651Y0133875D03*
X0361901Y0136485D03*
X0361901Y0136515D03*
X0366671Y0136755D03*
X0366701Y0136725D03*
X0367481Y0133785D03*
X0352391Y0129885D03*
X0352391Y0129855D03*
X0349991Y0133695D03*
X0349991Y0133725D03*
X0349991Y0133755D03*
X0349991Y0133785D03*
D240*
X0355346Y0129855D03*
D241*
X0355331Y0129885D03*
X0362111Y0129855D03*
X0358721Y0135855D03*
X0358721Y0135885D03*
D242*
X0358736Y0135825D03*
X0362126Y0129915D03*
X0362126Y0129885D03*
D243*
X0360536Y0131325D03*
X0360566Y0131385D03*
X0358736Y0129915D03*
X0356906Y0131355D03*
X0356876Y0131385D03*
X0356876Y0131415D03*
X0354806Y0133815D03*
X0355556Y0136455D03*
X0355556Y0136485D03*
X0350876Y0136875D03*
X0350846Y0136845D03*
X0363266Y0136545D03*
X0363266Y0136515D03*
X0362636Y0133815D03*
X0362636Y0133785D03*
X0365066Y0129945D03*
X0365066Y0129915D03*
X0365066Y0129885D03*
X0367466Y0133635D03*
X0367466Y0133665D03*
X0367466Y0133695D03*
X0367466Y0133725D03*
X0367466Y0133755D03*
X0366656Y0136785D03*
X0366626Y0136815D03*
X0350006Y0133665D03*
X0350006Y0133635D03*
X0350006Y0133605D03*
X0350006Y0133575D03*
X0352376Y0129915D03*
D244*
X0355331Y0129915D03*
X0355331Y0129945D03*
X0358721Y0135735D03*
X0358721Y0135765D03*
X0358721Y0135795D03*
D245*
X0361901Y0136425D03*
X0361901Y0136455D03*
X0366551Y0136935D03*
X0366581Y0136875D03*
X0367451Y0133605D03*
X0367451Y0133575D03*
X0367451Y0133545D03*
X0367451Y0133515D03*
X0360641Y0131565D03*
X0360581Y0131445D03*
X0360581Y0131415D03*
X0358721Y0129975D03*
X0358721Y0129945D03*
X0356831Y0131505D03*
X0356831Y0131535D03*
X0354821Y0133755D03*
X0354821Y0133785D03*
X0354191Y0136545D03*
X0350921Y0136935D03*
X0350891Y0136905D03*
X0350021Y0133545D03*
X0350021Y0133515D03*
X0350021Y0133485D03*
X0350021Y0133455D03*
X0352391Y0129975D03*
X0352391Y0129945D03*
D246*
X0362126Y0129945D03*
X0358736Y0135705D03*
D247*
X0358721Y0135675D03*
X0358721Y0135645D03*
X0355331Y0129975D03*
X0362141Y0129975D03*
D248*
X0360656Y0131595D03*
X0360656Y0131625D03*
X0356816Y0131595D03*
X0356816Y0131565D03*
X0355556Y0136365D03*
X0355556Y0136395D03*
X0355556Y0136425D03*
X0350966Y0136995D03*
X0363266Y0136575D03*
X0365066Y0137295D03*
X0366506Y0136995D03*
X0366566Y0136905D03*
X0365066Y0130035D03*
X0365066Y0130005D03*
X0365066Y0129975D03*
D249*
X0367436Y0133425D03*
X0367436Y0133455D03*
X0367436Y0133485D03*
X0362636Y0133725D03*
X0362636Y0133755D03*
X0361886Y0136395D03*
X0366536Y0136965D03*
X0360686Y0131685D03*
X0360626Y0131535D03*
X0358736Y0130005D03*
X0356786Y0131625D03*
X0356786Y0131655D03*
X0354836Y0133725D03*
X0354176Y0136575D03*
X0350936Y0136965D03*
X0352376Y0130005D03*
D250*
X0355316Y0130005D03*
X0362156Y0130005D03*
X0365066Y0135585D03*
X0365066Y0135615D03*
X0358736Y0135615D03*
X0352376Y0135615D03*
D251*
X0352391Y0137295D03*
X0351011Y0137055D03*
X0350981Y0137025D03*
X0354161Y0136605D03*
X0354821Y0133695D03*
X0356741Y0131775D03*
X0356741Y0131745D03*
X0356771Y0131715D03*
X0356771Y0131685D03*
X0358721Y0130035D03*
X0360671Y0131655D03*
X0360701Y0131715D03*
X0360701Y0131745D03*
X0360731Y0131805D03*
X0362621Y0133665D03*
X0362621Y0133695D03*
X0361901Y0136335D03*
X0361901Y0136365D03*
X0363281Y0136605D03*
X0367451Y0133395D03*
X0352391Y0130065D03*
X0352391Y0130035D03*
X0350021Y0133305D03*
X0350021Y0133335D03*
X0350021Y0133365D03*
X0350021Y0133395D03*
X0350021Y0133425D03*
D252*
X0352391Y0135525D03*
X0352391Y0135555D03*
X0352391Y0135585D03*
X0352391Y0135645D03*
X0358721Y0135585D03*
X0358721Y0135555D03*
X0358721Y0135525D03*
X0355301Y0130035D03*
X0362141Y0130035D03*
D253*
X0360716Y0131775D03*
X0360746Y0131835D03*
X0360746Y0131865D03*
X0360776Y0131925D03*
X0358736Y0130065D03*
X0356726Y0131805D03*
X0356726Y0131835D03*
X0356696Y0131865D03*
X0356696Y0131895D03*
X0354836Y0133635D03*
X0354836Y0133665D03*
X0355556Y0136275D03*
X0355556Y0136305D03*
X0355556Y0136335D03*
X0354176Y0136635D03*
X0351056Y0137115D03*
X0351026Y0137085D03*
X0361886Y0136305D03*
X0363296Y0136635D03*
X0366446Y0137055D03*
X0366476Y0137025D03*
X0367436Y0133365D03*
X0367436Y0133335D03*
X0367436Y0133305D03*
X0367436Y0133275D03*
X0365066Y0130095D03*
X0365066Y0130065D03*
X0350036Y0133185D03*
X0350036Y0133215D03*
X0350036Y0133245D03*
X0350036Y0133275D03*
D254*
X0350051Y0133155D03*
X0350051Y0133125D03*
X0350051Y0133095D03*
X0350051Y0133065D03*
X0352391Y0130125D03*
X0352391Y0130095D03*
X0354851Y0133605D03*
X0356651Y0132015D03*
X0356651Y0131985D03*
X0356681Y0131955D03*
X0356681Y0131925D03*
X0358721Y0130125D03*
X0358721Y0130095D03*
X0360761Y0131895D03*
X0360791Y0131955D03*
X0360791Y0131985D03*
X0360821Y0132045D03*
X0362621Y0133605D03*
X0362621Y0133635D03*
X0361901Y0136245D03*
X0361901Y0136275D03*
X0366401Y0137115D03*
X0366431Y0137085D03*
X0367421Y0133245D03*
X0367421Y0133215D03*
X0367421Y0133185D03*
X0367421Y0133155D03*
X0354161Y0136665D03*
X0351071Y0137145D03*
D255*
X0358721Y0135465D03*
X0358721Y0135435D03*
X0355301Y0130095D03*
D256*
X0362156Y0130095D03*
X0362156Y0130125D03*
X0365066Y0135375D03*
X0365066Y0135405D03*
X0365066Y0135435D03*
X0365066Y0135705D03*
X0365066Y0135735D03*
X0352376Y0135405D03*
D257*
X0358736Y0135405D03*
X0355286Y0130125D03*
D258*
X0356606Y0132105D03*
X0356606Y0132135D03*
X0355556Y0136185D03*
X0355556Y0136215D03*
X0355556Y0136245D03*
X0354146Y0136695D03*
X0351116Y0137175D03*
X0363296Y0136695D03*
X0363296Y0136665D03*
X0365066Y0137265D03*
X0366356Y0137175D03*
X0367406Y0133125D03*
X0367406Y0133095D03*
X0367406Y0133065D03*
X0367406Y0133035D03*
X0367406Y0133005D03*
X0365066Y0130185D03*
X0365066Y0130155D03*
X0365066Y0130125D03*
X0362606Y0133545D03*
X0362606Y0133575D03*
X0360806Y0132015D03*
X0352376Y0130155D03*
X0350066Y0132945D03*
X0350066Y0132975D03*
X0350066Y0133005D03*
X0350066Y0133035D03*
D259*
X0352391Y0135315D03*
X0352391Y0135345D03*
X0352391Y0135375D03*
X0352391Y0135735D03*
X0358721Y0135375D03*
X0358721Y0135345D03*
X0358721Y0135315D03*
X0365051Y0135345D03*
X0362171Y0130155D03*
X0355301Y0130155D03*
D260*
X0356636Y0132045D03*
X0356636Y0132075D03*
X0354836Y0133575D03*
X0358736Y0130155D03*
X0360836Y0132075D03*
X0360836Y0132105D03*
X0361886Y0136215D03*
X0366386Y0137145D03*
D261*
X0367391Y0132975D03*
X0367391Y0132945D03*
X0367391Y0132915D03*
X0367391Y0132885D03*
X0360881Y0132225D03*
X0360881Y0132195D03*
X0356591Y0132195D03*
X0356591Y0132165D03*
X0352391Y0130215D03*
X0352391Y0130185D03*
X0350081Y0132825D03*
X0350081Y0132855D03*
X0350081Y0132885D03*
X0350081Y0132915D03*
X0351131Y0137205D03*
X0352391Y0137265D03*
D262*
X0352376Y0135765D03*
X0352376Y0135285D03*
X0358736Y0135285D03*
X0365066Y0135285D03*
X0365066Y0135315D03*
X0365066Y0135255D03*
X0365066Y0135765D03*
X0355286Y0130185D03*
D263*
X0356561Y0132225D03*
X0356561Y0132255D03*
X0354851Y0133515D03*
X0354851Y0133545D03*
X0358721Y0130215D03*
X0358721Y0130185D03*
X0360851Y0132135D03*
X0360851Y0132165D03*
X0361901Y0136155D03*
X0361901Y0136185D03*
D264*
X0358721Y0135255D03*
X0358721Y0135225D03*
X0352391Y0135225D03*
X0352391Y0135255D03*
X0352391Y0135195D03*
X0352391Y0135795D03*
X0355271Y0130215D03*
X0362171Y0130215D03*
X0362171Y0130185D03*
D265*
X0360896Y0132255D03*
X0360896Y0132285D03*
X0360926Y0132315D03*
X0360926Y0132345D03*
X0360956Y0132435D03*
X0362606Y0133455D03*
X0362606Y0133485D03*
X0362606Y0133515D03*
X0361886Y0136125D03*
X0363296Y0136725D03*
X0366296Y0137235D03*
X0366326Y0137205D03*
X0367376Y0132855D03*
X0367376Y0132825D03*
X0367376Y0132795D03*
X0367376Y0132765D03*
X0365066Y0130275D03*
X0365066Y0130245D03*
X0365066Y0130215D03*
X0358736Y0130245D03*
X0356546Y0132285D03*
X0356546Y0132315D03*
X0356516Y0132345D03*
X0356516Y0132375D03*
X0354866Y0133455D03*
X0354866Y0133485D03*
X0355556Y0136095D03*
X0355556Y0136125D03*
X0355556Y0136155D03*
X0354146Y0136725D03*
X0351176Y0137235D03*
X0350096Y0132795D03*
X0350096Y0132765D03*
X0350096Y0132735D03*
X0350096Y0132705D03*
X0350096Y0132675D03*
X0352376Y0130245D03*
D266*
X0355286Y0130245D03*
X0362186Y0130245D03*
X0358736Y0135165D03*
X0358736Y0135195D03*
X0352376Y0135165D03*
D267*
X0354131Y0136755D03*
X0351191Y0137265D03*
X0361901Y0136095D03*
X0361901Y0136065D03*
X0363311Y0136755D03*
X0362591Y0133425D03*
X0361001Y0132555D03*
X0360971Y0132495D03*
X0360971Y0132465D03*
X0360941Y0132405D03*
X0360941Y0132375D03*
X0358721Y0130305D03*
X0358721Y0130275D03*
X0356501Y0132405D03*
X0356501Y0132435D03*
X0356471Y0132465D03*
X0356471Y0132495D03*
X0352391Y0130305D03*
X0352391Y0130275D03*
X0350141Y0132435D03*
X0350111Y0132555D03*
X0350111Y0132585D03*
X0350111Y0132615D03*
X0350111Y0132645D03*
X0367361Y0132645D03*
X0367361Y0132675D03*
X0367361Y0132705D03*
X0367361Y0132735D03*
D268*
X0358721Y0135105D03*
X0358721Y0135135D03*
X0352391Y0135135D03*
X0352391Y0135105D03*
X0352391Y0135825D03*
X0352391Y0135855D03*
X0355271Y0130275D03*
D269*
X0355256Y0130305D03*
X0362186Y0130305D03*
X0362186Y0130275D03*
X0365066Y0135015D03*
X0365066Y0135045D03*
X0365066Y0135075D03*
X0365066Y0135105D03*
X0365066Y0135855D03*
X0365066Y0135885D03*
X0358736Y0135075D03*
X0352376Y0135075D03*
X0352376Y0135045D03*
D270*
X0352376Y0137235D03*
X0351236Y0137295D03*
X0355556Y0136065D03*
X0355556Y0136035D03*
X0355556Y0136005D03*
X0354866Y0133425D03*
X0354866Y0133395D03*
X0356426Y0132645D03*
X0356426Y0132615D03*
X0356456Y0132585D03*
X0356456Y0132555D03*
X0356456Y0132525D03*
X0358736Y0130365D03*
X0358736Y0130335D03*
X0360986Y0132525D03*
X0361016Y0132585D03*
X0361016Y0132615D03*
X0361046Y0132675D03*
X0362606Y0133395D03*
X0361886Y0136035D03*
X0363326Y0136785D03*
X0365066Y0137235D03*
X0366236Y0137295D03*
X0366266Y0137265D03*
X0367346Y0132615D03*
X0367346Y0132585D03*
X0367346Y0132555D03*
X0367346Y0132525D03*
X0367316Y0132435D03*
X0367316Y0132405D03*
X0367316Y0132375D03*
X0365066Y0130365D03*
X0365066Y0130335D03*
X0365066Y0130305D03*
X0352376Y0130335D03*
X0350156Y0132315D03*
X0350156Y0132345D03*
X0350156Y0132375D03*
X0350156Y0132405D03*
X0350126Y0132465D03*
X0350126Y0132495D03*
X0350126Y0132525D03*
D271*
X0352391Y0134985D03*
X0352391Y0135015D03*
X0352391Y0135885D03*
X0358721Y0135045D03*
X0358721Y0135015D03*
X0358721Y0134985D03*
X0355271Y0130335D03*
X0362201Y0130335D03*
D272*
X0361031Y0132645D03*
X0361091Y0132795D03*
X0362591Y0133335D03*
X0362591Y0133365D03*
X0361901Y0135975D03*
X0361901Y0136005D03*
X0366191Y0137325D03*
X0367331Y0132495D03*
X0367331Y0132465D03*
X0367301Y0132345D03*
X0367301Y0132315D03*
X0367301Y0132285D03*
X0367301Y0132255D03*
X0365051Y0130395D03*
X0358721Y0130395D03*
X0356381Y0132735D03*
X0356381Y0132765D03*
X0354881Y0133335D03*
X0354881Y0133365D03*
X0352391Y0130425D03*
X0352391Y0130395D03*
X0352391Y0130365D03*
X0350171Y0132195D03*
X0350171Y0132225D03*
X0350171Y0132255D03*
X0350171Y0132285D03*
X0351251Y0137325D03*
X0354131Y0136815D03*
X0354131Y0136785D03*
D273*
X0352376Y0135915D03*
X0352376Y0134955D03*
X0358736Y0134955D03*
X0365066Y0134955D03*
X0365066Y0134985D03*
X0365066Y0134925D03*
X0365066Y0134895D03*
X0365066Y0135915D03*
X0355256Y0130365D03*
D274*
X0362201Y0130365D03*
X0362201Y0130395D03*
X0358721Y0134865D03*
X0358721Y0134895D03*
X0358721Y0134925D03*
D275*
X0356201Y0133275D03*
X0356201Y0133245D03*
X0356231Y0133215D03*
X0356231Y0133185D03*
X0356231Y0133155D03*
X0354881Y0133185D03*
X0355571Y0135795D03*
X0351371Y0137415D03*
X0361901Y0135825D03*
X0361901Y0135795D03*
X0361901Y0135765D03*
X0363341Y0136875D03*
X0362561Y0133185D03*
X0362561Y0133155D03*
X0361271Y0133305D03*
X0361241Y0133245D03*
X0361241Y0133215D03*
X0361211Y0133155D03*
X0358721Y0130605D03*
X0358721Y0130575D03*
X0352391Y0130575D03*
X0352391Y0130605D03*
X0350591Y0130395D03*
X0350531Y0130605D03*
X0350501Y0130695D03*
X0350501Y0130725D03*
X0350471Y0130815D03*
X0350471Y0130845D03*
X0350441Y0130905D03*
X0350441Y0130935D03*
X0350441Y0130965D03*
X0350411Y0131025D03*
X0350411Y0131055D03*
X0350411Y0131085D03*
X0350381Y0131145D03*
X0350381Y0131175D03*
X0350381Y0131205D03*
X0350351Y0131265D03*
X0350351Y0131295D03*
X0350351Y0131325D03*
X0350321Y0131445D03*
X0367031Y0130965D03*
X0367061Y0131085D03*
X0367091Y0131205D03*
X0367091Y0131235D03*
X0367121Y0131295D03*
X0367121Y0131325D03*
X0367121Y0131355D03*
X0367121Y0131385D03*
X0367151Y0131445D03*
X0367151Y0131475D03*
X0367151Y0131505D03*
X0367181Y0131625D03*
D276*
X0355241Y0130395D03*
X0352391Y0134865D03*
X0352391Y0134895D03*
X0352391Y0134925D03*
X0352391Y0135945D03*
D277*
X0357311Y0130425D03*
X0357311Y0130395D03*
X0360161Y0130425D03*
X0360161Y0130455D03*
X0366911Y0136275D03*
D278*
X0365066Y0135975D03*
X0365066Y0135945D03*
X0365066Y0134865D03*
X0365066Y0134835D03*
X0365066Y0134805D03*
X0362216Y0130455D03*
X0362216Y0130425D03*
X0355256Y0130425D03*
X0352376Y0134835D03*
D279*
X0351296Y0137355D03*
X0361886Y0135945D03*
X0363326Y0136815D03*
X0362576Y0133305D03*
X0362576Y0133275D03*
X0361076Y0132765D03*
X0358736Y0130455D03*
X0358736Y0130425D03*
X0356336Y0132855D03*
X0356336Y0132885D03*
X0352376Y0130455D03*
X0350186Y0132075D03*
X0350186Y0132105D03*
X0350186Y0132135D03*
X0350186Y0132165D03*
X0367286Y0132165D03*
X0367286Y0132195D03*
X0367286Y0132225D03*
X0367286Y0132135D03*
D280*
X0367256Y0132045D03*
X0367256Y0132015D03*
X0365066Y0130485D03*
X0365066Y0130455D03*
X0365066Y0130425D03*
X0361106Y0132825D03*
X0361106Y0132855D03*
X0356366Y0132825D03*
X0356366Y0132795D03*
X0354866Y0133305D03*
X0355556Y0135915D03*
X0355556Y0135945D03*
X0355556Y0135975D03*
X0350216Y0132045D03*
X0350216Y0132015D03*
X0350216Y0131985D03*
X0350216Y0131955D03*
D281*
X0352391Y0134745D03*
X0352391Y0134775D03*
X0352391Y0134805D03*
X0352391Y0135975D03*
X0358721Y0134805D03*
X0358721Y0134775D03*
X0358721Y0134745D03*
X0355241Y0130485D03*
X0355241Y0130455D03*
D282*
X0356321Y0132915D03*
X0356321Y0132945D03*
X0356291Y0132975D03*
X0356291Y0133005D03*
X0354881Y0133245D03*
X0354881Y0133275D03*
X0352391Y0130515D03*
X0352391Y0130485D03*
X0350291Y0131595D03*
X0350261Y0131715D03*
X0350261Y0131745D03*
X0350261Y0131775D03*
X0350261Y0131805D03*
X0350231Y0131835D03*
X0350231Y0131865D03*
X0350231Y0131895D03*
X0350231Y0131925D03*
X0358721Y0130515D03*
X0358721Y0130485D03*
X0361121Y0132885D03*
X0361121Y0132915D03*
X0361151Y0132945D03*
X0361151Y0132975D03*
X0361901Y0135885D03*
X0361901Y0135915D03*
X0363341Y0136845D03*
X0366161Y0137355D03*
X0367271Y0132105D03*
X0367271Y0132075D03*
X0367241Y0131985D03*
X0367241Y0131955D03*
X0367241Y0131925D03*
X0367241Y0131895D03*
X0367211Y0131805D03*
X0367211Y0131775D03*
X0354131Y0136845D03*
X0352391Y0137205D03*
X0351341Y0137385D03*
D283*
X0352376Y0136005D03*
X0352376Y0134715D03*
X0358736Y0134715D03*
X0365066Y0134715D03*
X0365066Y0134745D03*
X0365066Y0134775D03*
X0365066Y0134685D03*
X0365066Y0136005D03*
X0362216Y0130485D03*
X0355226Y0130515D03*
D284*
X0362231Y0130515D03*
X0362231Y0130545D03*
X0358721Y0134625D03*
X0358721Y0134655D03*
X0358721Y0134685D03*
X0352391Y0134685D03*
X0352391Y0134655D03*
X0352391Y0134625D03*
X0352391Y0136035D03*
D285*
X0354116Y0136875D03*
X0355556Y0135885D03*
X0355556Y0135855D03*
X0355556Y0135825D03*
X0354896Y0133215D03*
X0356246Y0133125D03*
X0356246Y0133095D03*
X0356276Y0133065D03*
X0356276Y0133035D03*
X0358736Y0130545D03*
X0361166Y0133005D03*
X0361166Y0133035D03*
X0361196Y0133065D03*
X0361196Y0133095D03*
X0361196Y0133125D03*
X0361226Y0133185D03*
X0362576Y0133215D03*
X0362576Y0133245D03*
X0361886Y0135855D03*
X0365066Y0137205D03*
X0366116Y0137385D03*
X0367226Y0131865D03*
X0367226Y0131835D03*
X0367196Y0131745D03*
X0367196Y0131715D03*
X0367196Y0131685D03*
X0367196Y0131655D03*
X0367166Y0131595D03*
X0367166Y0131565D03*
X0367166Y0131535D03*
X0367136Y0131415D03*
X0365066Y0130575D03*
X0365066Y0130545D03*
X0365066Y0130515D03*
X0352376Y0130545D03*
X0350366Y0131235D03*
X0350336Y0131355D03*
X0350336Y0131385D03*
X0350336Y0131415D03*
X0350306Y0131475D03*
X0350306Y0131505D03*
X0350306Y0131535D03*
X0350306Y0131565D03*
X0350276Y0131625D03*
X0350276Y0131655D03*
X0350276Y0131685D03*
D286*
X0352376Y0134595D03*
X0358736Y0134595D03*
X0355226Y0130575D03*
X0355226Y0130545D03*
D287*
X0362231Y0130575D03*
X0362231Y0130605D03*
X0358721Y0134505D03*
X0358721Y0134535D03*
X0358721Y0134565D03*
X0352391Y0134565D03*
X0352391Y0134535D03*
X0352391Y0134505D03*
X0352391Y0136065D03*
D288*
X0355211Y0130605D03*
D289*
X0355226Y0130635D03*
X0362246Y0130635D03*
X0365066Y0134445D03*
X0365066Y0134475D03*
X0365066Y0134505D03*
X0365066Y0134535D03*
X0365066Y0136095D03*
X0358736Y0134475D03*
X0352376Y0134475D03*
X0352376Y0136095D03*
D290*
X0352391Y0136125D03*
X0352391Y0134445D03*
X0352391Y0134415D03*
X0352391Y0134385D03*
X0358721Y0134385D03*
X0358721Y0134415D03*
X0358721Y0134445D03*
X0365081Y0136125D03*
X0355211Y0130665D03*
D291*
X0355196Y0130695D03*
X0362246Y0130695D03*
X0362246Y0130665D03*
X0365066Y0134325D03*
X0365066Y0134355D03*
X0365066Y0134385D03*
X0365066Y0134415D03*
X0365066Y0136155D03*
X0358736Y0134355D03*
X0352376Y0134355D03*
D292*
X0358721Y0134325D03*
X0358721Y0134295D03*
X0358721Y0134265D03*
X0365051Y0134295D03*
X0362261Y0130755D03*
X0362261Y0130725D03*
X0355211Y0130725D03*
D293*
X0355196Y0130755D03*
X0355196Y0130785D03*
X0352376Y0134235D03*
X0352376Y0136185D03*
X0365066Y0136185D03*
X0365066Y0134265D03*
X0365066Y0134235D03*
X0365066Y0134205D03*
X0365066Y0134175D03*
D294*
X0358721Y0134175D03*
X0358721Y0134205D03*
X0358721Y0134145D03*
X0352391Y0134145D03*
X0352391Y0134175D03*
X0352391Y0134205D03*
X0352391Y0136215D03*
X0355181Y0130815D03*
X0362261Y0130785D03*
D295*
X0355181Y0130875D03*
X0352391Y0134025D03*
X0352391Y0134055D03*
X0352391Y0134085D03*
X0352391Y0136245D03*
X0358721Y0134085D03*
X0358721Y0134055D03*
X0358721Y0134025D03*
D296*
X0358736Y0133995D03*
X0358736Y0133965D03*
X0352376Y0133965D03*
X0352376Y0133995D03*
X0352376Y0136275D03*
X0362276Y0130905D03*
X0362276Y0130875D03*
D297*
X0355166Y0130905D03*
X0365066Y0133935D03*
X0365066Y0133965D03*
X0365066Y0133995D03*
X0365066Y0134025D03*
X0365066Y0136275D03*
D298*
X0358721Y0133935D03*
X0358721Y0133905D03*
X0352391Y0133905D03*
X0352391Y0133935D03*
X0352391Y0136305D03*
X0355181Y0130935D03*
X0362291Y0130935D03*
X0362291Y0130965D03*
D299*
X0365066Y0133815D03*
X0365066Y0133845D03*
X0365066Y0133875D03*
X0365066Y0133905D03*
X0365066Y0136305D03*
X0365066Y0136335D03*
X0358736Y0133875D03*
X0358736Y0133845D03*
X0355166Y0130995D03*
X0355166Y0130965D03*
X0352376Y0133845D03*
X0352376Y0133875D03*
D300*
X0352391Y0133815D03*
X0352391Y0133785D03*
X0352391Y0133755D03*
X0352391Y0136335D03*
X0358721Y0133815D03*
X0358721Y0133785D03*
X0355151Y0131025D03*
X0362291Y0131025D03*
X0362291Y0130995D03*
D301*
X0362306Y0131055D03*
X0365066Y0133695D03*
X0365066Y0133725D03*
X0365066Y0133755D03*
X0365066Y0133785D03*
X0365066Y0136365D03*
X0358736Y0133755D03*
X0358736Y0133725D03*
X0355166Y0131055D03*
X0352376Y0133725D03*
X0352376Y0136365D03*
D302*
X0355151Y0131115D03*
X0355151Y0131085D03*
X0358721Y0133635D03*
X0358721Y0133665D03*
X0358721Y0133695D03*
D303*
X0362306Y0131115D03*
X0362306Y0131085D03*
X0365066Y0133575D03*
X0365066Y0133605D03*
X0365066Y0133635D03*
X0365066Y0133665D03*
X0365066Y0136395D03*
X0363626Y0137505D03*
X0353816Y0137505D03*
X0352376Y0133605D03*
D304*
X0352376Y0131175D03*
X0354956Y0132705D03*
X0355706Y0134595D03*
X0355706Y0134625D03*
X0355556Y0135165D03*
X0355556Y0135195D03*
X0355556Y0135225D03*
X0355556Y0135255D03*
X0361706Y0134535D03*
X0361706Y0134505D03*
X0362516Y0132735D03*
X0362516Y0132705D03*
X0365066Y0131205D03*
X0365066Y0131175D03*
X0365066Y0131145D03*
X0365066Y0131115D03*
D305*
X0358736Y0133605D03*
X0355136Y0131145D03*
D306*
X0352391Y0133515D03*
X0352391Y0133545D03*
X0352391Y0133575D03*
X0352391Y0136425D03*
X0358721Y0133575D03*
X0358721Y0133545D03*
X0358721Y0133515D03*
X0362321Y0131175D03*
X0362321Y0131145D03*
X0365081Y0136425D03*
D307*
X0365066Y0136455D03*
X0365066Y0133545D03*
X0365066Y0133515D03*
X0365066Y0133485D03*
X0365066Y0133455D03*
X0365066Y0133425D03*
X0358736Y0133485D03*
X0355136Y0131205D03*
X0355136Y0131175D03*
X0352376Y0133485D03*
D308*
X0355736Y0134535D03*
X0355736Y0134565D03*
X0358736Y0131175D03*
X0361736Y0134565D03*
X0361736Y0134595D03*
X0361886Y0135225D03*
D309*
X0361781Y0134715D03*
X0361781Y0134685D03*
X0355691Y0134685D03*
X0355691Y0134655D03*
X0354941Y0132675D03*
X0352391Y0131235D03*
X0352391Y0131205D03*
X0352391Y0137055D03*
X0354041Y0137115D03*
D310*
X0355661Y0134745D03*
X0355661Y0134715D03*
X0358721Y0131235D03*
X0358721Y0131205D03*
X0362501Y0132645D03*
X0362501Y0132675D03*
X0361751Y0134625D03*
X0361751Y0134655D03*
X0361811Y0134775D03*
X0361901Y0135135D03*
X0361901Y0135165D03*
X0361901Y0135195D03*
X0363401Y0137115D03*
D311*
X0352391Y0136455D03*
X0352391Y0133455D03*
X0352391Y0133425D03*
X0352391Y0133395D03*
X0355121Y0131235D03*
X0358721Y0133395D03*
X0358721Y0133425D03*
X0358721Y0133455D03*
X0362321Y0131235D03*
X0362321Y0131205D03*
D312*
X0362336Y0131265D03*
X0362336Y0131295D03*
X0358736Y0133335D03*
X0358736Y0133365D03*
X0355136Y0131265D03*
X0352376Y0133365D03*
X0352376Y0136485D03*
D313*
X0352391Y0136515D03*
X0352391Y0133335D03*
X0352391Y0133305D03*
X0352391Y0133275D03*
X0355121Y0131325D03*
X0355121Y0131295D03*
X0358721Y0133275D03*
X0358721Y0133305D03*
D314*
X0358721Y0131355D03*
X0358721Y0131325D03*
X0354971Y0132585D03*
X0355601Y0134895D03*
X0355601Y0134925D03*
X0355571Y0134955D03*
X0355571Y0134985D03*
X0354041Y0137145D03*
X0352391Y0137025D03*
X0361841Y0134865D03*
X0361871Y0134925D03*
X0361871Y0134955D03*
X0361901Y0135015D03*
X0361901Y0135045D03*
X0361901Y0135075D03*
X0362501Y0132615D03*
X0362501Y0132585D03*
X0352391Y0131355D03*
X0352391Y0131325D03*
D315*
X0352376Y0131385D03*
X0354956Y0132555D03*
X0355556Y0135015D03*
X0355556Y0135045D03*
X0354026Y0137175D03*
X0361886Y0134985D03*
X0362486Y0132555D03*
X0362486Y0132525D03*
X0365066Y0131445D03*
X0365066Y0131415D03*
X0365066Y0131385D03*
X0365066Y0131355D03*
X0358736Y0131385D03*
X0358736Y0131415D03*
X0363416Y0137175D03*
X0365066Y0137025D03*
D316*
X0365081Y0136545D03*
X0363581Y0137475D03*
X0358751Y0141915D03*
X0352391Y0136545D03*
X0352391Y0133185D03*
X0352391Y0133155D03*
X0352391Y0133125D03*
X0355121Y0131385D03*
X0358721Y0133155D03*
X0358721Y0133185D03*
X0362351Y0131415D03*
X0362351Y0131385D03*
D317*
X0358721Y0131445D03*
X0358721Y0131475D03*
X0354971Y0132495D03*
X0354971Y0132525D03*
X0352391Y0131475D03*
X0352391Y0131445D03*
X0352391Y0131415D03*
X0352391Y0136995D03*
D318*
X0352376Y0133095D03*
X0355106Y0131445D03*
X0355106Y0131415D03*
X0358736Y0133095D03*
X0358736Y0133125D03*
X0365066Y0133125D03*
X0365066Y0133155D03*
X0365066Y0133095D03*
X0365066Y0133065D03*
X0365066Y0136575D03*
D319*
X0366611Y0136845D03*
X0360611Y0131505D03*
X0360611Y0131475D03*
X0356861Y0131475D03*
X0356861Y0131445D03*
D320*
X0358721Y0133005D03*
X0358721Y0133035D03*
X0358721Y0133065D03*
X0362351Y0131475D03*
X0362351Y0131445D03*
D321*
X0355091Y0131475D03*
X0352391Y0133005D03*
X0352391Y0133035D03*
X0352391Y0133065D03*
X0352391Y0136575D03*
D322*
X0354026Y0137205D03*
X0354986Y0132465D03*
X0352376Y0131505D03*
X0358736Y0131505D03*
X0362486Y0132465D03*
X0362486Y0132495D03*
D323*
X0362366Y0131535D03*
X0362366Y0131505D03*
X0365066Y0132945D03*
X0365066Y0132975D03*
X0365066Y0133005D03*
X0365066Y0133035D03*
X0365066Y0136605D03*
X0355106Y0131505D03*
X0352376Y0132975D03*
X0352376Y0136605D03*
D324*
X0352391Y0132945D03*
X0352391Y0132915D03*
X0352391Y0132885D03*
X0355091Y0131565D03*
X0355091Y0131535D03*
X0358721Y0132885D03*
X0358721Y0132915D03*
X0358721Y0132945D03*
X0365051Y0132915D03*
X0363551Y0137445D03*
D325*
X0365066Y0136635D03*
X0365066Y0132885D03*
X0365066Y0132855D03*
X0365066Y0132825D03*
X0365066Y0132795D03*
X0362366Y0131595D03*
X0362366Y0131565D03*
X0358736Y0132855D03*
X0355076Y0131595D03*
X0352376Y0132855D03*
X0352376Y0136635D03*
X0353906Y0137445D03*
D326*
X0352376Y0136965D03*
X0363446Y0137235D03*
X0365066Y0136965D03*
X0365066Y0131655D03*
X0365066Y0131625D03*
X0365066Y0131595D03*
X0358736Y0131625D03*
X0354986Y0132375D03*
X0354986Y0132405D03*
X0352376Y0131625D03*
D327*
X0352391Y0132765D03*
X0352391Y0132795D03*
X0352391Y0132825D03*
X0355091Y0131625D03*
X0358721Y0132765D03*
X0358721Y0132795D03*
X0358721Y0132825D03*
X0362381Y0131655D03*
X0362381Y0131625D03*
X0352391Y0136665D03*
D328*
X0354011Y0137235D03*
X0355001Y0132345D03*
X0352391Y0131715D03*
X0352391Y0131685D03*
X0352391Y0131655D03*
X0358721Y0131655D03*
X0358721Y0131685D03*
X0358721Y0131715D03*
X0362471Y0132345D03*
X0362471Y0132375D03*
X0365051Y0131685D03*
D329*
X0358736Y0132705D03*
X0358736Y0132735D03*
X0355076Y0131685D03*
X0355076Y0131655D03*
X0352376Y0132735D03*
D330*
X0352391Y0132705D03*
X0352391Y0132675D03*
X0352391Y0132645D03*
X0358721Y0132645D03*
X0358721Y0132675D03*
X0362381Y0131715D03*
X0362381Y0131685D03*
X0363521Y0137415D03*
X0353921Y0137415D03*
X0352391Y0136695D03*
D331*
X0355061Y0131715D03*
D332*
X0352376Y0131745D03*
X0362456Y0132285D03*
X0362456Y0132315D03*
X0365066Y0131775D03*
X0365066Y0131745D03*
X0365066Y0131715D03*
X0365066Y0136935D03*
X0352376Y0136935D03*
D333*
X0352376Y0132615D03*
X0352376Y0132585D03*
X0355076Y0131745D03*
X0358736Y0132585D03*
X0358736Y0132615D03*
X0362396Y0131745D03*
X0365066Y0132555D03*
X0365066Y0132585D03*
X0365066Y0132615D03*
X0365066Y0132645D03*
X0365066Y0136695D03*
X0365066Y0136725D03*
D334*
X0358736Y0131745D03*
X0354986Y0132315D03*
D335*
X0352391Y0131835D03*
X0352391Y0131805D03*
X0352391Y0131775D03*
D336*
X0352391Y0132495D03*
X0352391Y0132525D03*
X0352391Y0132555D03*
X0355061Y0131805D03*
X0355061Y0131775D03*
X0358721Y0132525D03*
X0358721Y0132555D03*
X0362411Y0131775D03*
X0352391Y0136725D03*
D337*
X0354011Y0137265D03*
X0363461Y0137265D03*
X0358721Y0131835D03*
X0358721Y0131805D03*
X0358721Y0131775D03*
X0355001Y0132255D03*
X0355001Y0132285D03*
D338*
X0355046Y0131835D03*
X0352376Y0132465D03*
X0358736Y0132465D03*
X0358736Y0132495D03*
X0362396Y0131805D03*
X0365066Y0132435D03*
X0365066Y0132465D03*
X0365066Y0132495D03*
X0365066Y0132525D03*
X0365066Y0136755D03*
X0363506Y0137385D03*
D339*
X0365066Y0136905D03*
X0365066Y0131895D03*
X0365066Y0131865D03*
X0365066Y0131835D03*
X0365066Y0131805D03*
X0362456Y0132225D03*
X0362456Y0132255D03*
X0358736Y0131865D03*
X0355016Y0132225D03*
X0352376Y0131865D03*
X0352376Y0136905D03*
D340*
X0353951Y0137385D03*
X0355061Y0131865D03*
X0358721Y0132375D03*
X0358721Y0132405D03*
X0358721Y0132435D03*
X0362411Y0131865D03*
X0362411Y0131835D03*
D341*
X0362441Y0132165D03*
X0362441Y0132195D03*
X0358721Y0131955D03*
X0358721Y0131925D03*
X0358721Y0131895D03*
X0355001Y0132195D03*
X0352391Y0131955D03*
X0352391Y0131925D03*
X0352391Y0131895D03*
X0353981Y0137295D03*
X0363461Y0137295D03*
D342*
X0365066Y0136785D03*
X0365066Y0132405D03*
X0365066Y0132375D03*
X0365066Y0132345D03*
X0365066Y0132315D03*
X0362426Y0131895D03*
X0355046Y0131895D03*
X0355046Y0131925D03*
X0352376Y0132345D03*
D343*
X0352391Y0132315D03*
X0352391Y0132285D03*
X0352391Y0132255D03*
X0355031Y0131955D03*
X0358721Y0132255D03*
X0358721Y0132285D03*
X0358721Y0132315D03*
X0362411Y0131955D03*
X0362411Y0131925D03*
X0363491Y0137355D03*
X0352391Y0136785D03*
D344*
X0352376Y0136875D03*
X0352376Y0131985D03*
X0355016Y0132135D03*
X0355016Y0132165D03*
X0358736Y0131985D03*
X0365066Y0131985D03*
X0365066Y0132015D03*
X0365066Y0131955D03*
X0365066Y0131925D03*
X0365066Y0136875D03*
D345*
X0365066Y0136815D03*
X0365066Y0132285D03*
X0365066Y0132255D03*
X0365066Y0132225D03*
X0365066Y0132195D03*
X0362426Y0132015D03*
X0362426Y0131985D03*
X0358736Y0132225D03*
X0355046Y0131985D03*
X0352376Y0132225D03*
X0352376Y0136815D03*
X0353966Y0137355D03*
D346*
X0355031Y0132105D03*
X0352391Y0132075D03*
X0352391Y0132045D03*
X0352391Y0132015D03*
X0358721Y0132015D03*
X0358721Y0132045D03*
X0358721Y0132075D03*
X0362441Y0132105D03*
X0362441Y0132135D03*
X0365051Y0132045D03*
D347*
X0362426Y0132045D03*
X0362426Y0132075D03*
X0358736Y0132105D03*
X0352376Y0132105D03*
X0352376Y0136845D03*
X0358736Y0141945D03*
X0363476Y0137325D03*
D348*
X0365066Y0136845D03*
X0365066Y0132165D03*
X0365066Y0132135D03*
X0365066Y0132105D03*
X0365066Y0132075D03*
X0355016Y0132075D03*
X0353966Y0137325D03*
D349*
X0358736Y0132345D03*
D350*
X0352391Y0132375D03*
X0352391Y0132405D03*
X0352391Y0132435D03*
X0352391Y0136755D03*
D351*
X0356411Y0132705D03*
X0356411Y0132675D03*
X0361061Y0132705D03*
X0361061Y0132735D03*
D352*
X0365066Y0132735D03*
X0365066Y0132765D03*
X0365066Y0132705D03*
X0365066Y0132675D03*
X0365066Y0136665D03*
D353*
X0361511Y0133995D03*
X0361511Y0133965D03*
X0355961Y0133965D03*
X0355961Y0133935D03*
X0354911Y0132945D03*
D354*
X0358736Y0132975D03*
D355*
X0365066Y0133305D03*
X0365066Y0133335D03*
X0365066Y0133365D03*
X0365066Y0133395D03*
X0365066Y0136485D03*
D356*
X0352391Y0136395D03*
X0352391Y0133695D03*
X0352391Y0133665D03*
X0352391Y0133635D03*
D357*
X0358736Y0134235D03*
D358*
X0352391Y0134265D03*
X0352391Y0134295D03*
X0352391Y0134325D03*
X0352391Y0136155D03*
D359*
X0365066Y0136065D03*
X0365066Y0136035D03*
X0365066Y0134655D03*
X0365066Y0134625D03*
X0365066Y0134595D03*
X0365066Y0134565D03*
D360*
X0365066Y0135135D03*
X0365066Y0135165D03*
X0365066Y0135195D03*
X0365066Y0135225D03*
X0365066Y0135795D03*
X0365066Y0135825D03*
D361*
X0352391Y0135705D03*
X0352391Y0135675D03*
X0352391Y0135465D03*
X0352391Y0135435D03*
D362*
X0358736Y0135915D03*
D363*
X0358736Y0136755D03*
D364*
X0358736Y0137115D03*
D365*
X0358736Y0137295D03*
D366*
X0358721Y0137325D03*
X0358751Y0141645D03*
D367*
X0358721Y0137385D03*
D368*
X0358721Y0137415D03*
D369*
X0358736Y0137445D03*
D370*
X0358736Y0137475D03*
D371*
X0358736Y0137505D03*
D372*
X0358736Y0137535D03*
D373*
X0364406Y0137535D03*
D374*
X0358721Y0137565D03*
D375*
X0358721Y0137595D03*
D376*
X0358721Y0137685D03*
D377*
X0358721Y0138585D03*
D378*
X0358736Y0139755D03*
D379*
X0358736Y0139905D03*
D380*
X0358736Y0140055D03*
D381*
X0358736Y0140145D03*
D382*
X0358736Y0140235D03*
D383*
X0358736Y0140325D03*
D384*
X0358736Y0140385D03*
D385*
X0358751Y0140505D03*
D386*
X0358736Y0140565D03*
D387*
X0358736Y0140625D03*
D388*
X0358736Y0140715D03*
D389*
X0358736Y0140835D03*
D390*
X0358736Y0140985D03*
D391*
X0358736Y0141015D03*
D392*
X0358736Y0141045D03*
D393*
X0358736Y0141075D03*
D394*
X0358751Y0141225D03*
D395*
X0358736Y0141255D03*
D396*
X0358736Y0141315D03*
D397*
X0358736Y0141375D03*
D398*
X0358736Y0141465D03*
D399*
X0358751Y0141525D03*
D400*
X0358736Y0141705D03*
D401*
X0370987Y0113496D03*
X0370987Y0113446D03*
X0371037Y0113346D03*
X0371087Y0113246D03*
X0371087Y0113196D03*
X0371137Y0113096D03*
X0371187Y0112996D03*
X0371187Y0112946D03*
X0371237Y0112846D03*
X0371287Y0112746D03*
X0371287Y0112696D03*
X0371337Y0112596D03*
X0371387Y0112496D03*
X0371387Y0112446D03*
X0371437Y0112346D03*
X0371487Y0112246D03*
X0371537Y0112146D03*
X0371537Y0112096D03*
X0371587Y0111996D03*
X0371637Y0111896D03*
X0371637Y0111846D03*
X0371687Y0111746D03*
X0371737Y0111646D03*
X0371737Y0111596D03*
X0371787Y0111496D03*
X0371837Y0111396D03*
X0371837Y0111346D03*
X0371887Y0111246D03*
X0371937Y0111146D03*
X0371937Y0111096D03*
X0371987Y0110996D03*
X0372037Y0110896D03*
X0372037Y0110846D03*
X0372087Y0110746D03*
X0372137Y0110646D03*
X0372137Y0110596D03*
X0372187Y0110496D03*
X0372237Y0110396D03*
X0372287Y0110246D03*
X0372637Y0110246D03*
X0372637Y0110196D03*
X0372687Y0110296D03*
X0372687Y0110346D03*
X0372737Y0110446D03*
X0372737Y0110496D03*
X0372787Y0110546D03*
X0372787Y0110596D03*
X0372837Y0110646D03*
X0372837Y0110696D03*
X0372837Y0110746D03*
X0372887Y0110796D03*
X0372887Y0110846D03*
X0372937Y0110896D03*
X0372937Y0110946D03*
X0372937Y0110996D03*
X0372987Y0111046D03*
X0372987Y0111096D03*
X0373037Y0111146D03*
X0373037Y0111196D03*
X0373037Y0111246D03*
X0373087Y0111296D03*
X0373087Y0111346D03*
X0373137Y0111396D03*
X0373137Y0111446D03*
X0373137Y0111496D03*
X0373187Y0111546D03*
X0373187Y0111596D03*
X0373237Y0111646D03*
X0373237Y0111696D03*
X0373237Y0111746D03*
X0373287Y0111796D03*
X0373287Y0111846D03*
X0373337Y0111896D03*
X0373337Y0111946D03*
X0373387Y0112046D03*
X0373387Y0112096D03*
X0373437Y0112146D03*
X0373437Y0112196D03*
X0373487Y0112296D03*
X0373487Y0112346D03*
X0373537Y0112396D03*
X0373537Y0112446D03*
X0373587Y0112546D03*
X0373587Y0112596D03*
X0373637Y0112646D03*
X0373637Y0112696D03*
X0373687Y0112746D03*
X0373687Y0112796D03*
X0373687Y0112846D03*
X0373737Y0112896D03*
X0373737Y0112946D03*
X0373787Y0112996D03*
X0373787Y0113046D03*
X0373787Y0113096D03*
X0373837Y0113146D03*
X0373837Y0113196D03*
X0373887Y0113246D03*
X0373887Y0113296D03*
X0373887Y0113346D03*
X0373937Y0113396D03*
X0373937Y0113446D03*
X0376737Y0112346D03*
X0376737Y0112296D03*
X0376787Y0112396D03*
X0376787Y0112446D03*
X0376837Y0112546D03*
X0376837Y0112596D03*
X0376887Y0112646D03*
X0376887Y0112696D03*
X0376887Y0112746D03*
X0376937Y0112796D03*
X0376937Y0112846D03*
X0376987Y0112896D03*
X0376987Y0112946D03*
X0376987Y0112996D03*
X0377037Y0113046D03*
X0377037Y0113096D03*
X0377087Y0113196D03*
X0377087Y0113246D03*
X0377137Y0113296D03*
X0377137Y0113346D03*
X0377487Y0113246D03*
X0377537Y0113146D03*
X0377537Y0113096D03*
X0377587Y0112996D03*
X0377587Y0112946D03*
X0377637Y0112896D03*
X0377637Y0112846D03*
X0377637Y0112796D03*
X0377687Y0112746D03*
X0377687Y0112696D03*
X0377737Y0112646D03*
X0377737Y0112596D03*
X0377737Y0112546D03*
X0377787Y0112496D03*
X0377787Y0112446D03*
X0377837Y0112396D03*
X0377837Y0112346D03*
X0377837Y0112296D03*
X0377887Y0112246D03*
X0377887Y0112196D03*
X0377937Y0112146D03*
X0377937Y0112096D03*
X0377937Y0112046D03*
X0377987Y0111996D03*
X0377987Y0111946D03*
X0378037Y0111846D03*
X0378037Y0111796D03*
X0378087Y0111746D03*
X0378087Y0111696D03*
X0378137Y0111596D03*
X0378137Y0111546D03*
X0378187Y0111496D03*
X0378187Y0111446D03*
X0378337Y0111096D03*
X0378337Y0111046D03*
X0378387Y0110996D03*
X0378387Y0110946D03*
X0378437Y0110846D03*
X0378487Y0110746D03*
X0378487Y0110696D03*
X0378537Y0110596D03*
X0378587Y0110496D03*
X0378587Y0110446D03*
X0378637Y0110346D03*
X0378687Y0110246D03*
X0378687Y0110196D03*
X0378737Y0110096D03*
X0378787Y0109996D03*
X0378787Y0109946D03*
X0378837Y0109846D03*
X0378887Y0109746D03*
X0378887Y0109696D03*
X0380487Y0110646D03*
X0380637Y0110896D03*
X0380787Y0111146D03*
X0380937Y0111396D03*
X0380337Y0112046D03*
X0380287Y0112096D03*
X0380237Y0112196D03*
X0380237Y0112246D03*
X0380187Y0112296D03*
X0380187Y0112346D03*
X0380187Y0112396D03*
X0380137Y0112446D03*
X0380137Y0112496D03*
X0380137Y0112546D03*
X0380137Y0112596D03*
X0380137Y0112646D03*
X0380137Y0112696D03*
X0380137Y0112746D03*
X0380137Y0112796D03*
X0380137Y0112846D03*
X0380187Y0113046D03*
X0380187Y0113096D03*
X0382337Y0113096D03*
X0382337Y0113046D03*
X0382337Y0112996D03*
X0382337Y0112946D03*
X0382337Y0112896D03*
X0382337Y0112846D03*
X0382337Y0112796D03*
X0382337Y0112746D03*
X0382337Y0112696D03*
X0382337Y0112646D03*
X0382337Y0112596D03*
X0382337Y0112546D03*
X0382337Y0112496D03*
X0382337Y0112446D03*
X0382337Y0112396D03*
X0382337Y0112346D03*
X0382337Y0112296D03*
X0382337Y0112246D03*
X0382337Y0112196D03*
X0382337Y0112146D03*
X0382337Y0112096D03*
X0382337Y0112046D03*
X0382337Y0111996D03*
X0382337Y0111946D03*
X0382337Y0111896D03*
X0382337Y0111846D03*
X0382337Y0111796D03*
X0382337Y0111746D03*
X0382337Y0111446D03*
X0382337Y0111396D03*
X0382337Y0111346D03*
X0382337Y0111296D03*
X0382337Y0111246D03*
X0382337Y0111196D03*
X0382337Y0111146D03*
X0382337Y0111096D03*
X0382337Y0111046D03*
X0382337Y0110996D03*
X0382337Y0110946D03*
X0382337Y0110896D03*
X0382337Y0110846D03*
X0382337Y0110796D03*
X0382337Y0110746D03*
X0382337Y0110696D03*
X0382337Y0110646D03*
X0382337Y0110596D03*
X0382337Y0110546D03*
X0382337Y0110496D03*
X0382337Y0110446D03*
X0382337Y0110396D03*
X0382337Y0110346D03*
X0382337Y0110296D03*
X0382337Y0110246D03*
X0382337Y0110196D03*
X0382337Y0110146D03*
X0382337Y0110096D03*
X0382337Y0110046D03*
X0382337Y0109996D03*
X0382337Y0109946D03*
X0382337Y0109896D03*
X0382337Y0109846D03*
X0382337Y0109796D03*
X0382337Y0109746D03*
X0382337Y0109696D03*
X0384387Y0110696D03*
X0384337Y0110796D03*
X0384287Y0110946D03*
X0384237Y0111096D03*
X0384237Y0111146D03*
X0384187Y0111296D03*
X0384187Y0111346D03*
X0384187Y0111396D03*
X0384187Y0111446D03*
X0384187Y0111496D03*
X0384187Y0112096D03*
X0384187Y0112146D03*
X0384187Y0112196D03*
X0384187Y0112246D03*
X0384187Y0112296D03*
X0384237Y0112446D03*
X0384237Y0112496D03*
X0384287Y0112646D03*
X0382337Y0113146D03*
X0382337Y0113196D03*
X0382337Y0113246D03*
X0382337Y0113296D03*
X0382337Y0113346D03*
X0382337Y0113396D03*
X0382337Y0113446D03*
X0382337Y0113496D03*
X0382337Y0113546D03*
X0387037Y0113546D03*
X0387037Y0113496D03*
X0387037Y0113446D03*
X0387037Y0113396D03*
X0387037Y0113346D03*
X0387037Y0113296D03*
X0387037Y0113246D03*
X0387037Y0113196D03*
X0387037Y0113146D03*
X0387037Y0113096D03*
X0387037Y0113046D03*
X0387037Y0112996D03*
X0387037Y0112946D03*
X0387037Y0112896D03*
X0387037Y0112846D03*
X0387037Y0112796D03*
X0387037Y0112746D03*
X0387037Y0112696D03*
X0387037Y0112646D03*
X0387037Y0112596D03*
X0387037Y0112546D03*
X0387037Y0112496D03*
X0387037Y0112446D03*
X0387037Y0112396D03*
X0387037Y0112346D03*
X0387037Y0112296D03*
X0387037Y0112246D03*
X0387037Y0112196D03*
X0387037Y0112146D03*
X0387037Y0112096D03*
X0387037Y0112046D03*
X0387037Y0111996D03*
X0387037Y0111946D03*
X0387037Y0111896D03*
X0387037Y0111846D03*
X0387037Y0111796D03*
X0387037Y0111746D03*
X0387037Y0111696D03*
X0387037Y0111646D03*
X0387037Y0111596D03*
X0387037Y0111546D03*
X0387037Y0111496D03*
X0387037Y0111446D03*
X0387037Y0111396D03*
X0387037Y0111346D03*
X0387037Y0111296D03*
X0387037Y0111246D03*
X0387037Y0111196D03*
X0387037Y0111146D03*
X0387037Y0111096D03*
X0387037Y0111046D03*
X0387037Y0110996D03*
X0387037Y0110946D03*
X0387037Y0110896D03*
X0387037Y0110846D03*
X0387037Y0110796D03*
X0387037Y0110746D03*
X0387037Y0110696D03*
X0387037Y0110646D03*
X0387037Y0110596D03*
X0387037Y0110546D03*
X0387037Y0110496D03*
X0387037Y0110446D03*
X0387037Y0110396D03*
X0387037Y0110346D03*
X0387037Y0110296D03*
X0387037Y0110246D03*
X0387037Y0110196D03*
X0387037Y0110146D03*
X0387037Y0110096D03*
X0387037Y0110046D03*
X0387037Y0109996D03*
X0387037Y0109946D03*
X0377287Y0113696D03*
X0377287Y0113746D03*
X0376687Y0112196D03*
X0376687Y0112146D03*
X0376637Y0112046D03*
X0376637Y0111996D03*
X0376587Y0111946D03*
X0376587Y0111896D03*
X0376537Y0111796D03*
X0376537Y0111746D03*
X0376487Y0111646D03*
X0376437Y0111546D03*
X0376437Y0111496D03*
X0376237Y0110996D03*
X0376187Y0110896D03*
X0376137Y0110746D03*
X0376087Y0110646D03*
X0376087Y0110596D03*
X0376037Y0110496D03*
X0375987Y0110346D03*
X0375937Y0110246D03*
X0375887Y0110096D03*
X0375837Y0109996D03*
X0375787Y0109846D03*
X0375737Y0109746D03*
X0372487Y0109796D03*
X0372487Y0109846D03*
X0370687Y0109846D03*
X0370687Y0109796D03*
X0370687Y0109746D03*
X0370687Y0109696D03*
X0370687Y0109896D03*
X0370687Y0109946D03*
X0370687Y0109996D03*
X0370687Y0110046D03*
X0370687Y0110096D03*
X0370687Y0110146D03*
X0370687Y0110196D03*
X0370687Y0110246D03*
X0370687Y0110296D03*
X0370687Y0110346D03*
X0370687Y0110396D03*
X0370687Y0110446D03*
X0370687Y0110496D03*
X0370687Y0110546D03*
X0370687Y0110596D03*
X0370687Y0110646D03*
X0370687Y0110696D03*
X0370687Y0110746D03*
X0370687Y0110796D03*
X0370687Y0110846D03*
X0370687Y0110896D03*
X0370687Y0110946D03*
X0370687Y0110996D03*
X0370687Y0111046D03*
X0370687Y0111096D03*
X0370687Y0111146D03*
X0370687Y0111196D03*
X0370687Y0111246D03*
X0370687Y0111296D03*
X0370687Y0111346D03*
X0370687Y0111396D03*
X0370687Y0111446D03*
X0370687Y0111496D03*
X0370687Y0111546D03*
X0370687Y0111596D03*
X0370687Y0111646D03*
X0370687Y0111696D03*
X0370687Y0111746D03*
X0370687Y0111796D03*
X0370687Y0111846D03*
X0370687Y0111896D03*
X0370687Y0111946D03*
X0370687Y0111996D03*
X0370687Y0112046D03*
X0370687Y0112096D03*
X0370687Y0112146D03*
X0370687Y0112196D03*
X0370687Y0112246D03*
X0370687Y0112296D03*
X0370687Y0112346D03*
X0370687Y0112396D03*
X0370687Y0112446D03*
X0370687Y0112496D03*
X0370687Y0112546D03*
X0370687Y0112596D03*
X0370687Y0112646D03*
X0370687Y0112696D03*
X0370687Y0112746D03*
X0370687Y0112796D03*
X0370687Y0112846D03*
X0370687Y0112896D03*
X0370687Y0112946D03*
X0370687Y0112996D03*
X0370687Y0113046D03*
X0370687Y0113096D03*
X0370687Y0113146D03*
X0370687Y0113196D03*
X0370687Y0113246D03*
X0370687Y0113296D03*
D402*
X0372487Y0109696D03*
X0377287Y0113796D03*
X0377287Y0113846D03*
D403*
X0377462Y0113346D03*
X0377462Y0113296D03*
X0377512Y0113196D03*
X0377562Y0113046D03*
X0377062Y0113146D03*
X0374262Y0113146D03*
X0374262Y0113096D03*
X0374262Y0113046D03*
X0374262Y0112996D03*
X0374262Y0112946D03*
X0374262Y0112896D03*
X0374262Y0112846D03*
X0374262Y0112796D03*
X0374262Y0112746D03*
X0374262Y0112696D03*
X0374262Y0112646D03*
X0374262Y0112596D03*
X0374262Y0112546D03*
X0374262Y0112496D03*
X0374262Y0112446D03*
X0374262Y0112396D03*
X0374262Y0112346D03*
X0374262Y0112296D03*
X0374262Y0112246D03*
X0374262Y0112196D03*
X0374262Y0112146D03*
X0374262Y0112096D03*
X0374262Y0112046D03*
X0374262Y0111996D03*
X0374262Y0111946D03*
X0374262Y0111896D03*
X0374262Y0111846D03*
X0374262Y0111796D03*
X0374262Y0111746D03*
X0374262Y0111696D03*
X0374262Y0111646D03*
X0374262Y0111596D03*
X0374262Y0111546D03*
X0374262Y0111496D03*
X0374262Y0111446D03*
X0374262Y0111396D03*
X0374262Y0111346D03*
X0374262Y0111296D03*
X0374262Y0111246D03*
X0374262Y0111196D03*
X0374262Y0111146D03*
X0374262Y0111096D03*
X0374262Y0111046D03*
X0374262Y0110996D03*
X0374262Y0110946D03*
X0374262Y0110896D03*
X0374262Y0110846D03*
X0374262Y0110796D03*
X0374262Y0110746D03*
X0374262Y0110696D03*
X0374262Y0110646D03*
X0374262Y0110596D03*
X0374262Y0110546D03*
X0374262Y0110496D03*
X0374262Y0110446D03*
X0374262Y0110396D03*
X0374262Y0110346D03*
X0374262Y0110296D03*
X0374262Y0110246D03*
X0374262Y0110196D03*
X0374262Y0110146D03*
X0374262Y0110096D03*
X0374262Y0110046D03*
X0374262Y0109996D03*
X0374262Y0109946D03*
X0374262Y0109896D03*
X0374262Y0109846D03*
X0374262Y0109796D03*
X0374262Y0109746D03*
X0374262Y0109696D03*
X0372712Y0110396D03*
X0372312Y0110196D03*
X0372262Y0110296D03*
X0372262Y0110346D03*
X0372212Y0110446D03*
X0372162Y0110546D03*
X0372112Y0110696D03*
X0372062Y0110796D03*
X0372012Y0110946D03*
X0371962Y0111046D03*
X0371912Y0111196D03*
X0371862Y0111296D03*
X0371812Y0111446D03*
X0371762Y0111546D03*
X0371712Y0111696D03*
X0371662Y0111796D03*
X0371612Y0111946D03*
X0371562Y0112046D03*
X0371512Y0112196D03*
X0371462Y0112296D03*
X0371412Y0112396D03*
X0371362Y0112546D03*
X0371312Y0112646D03*
X0371262Y0112796D03*
X0371212Y0112896D03*
X0371162Y0113046D03*
X0371112Y0113146D03*
X0371062Y0113296D03*
X0371012Y0113396D03*
X0370662Y0113396D03*
X0370662Y0113346D03*
X0370662Y0113446D03*
X0370662Y0113496D03*
X0373462Y0112246D03*
X0373562Y0112496D03*
X0373362Y0111996D03*
X0374262Y0113196D03*
X0374262Y0113246D03*
X0374262Y0113296D03*
X0374262Y0113346D03*
X0374262Y0113396D03*
X0374262Y0113446D03*
X0372462Y0109746D03*
D404*
X0372462Y0109896D03*
X0375712Y0109696D03*
X0375762Y0109796D03*
X0375812Y0109896D03*
X0375812Y0109946D03*
X0375862Y0110046D03*
X0375912Y0110146D03*
X0375912Y0110196D03*
X0375962Y0110296D03*
X0376012Y0110396D03*
X0376012Y0110446D03*
X0376062Y0110546D03*
X0376112Y0110696D03*
X0376162Y0110796D03*
X0376162Y0110846D03*
X0376212Y0110946D03*
X0376262Y0111046D03*
X0376262Y0111096D03*
X0376412Y0111446D03*
X0376462Y0111596D03*
X0376512Y0111696D03*
X0376562Y0111846D03*
X0376662Y0112096D03*
X0376712Y0112246D03*
X0376812Y0112496D03*
X0378012Y0111896D03*
X0378112Y0111646D03*
X0378412Y0110896D03*
X0378462Y0110796D03*
X0378512Y0110646D03*
X0378562Y0110546D03*
X0378612Y0110396D03*
X0378662Y0110296D03*
X0378712Y0110146D03*
X0378762Y0110046D03*
X0378812Y0109896D03*
X0378862Y0109796D03*
X0379912Y0109696D03*
X0379962Y0109746D03*
X0379962Y0109796D03*
X0380012Y0109846D03*
X0380062Y0109896D03*
X0380062Y0109946D03*
X0380112Y0109996D03*
X0380112Y0110046D03*
X0380162Y0110096D03*
X0380212Y0110146D03*
X0380212Y0110196D03*
X0380262Y0110246D03*
X0380262Y0110296D03*
X0380312Y0110346D03*
X0380362Y0110396D03*
X0380362Y0110446D03*
X0380412Y0110496D03*
X0380412Y0110546D03*
X0380462Y0110596D03*
X0380512Y0110696D03*
X0380562Y0110746D03*
X0380562Y0110796D03*
X0380612Y0110846D03*
X0380662Y0110946D03*
X0380712Y0110996D03*
X0380712Y0111046D03*
X0380762Y0111096D03*
X0380812Y0111196D03*
X0380862Y0111246D03*
X0380862Y0111296D03*
X0380912Y0111346D03*
X0380962Y0111446D03*
X0380362Y0111996D03*
X0380262Y0112146D03*
X0380162Y0112896D03*
X0380162Y0112946D03*
X0380162Y0112996D03*
X0380212Y0113146D03*
X0380262Y0113196D03*
X0380262Y0113246D03*
X0380312Y0113296D03*
X0384212Y0112396D03*
X0384212Y0112346D03*
X0384262Y0112546D03*
X0384262Y0112596D03*
X0384312Y0112696D03*
X0384312Y0112746D03*
X0384362Y0112796D03*
X0384362Y0112846D03*
X0384412Y0112896D03*
X0384462Y0112996D03*
X0384162Y0112046D03*
X0384162Y0111996D03*
X0384162Y0111946D03*
X0384162Y0111896D03*
X0384162Y0111846D03*
X0384162Y0111796D03*
X0384162Y0111746D03*
X0384162Y0111696D03*
X0384162Y0111646D03*
X0384162Y0111596D03*
X0384162Y0111546D03*
X0384212Y0111246D03*
X0384212Y0111196D03*
X0384262Y0111046D03*
X0384262Y0110996D03*
X0384312Y0110896D03*
X0384312Y0110846D03*
X0384362Y0110746D03*
X0384412Y0110646D03*
X0384462Y0110596D03*
X0384462Y0110546D03*
X0384512Y0110496D03*
X0370712Y0113846D03*
D405*
X0386487Y0109696D03*
D406*
X0386337Y0109746D03*
X0386337Y0113796D03*
X0381637Y0111596D03*
D407*
X0381537Y0111696D03*
X0381537Y0113696D03*
X0386237Y0113746D03*
X0386237Y0109796D03*
D408*
X0386162Y0109846D03*
X0386162Y0113696D03*
X0381462Y0113596D03*
D409*
X0377312Y0111396D03*
X0386112Y0109896D03*
D410*
X0384687Y0110296D03*
X0384637Y0110346D03*
X0384587Y0110396D03*
X0384537Y0110446D03*
X0384437Y0112946D03*
X0384487Y0113046D03*
X0384537Y0113096D03*
X0384587Y0113146D03*
X0384637Y0113196D03*
X0380337Y0113346D03*
X0380437Y0111946D03*
X0380487Y0111896D03*
X0377287Y0113546D03*
X0377287Y0113596D03*
X0377287Y0113646D03*
X0372487Y0109946D03*
D411*
X0385387Y0109946D03*
D412*
X0384812Y0110196D03*
X0384762Y0110246D03*
X0384662Y0113246D03*
X0380462Y0113446D03*
X0380412Y0113396D03*
X0380562Y0111846D03*
X0374162Y0113746D03*
X0374162Y0113796D03*
X0370762Y0113796D03*
X0372462Y0109996D03*
D413*
X0380687Y0113546D03*
X0385187Y0109996D03*
D414*
X0384887Y0110146D03*
X0384737Y0113296D03*
X0384787Y0113346D03*
X0377287Y0113446D03*
X0377287Y0113496D03*
X0374137Y0113646D03*
X0374137Y0113696D03*
X0370787Y0113696D03*
X0370787Y0113646D03*
X0370787Y0113746D03*
X0372487Y0110096D03*
X0372487Y0110046D03*
D415*
X0385037Y0110046D03*
D416*
X0384962Y0110096D03*
X0384862Y0113396D03*
X0384962Y0113446D03*
X0380562Y0113496D03*
X0380662Y0111796D03*
X0377312Y0113396D03*
X0374112Y0113496D03*
X0374112Y0113546D03*
X0374112Y0113596D03*
X0370812Y0113596D03*
X0370812Y0113546D03*
X0372462Y0110146D03*
D417*
X0377312Y0111146D03*
D418*
X0377287Y0111196D03*
X0386037Y0113596D03*
D419*
X0377312Y0111246D03*
D420*
X0377287Y0111296D03*
X0377287Y0111346D03*
X0386087Y0113646D03*
D421*
X0381662Y0111546D03*
X0381662Y0111496D03*
D422*
X0381587Y0111646D03*
D423*
X0380862Y0111746D03*
D424*
X0385062Y0113496D03*
D425*
X0385212Y0113546D03*
D426*
X0381487Y0113646D03*
D427*
X0381612Y0113746D03*
D428*
X0381737Y0113796D03*
D429*
X0382412Y0113846D03*
X0387062Y0113846D03*
X0374312Y0113846D03*
D430*
X0368219Y0113014D02*
X0368219Y0110412D01*
X0367569Y0109761D01*
X0366268Y0109761D01*
X0365617Y0110412D01*
X0364076Y0110412D02*
X0364076Y0113014D01*
X0363425Y0113665D01*
X0362124Y0113665D01*
X0361474Y0113014D01*
X0361474Y0110412D01*
X0362124Y0109761D01*
X0363425Y0109761D01*
X0364076Y0110412D01*
X0365617Y0113014D02*
X0366268Y0113665D01*
X0367569Y0113665D01*
X0368219Y0113014D01*
X0359932Y0113665D02*
X0357330Y0109761D01*
X0357330Y0113665D01*
X0355789Y0113665D02*
X0353186Y0113665D01*
X0354488Y0113665D02*
X0354488Y0109761D01*
X0351645Y0109761D02*
X0351645Y0113665D01*
X0349693Y0113665D01*
X0349043Y0113014D01*
X0349043Y0111713D01*
X0349693Y0111063D01*
X0351645Y0111063D01*
X0350344Y0111063D02*
X0349043Y0109761D01*
X0347502Y0110412D02*
X0346851Y0109761D01*
X0345550Y0109761D01*
X0344899Y0110412D01*
X0344899Y0113014D01*
X0345550Y0113665D01*
X0346851Y0113665D01*
X0347502Y0113014D01*
X0347502Y0110412D01*
X0343358Y0109761D02*
X0343358Y0113665D01*
X0343358Y0109761D02*
X0340756Y0109761D01*
X0339215Y0109761D02*
X0336612Y0109761D01*
X0335071Y0109761D02*
X0332469Y0109761D01*
X0330927Y0109761D02*
X0330927Y0113665D01*
X0328976Y0113665D01*
X0328325Y0113014D01*
X0328325Y0111713D01*
X0328976Y0111063D01*
X0330927Y0111063D01*
X0329626Y0111063D02*
X0328325Y0109761D01*
X0332469Y0113665D02*
X0335071Y0113665D01*
X0335071Y0109761D01*
X0335071Y0111713D02*
X0333770Y0111713D01*
X0339215Y0113665D02*
X0339215Y0109761D01*
X0359932Y0109761D02*
X0359932Y0113665D01*
D431*
X0375870Y0065074D03*
X0375870Y0061874D03*
X0375870Y0058674D03*
X0341972Y0058753D03*
X0341972Y0061953D03*
X0341972Y0065153D03*
D432*
X0294365Y0067253D03*
X0291165Y0067253D03*
X0287965Y0067253D03*
X0287965Y0073532D03*
X0291165Y0073532D03*
X0294365Y0073532D03*
X0294365Y0080058D03*
X0291165Y0080058D03*
X0287965Y0080058D03*
X0287901Y0058552D03*
X0291101Y0058552D03*
X0294301Y0058552D03*
X0294301Y0051662D03*
X0291101Y0051662D03*
X0287901Y0051662D03*
X0287901Y0044772D03*
X0291101Y0044772D03*
X0294301Y0044772D03*
X0424510Y0043788D03*
X0427710Y0043788D03*
X0430910Y0043788D03*
X0430910Y0050678D03*
X0427710Y0050678D03*
X0424510Y0050678D03*
X0424510Y0057445D03*
X0427710Y0057445D03*
X0430910Y0057445D03*
X0430910Y0067568D03*
X0427710Y0067568D03*
X0424510Y0067568D03*
X0424510Y0074083D03*
X0427710Y0074083D03*
X0430910Y0074083D03*
X0430910Y0080599D03*
X0427710Y0080599D03*
X0424510Y0080599D03*
D433*
X0153227Y0054457D03*
X0163227Y0054457D03*
X0163227Y0064457D03*
X0153227Y0064457D03*
X0153227Y0074457D03*
X0163227Y0074457D03*
X0235904Y0074457D03*
X0245904Y0074457D03*
X0245904Y0064457D03*
X0235904Y0064457D03*
X0235904Y0054457D03*
X0245904Y0054457D03*
X0222282Y0113513D03*
X0212282Y0113513D03*
X0186849Y0113513D03*
X0176849Y0113513D03*
X0176849Y0123513D03*
X0186849Y0123513D03*
X0186849Y0133513D03*
X0176849Y0133513D03*
X0212282Y0133513D03*
X0222282Y0133513D03*
X0222282Y0123513D03*
X0212282Y0123513D03*
X0294959Y0123513D03*
X0304959Y0123513D03*
X0304959Y0133513D03*
X0294959Y0133513D03*
X0294959Y0113513D03*
X0304959Y0113513D03*
X0412637Y0113513D03*
X0422637Y0113513D03*
X0422637Y0123513D03*
X0412637Y0123513D03*
X0412637Y0133513D03*
X0422637Y0133513D03*
X0495314Y0133513D03*
X0505314Y0133513D03*
X0505314Y0123513D03*
X0495314Y0123513D03*
X0495314Y0113513D03*
X0505314Y0113513D03*
X0531180Y0113513D03*
X0541180Y0113513D03*
X0541180Y0123513D03*
X0531180Y0123513D03*
X0531180Y0133513D03*
X0541180Y0133513D03*
X0613857Y0133513D03*
X0623857Y0133513D03*
X0623857Y0123513D03*
X0613857Y0123513D03*
X0613857Y0113513D03*
X0623857Y0113513D03*
X0564369Y0074457D03*
X0554369Y0074457D03*
X0554369Y0064457D03*
X0564369Y0064457D03*
X0564369Y0054457D03*
X0554369Y0054457D03*
X0481692Y0054457D03*
X0471692Y0054457D03*
X0471692Y0064457D03*
X0481692Y0064457D03*
X0481692Y0074457D03*
X0471692Y0074457D03*
X0471692Y0172568D03*
X0481692Y0172568D03*
X0481692Y0182568D03*
X0471692Y0182568D03*
X0471692Y0192568D03*
X0481692Y0192568D03*
X0554369Y0192568D03*
X0564369Y0192568D03*
X0564369Y0182568D03*
X0554369Y0182568D03*
X0554369Y0172568D03*
X0564369Y0172568D03*
X0245904Y0172568D03*
X0235904Y0172568D03*
X0235904Y0182568D03*
X0245904Y0182568D03*
X0245904Y0192568D03*
X0235904Y0192568D03*
X0163227Y0192568D03*
X0153227Y0192568D03*
X0153227Y0182568D03*
X0163227Y0182568D03*
X0163227Y0172568D03*
X0153227Y0172568D03*
X0104172Y0133513D03*
X0094172Y0133513D03*
X0094172Y0123513D03*
X0104172Y0123513D03*
X0104172Y0113513D03*
X0094172Y0113513D03*
D434*
X0344251Y0234930D03*
X0373778Y0234930D03*
D435*
X0368562Y0223001D03*
X0349467Y0223001D03*
D436*
X0344015Y0122774D03*
X0374015Y0122774D03*
D437*
X0373700Y0021150D03*
X0383700Y0021150D03*
X0393385Y0021150D03*
X0403385Y0021150D03*
X0364015Y0021150D03*
X0354015Y0021150D03*
X0344330Y0021150D03*
X0334330Y0021150D03*
X0324644Y0021150D03*
X0314644Y0021150D03*
D438*
X0208503Y0021150D03*
X0198503Y0021150D03*
X0509300Y0021150D03*
X0519300Y0021150D03*
D439*
X0386515Y0046180D03*
X0365373Y0046180D03*
X0352578Y0046180D03*
X0331436Y0046180D03*
X0331436Y0054054D03*
X0352578Y0054054D03*
X0365373Y0054054D03*
X0386515Y0054054D03*
X0386515Y0061928D03*
X0365373Y0061928D03*
X0352578Y0061928D03*
X0331436Y0061928D03*
X0331436Y0069802D03*
X0331436Y0077676D03*
X0352578Y0077676D03*
X0352578Y0069802D03*
X0365373Y0069802D03*
X0365373Y0077676D03*
X0386515Y0077676D03*
X0386515Y0069802D03*
D440*
X0296022Y0222922D03*
X0286180Y0222922D03*
X0276337Y0222922D03*
X0276337Y0232765D03*
X0286180Y0232765D03*
X0296022Y0232765D03*
D441*
X0347204Y0046150D03*
X0347204Y0039457D03*
X0381652Y0039457D03*
X0381652Y0046150D03*
M02*
