G75*
%MOIN*%
%OFA0B0*%
%FSLAX25Y25*%
%IPPOS*%
%LPD*%
%AMOC8*
5,1,8,0,0,1.08239X$1,22.5*
%
%ADD10C,0.00000*%
%ADD11R,0.05000X0.02500*%
%ADD12R,0.02500X0.05000*%
%ADD13C,0.07000*%
%ADD14R,0.07874X0.07874*%
%ADD15C,0.05150*%
%ADD16OC8,0.10000*%
%ADD17OC8,0.05200*%
%ADD18C,0.06600*%
%ADD19C,0.04756*%
%ADD20C,0.04331*%
%ADD21R,0.04331X0.03937*%
%ADD22OC8,0.02420*%
%ADD23C,0.03200*%
%ADD24C,0.00600*%
%ADD25C,0.01000*%
%ADD26C,0.01600*%
%ADD27C,0.01200*%
D10*
X0191692Y0005402D02*
X0526337Y0005402D01*
X0644447Y0123513D02*
X0644413Y0126367D01*
X0644309Y0129219D01*
X0644137Y0132068D01*
X0643896Y0134912D01*
X0643586Y0137750D01*
X0643208Y0140579D01*
X0642761Y0143398D01*
X0642247Y0146205D01*
X0641664Y0148999D01*
X0641015Y0151779D01*
X0640298Y0154541D01*
X0639515Y0157286D01*
X0638666Y0160011D01*
X0637752Y0162715D01*
X0636772Y0165395D01*
X0635727Y0168052D01*
X0634619Y0170682D01*
X0633448Y0173285D01*
X0632214Y0175858D01*
X0630918Y0178401D01*
X0629561Y0180913D01*
X0628144Y0183390D01*
X0626668Y0185833D01*
X0625132Y0188239D01*
X0623540Y0190607D01*
X0621890Y0192936D01*
X0620185Y0195225D01*
X0618424Y0197472D01*
X0616610Y0199675D01*
X0614744Y0201834D01*
X0612825Y0203948D01*
X0610856Y0206014D01*
X0608838Y0208032D01*
X0606772Y0210001D01*
X0604658Y0211920D01*
X0602499Y0213786D01*
X0600296Y0215600D01*
X0598049Y0217361D01*
X0595760Y0219066D01*
X0593431Y0220716D01*
X0591063Y0222308D01*
X0588657Y0223844D01*
X0586214Y0225320D01*
X0583737Y0226737D01*
X0581225Y0228094D01*
X0578682Y0229390D01*
X0576109Y0230624D01*
X0573506Y0231795D01*
X0570876Y0232903D01*
X0568219Y0233948D01*
X0565539Y0234928D01*
X0562835Y0235842D01*
X0560110Y0236691D01*
X0557365Y0237474D01*
X0554603Y0238191D01*
X0551823Y0238840D01*
X0549029Y0239423D01*
X0546222Y0239937D01*
X0543403Y0240384D01*
X0540574Y0240762D01*
X0537736Y0241072D01*
X0534892Y0241313D01*
X0532043Y0241485D01*
X0529191Y0241589D01*
X0526337Y0241623D01*
X0191692Y0241623D01*
X0188838Y0241589D01*
X0185986Y0241485D01*
X0183137Y0241313D01*
X0180293Y0241072D01*
X0177455Y0240762D01*
X0174626Y0240384D01*
X0171807Y0239937D01*
X0169000Y0239423D01*
X0166206Y0238840D01*
X0163426Y0238191D01*
X0160664Y0237474D01*
X0157919Y0236691D01*
X0155194Y0235842D01*
X0152490Y0234928D01*
X0149810Y0233948D01*
X0147153Y0232903D01*
X0144523Y0231795D01*
X0141920Y0230624D01*
X0139347Y0229390D01*
X0136804Y0228094D01*
X0134292Y0226737D01*
X0131815Y0225320D01*
X0129372Y0223844D01*
X0126966Y0222308D01*
X0124598Y0220716D01*
X0122269Y0219066D01*
X0119980Y0217361D01*
X0117733Y0215600D01*
X0115530Y0213786D01*
X0113371Y0211920D01*
X0111257Y0210001D01*
X0109191Y0208032D01*
X0107173Y0206014D01*
X0105204Y0203948D01*
X0103285Y0201834D01*
X0101419Y0199675D01*
X0099605Y0197472D01*
X0097844Y0195225D01*
X0096139Y0192936D01*
X0094489Y0190607D01*
X0092897Y0188239D01*
X0091361Y0185833D01*
X0089885Y0183390D01*
X0088468Y0180913D01*
X0087111Y0178401D01*
X0085815Y0175858D01*
X0084581Y0173285D01*
X0083410Y0170682D01*
X0082302Y0168052D01*
X0081257Y0165395D01*
X0080277Y0162715D01*
X0079363Y0160011D01*
X0078514Y0157286D01*
X0077731Y0154541D01*
X0077014Y0151779D01*
X0076365Y0148999D01*
X0075782Y0146205D01*
X0075268Y0143398D01*
X0074821Y0140579D01*
X0074443Y0137750D01*
X0074133Y0134912D01*
X0073892Y0132068D01*
X0073720Y0129219D01*
X0073616Y0126367D01*
X0073582Y0123513D01*
X0073616Y0120659D01*
X0073720Y0117807D01*
X0073892Y0114958D01*
X0074133Y0112114D01*
X0074443Y0109276D01*
X0074821Y0106447D01*
X0075268Y0103628D01*
X0075782Y0100821D01*
X0076365Y0098027D01*
X0077014Y0095247D01*
X0077731Y0092485D01*
X0078514Y0089740D01*
X0079363Y0087015D01*
X0080277Y0084311D01*
X0081257Y0081631D01*
X0082302Y0078974D01*
X0083410Y0076344D01*
X0084581Y0073741D01*
X0085815Y0071168D01*
X0087111Y0068625D01*
X0088468Y0066113D01*
X0089885Y0063636D01*
X0091361Y0061193D01*
X0092897Y0058787D01*
X0094489Y0056419D01*
X0096139Y0054090D01*
X0097844Y0051801D01*
X0099605Y0049554D01*
X0101419Y0047351D01*
X0103285Y0045192D01*
X0105204Y0043078D01*
X0107173Y0041012D01*
X0109191Y0038994D01*
X0111257Y0037025D01*
X0113371Y0035106D01*
X0115530Y0033240D01*
X0117733Y0031426D01*
X0119980Y0029665D01*
X0122269Y0027960D01*
X0124598Y0026310D01*
X0126966Y0024718D01*
X0129372Y0023182D01*
X0131815Y0021706D01*
X0134292Y0020289D01*
X0136804Y0018932D01*
X0139347Y0017636D01*
X0141920Y0016402D01*
X0144523Y0015231D01*
X0147153Y0014123D01*
X0149810Y0013078D01*
X0152490Y0012098D01*
X0155194Y0011184D01*
X0157919Y0010335D01*
X0160664Y0009552D01*
X0163426Y0008835D01*
X0166206Y0008186D01*
X0169000Y0007603D01*
X0171807Y0007089D01*
X0174626Y0006642D01*
X0177455Y0006264D01*
X0180293Y0005954D01*
X0183137Y0005713D01*
X0185986Y0005541D01*
X0188838Y0005437D01*
X0191692Y0005403D01*
X0526337Y0005403D02*
X0529191Y0005437D01*
X0532043Y0005541D01*
X0534892Y0005713D01*
X0537736Y0005954D01*
X0540574Y0006264D01*
X0543403Y0006642D01*
X0546222Y0007089D01*
X0549029Y0007603D01*
X0551823Y0008186D01*
X0554603Y0008835D01*
X0557365Y0009552D01*
X0560110Y0010335D01*
X0562835Y0011184D01*
X0565539Y0012098D01*
X0568219Y0013078D01*
X0570876Y0014123D01*
X0573506Y0015231D01*
X0576109Y0016402D01*
X0578682Y0017636D01*
X0581225Y0018932D01*
X0583737Y0020289D01*
X0586214Y0021706D01*
X0588657Y0023182D01*
X0591063Y0024718D01*
X0593431Y0026310D01*
X0595760Y0027960D01*
X0598049Y0029665D01*
X0600296Y0031426D01*
X0602499Y0033240D01*
X0604658Y0035106D01*
X0606772Y0037025D01*
X0608838Y0038994D01*
X0610856Y0041012D01*
X0612825Y0043078D01*
X0614744Y0045192D01*
X0616610Y0047351D01*
X0618424Y0049554D01*
X0620185Y0051801D01*
X0621890Y0054090D01*
X0623540Y0056419D01*
X0625132Y0058787D01*
X0626668Y0061193D01*
X0628144Y0063636D01*
X0629561Y0066113D01*
X0630918Y0068625D01*
X0632214Y0071168D01*
X0633448Y0073741D01*
X0634619Y0076344D01*
X0635727Y0078974D01*
X0636772Y0081631D01*
X0637752Y0084311D01*
X0638666Y0087015D01*
X0639515Y0089740D01*
X0640298Y0092485D01*
X0641015Y0095247D01*
X0641664Y0098027D01*
X0642247Y0100821D01*
X0642761Y0103628D01*
X0643208Y0106447D01*
X0643586Y0109276D01*
X0643896Y0112114D01*
X0644137Y0114958D01*
X0644309Y0117807D01*
X0644413Y0120659D01*
X0644447Y0123513D01*
D11*
X0375870Y0065074D03*
X0375870Y0061874D03*
X0375870Y0058674D03*
X0341972Y0058753D03*
X0341972Y0061953D03*
X0341972Y0065153D03*
D12*
X0294365Y0067253D03*
X0291165Y0067253D03*
X0287965Y0067253D03*
X0287965Y0073532D03*
X0291165Y0073532D03*
X0294365Y0073532D03*
X0294365Y0080058D03*
X0291165Y0080058D03*
X0287965Y0080058D03*
X0287901Y0058552D03*
X0291101Y0058552D03*
X0294301Y0058552D03*
X0294301Y0051662D03*
X0291101Y0051662D03*
X0287901Y0051662D03*
X0287901Y0044772D03*
X0291101Y0044772D03*
X0294301Y0044772D03*
X0424510Y0043788D03*
X0427710Y0043788D03*
X0430910Y0043788D03*
X0430910Y0050678D03*
X0427710Y0050678D03*
X0424510Y0050678D03*
X0424510Y0057445D03*
X0427710Y0057445D03*
X0430910Y0057445D03*
X0430910Y0067568D03*
X0427710Y0067568D03*
X0424510Y0067568D03*
X0424510Y0074083D03*
X0427710Y0074083D03*
X0430910Y0074083D03*
X0430910Y0080599D03*
X0427710Y0080599D03*
X0424510Y0080599D03*
D13*
X0471692Y0074457D03*
X0481692Y0074457D03*
X0481692Y0064457D03*
X0471692Y0064457D03*
X0471692Y0054457D03*
X0481692Y0054457D03*
X0554369Y0054457D03*
X0564369Y0054457D03*
X0564369Y0064457D03*
X0554369Y0064457D03*
X0554369Y0074457D03*
X0564369Y0074457D03*
X0541180Y0113513D03*
X0531180Y0113513D03*
X0505314Y0113513D03*
X0495314Y0113513D03*
X0495314Y0123513D03*
X0505314Y0123513D03*
X0505314Y0133513D03*
X0495314Y0133513D03*
X0531180Y0133513D03*
X0541180Y0133513D03*
X0541180Y0123513D03*
X0531180Y0123513D03*
X0613857Y0123513D03*
X0623857Y0123513D03*
X0623857Y0133513D03*
X0613857Y0133513D03*
X0613857Y0113513D03*
X0623857Y0113513D03*
X0564369Y0172568D03*
X0554369Y0172568D03*
X0554369Y0182568D03*
X0564369Y0182568D03*
X0564369Y0192568D03*
X0554369Y0192568D03*
X0481692Y0192568D03*
X0471692Y0192568D03*
X0471692Y0182568D03*
X0481692Y0182568D03*
X0481692Y0172568D03*
X0471692Y0172568D03*
X0422637Y0133513D03*
X0412637Y0133513D03*
X0412637Y0123513D03*
X0422637Y0123513D03*
X0422637Y0113513D03*
X0412637Y0113513D03*
X0304959Y0113513D03*
X0294959Y0113513D03*
X0294959Y0123513D03*
X0304959Y0123513D03*
X0304959Y0133513D03*
X0294959Y0133513D03*
X0222282Y0133513D03*
X0212282Y0133513D03*
X0212282Y0123513D03*
X0222282Y0123513D03*
X0222282Y0113513D03*
X0212282Y0113513D03*
X0186849Y0113513D03*
X0176849Y0113513D03*
X0176849Y0123513D03*
X0186849Y0123513D03*
X0186849Y0133513D03*
X0176849Y0133513D03*
X0104172Y0133513D03*
X0094172Y0133513D03*
X0094172Y0123513D03*
X0104172Y0123513D03*
X0104172Y0113513D03*
X0094172Y0113513D03*
X0153227Y0074457D03*
X0163227Y0074457D03*
X0163227Y0064457D03*
X0153227Y0064457D03*
X0153227Y0054457D03*
X0163227Y0054457D03*
X0235904Y0054457D03*
X0245904Y0054457D03*
X0245904Y0064457D03*
X0235904Y0064457D03*
X0235904Y0074457D03*
X0245904Y0074457D03*
X0245904Y0172568D03*
X0235904Y0172568D03*
X0235904Y0182568D03*
X0245904Y0182568D03*
X0245904Y0192568D03*
X0235904Y0192568D03*
X0163227Y0192568D03*
X0153227Y0192568D03*
X0153227Y0182568D03*
X0163227Y0182568D03*
X0163227Y0172568D03*
X0153227Y0172568D03*
D14*
X0344251Y0234930D03*
X0373778Y0234930D03*
D15*
X0368562Y0223001D03*
X0349467Y0223001D03*
D16*
X0344015Y0122774D03*
X0374015Y0122774D03*
D17*
X0373700Y0021150D03*
X0383700Y0021150D03*
X0393385Y0021150D03*
X0403385Y0021150D03*
X0364015Y0021150D03*
X0354015Y0021150D03*
X0344330Y0021150D03*
X0334330Y0021150D03*
X0324644Y0021150D03*
X0314644Y0021150D03*
D18*
X0208503Y0021150D03*
X0198503Y0021150D03*
X0509300Y0021150D03*
X0519300Y0021150D03*
D19*
X0386515Y0046180D03*
X0365373Y0046180D03*
X0352578Y0046180D03*
X0331436Y0046180D03*
X0331436Y0054054D03*
X0352578Y0054054D03*
X0365373Y0054054D03*
X0386515Y0054054D03*
X0386515Y0061928D03*
X0365373Y0061928D03*
X0352578Y0061928D03*
X0331436Y0061928D03*
X0331436Y0069802D03*
X0331436Y0077676D03*
X0352578Y0077676D03*
X0352578Y0069802D03*
X0365373Y0069802D03*
X0365373Y0077676D03*
X0386515Y0077676D03*
X0386515Y0069802D03*
D20*
X0296022Y0222922D03*
X0286180Y0222922D03*
X0276337Y0222922D03*
X0276337Y0232765D03*
X0286180Y0232765D03*
X0296022Y0232765D03*
D21*
X0347204Y0046150D03*
X0347204Y0039457D03*
X0381652Y0039457D03*
X0381652Y0046150D03*
D22*
X0376891Y0048700D03*
X0369103Y0049571D03*
X0358645Y0045388D03*
X0358030Y0040835D03*
X0369472Y0040835D03*
X0385989Y0039851D03*
X0390415Y0039502D03*
X0397615Y0039302D03*
X0403040Y0042851D03*
X0392240Y0045552D03*
X0408104Y0052477D03*
X0401337Y0058552D03*
X0396908Y0058183D03*
X0408473Y0061382D03*
X0401337Y0065442D03*
X0397400Y0065442D03*
X0397400Y0069379D03*
X0382637Y0067410D03*
X0376731Y0069379D03*
X0380356Y0072644D03*
X0372122Y0079175D03*
X0358958Y0077868D03*
X0358645Y0069994D03*
X0345604Y0072824D03*
X0336018Y0070675D03*
X0326042Y0073326D03*
X0321916Y0073136D03*
X0323335Y0068148D03*
X0317676Y0069379D03*
X0313739Y0069379D03*
X0310786Y0061505D03*
X0319644Y0061505D03*
X0336254Y0060890D03*
X0337504Y0055265D03*
X0343513Y0054000D03*
X0343513Y0050309D03*
X0358645Y0055230D03*
X0375870Y0055230D03*
X0341913Y0044403D03*
X0341913Y0040835D03*
X0337361Y0040097D03*
X0323581Y0036898D03*
X0312386Y0034069D03*
X0324935Y0045757D03*
X0320998Y0053631D03*
X0291101Y0051662D03*
X0291101Y0044772D03*
X0270678Y0041451D03*
X0251731Y0045757D03*
X0256652Y0049694D03*
X0246810Y0041820D03*
X0237952Y0041820D03*
X0227125Y0041820D03*
X0211377Y0041820D03*
X0205471Y0041820D03*
X0194644Y0040835D03*
X0194644Y0044772D03*
X0194644Y0049694D03*
X0200550Y0049694D03*
X0205471Y0051662D03*
X0211377Y0051662D03*
X0227125Y0054615D03*
X0212361Y0059536D03*
X0211869Y0071101D03*
X0211869Y0077499D03*
X0200550Y0084143D03*
X0189723Y0089064D03*
X0183818Y0089064D03*
X0177912Y0089064D03*
X0189723Y0094969D03*
X0189723Y0099891D03*
X0183818Y0099891D03*
X0177912Y0099891D03*
X0177912Y0105796D03*
X0183818Y0105796D03*
X0189723Y0105796D03*
X0200550Y0106780D03*
X0200550Y0115146D03*
X0207440Y0118591D03*
X0192184Y0117484D03*
X0163148Y0125481D03*
X0154290Y0125481D03*
X0168070Y0130402D03*
X0158227Y0137292D03*
X0144448Y0137292D03*
X0139526Y0137292D03*
X0134605Y0137292D03*
X0129684Y0137292D03*
X0129684Y0146150D03*
X0134605Y0146150D03*
X0139526Y0146150D03*
X0144448Y0146150D03*
X0167085Y0146150D03*
X0175944Y0145166D03*
X0175944Y0149103D03*
X0175944Y0154024D03*
X0175944Y0158946D03*
X0181849Y0154024D03*
X0190215Y0152056D03*
X0196244Y0148980D03*
X0193168Y0146150D03*
X0200550Y0142952D03*
X0210393Y0141229D03*
X0217282Y0138276D03*
X0200550Y0135078D03*
X0205471Y0128434D03*
X0234999Y0126465D03*
X0240904Y0128434D03*
X0245826Y0127450D03*
X0247794Y0130402D03*
X0244349Y0136431D03*
X0251731Y0138276D03*
X0251731Y0143198D03*
X0241889Y0143198D03*
X0232046Y0145166D03*
X0220235Y0145166D03*
X0213345Y0155993D03*
X0209408Y0160914D03*
X0200550Y0165835D03*
X0191692Y0167804D03*
X0191692Y0161898D03*
X0180865Y0161898D03*
X0175944Y0164851D03*
X0209408Y0169772D03*
X0209408Y0174694D03*
X0186770Y0178631D03*
X0175944Y0178631D03*
X0181849Y0188473D03*
X0186770Y0188473D03*
X0211377Y0188473D03*
X0225156Y0188473D03*
X0225156Y0194379D03*
X0203503Y0199300D03*
X0196613Y0195363D03*
X0215314Y0203237D03*
X0225156Y0207174D03*
X0207440Y0213080D03*
X0218267Y0217017D03*
X0191692Y0204221D03*
X0186770Y0204221D03*
X0254684Y0198316D03*
X0258621Y0202253D03*
X0263542Y0202253D03*
X0268463Y0202253D03*
X0277076Y0206682D03*
X0281136Y0206805D03*
X0284704Y0206805D03*
X0288148Y0206682D03*
X0301805Y0205698D03*
X0305865Y0205206D03*
X0313985Y0205206D03*
X0321367Y0205206D03*
X0324935Y0211603D03*
X0338345Y0205206D03*
X0341298Y0207174D03*
X0347752Y0201269D03*
X0355769Y0199246D03*
X0358556Y0201058D03*
X0365233Y0199300D03*
X0367078Y0202007D03*
X0370456Y0198562D03*
X0370456Y0195363D03*
X0365053Y0195865D03*
X0358692Y0197331D03*
X0357605Y0193933D03*
X0351320Y0191113D03*
X0347875Y0191113D03*
X0348188Y0187735D03*
X0348065Y0183552D03*
X0362526Y0180420D03*
X0366889Y0179615D03*
X0370333Y0181583D03*
X0372794Y0175678D03*
X0375747Y0171741D03*
X0367873Y0169034D03*
X0356185Y0168788D03*
X0349229Y0167491D03*
X0349352Y0164170D03*
X0345850Y0159438D03*
X0343087Y0156977D03*
X0346096Y0154270D03*
X0336746Y0151072D03*
X0339206Y0148365D03*
X0332440Y0151072D03*
X0334408Y0154024D03*
X0329733Y0148119D03*
X0330963Y0142706D03*
X0348434Y0150210D03*
X0369841Y0153040D03*
X0375747Y0153040D03*
X0400353Y0154024D03*
X0411086Y0154024D03*
X0411081Y0144246D03*
X0407735Y0144182D03*
X0404290Y0144182D03*
X0441692Y0146150D03*
X0448951Y0149349D03*
X0452888Y0149226D03*
X0461377Y0146150D03*
X0466175Y0153532D03*
X0463222Y0156116D03*
X0471834Y0162760D03*
X0464945Y0168665D03*
X0452149Y0162760D03*
X0446244Y0168665D03*
X0440338Y0174571D03*
X0448951Y0179738D03*
X0437755Y0182568D03*
X0425575Y0180476D03*
X0416529Y0180476D03*
X0411706Y0178621D03*
X0407612Y0178631D03*
X0405520Y0181214D03*
X0403306Y0178631D03*
X0399615Y0178631D03*
X0401706Y0187996D03*
X0399047Y0190631D03*
X0412779Y0190319D03*
X0425575Y0190319D03*
X0437386Y0189334D03*
X0450806Y0192287D03*
X0456086Y0186694D03*
X0464945Y0186694D03*
X0499394Y0174571D03*
X0504315Y0174571D03*
X0504315Y0169649D03*
X0509236Y0169649D03*
X0518463Y0165835D03*
X0528921Y0169649D03*
X0533842Y0169649D03*
X0538764Y0169649D03*
X0538764Y0174571D03*
X0533842Y0174571D03*
X0528921Y0174571D03*
X0528921Y0188350D03*
X0533842Y0188350D03*
X0538764Y0188350D03*
X0523016Y0194256D03*
X0514157Y0194256D03*
X0512558Y0202253D03*
X0498409Y0205082D03*
X0490535Y0205082D03*
X0490535Y0215909D03*
X0503331Y0215909D03*
X0450181Y0215909D03*
X0427543Y0215663D03*
X0419206Y0214871D03*
X0414871Y0215540D03*
X0405767Y0219846D03*
X0401460Y0220461D03*
X0405767Y0223414D03*
X0411180Y0223291D03*
X0422100Y0221748D03*
X0411549Y0230673D03*
X0405767Y0230673D03*
X0389526Y0233749D03*
X0378331Y0228705D03*
X0385097Y0227720D03*
X0377223Y0225383D03*
X0377346Y0219723D03*
X0373163Y0219723D03*
X0379561Y0215294D03*
X0389526Y0218001D03*
X0399189Y0211111D03*
X0401337Y0205784D03*
X0409831Y0203308D03*
X0414967Y0204098D03*
X0425575Y0204098D03*
X0437386Y0204098D03*
X0450181Y0206067D03*
X0384674Y0207363D03*
X0362459Y0212029D03*
X0354831Y0214679D03*
X0349654Y0215786D03*
X0344251Y0216269D03*
X0345769Y0219871D03*
X0343220Y0222580D03*
X0353845Y0227268D03*
X0361475Y0230796D03*
X0338744Y0229320D03*
X0333274Y0229175D03*
X0334558Y0234809D03*
X0334558Y0237686D03*
X0338269Y0235808D03*
X0330594Y0234713D03*
X0321296Y0231847D03*
X0317676Y0232149D03*
X0314108Y0231847D03*
X0304266Y0232765D03*
X0304266Y0228828D03*
X0288641Y0227966D03*
X0285319Y0227843D03*
X0289994Y0236579D03*
X0282243Y0217017D03*
X0277322Y0217017D03*
X0272400Y0217017D03*
X0295776Y0216032D03*
X0303773Y0217263D03*
X0310294Y0198193D03*
X0303035Y0196593D03*
X0299344Y0196593D03*
X0295038Y0196347D03*
X0291593Y0196347D03*
X0286057Y0200407D03*
X0268463Y0194379D03*
X0263542Y0194379D03*
X0258621Y0194379D03*
X0290117Y0184536D03*
X0302912Y0184536D03*
X0310417Y0179123D03*
X0297991Y0176662D03*
X0303896Y0173832D03*
X0313739Y0172725D03*
X0303896Y0165835D03*
X0298237Y0167189D03*
X0296515Y0162144D03*
X0296515Y0158454D03*
X0292331Y0156362D03*
X0288148Y0156362D03*
X0276337Y0158946D03*
X0266864Y0156116D03*
X0262435Y0158946D03*
X0252715Y0156977D03*
X0246810Y0156977D03*
X0240904Y0156977D03*
X0258129Y0150826D03*
X0274984Y0148734D03*
X0276583Y0144674D03*
X0280274Y0144182D03*
X0283965Y0143936D03*
X0288148Y0143813D03*
X0285196Y0137292D03*
X0265142Y0137907D03*
X0285196Y0128434D03*
X0271416Y0125604D03*
X0280274Y0125481D03*
X0270432Y0121790D03*
X0266495Y0120560D03*
X0248409Y0121790D03*
X0244841Y0120683D03*
X0261081Y0113547D03*
X0261205Y0109979D03*
X0266495Y0112686D03*
X0280274Y0112686D03*
X0285196Y0112686D03*
X0248409Y0109979D03*
X0243611Y0110102D03*
X0214330Y0099891D03*
X0209408Y0094969D03*
X0219251Y0092017D03*
X0214330Y0087095D03*
X0223188Y0095954D03*
X0249763Y0093985D03*
X0249763Y0089064D03*
X0249763Y0084143D03*
X0261574Y0084143D03*
X0261574Y0089064D03*
X0269940Y0085496D03*
X0269940Y0081928D03*
X0269940Y0078114D03*
X0261574Y0079221D03*
X0261574Y0074300D03*
X0253700Y0072331D03*
X0269940Y0074423D03*
X0269940Y0069748D03*
X0269940Y0065688D03*
X0269940Y0061997D03*
X0291101Y0058552D03*
X0291165Y0067253D03*
X0291165Y0073532D03*
X0291165Y0080058D03*
X0319152Y0080944D03*
X0325304Y0081682D03*
X0329534Y0081862D03*
X0335639Y0082051D03*
X0337361Y0079221D03*
X0343759Y0082174D03*
X0347327Y0082174D03*
X0352125Y0087095D03*
X0357046Y0087095D03*
X0361967Y0087095D03*
X0375747Y0097922D03*
X0379684Y0097922D03*
X0383621Y0097922D03*
X0407243Y0097922D03*
X0412656Y0099152D03*
X0417085Y0096938D03*
X0422007Y0096938D03*
X0427956Y0097996D03*
X0418562Y0101859D03*
X0422007Y0105796D03*
X0437386Y0103335D03*
X0446613Y0098906D03*
X0450550Y0094969D03*
X0441323Y0094477D03*
X0441020Y0090048D03*
X0444644Y0090048D03*
X0447474Y0083158D03*
X0447597Y0079713D03*
X0447720Y0076022D03*
X0435493Y0077221D03*
X0427710Y0074083D03*
X0427710Y0067568D03*
X0421022Y0063473D03*
X0427710Y0057445D03*
X0434243Y0057533D03*
X0435786Y0052646D03*
X0427710Y0050678D03*
X0436394Y0047371D03*
X0427710Y0043788D03*
X0420365Y0044927D03*
X0435769Y0039871D03*
X0447597Y0041451D03*
X0457440Y0038867D03*
X0452519Y0048709D03*
X0454610Y0052154D03*
X0460393Y0054615D03*
X0460393Y0058552D03*
X0455840Y0058921D03*
X0452371Y0058946D03*
X0465626Y0062442D03*
X0462792Y0065749D03*
X0458670Y0066795D03*
X0460393Y0072331D03*
X0454487Y0072331D03*
X0447720Y0072455D03*
X0448581Y0067410D03*
X0427710Y0080599D03*
X0408350Y0080821D03*
X0408350Y0077376D03*
X0404868Y0077034D03*
X0393094Y0073439D03*
X0402681Y0081721D03*
X0402681Y0085658D03*
X0398744Y0085658D03*
X0412656Y0087408D03*
X0455471Y0108749D03*
X0455594Y0113424D03*
X0447597Y0116623D03*
X0473188Y0116623D03*
X0473188Y0110717D03*
X0468267Y0105796D03*
X0473188Y0100875D03*
X0473188Y0093985D03*
X0468267Y0093985D03*
X0468267Y0087095D03*
X0473188Y0087095D03*
X0495826Y0089064D03*
X0500747Y0089064D03*
X0505668Y0089064D03*
X0518463Y0083158D03*
X0533227Y0083158D03*
X0538148Y0083158D03*
X0538148Y0089064D03*
X0533227Y0089064D03*
X0528306Y0089064D03*
X0550944Y0081190D03*
X0530520Y0077991D03*
X0522400Y0076515D03*
X0514526Y0076638D03*
X0506898Y0077991D03*
X0500747Y0078237D03*
X0495826Y0078237D03*
X0488936Y0077745D03*
X0506898Y0071101D03*
X0505299Y0064334D03*
X0530520Y0071101D03*
X0533227Y0068394D03*
X0531874Y0064334D03*
X0538148Y0068394D03*
X0539133Y0051662D03*
X0534211Y0051662D03*
X0529290Y0051662D03*
X0523016Y0051539D03*
X0518463Y0049694D03*
X0514157Y0051539D03*
X0514157Y0044649D03*
X0529290Y0041820D03*
X0534211Y0041820D03*
X0539133Y0041820D03*
X0554512Y0099768D03*
X0562386Y0099768D03*
X0569275Y0099768D03*
X0578134Y0099768D03*
X0570260Y0112563D03*
X0562386Y0112563D03*
X0554512Y0112563D03*
X0554512Y0119453D03*
X0525599Y0119576D03*
X0518463Y0116623D03*
X0510343Y0117238D03*
X0491706Y0119246D03*
X0507637Y0108011D03*
X0518463Y0107765D03*
X0535381Y0100571D03*
X0523139Y0128434D03*
X0518463Y0135816D03*
X0536180Y0138892D03*
X0528306Y0143444D03*
X0518463Y0144551D03*
X0511574Y0146643D03*
X0513788Y0149841D03*
X0496072Y0149841D03*
X0493572Y0146150D03*
X0484015Y0146150D03*
X0481631Y0136921D03*
X0477740Y0136800D03*
X0473065Y0136800D03*
X0469497Y0136677D03*
X0461377Y0137292D03*
X0452765Y0136923D03*
X0448951Y0136923D03*
X0441692Y0137292D03*
X0447597Y0128434D03*
X0456456Y0128434D03*
X0466298Y0128434D03*
X0473188Y0128434D03*
X0490456Y0136433D03*
X0536795Y0148980D03*
X0554512Y0146027D03*
X0562386Y0146027D03*
X0570260Y0146027D03*
X0577149Y0146027D03*
X0554512Y0138153D03*
X0554512Y0128311D03*
X0612582Y0141106D03*
X0538764Y0159807D03*
X0533842Y0159807D03*
X0528921Y0159807D03*
X0493365Y0156116D03*
X0489551Y0162760D03*
X0411086Y0166820D03*
X0400353Y0166820D03*
X0357292Y0163006D03*
X0332440Y0170757D03*
X0327519Y0181583D03*
X0324320Y0184782D03*
X0320629Y0186505D03*
X0332440Y0189064D03*
X0347875Y0195050D03*
X0336746Y0195363D03*
X0336746Y0198808D03*
X0318168Y0195363D03*
X0364797Y0189950D03*
X0370456Y0189704D03*
X0380668Y0194748D03*
X0271047Y0162144D03*
X0259359Y0162144D03*
X0266495Y0167804D03*
X0262558Y0171741D03*
X0258621Y0175678D03*
X0252715Y0169772D03*
X0320629Y0154024D03*
X0313739Y0128434D03*
X0304881Y0097922D03*
X0300944Y0097922D03*
X0297007Y0097922D03*
X0286180Y0099891D03*
X0286180Y0095831D03*
X0282489Y0095954D03*
X0279659Y0098414D03*
X0326534Y0097922D03*
X0330471Y0097922D03*
X0334408Y0097922D03*
X0188493Y0077499D03*
X0183818Y0077253D03*
X0177912Y0077253D03*
X0188493Y0071101D03*
X0183818Y0068394D03*
X0177912Y0068394D03*
X0185786Y0059536D03*
X0173360Y0056830D03*
X0178527Y0053631D03*
X0184433Y0053631D03*
X0241889Y0031977D03*
X0144448Y0099891D03*
X0139526Y0099891D03*
X0134605Y0099891D03*
X0129684Y0099891D03*
X0129684Y0105796D03*
X0134605Y0105796D03*
X0139526Y0105796D03*
X0144448Y0105796D03*
X0125747Y0125481D03*
X0429389Y0234241D03*
X0433894Y0238621D03*
X0405297Y0237610D03*
D23*
X0427420Y0234241D02*
X0404290Y0211111D01*
X0399189Y0211111D01*
X0503700Y0211111D01*
X0512558Y0202253D01*
X0518463Y0196347D01*
X0518463Y0165835D01*
X0518463Y0144551D01*
X0518463Y0135816D01*
X0518463Y0116623D01*
X0518463Y0107765D01*
X0518463Y0083158D01*
X0518463Y0049694D01*
X0518463Y0022135D01*
X0519300Y0021298D01*
X0519300Y0021150D01*
X0200550Y0023198D02*
X0198503Y0021150D01*
X0200550Y0023198D02*
X0200550Y0049694D01*
X0200550Y0084143D01*
X0200550Y0106780D01*
X0200550Y0115146D01*
X0200550Y0135078D01*
X0200550Y0142952D01*
X0200550Y0165835D01*
X0200550Y0196347D01*
X0203503Y0199300D01*
X0216298Y0212095D01*
X0290117Y0212095D01*
X0300944Y0212095D01*
X0301928Y0211111D01*
X0324566Y0211111D01*
X0352966Y0211111D01*
X0353269Y0210808D01*
X0356394Y0210808D01*
X0356706Y0211121D01*
X0399189Y0211111D01*
X0427420Y0234241D02*
X0429389Y0234241D01*
D24*
X0433894Y0238621D02*
X0433894Y0229558D01*
X0419206Y0214871D01*
X0411180Y0221938D02*
X0411180Y0223291D01*
X0411180Y0221938D02*
X0403183Y0213941D01*
X0380914Y0213941D01*
X0379561Y0215294D01*
X0380545Y0217632D02*
X0382760Y0215417D01*
X0402568Y0215417D01*
X0405767Y0218616D01*
X0405767Y0219846D01*
X0401460Y0220461D02*
X0401460Y0227843D01*
X0389034Y0240269D01*
X0325796Y0240269D01*
X0317676Y0232149D01*
X0329344Y0234713D02*
X0330594Y0234713D01*
X0329344Y0234713D02*
X0311894Y0217263D01*
X0303773Y0217263D01*
X0301067Y0216032D02*
X0303158Y0213941D01*
X0347809Y0213941D01*
X0349654Y0215786D01*
X0348860Y0218436D02*
X0356487Y0218436D01*
X0358769Y0216155D01*
X0373778Y0216155D01*
X0377346Y0219723D01*
X0378577Y0217632D02*
X0375501Y0214556D01*
X0354955Y0214556D01*
X0354831Y0214679D01*
X0348860Y0218436D02*
X0346825Y0216401D01*
X0344430Y0216401D01*
X0344251Y0216269D01*
X0345769Y0219871D02*
X0345769Y0223621D01*
X0344206Y0225183D01*
X0332644Y0225183D01*
X0329831Y0227996D01*
X0329831Y0230808D01*
X0331394Y0232371D01*
X0337644Y0232371D01*
X0338269Y0232996D01*
X0338269Y0235808D01*
X0338744Y0229320D02*
X0348968Y0229320D01*
X0351081Y0231433D01*
X0358869Y0231433D01*
X0359507Y0230796D01*
X0361475Y0230796D01*
X0359519Y0228308D02*
X0357956Y0229871D01*
X0351706Y0229871D01*
X0349679Y0227843D01*
X0341866Y0227843D01*
X0340769Y0226746D01*
X0335703Y0226746D01*
X0333274Y0229175D01*
X0359519Y0228308D02*
X0374298Y0228308D01*
X0377223Y0225383D01*
X0374763Y0227843D01*
X0389526Y0233749D02*
X0389526Y0218001D01*
X0380545Y0217632D02*
X0378577Y0217632D01*
X0362459Y0212029D02*
X0361721Y0211603D01*
X0324935Y0211603D01*
X0324935Y0211480D01*
X0324566Y0211111D01*
X0321367Y0205206D02*
X0318414Y0208158D01*
X0300944Y0208158D01*
X0299959Y0209143D01*
X0283473Y0209143D01*
X0281136Y0206805D01*
X0284704Y0206805D02*
X0287287Y0204221D01*
X0288518Y0204221D01*
X0295038Y0197701D01*
X0295038Y0196347D01*
X0297130Y0194256D01*
X0312755Y0194256D01*
X0316200Y0197701D01*
X0335639Y0197701D01*
X0336746Y0198808D01*
X0335146Y0201269D02*
X0333055Y0199177D01*
X0315215Y0199177D01*
X0311770Y0195732D01*
X0308326Y0195732D01*
X0305865Y0198193D01*
X0305865Y0205206D01*
X0303035Y0203975D02*
X0301805Y0205698D01*
X0303035Y0203975D02*
X0303035Y0196593D01*
X0299344Y0196593D02*
X0298237Y0196593D01*
X0288148Y0206682D01*
X0290117Y0212095D02*
X0293070Y0215048D01*
X0293070Y0217017D01*
X0296022Y0219969D01*
X0296022Y0222922D01*
X0295776Y0216032D02*
X0301067Y0216032D01*
X0291224Y0227966D02*
X0296022Y0232765D01*
X0289994Y0236579D02*
X0286180Y0232765D01*
X0281259Y0227843D02*
X0276337Y0232765D01*
X0281259Y0227843D02*
X0285319Y0227843D01*
X0288641Y0227966D02*
X0291224Y0227966D01*
X0341298Y0207174D02*
X0345112Y0207174D01*
X0345727Y0206559D01*
X0350279Y0206559D01*
X0353289Y0203550D01*
X0353289Y0194994D01*
X0355570Y0192713D01*
X0355570Y0189950D01*
X0349172Y0183552D01*
X0348065Y0183552D01*
X0345604Y0179861D02*
X0345604Y0188842D01*
X0347875Y0191113D01*
X0350336Y0192098D02*
X0350336Y0202319D01*
X0349049Y0203606D01*
X0343144Y0203606D01*
X0342897Y0203360D01*
X0339822Y0203360D01*
X0339330Y0202868D01*
X0334654Y0202868D01*
X0332440Y0200653D01*
X0312755Y0200653D01*
X0310294Y0198193D01*
X0318168Y0195363D02*
X0336746Y0195363D01*
X0335146Y0201269D02*
X0347752Y0201269D01*
X0349664Y0205082D02*
X0351812Y0202934D01*
X0351812Y0194379D01*
X0354093Y0192098D01*
X0354093Y0190565D01*
X0352181Y0188653D01*
X0350459Y0188653D01*
X0349541Y0187735D01*
X0348188Y0187735D01*
X0351320Y0191113D02*
X0350336Y0192098D01*
X0359630Y0191795D02*
X0360983Y0191795D01*
X0365053Y0195865D01*
X0368119Y0196347D02*
X0368119Y0195363D01*
X0365166Y0192410D01*
X0363936Y0192410D01*
X0361844Y0190319D01*
X0360245Y0190319D01*
X0327149Y0157223D01*
X0322966Y0157223D01*
X0322228Y0157961D01*
X0319029Y0157961D01*
X0318045Y0156977D01*
X0297991Y0156977D01*
X0296515Y0158454D01*
X0296515Y0161898D02*
X0299959Y0158454D01*
X0317430Y0158454D01*
X0318414Y0159438D01*
X0322843Y0159438D01*
X0323581Y0158700D01*
X0326534Y0158700D01*
X0359630Y0191795D01*
X0360614Y0188596D02*
X0363444Y0188596D01*
X0364797Y0189950D01*
X0365658Y0187120D02*
X0361229Y0187120D01*
X0326657Y0152548D01*
X0322597Y0152548D01*
X0321613Y0151564D01*
X0319768Y0151564D01*
X0318783Y0152548D01*
X0274492Y0152548D01*
X0272769Y0150826D01*
X0258129Y0150826D01*
X0274369Y0154024D02*
X0320629Y0154024D01*
X0322351Y0155747D02*
X0321613Y0156485D01*
X0319644Y0156485D01*
X0318660Y0155501D01*
X0293070Y0155501D01*
X0292331Y0156362D01*
X0288394Y0156239D02*
X0294054Y0161898D01*
X0294054Y0163129D01*
X0295530Y0164605D01*
X0297499Y0164605D01*
X0298975Y0163129D01*
X0298975Y0161652D01*
X0300698Y0159930D01*
X0316815Y0159930D01*
X0318045Y0161160D01*
X0323212Y0161160D01*
X0323828Y0160545D01*
X0326288Y0160545D01*
X0345604Y0179861D01*
X0352248Y0171741D02*
X0360926Y0180420D01*
X0362526Y0180420D01*
X0362090Y0183675D02*
X0368242Y0183675D01*
X0370333Y0181583D01*
X0369718Y0182199D01*
X0368857Y0179615D02*
X0369841Y0178631D01*
X0371072Y0178631D01*
X0376485Y0184044D01*
X0432833Y0184044D01*
X0436770Y0180107D01*
X0439354Y0180107D01*
X0460639Y0158823D01*
X0460639Y0155255D01*
X0462361Y0153532D01*
X0466175Y0153532D01*
X0463222Y0156116D02*
X0463099Y0156239D01*
X0463099Y0158577D01*
X0439108Y0182568D01*
X0437755Y0182568D01*
X0438493Y0185520D02*
X0473065Y0150949D01*
X0473065Y0140245D01*
X0469497Y0136677D01*
X0473065Y0136800D02*
X0474664Y0138399D01*
X0474664Y0151687D01*
X0453134Y0173217D01*
X0453134Y0179615D01*
X0436524Y0196224D01*
X0382637Y0196224D01*
X0377592Y0201269D01*
X0369718Y0201269D01*
X0367750Y0199300D01*
X0365233Y0199300D01*
X0362582Y0200284D02*
X0362582Y0197947D01*
X0361967Y0197331D01*
X0358692Y0197331D01*
X0356081Y0199558D02*
X0355769Y0199246D01*
X0356081Y0199558D02*
X0356081Y0202371D01*
X0357644Y0203933D01*
X0361081Y0203933D01*
X0364831Y0207683D01*
X0368894Y0207683D01*
X0369206Y0207371D01*
X0380144Y0207371D01*
X0385144Y0202371D01*
X0408894Y0202371D01*
X0409831Y0203308D01*
X0384581Y0200883D02*
X0438381Y0200883D01*
X0454981Y0184283D01*
X0466694Y0184283D01*
X0469781Y0187371D01*
X0474581Y0187371D01*
X0476781Y0185171D01*
X0476781Y0169971D01*
X0473781Y0166971D01*
X0469781Y0166971D01*
X0467781Y0164971D01*
X0467781Y0162971D01*
X0478094Y0152658D01*
X0478094Y0140458D01*
X0481631Y0136921D01*
X0477740Y0136800D02*
X0476387Y0138153D01*
X0476387Y0152302D01*
X0454733Y0173956D01*
X0454733Y0180230D01*
X0437263Y0197701D01*
X0383375Y0197701D01*
X0378331Y0202745D01*
X0367816Y0202745D01*
X0367078Y0202007D01*
X0368119Y0204221D02*
X0378946Y0204221D01*
X0383990Y0199177D01*
X0437878Y0199177D01*
X0454487Y0182568D01*
X0471692Y0182568D01*
X0448951Y0181706D02*
X0448951Y0179738D01*
X0448951Y0181706D02*
X0435909Y0194748D01*
X0380668Y0194748D01*
X0370456Y0195363D02*
X0367750Y0192656D01*
X0367750Y0189211D01*
X0365658Y0187120D01*
X0366273Y0185520D02*
X0361721Y0185520D01*
X0327395Y0151195D01*
X0327395Y0144674D01*
X0314108Y0131387D01*
X0312755Y0131387D01*
X0304959Y0123591D01*
X0304959Y0123513D01*
X0284088Y0141475D02*
X0281874Y0139261D01*
X0281259Y0139261D01*
X0257760Y0115762D01*
X0257760Y0075407D01*
X0258498Y0074669D01*
X0258498Y0070609D01*
X0255545Y0067656D01*
X0255545Y0063596D01*
X0251731Y0059782D01*
X0251731Y0052646D01*
X0241889Y0042804D01*
X0241889Y0031977D01*
X0270678Y0041451D02*
X0272154Y0039974D01*
X0309802Y0039851D01*
X0312386Y0037268D01*
X0312386Y0034069D01*
X0323581Y0036898D02*
X0323581Y0030009D01*
X0314802Y0021229D01*
X0314723Y0021229D01*
X0314644Y0021150D01*
X0334330Y0021150D02*
X0341913Y0028734D01*
X0341913Y0040835D01*
X0347204Y0046150D02*
X0352548Y0046150D01*
X0352578Y0046180D01*
X0358030Y0040835D02*
X0358030Y0025087D01*
X0354093Y0021150D01*
X0354015Y0021150D01*
X0369472Y0025378D02*
X0373700Y0021150D01*
X0369472Y0025378D02*
X0369472Y0040835D01*
X0375993Y0042681D02*
X0369103Y0049571D01*
X0372019Y0051121D02*
X0384519Y0051121D01*
X0385456Y0050183D01*
X0392644Y0050183D01*
X0398894Y0044246D01*
X0398894Y0041433D01*
X0401706Y0038621D01*
X0434519Y0038621D01*
X0435769Y0039871D01*
X0432644Y0040183D02*
X0435769Y0043308D01*
X0435769Y0046746D01*
X0436394Y0047371D01*
X0428527Y0048586D02*
X0428527Y0049861D01*
X0427710Y0050678D01*
X0427710Y0049403D01*
X0428527Y0048586D01*
X0424510Y0050678D02*
X0424510Y0057445D01*
X0421269Y0057445D01*
X0416224Y0062489D01*
X0409581Y0062489D01*
X0408473Y0061382D01*
X0395309Y0061382D01*
X0390757Y0065934D01*
X0385712Y0065934D01*
X0384852Y0065074D01*
X0375870Y0065074D01*
X0375870Y0061874D02*
X0372425Y0061874D01*
X0370826Y0063473D01*
X0370826Y0068394D01*
X0371810Y0069379D01*
X0376731Y0069379D01*
X0380356Y0072644D02*
X0383198Y0069802D01*
X0386515Y0069802D01*
X0385466Y0073439D02*
X0393094Y0073439D01*
X0385466Y0073439D02*
X0382637Y0076269D01*
X0366780Y0076269D01*
X0365373Y0077676D01*
X0356374Y0079893D02*
X0356374Y0073599D01*
X0352578Y0069802D01*
X0348188Y0067410D02*
X0346219Y0069379D01*
X0337314Y0069379D01*
X0336018Y0070675D01*
X0335255Y0073621D02*
X0331436Y0069802D01*
X0332661Y0073326D02*
X0326042Y0073326D01*
X0322285Y0073136D02*
X0326894Y0077745D01*
X0331367Y0077745D01*
X0331436Y0077676D01*
X0335033Y0078107D02*
X0336394Y0076746D01*
X0347019Y0076746D01*
X0348510Y0078237D01*
X0348547Y0078237D01*
X0348547Y0079581D01*
X0350156Y0081190D01*
X0355078Y0081190D01*
X0356374Y0079893D01*
X0352578Y0077676D02*
X0350144Y0075183D01*
X0334519Y0075183D01*
X0332661Y0073326D01*
X0335255Y0073621D02*
X0344807Y0073621D01*
X0345604Y0072824D01*
X0348188Y0067410D02*
X0348188Y0063473D01*
X0346667Y0061953D01*
X0341972Y0061953D01*
X0341972Y0065153D02*
X0341929Y0065196D01*
X0338591Y0065196D01*
X0337976Y0064581D01*
X0333793Y0064581D01*
X0332563Y0065811D01*
X0315092Y0065811D01*
X0310786Y0061505D01*
X0309802Y0062489D01*
X0289256Y0062489D01*
X0288025Y0063719D01*
X0288025Y0067193D01*
X0287965Y0067253D01*
X0287965Y0058616D01*
X0287901Y0058552D02*
X0287901Y0051662D01*
X0287901Y0044772D01*
X0291101Y0044772D02*
X0291101Y0042804D01*
X0331436Y0054054D02*
X0331505Y0054123D01*
X0335080Y0054123D01*
X0338894Y0050309D01*
X0343513Y0050309D01*
X0343513Y0054000D02*
X0352523Y0054000D01*
X0352578Y0054054D01*
X0365373Y0054054D02*
X0369086Y0054054D01*
X0372019Y0051121D01*
X0372794Y0052646D02*
X0379315Y0052646D01*
X0384605Y0057937D01*
X0396662Y0057937D01*
X0396908Y0058183D01*
X0390961Y0054054D02*
X0386515Y0054054D01*
X0390961Y0054054D02*
X0400456Y0044871D01*
X0400456Y0042058D01*
X0402331Y0040183D01*
X0432644Y0040183D01*
X0428281Y0041697D02*
X0428281Y0043217D01*
X0427710Y0043788D01*
X0427710Y0042268D01*
X0428281Y0041697D01*
X0424712Y0043586D02*
X0424510Y0043788D01*
X0424510Y0050678D01*
X0428281Y0055476D02*
X0428281Y0056874D01*
X0427710Y0057445D01*
X0427710Y0056047D01*
X0428281Y0055476D01*
X0435786Y0052646D02*
X0436278Y0052154D01*
X0454610Y0052154D01*
X0453134Y0054615D02*
X0446613Y0061136D01*
X0419792Y0061136D01*
X0419792Y0061160D01*
X0415456Y0065496D01*
X0406394Y0065496D01*
X0402331Y0069558D01*
X0402331Y0077996D01*
X0405156Y0080821D01*
X0408350Y0080821D01*
X0408350Y0077376D02*
X0410934Y0077376D01*
X0412656Y0079098D01*
X0412656Y0087408D01*
X0408381Y0089895D02*
X0408104Y0090171D01*
X0289502Y0090171D01*
X0287779Y0091894D01*
X0280520Y0091894D01*
X0262435Y0109979D01*
X0261205Y0109979D01*
X0261081Y0113547D02*
X0281136Y0093493D01*
X0288394Y0093493D01*
X0290240Y0091647D01*
X0408719Y0091647D01*
X0408996Y0091371D01*
X0429665Y0091371D01*
X0441323Y0079713D01*
X0444152Y0079713D01*
X0447720Y0076145D01*
X0447720Y0076022D01*
X0447720Y0072578D02*
X0442184Y0078114D01*
X0440707Y0078114D01*
X0428927Y0089895D01*
X0408381Y0089895D01*
X0409611Y0092847D02*
X0409334Y0093124D01*
X0290855Y0093124D01*
X0288148Y0095831D01*
X0286180Y0095831D01*
X0286180Y0099891D02*
X0291470Y0094600D01*
X0409950Y0094600D01*
X0410226Y0094324D01*
X0430895Y0094324D01*
X0442061Y0083158D01*
X0447474Y0083158D01*
X0445769Y0084871D02*
X0446394Y0085496D01*
X0460456Y0085496D01*
X0466706Y0079246D01*
X0466706Y0069443D01*
X0471692Y0064457D01*
X0462792Y0065749D02*
X0455963Y0058921D01*
X0455840Y0058921D01*
X0453134Y0054615D02*
X0460393Y0054615D01*
X0427912Y0065442D02*
X0427912Y0067366D01*
X0427710Y0067568D01*
X0427710Y0065644D01*
X0427912Y0065442D01*
X0427912Y0071962D02*
X0427912Y0073882D01*
X0427710Y0074083D01*
X0427710Y0072164D01*
X0427912Y0071962D01*
X0447720Y0072455D02*
X0447720Y0072578D01*
X0447597Y0079713D02*
X0447105Y0079713D01*
X0445629Y0081190D01*
X0441938Y0081190D01*
X0430280Y0092847D01*
X0409611Y0092847D01*
X0412656Y0099152D02*
X0412656Y0103532D01*
X0422637Y0113513D01*
X0437386Y0103335D02*
X0437386Y0101367D01*
X0441692Y0097061D01*
X0442430Y0097061D01*
X0449566Y0089925D01*
X0482046Y0089925D01*
X0488936Y0083035D01*
X0488936Y0077745D01*
X0445769Y0084871D02*
X0442644Y0084871D01*
X0431394Y0096121D01*
X0428581Y0096121D01*
X0427956Y0096746D01*
X0427956Y0097996D01*
X0434802Y0101859D02*
X0418562Y0101859D01*
X0434802Y0101859D02*
X0441323Y0095338D01*
X0441323Y0094477D01*
X0427710Y0080599D02*
X0428281Y0080028D01*
X0428281Y0078606D01*
X0427710Y0079177D01*
X0427710Y0080599D01*
X0370949Y0059905D02*
X0370949Y0054492D01*
X0372794Y0052646D01*
X0381652Y0046150D02*
X0381682Y0046180D01*
X0386515Y0046180D01*
X0390902Y0042681D02*
X0375993Y0042681D01*
X0385989Y0039851D02*
X0385989Y0028624D01*
X0393385Y0021229D01*
X0393385Y0021150D01*
X0396684Y0036898D02*
X0390902Y0042681D01*
X0403040Y0042851D02*
X0408104Y0047915D01*
X0408104Y0052477D01*
X0447597Y0041451D02*
X0447597Y0037883D01*
X0446613Y0036898D01*
X0396684Y0036898D01*
X0370949Y0059905D02*
X0369103Y0061751D01*
X0369103Y0061874D01*
X0365427Y0061874D01*
X0365373Y0061928D01*
X0323335Y0068148D02*
X0319152Y0072331D01*
X0319152Y0080944D01*
X0329534Y0081862D02*
X0332440Y0081862D01*
X0335033Y0079268D01*
X0335033Y0078107D01*
X0337361Y0079221D02*
X0338960Y0080821D01*
X0338960Y0083158D01*
X0336377Y0085742D01*
X0277814Y0085742D01*
X0274738Y0082666D01*
X0274738Y0081313D01*
X0271539Y0078114D01*
X0269940Y0078114D01*
X0269940Y0081928D02*
X0271908Y0081928D01*
X0277199Y0087218D01*
X0338714Y0087218D01*
X0343759Y0082174D01*
X0347327Y0082174D02*
X0340806Y0088695D01*
X0276583Y0088695D01*
X0273385Y0085496D01*
X0269940Y0085496D01*
X0277199Y0082666D02*
X0278798Y0084266D01*
X0333424Y0084266D01*
X0335639Y0082051D01*
X0322285Y0073136D02*
X0321916Y0073136D01*
X0292085Y0072612D02*
X0292085Y0071347D01*
X0291165Y0072268D01*
X0291165Y0073532D01*
X0292085Y0072612D01*
X0291716Y0077991D02*
X0291716Y0079507D01*
X0291165Y0080058D01*
X0291165Y0078542D01*
X0291716Y0077991D01*
X0277199Y0081682D02*
X0277199Y0082666D01*
X0277199Y0081682D02*
X0274738Y0079221D01*
X0274738Y0077499D01*
X0271662Y0074423D01*
X0269940Y0074423D01*
X0269940Y0069748D02*
X0267602Y0067410D01*
X0267602Y0064334D01*
X0269940Y0061997D01*
X0291101Y0067317D02*
X0291165Y0067253D01*
X0291165Y0069192D01*
X0291101Y0069256D01*
X0291101Y0067317D01*
X0248409Y0109979D02*
X0248409Y0121790D01*
X0240904Y0128434D02*
X0213345Y0155993D01*
X0180865Y0161898D02*
X0173896Y0161898D01*
X0163227Y0172568D01*
X0245904Y0182489D02*
X0274369Y0154024D01*
X0296515Y0161898D02*
X0296515Y0162144D01*
X0322351Y0155747D02*
X0327765Y0155747D01*
X0360614Y0188596D01*
X0366273Y0185520D02*
X0370456Y0189704D01*
X0368119Y0196347D02*
X0370333Y0198562D01*
X0370456Y0198562D01*
X0364305Y0202007D02*
X0364305Y0202868D01*
X0365904Y0204467D01*
X0367873Y0204467D01*
X0368119Y0204221D01*
X0368469Y0205883D02*
X0379581Y0205883D01*
X0384581Y0200883D01*
X0368469Y0205883D02*
X0368381Y0205971D01*
X0365381Y0205971D01*
X0362781Y0203371D01*
X0362781Y0202571D01*
X0361269Y0201058D01*
X0358556Y0201058D01*
X0362582Y0200284D02*
X0364305Y0202007D01*
X0349664Y0205082D02*
X0342528Y0205082D01*
X0342282Y0204836D01*
X0338714Y0204836D01*
X0338345Y0205206D01*
X0324320Y0184782D02*
X0323458Y0183921D01*
X0318783Y0183921D01*
X0318045Y0184659D01*
X0314354Y0184659D01*
X0310417Y0180722D01*
X0310417Y0179123D01*
X0336746Y0156239D02*
X0347998Y0167491D01*
X0349229Y0167491D01*
X0352248Y0163621D02*
X0352248Y0171741D01*
X0359753Y0169034D02*
X0347696Y0156977D01*
X0343087Y0156977D01*
X0345850Y0159438D02*
X0348065Y0159438D01*
X0352248Y0163621D01*
X0349352Y0164170D02*
X0346768Y0164170D01*
X0338345Y0155747D01*
X0338345Y0152917D01*
X0339083Y0152179D01*
X0339083Y0148488D01*
X0339206Y0148365D01*
X0336746Y0151072D02*
X0336746Y0156239D01*
X0334408Y0155993D02*
X0362090Y0183675D01*
X0366889Y0179615D02*
X0368857Y0179615D01*
X0372794Y0178139D02*
X0377223Y0182568D01*
X0404167Y0182568D01*
X0405520Y0181214D01*
X0407612Y0178631D02*
X0405767Y0176785D01*
X0405767Y0146150D01*
X0407735Y0144182D01*
X0411081Y0144246D02*
X0407331Y0147996D01*
X0407331Y0174871D01*
X0409206Y0176746D01*
X0409831Y0176746D01*
X0411706Y0178621D01*
X0404290Y0177646D02*
X0403306Y0178631D01*
X0404290Y0177646D02*
X0404290Y0144182D01*
X0369841Y0153040D02*
X0347327Y0153040D01*
X0346096Y0154270D01*
X0334408Y0154024D02*
X0334408Y0155993D01*
X0359753Y0169034D02*
X0367873Y0169034D01*
X0372794Y0175678D02*
X0372794Y0178139D01*
X0401706Y0187708D02*
X0403894Y0185520D01*
X0438493Y0185520D01*
X0401706Y0187708D02*
X0401706Y0187996D01*
X0493365Y0156116D02*
X0498655Y0150826D01*
X0498655Y0137907D01*
X0500255Y0136308D01*
X0500255Y0128572D01*
X0505314Y0123513D01*
X0491706Y0119246D02*
X0490456Y0120496D01*
X0490456Y0136433D01*
X0452888Y0137046D02*
X0452765Y0136923D01*
X0452888Y0137046D02*
X0452888Y0149226D01*
X0448951Y0149349D02*
X0448951Y0136923D01*
X0455594Y0113424D02*
X0487952Y0113424D01*
X0493365Y0108011D01*
X0507637Y0108011D01*
X0535381Y0100571D02*
X0535581Y0100571D01*
X0536381Y0101371D01*
X0536381Y0119571D01*
X0532440Y0123513D01*
X0531180Y0123513D01*
X0288148Y0143813D02*
X0285811Y0141475D01*
X0284088Y0141475D01*
X0245904Y0182489D02*
X0245904Y0182568D01*
D25*
X0283227Y0158946D02*
X0297991Y0173709D01*
X0297991Y0176662D01*
X0300944Y0176662D01*
X0313370Y0189088D01*
X0332415Y0189088D01*
X0332440Y0189064D01*
X0320629Y0186628D02*
X0320137Y0187120D01*
X0314231Y0187120D01*
X0314231Y0186997D01*
X0303896Y0176662D01*
X0303896Y0173832D01*
X0303773Y0173709D01*
X0300944Y0173709D01*
X0284088Y0156977D01*
X0278060Y0156977D01*
X0277445Y0156362D01*
X0274492Y0156362D01*
X0271047Y0159807D01*
X0271047Y0162144D01*
X0259359Y0162144D02*
X0259359Y0158700D01*
X0245703Y0145043D01*
X0245703Y0137784D01*
X0244349Y0136431D01*
X0244349Y0128926D01*
X0245826Y0127450D01*
X0247794Y0130402D02*
X0247794Y0144305D01*
X0262435Y0158946D01*
X0276337Y0158946D02*
X0283227Y0158946D01*
X0329733Y0148119D02*
X0332563Y0148119D01*
X0343267Y0137415D01*
X0400353Y0137415D01*
X0409211Y0128557D01*
X0417578Y0128557D01*
X0422622Y0123513D01*
X0422637Y0123513D01*
X0422637Y0133513D02*
X0422637Y0133709D01*
X0417085Y0139261D01*
X0344251Y0139261D01*
X0332440Y0151072D01*
X0273139Y0123882D02*
X0271416Y0125604D01*
X0273139Y0123882D02*
X0273139Y0120314D01*
X0272400Y0119576D01*
X0272400Y0107519D01*
X0278921Y0100998D01*
X0280890Y0100998D01*
X0282489Y0099398D01*
X0282489Y0095954D01*
X0279659Y0098414D02*
X0278675Y0098414D01*
X0270432Y0106657D01*
X0270432Y0121790D01*
X0287965Y0080058D02*
X0287965Y0073532D01*
X0287965Y0067253D01*
X0287931Y0067287D01*
X0285442Y0067287D01*
X0283842Y0065688D01*
X0269940Y0065688D01*
X0287901Y0058552D02*
X0287965Y0058616D01*
X0421022Y0063473D02*
X0422007Y0063227D01*
X0455102Y0063227D01*
X0452371Y0060496D01*
X0452371Y0058946D01*
X0455102Y0063227D02*
X0458670Y0066795D01*
X0424590Y0067488D02*
X0424590Y0064581D01*
X0423483Y0063473D01*
X0421022Y0063473D01*
X0424590Y0067488D02*
X0424510Y0067568D01*
X0424510Y0074083D01*
X0424510Y0080599D01*
X0320629Y0186505D02*
X0320629Y0186628D01*
X0196613Y0195363D02*
X0169054Y0195363D01*
X0166101Y0198316D01*
X0161180Y0198316D01*
D26*
X0104966Y0046010D02*
X0114189Y0036787D01*
X0124386Y0028655D01*
X0135430Y0021715D01*
X0147182Y0016056D01*
X0159493Y0011748D01*
X0172209Y0008846D01*
X0185170Y0007385D01*
X0191692Y0007202D01*
X0526337Y0007202D01*
X0532859Y0007385D01*
X0545820Y0008846D01*
X0558536Y0011748D01*
X0570847Y0016056D01*
X0582599Y0021715D01*
X0593643Y0028655D01*
X0603840Y0036787D01*
X0613063Y0046010D01*
X0621195Y0056207D01*
X0628135Y0067251D01*
X0633794Y0079003D01*
X0638102Y0091314D01*
X0641004Y0104030D01*
X0642465Y0116991D01*
X0642648Y0123513D01*
X0642648Y0123513D01*
X0642465Y0130034D01*
X0641004Y0142995D01*
X0638102Y0155711D01*
X0633794Y0168023D01*
X0628135Y0179774D01*
X0621195Y0190818D01*
X0613063Y0201016D01*
X0603840Y0210238D01*
X0593643Y0218371D01*
X0582599Y0225310D01*
X0570847Y0230969D01*
X0558536Y0235277D01*
X0545820Y0238179D01*
X0532859Y0239640D01*
X0526337Y0239823D01*
X0436676Y0239823D01*
X0436711Y0239788D01*
X0436711Y0237454D01*
X0435801Y0236544D01*
X0435801Y0228768D01*
X0422024Y0214991D01*
X0422024Y0214318D01*
X0504338Y0214318D01*
X0505516Y0213830D01*
X0514375Y0204972D01*
X0520280Y0199066D01*
X0521182Y0198164D01*
X0521670Y0196985D01*
X0521670Y0182252D01*
X0526407Y0186989D01*
X0545846Y0186989D01*
X0549598Y0190741D01*
X0549262Y0191552D01*
X0549262Y0193584D01*
X0550039Y0195461D01*
X0551476Y0196897D01*
X0553353Y0197675D01*
X0555385Y0197675D01*
X0557262Y0196897D01*
X0558698Y0195461D01*
X0559280Y0194057D01*
X0559457Y0194602D01*
X0559836Y0195346D01*
X0560326Y0196020D01*
X0560916Y0196610D01*
X0561591Y0197101D01*
X0562334Y0197479D01*
X0563128Y0197737D01*
X0563952Y0197868D01*
X0564185Y0197868D01*
X0564185Y0192752D01*
X0564553Y0192752D01*
X0564553Y0197868D01*
X0564786Y0197868D01*
X0565610Y0197737D01*
X0566403Y0197479D01*
X0567147Y0197101D01*
X0567822Y0196610D01*
X0568412Y0196020D01*
X0568902Y0195346D01*
X0569281Y0194602D01*
X0569538Y0193809D01*
X0569669Y0192985D01*
X0569669Y0192752D01*
X0564553Y0192752D01*
X0564553Y0192383D01*
X0569669Y0192383D01*
X0569669Y0192151D01*
X0569538Y0191327D01*
X0569281Y0190533D01*
X0568902Y0189790D01*
X0568412Y0189115D01*
X0567822Y0188525D01*
X0567147Y0188035D01*
X0566403Y0187656D01*
X0565858Y0187479D01*
X0567262Y0186897D01*
X0568698Y0185461D01*
X0569476Y0183584D01*
X0569476Y0181552D01*
X0568698Y0179675D01*
X0567262Y0178238D01*
X0565643Y0177568D01*
X0567262Y0176897D01*
X0568698Y0175461D01*
X0569476Y0173584D01*
X0569476Y0171552D01*
X0568698Y0169675D01*
X0567262Y0168238D01*
X0565385Y0167461D01*
X0563353Y0167461D01*
X0561476Y0168238D01*
X0560039Y0169675D01*
X0559369Y0171293D01*
X0558698Y0169675D01*
X0557262Y0168238D01*
X0555385Y0167461D01*
X0553353Y0167461D01*
X0551476Y0168238D01*
X0550039Y0169675D01*
X0549262Y0171552D01*
X0549262Y0173584D01*
X0550039Y0175461D01*
X0551476Y0176897D01*
X0553095Y0177568D01*
X0551476Y0178238D01*
X0550039Y0179675D01*
X0549755Y0180361D01*
X0529220Y0180361D01*
X0526084Y0177224D01*
X0526084Y0134555D01*
X0526850Y0136406D01*
X0528287Y0137842D01*
X0530164Y0138620D01*
X0532196Y0138620D01*
X0533363Y0138136D01*
X0533363Y0140059D01*
X0535013Y0141709D01*
X0537347Y0141709D01*
X0538997Y0140059D01*
X0538997Y0138136D01*
X0540164Y0138620D01*
X0542196Y0138620D01*
X0544073Y0137842D01*
X0545509Y0136406D01*
X0546287Y0134528D01*
X0546287Y0132497D01*
X0545509Y0130620D01*
X0544073Y0129183D01*
X0542454Y0128513D01*
X0544073Y0127842D01*
X0545509Y0126406D01*
X0546287Y0124528D01*
X0546287Y0122497D01*
X0545509Y0120620D01*
X0544073Y0119183D01*
X0542454Y0118513D01*
X0544073Y0117842D01*
X0545509Y0116406D01*
X0546287Y0114528D01*
X0546287Y0112497D01*
X0545509Y0110620D01*
X0544073Y0109183D01*
X0542196Y0108406D01*
X0540164Y0108406D01*
X0538289Y0109182D01*
X0538289Y0100581D01*
X0538199Y0100491D01*
X0538199Y0099404D01*
X0536548Y0097754D01*
X0534215Y0097754D01*
X0532564Y0099404D01*
X0532564Y0101738D01*
X0534215Y0103388D01*
X0534474Y0103388D01*
X0534474Y0109355D01*
X0533958Y0108980D01*
X0533214Y0108601D01*
X0532421Y0108343D01*
X0531597Y0108213D01*
X0531364Y0108213D01*
X0531364Y0113328D01*
X0530996Y0113328D01*
X0530996Y0108213D01*
X0530763Y0108213D01*
X0529939Y0108343D01*
X0529145Y0108601D01*
X0528402Y0108980D01*
X0527727Y0109470D01*
X0527137Y0110060D01*
X0526647Y0110735D01*
X0526268Y0111478D01*
X0526084Y0112046D01*
X0526084Y0083334D01*
X0528982Y0080436D01*
X0529353Y0080808D01*
X0531687Y0080808D01*
X0533338Y0079158D01*
X0533338Y0076824D01*
X0533021Y0076507D01*
X0549690Y0076507D01*
X0550039Y0077350D01*
X0551476Y0078787D01*
X0553353Y0079565D01*
X0555385Y0079565D01*
X0557262Y0078787D01*
X0558698Y0077350D01*
X0559280Y0075947D01*
X0559457Y0076492D01*
X0559836Y0077235D01*
X0560326Y0077910D01*
X0560916Y0078500D01*
X0561591Y0078990D01*
X0562334Y0079369D01*
X0563128Y0079627D01*
X0563952Y0079757D01*
X0564185Y0079757D01*
X0564185Y0074642D01*
X0564553Y0074642D01*
X0564553Y0079757D01*
X0564786Y0079757D01*
X0565610Y0079627D01*
X0566403Y0079369D01*
X0567147Y0078990D01*
X0567822Y0078500D01*
X0568412Y0077910D01*
X0568902Y0077235D01*
X0569281Y0076492D01*
X0569538Y0075699D01*
X0569669Y0074875D01*
X0569669Y0074642D01*
X0564553Y0074642D01*
X0564553Y0074273D01*
X0569669Y0074273D01*
X0569669Y0074040D01*
X0569538Y0073216D01*
X0569281Y0072423D01*
X0568902Y0071680D01*
X0568412Y0071005D01*
X0567822Y0070415D01*
X0567147Y0069925D01*
X0566403Y0069546D01*
X0565858Y0069369D01*
X0567262Y0068787D01*
X0568698Y0067350D01*
X0569476Y0065473D01*
X0569476Y0063442D01*
X0568698Y0061565D01*
X0567262Y0060128D01*
X0565643Y0059457D01*
X0567262Y0058787D01*
X0568698Y0057350D01*
X0569476Y0055473D01*
X0569476Y0053442D01*
X0568698Y0051565D01*
X0567262Y0050128D01*
X0565385Y0049350D01*
X0563353Y0049350D01*
X0561476Y0050128D01*
X0560039Y0051565D01*
X0559369Y0053183D01*
X0558698Y0051565D01*
X0557262Y0050128D01*
X0555385Y0049350D01*
X0553353Y0049350D01*
X0551476Y0050128D01*
X0550039Y0051565D01*
X0549262Y0053442D01*
X0549262Y0055473D01*
X0550039Y0057350D01*
X0551476Y0058787D01*
X0553095Y0059457D01*
X0551476Y0060128D01*
X0550039Y0061565D01*
X0549262Y0063442D01*
X0549262Y0065473D01*
X0549546Y0066159D01*
X0545827Y0069878D01*
X0533282Y0069878D01*
X0531687Y0068284D01*
X0529353Y0068284D01*
X0527703Y0069934D01*
X0527703Y0072268D01*
X0527706Y0072271D01*
X0526591Y0073386D01*
X0521670Y0078306D01*
X0521670Y0025480D01*
X0522080Y0025310D01*
X0523460Y0023930D01*
X0524207Y0022126D01*
X0524207Y0020174D01*
X0523460Y0018371D01*
X0522080Y0016990D01*
X0520276Y0016243D01*
X0518324Y0016243D01*
X0516520Y0016990D01*
X0515140Y0018371D01*
X0514393Y0020174D01*
X0514393Y0022126D01*
X0515140Y0023930D01*
X0515256Y0024046D01*
X0515256Y0078552D01*
X0510090Y0073386D01*
X0509344Y0072640D01*
X0509716Y0072268D01*
X0509716Y0069934D01*
X0508065Y0068284D01*
X0505731Y0068284D01*
X0504137Y0069878D01*
X0490234Y0069878D01*
X0486515Y0066159D01*
X0486799Y0065473D01*
X0486799Y0063442D01*
X0486021Y0061565D01*
X0484585Y0060128D01*
X0482966Y0059457D01*
X0484585Y0058787D01*
X0486021Y0057350D01*
X0486799Y0055473D01*
X0486799Y0053442D01*
X0486021Y0051565D01*
X0484585Y0050128D01*
X0482708Y0049350D01*
X0480676Y0049350D01*
X0478799Y0050128D01*
X0477362Y0051565D01*
X0476781Y0052968D01*
X0476603Y0052423D01*
X0476225Y0051680D01*
X0475734Y0051005D01*
X0475144Y0050415D01*
X0474470Y0049925D01*
X0473726Y0049546D01*
X0472933Y0049288D01*
X0472109Y0049157D01*
X0471876Y0049157D01*
X0471876Y0054273D01*
X0471507Y0054273D01*
X0466392Y0054273D01*
X0466392Y0054040D01*
X0466522Y0053216D01*
X0466780Y0052423D01*
X0467159Y0051680D01*
X0467649Y0051005D01*
X0468239Y0050415D01*
X0468914Y0049925D01*
X0469657Y0049546D01*
X0470451Y0049288D01*
X0471275Y0049157D01*
X0471507Y0049157D01*
X0471507Y0054273D01*
X0471507Y0054642D01*
X0466392Y0054642D01*
X0466392Y0054875D01*
X0466522Y0055699D01*
X0466780Y0056492D01*
X0467159Y0057235D01*
X0467649Y0057910D01*
X0468239Y0058500D01*
X0468914Y0058990D01*
X0469657Y0059369D01*
X0470203Y0059546D01*
X0468799Y0060128D01*
X0467362Y0061565D01*
X0466585Y0063442D01*
X0466585Y0065473D01*
X0466993Y0066459D01*
X0464799Y0068653D01*
X0464799Y0078456D01*
X0459667Y0083589D01*
X0450292Y0083589D01*
X0450292Y0081991D01*
X0449798Y0081497D01*
X0450415Y0080880D01*
X0450415Y0078546D01*
X0449798Y0077929D01*
X0450538Y0077189D01*
X0450538Y0074855D01*
X0449921Y0074238D01*
X0450538Y0073621D01*
X0450538Y0071288D01*
X0448887Y0069637D01*
X0446553Y0069637D01*
X0444903Y0071288D01*
X0444903Y0072698D01*
X0441394Y0076207D01*
X0439918Y0076207D01*
X0433960Y0082164D01*
X0433960Y0080599D01*
X0430911Y0080599D01*
X0430911Y0080599D01*
X0433960Y0080599D01*
X0433960Y0077862D01*
X0433838Y0077404D01*
X0433801Y0077341D01*
X0433838Y0077278D01*
X0433960Y0076820D01*
X0433960Y0074084D01*
X0430911Y0074084D01*
X0430911Y0074083D01*
X0433960Y0074083D01*
X0433960Y0071346D01*
X0433838Y0070889D01*
X0433801Y0070826D01*
X0433838Y0070762D01*
X0433960Y0070305D01*
X0433960Y0067568D01*
X0430911Y0067568D01*
X0430911Y0067568D01*
X0430910Y0067568D02*
X0430910Y0067568D01*
X0430910Y0074083D01*
X0430910Y0074083D01*
X0430910Y0069783D01*
X0430910Y0067568D01*
X0430911Y0067568D02*
X0433960Y0067568D01*
X0433960Y0065334D01*
X0454229Y0065334D01*
X0455853Y0066958D01*
X0455853Y0067962D01*
X0457503Y0069612D01*
X0459837Y0069612D01*
X0461254Y0068196D01*
X0461625Y0068567D01*
X0463959Y0068567D01*
X0465609Y0066916D01*
X0465609Y0064582D01*
X0463959Y0062932D01*
X0462671Y0062932D01*
X0458658Y0058918D01*
X0458658Y0057754D01*
X0457426Y0056522D01*
X0458315Y0056522D01*
X0459226Y0057432D01*
X0461559Y0057432D01*
X0463210Y0055782D01*
X0463210Y0053448D01*
X0461559Y0051798D01*
X0459226Y0051798D01*
X0458315Y0052708D01*
X0457427Y0052708D01*
X0457427Y0050987D01*
X0455777Y0049337D01*
X0453443Y0049337D01*
X0452533Y0050247D01*
X0437371Y0050247D01*
X0437312Y0050188D01*
X0437561Y0050188D01*
X0439211Y0048538D01*
X0439211Y0046204D01*
X0437676Y0044669D01*
X0437676Y0042518D01*
X0437391Y0042233D01*
X0438586Y0041038D01*
X0438586Y0038805D01*
X0445690Y0038805D01*
X0445690Y0039373D01*
X0444780Y0040284D01*
X0444780Y0042618D01*
X0446430Y0044268D01*
X0448764Y0044268D01*
X0450415Y0042618D01*
X0450415Y0040284D01*
X0449504Y0039373D01*
X0449504Y0037093D01*
X0448520Y0036108D01*
X0447403Y0034991D01*
X0395894Y0034991D01*
X0390112Y0040774D01*
X0388807Y0040774D01*
X0388807Y0038684D01*
X0387896Y0037774D01*
X0387896Y0029414D01*
X0391953Y0025357D01*
X0395127Y0025357D01*
X0397592Y0022893D01*
X0397592Y0019408D01*
X0395127Y0016943D01*
X0391642Y0016943D01*
X0389178Y0019408D01*
X0389178Y0022739D01*
X0385199Y0026717D01*
X0384082Y0027834D01*
X0384082Y0035696D01*
X0384055Y0035689D01*
X0381837Y0035689D01*
X0381837Y0039273D01*
X0381468Y0039273D01*
X0381468Y0035689D01*
X0379250Y0035689D01*
X0378792Y0035812D01*
X0378382Y0036049D01*
X0378047Y0036384D01*
X0377810Y0036794D01*
X0377687Y0037252D01*
X0377687Y0039273D01*
X0381468Y0039273D01*
X0381468Y0039642D01*
X0377687Y0039642D01*
X0377687Y0040774D01*
X0375203Y0040774D01*
X0369358Y0046619D01*
X0369358Y0045387D01*
X0368751Y0043923D01*
X0368481Y0043653D01*
X0370639Y0043653D01*
X0372290Y0042002D01*
X0372290Y0039668D01*
X0371379Y0038758D01*
X0371379Y0026168D01*
X0372190Y0025357D01*
X0375442Y0025357D01*
X0377907Y0022893D01*
X0377907Y0019408D01*
X0375442Y0016943D01*
X0371957Y0016943D01*
X0369493Y0019408D01*
X0369493Y0022660D01*
X0367565Y0024588D01*
X0367565Y0038758D01*
X0366655Y0039668D01*
X0366655Y0042002D01*
X0367330Y0042677D01*
X0366166Y0042195D01*
X0364580Y0042195D01*
X0363115Y0042802D01*
X0361994Y0043923D01*
X0361388Y0045387D01*
X0361388Y0046973D01*
X0361994Y0048437D01*
X0363115Y0049558D01*
X0364464Y0050117D01*
X0363115Y0050676D01*
X0361994Y0051797D01*
X0361388Y0053261D01*
X0361388Y0054847D01*
X0361994Y0056311D01*
X0363115Y0057432D01*
X0364464Y0057991D01*
X0363115Y0058550D01*
X0361994Y0059671D01*
X0361388Y0061135D01*
X0361388Y0062721D01*
X0361994Y0064185D01*
X0363115Y0065306D01*
X0364464Y0065865D01*
X0363115Y0066424D01*
X0361994Y0067545D01*
X0361388Y0069009D01*
X0361388Y0070595D01*
X0361994Y0072059D01*
X0363115Y0073180D01*
X0364464Y0073739D01*
X0363115Y0074298D01*
X0361994Y0075419D01*
X0361388Y0076883D01*
X0361388Y0078469D01*
X0361994Y0079933D01*
X0363115Y0081054D01*
X0364580Y0081661D01*
X0366166Y0081661D01*
X0367630Y0081054D01*
X0368751Y0079933D01*
X0369358Y0078469D01*
X0369358Y0078176D01*
X0382530Y0078176D01*
X0382530Y0078469D01*
X0383136Y0079933D01*
X0384257Y0081054D01*
X0385722Y0081661D01*
X0387307Y0081661D01*
X0388772Y0081054D01*
X0389893Y0079933D01*
X0390500Y0078469D01*
X0390500Y0076883D01*
X0389893Y0075419D01*
X0389820Y0075346D01*
X0391017Y0075346D01*
X0391927Y0076256D01*
X0394261Y0076256D01*
X0395912Y0074606D01*
X0395912Y0072272D01*
X0394261Y0070621D01*
X0391927Y0070621D01*
X0391017Y0071532D01*
X0390111Y0071532D01*
X0390500Y0070595D01*
X0390500Y0069009D01*
X0390016Y0067841D01*
X0391547Y0067841D01*
X0396099Y0063289D01*
X0406396Y0063289D01*
X0406696Y0063589D01*
X0405604Y0063589D01*
X0401542Y0067651D01*
X0400424Y0068768D01*
X0400424Y0078786D01*
X0403249Y0081611D01*
X0404366Y0082728D01*
X0406273Y0082728D01*
X0407183Y0083638D01*
X0409517Y0083638D01*
X0410749Y0082406D01*
X0410749Y0085331D01*
X0409839Y0086241D01*
X0409839Y0087988D01*
X0407591Y0087988D01*
X0407314Y0088264D01*
X0343934Y0088264D01*
X0347206Y0084991D01*
X0348494Y0084991D01*
X0350144Y0083341D01*
X0350144Y0083097D01*
X0355867Y0083097D01*
X0357164Y0081800D01*
X0358281Y0080683D01*
X0358281Y0072809D01*
X0356417Y0070945D01*
X0356563Y0070595D01*
X0356563Y0069009D01*
X0355956Y0067545D01*
X0354835Y0066424D01*
X0353486Y0065865D01*
X0354835Y0065306D01*
X0355956Y0064185D01*
X0356563Y0062721D01*
X0356563Y0061135D01*
X0355956Y0059671D01*
X0354835Y0058550D01*
X0353486Y0057991D01*
X0354835Y0057432D01*
X0355956Y0056311D01*
X0356563Y0054847D01*
X0356563Y0053261D01*
X0355956Y0051797D01*
X0354835Y0050676D01*
X0353486Y0050117D01*
X0354835Y0049558D01*
X0355956Y0048437D01*
X0356563Y0046973D01*
X0356563Y0045387D01*
X0355956Y0043923D01*
X0354835Y0042802D01*
X0353370Y0042195D01*
X0351785Y0042195D01*
X0350693Y0042647D01*
X0350809Y0042531D01*
X0351046Y0042121D01*
X0351169Y0041663D01*
X0351169Y0039642D01*
X0347388Y0039642D01*
X0347388Y0039273D01*
X0351169Y0039273D01*
X0351169Y0037252D01*
X0351046Y0036794D01*
X0350809Y0036384D01*
X0350474Y0036049D01*
X0350064Y0035812D01*
X0349606Y0035689D01*
X0347388Y0035689D01*
X0347388Y0039273D01*
X0347019Y0039273D01*
X0347019Y0035689D01*
X0344801Y0035689D01*
X0344343Y0035812D01*
X0343933Y0036049D01*
X0343820Y0036161D01*
X0343820Y0027944D01*
X0338537Y0022660D01*
X0338537Y0019408D01*
X0336072Y0016943D01*
X0332587Y0016943D01*
X0330122Y0019408D01*
X0330122Y0022893D01*
X0332587Y0025357D01*
X0335840Y0025357D01*
X0340006Y0029524D01*
X0340006Y0038758D01*
X0339096Y0039668D01*
X0339096Y0042002D01*
X0340746Y0043653D01*
X0343080Y0043653D01*
X0343900Y0042833D01*
X0343933Y0042866D01*
X0344027Y0042921D01*
X0343431Y0043516D01*
X0343431Y0047492D01*
X0342346Y0047492D01*
X0341435Y0048402D01*
X0338104Y0048402D01*
X0334762Y0051744D01*
X0333693Y0050676D01*
X0332344Y0050117D01*
X0333693Y0049558D01*
X0334814Y0048437D01*
X0335421Y0046973D01*
X0335421Y0045387D01*
X0334814Y0043923D01*
X0333693Y0042802D01*
X0332228Y0042195D01*
X0330643Y0042195D01*
X0329178Y0042802D01*
X0328057Y0043923D01*
X0327451Y0045387D01*
X0327451Y0046973D01*
X0328057Y0048437D01*
X0329178Y0049558D01*
X0330527Y0050117D01*
X0329178Y0050676D01*
X0328057Y0051797D01*
X0327451Y0053261D01*
X0327451Y0054847D01*
X0328057Y0056311D01*
X0329178Y0057432D01*
X0330527Y0057991D01*
X0329178Y0058550D01*
X0328057Y0059671D01*
X0327451Y0061135D01*
X0327451Y0062721D01*
X0327941Y0063904D01*
X0315882Y0063904D01*
X0313604Y0061625D01*
X0313604Y0060338D01*
X0311953Y0058687D01*
X0309619Y0058687D01*
X0307969Y0060338D01*
X0307969Y0060582D01*
X0297351Y0060582D01*
X0297351Y0058552D01*
X0294301Y0058552D01*
X0294301Y0058552D01*
X0294301Y0055962D01*
X0294301Y0051662D01*
X0294301Y0051662D01*
X0294301Y0049072D01*
X0294301Y0044773D01*
X0294301Y0044773D01*
X0294301Y0051662D01*
X0294301Y0051662D01*
X0297351Y0051662D01*
X0297351Y0048925D01*
X0297229Y0048467D01*
X0297084Y0048217D01*
X0297229Y0047967D01*
X0297351Y0047509D01*
X0297351Y0044772D01*
X0294301Y0044772D01*
X0294301Y0044772D01*
X0297351Y0044772D01*
X0297351Y0042035D01*
X0297288Y0041799D01*
X0309804Y0041758D01*
X0310592Y0041758D01*
X0310594Y0041756D01*
X0310598Y0041756D01*
X0311152Y0041198D01*
X0314293Y0038057D01*
X0314293Y0036146D01*
X0315203Y0035236D01*
X0315203Y0032902D01*
X0313553Y0031251D01*
X0311219Y0031251D01*
X0309568Y0032902D01*
X0309568Y0035236D01*
X0310479Y0036146D01*
X0310479Y0036478D01*
X0309009Y0037947D01*
X0272153Y0038067D01*
X0271364Y0038067D01*
X0271362Y0038070D01*
X0271358Y0038070D01*
X0270804Y0038627D01*
X0270798Y0038633D01*
X0269511Y0038633D01*
X0267861Y0040284D01*
X0267861Y0042618D01*
X0269511Y0044268D01*
X0271845Y0044268D01*
X0273495Y0042618D01*
X0273495Y0041877D01*
X0285044Y0041839D01*
X0285044Y0047938D01*
X0285323Y0048217D01*
X0285044Y0048497D01*
X0285044Y0054828D01*
X0285323Y0055107D01*
X0285044Y0055386D01*
X0285044Y0061718D01*
X0285985Y0062659D01*
X0286058Y0062659D01*
X0286058Y0063146D01*
X0286049Y0063146D01*
X0285165Y0064030D01*
X0284715Y0063581D01*
X0272340Y0063581D01*
X0272757Y0063164D01*
X0272757Y0060830D01*
X0271107Y0059180D01*
X0268773Y0059180D01*
X0267122Y0060830D01*
X0267122Y0062117D01*
X0266812Y0062427D01*
X0265695Y0063545D01*
X0265695Y0068200D01*
X0267122Y0069628D01*
X0267122Y0070915D01*
X0268293Y0072085D01*
X0267122Y0073256D01*
X0267122Y0075590D01*
X0267801Y0076269D01*
X0267122Y0076947D01*
X0267122Y0079281D01*
X0267862Y0080021D01*
X0267122Y0080761D01*
X0267122Y0083095D01*
X0267739Y0083712D01*
X0267122Y0084329D01*
X0267122Y0086663D01*
X0268773Y0088313D01*
X0271107Y0088313D01*
X0272017Y0087403D01*
X0272595Y0087403D01*
X0274676Y0089485D01*
X0275794Y0090602D01*
X0279115Y0090602D01*
X0262463Y0107254D01*
X0262371Y0107162D01*
X0260038Y0107162D01*
X0259667Y0107533D01*
X0259667Y0076197D01*
X0260405Y0075459D01*
X0260405Y0069819D01*
X0259288Y0068702D01*
X0257452Y0066866D01*
X0257452Y0062806D01*
X0256335Y0061689D01*
X0253638Y0058992D01*
X0253638Y0051857D01*
X0252521Y0050739D01*
X0243796Y0042014D01*
X0243796Y0034054D01*
X0244706Y0033144D01*
X0244706Y0030810D01*
X0243056Y0029160D01*
X0240722Y0029160D01*
X0239071Y0030810D01*
X0239071Y0033144D01*
X0239981Y0034054D01*
X0239981Y0043594D01*
X0245738Y0049350D01*
X0244888Y0049350D01*
X0243011Y0050128D01*
X0241575Y0051565D01*
X0240904Y0053183D01*
X0240234Y0051565D01*
X0238797Y0050128D01*
X0236920Y0049350D01*
X0234888Y0049350D01*
X0233011Y0050128D01*
X0231575Y0051565D01*
X0230797Y0053442D01*
X0230797Y0055473D01*
X0231566Y0057329D01*
X0214138Y0057329D01*
X0213528Y0056719D01*
X0211194Y0056719D01*
X0209544Y0058369D01*
X0209544Y0060703D01*
X0211194Y0062354D01*
X0213528Y0062354D01*
X0214138Y0061743D01*
X0231501Y0061743D01*
X0230797Y0063442D01*
X0230797Y0065473D01*
X0231081Y0066159D01*
X0227362Y0069878D01*
X0214630Y0069878D01*
X0213036Y0068284D01*
X0210702Y0068284D01*
X0209052Y0069934D01*
X0209052Y0072268D01*
X0209054Y0072271D01*
X0207939Y0073386D01*
X0203757Y0077568D01*
X0203757Y0022560D01*
X0203410Y0021721D01*
X0203410Y0020174D01*
X0202663Y0018371D01*
X0201282Y0016990D01*
X0199479Y0016243D01*
X0197527Y0016243D01*
X0195723Y0016990D01*
X0194343Y0018371D01*
X0193596Y0020174D01*
X0193596Y0022126D01*
X0194343Y0023930D01*
X0195723Y0025310D01*
X0197343Y0025981D01*
X0197343Y0077322D01*
X0193407Y0073386D01*
X0192114Y0072093D01*
X0191310Y0072093D01*
X0191310Y0069934D01*
X0189660Y0068284D01*
X0187326Y0068284D01*
X0185731Y0069878D01*
X0171769Y0069878D01*
X0168050Y0066159D01*
X0168334Y0065473D01*
X0168334Y0063442D01*
X0167631Y0061743D01*
X0184009Y0061743D01*
X0184619Y0062354D01*
X0186953Y0062354D01*
X0188604Y0060703D01*
X0188604Y0058369D01*
X0186953Y0056719D01*
X0184619Y0056719D01*
X0184009Y0057329D01*
X0167566Y0057329D01*
X0168334Y0055473D01*
X0168334Y0053442D01*
X0167557Y0051565D01*
X0166120Y0050128D01*
X0164243Y0049350D01*
X0162211Y0049350D01*
X0160334Y0050128D01*
X0158898Y0051565D01*
X0158316Y0052968D01*
X0158139Y0052423D01*
X0157760Y0051680D01*
X0157270Y0051005D01*
X0156680Y0050415D01*
X0156005Y0049925D01*
X0155262Y0049546D01*
X0154468Y0049288D01*
X0153644Y0049157D01*
X0153411Y0049157D01*
X0153411Y0054273D01*
X0153043Y0054273D01*
X0153043Y0049157D01*
X0152810Y0049157D01*
X0151986Y0049288D01*
X0151193Y0049546D01*
X0150449Y0049925D01*
X0149774Y0050415D01*
X0149185Y0051005D01*
X0148694Y0051680D01*
X0148315Y0052423D01*
X0148058Y0053216D01*
X0147927Y0054040D01*
X0147927Y0054273D01*
X0153043Y0054273D01*
X0153043Y0054642D01*
X0147927Y0054642D01*
X0147927Y0054875D01*
X0148058Y0055699D01*
X0148315Y0056492D01*
X0148694Y0057235D01*
X0149185Y0057910D01*
X0149774Y0058500D01*
X0150449Y0058990D01*
X0151193Y0059369D01*
X0151738Y0059546D01*
X0150334Y0060128D01*
X0148898Y0061565D01*
X0148120Y0063442D01*
X0148120Y0065473D01*
X0148898Y0067350D01*
X0150334Y0068787D01*
X0151953Y0069457D01*
X0150334Y0070128D01*
X0148898Y0071565D01*
X0148120Y0073442D01*
X0148120Y0075473D01*
X0148898Y0077350D01*
X0150334Y0078787D01*
X0152211Y0079565D01*
X0154243Y0079565D01*
X0156120Y0078787D01*
X0157557Y0077350D01*
X0158227Y0075732D01*
X0158898Y0077350D01*
X0160334Y0078787D01*
X0162211Y0079565D01*
X0164243Y0079565D01*
X0166120Y0078787D01*
X0167557Y0077350D01*
X0167906Y0076507D01*
X0185676Y0076507D01*
X0185676Y0078666D01*
X0187326Y0080316D01*
X0189660Y0080316D01*
X0190270Y0079706D01*
X0190285Y0079706D01*
X0192930Y0082350D01*
X0192930Y0143022D01*
X0192618Y0143333D01*
X0192422Y0143333D01*
X0192422Y0142037D01*
X0191130Y0140744D01*
X0188828Y0138443D01*
X0188884Y0138424D01*
X0189627Y0138046D01*
X0190302Y0137555D01*
X0190892Y0136965D01*
X0191382Y0136290D01*
X0191761Y0135547D01*
X0192019Y0134754D01*
X0192149Y0133930D01*
X0192149Y0133697D01*
X0187034Y0133697D01*
X0187034Y0133328D01*
X0192149Y0133328D01*
X0192149Y0133095D01*
X0192019Y0132272D01*
X0191761Y0131478D01*
X0191382Y0130735D01*
X0190892Y0130060D01*
X0190302Y0129470D01*
X0189627Y0128980D01*
X0188884Y0128601D01*
X0188338Y0128424D01*
X0189742Y0127842D01*
X0191179Y0126406D01*
X0191956Y0124528D01*
X0191956Y0122497D01*
X0191179Y0120620D01*
X0189742Y0119183D01*
X0188124Y0118513D01*
X0189742Y0117842D01*
X0191179Y0116406D01*
X0191956Y0114528D01*
X0191956Y0112497D01*
X0191179Y0110620D01*
X0189742Y0109183D01*
X0187865Y0108406D01*
X0185833Y0108406D01*
X0183956Y0109183D01*
X0182520Y0110620D01*
X0181849Y0112238D01*
X0181179Y0110620D01*
X0179742Y0109183D01*
X0177865Y0108406D01*
X0175833Y0108406D01*
X0173956Y0109183D01*
X0172520Y0110620D01*
X0171742Y0112497D01*
X0171742Y0114528D01*
X0172520Y0116406D01*
X0173956Y0117842D01*
X0175575Y0118513D01*
X0173956Y0119183D01*
X0172520Y0120620D01*
X0171742Y0122497D01*
X0171742Y0124528D01*
X0172520Y0126406D01*
X0173956Y0127842D01*
X0175575Y0128513D01*
X0173956Y0129183D01*
X0172520Y0130620D01*
X0171742Y0132497D01*
X0171742Y0134528D01*
X0172520Y0136406D01*
X0173956Y0137842D01*
X0175833Y0138620D01*
X0177865Y0138620D01*
X0179742Y0137842D01*
X0180002Y0137582D01*
X0183579Y0141159D01*
X0184872Y0142452D01*
X0186594Y0142452D01*
X0188008Y0143866D01*
X0188008Y0150279D01*
X0187398Y0150889D01*
X0187398Y0153223D01*
X0189048Y0154873D01*
X0191382Y0154873D01*
X0192901Y0153355D01*
X0192930Y0153387D01*
X0192930Y0176978D01*
X0189547Y0180361D01*
X0167841Y0180361D01*
X0167557Y0179675D01*
X0166120Y0178238D01*
X0164502Y0177568D01*
X0166120Y0176897D01*
X0167557Y0175461D01*
X0168334Y0173584D01*
X0168334Y0171552D01*
X0167926Y0170566D01*
X0174686Y0163805D01*
X0178788Y0163805D01*
X0179698Y0164716D01*
X0182032Y0164716D01*
X0183682Y0163065D01*
X0183682Y0160731D01*
X0182032Y0159081D01*
X0179698Y0159081D01*
X0178788Y0159991D01*
X0173107Y0159991D01*
X0165229Y0167869D01*
X0164243Y0167461D01*
X0162211Y0167461D01*
X0160334Y0168238D01*
X0158898Y0169675D01*
X0158316Y0171079D01*
X0158139Y0170533D01*
X0157760Y0169790D01*
X0157270Y0169115D01*
X0156680Y0168525D01*
X0156005Y0168035D01*
X0155262Y0167656D01*
X0154468Y0167398D01*
X0153644Y0167268D01*
X0153411Y0167268D01*
X0153411Y0172383D01*
X0153043Y0172383D01*
X0153043Y0167268D01*
X0152810Y0167268D01*
X0151986Y0167398D01*
X0151193Y0167656D01*
X0150449Y0168035D01*
X0149774Y0168525D01*
X0149185Y0169115D01*
X0148694Y0169790D01*
X0148315Y0170533D01*
X0148058Y0171327D01*
X0147927Y0172151D01*
X0147927Y0172383D01*
X0153043Y0172383D01*
X0153043Y0172752D01*
X0147927Y0172752D01*
X0147927Y0172985D01*
X0148058Y0173809D01*
X0148315Y0174602D01*
X0148694Y0175346D01*
X0149185Y0176020D01*
X0149774Y0176610D01*
X0150449Y0177101D01*
X0151193Y0177479D01*
X0151738Y0177657D01*
X0150334Y0178238D01*
X0148898Y0179675D01*
X0148120Y0181552D01*
X0148120Y0183584D01*
X0148898Y0185461D01*
X0150334Y0186897D01*
X0151953Y0187568D01*
X0150334Y0188238D01*
X0148898Y0189675D01*
X0148120Y0191552D01*
X0148120Y0193584D01*
X0148898Y0195461D01*
X0150334Y0196897D01*
X0152211Y0197675D01*
X0154243Y0197675D01*
X0156120Y0196897D01*
X0156380Y0196637D01*
X0160266Y0200523D01*
X0162094Y0200523D01*
X0162194Y0200423D01*
X0166974Y0200423D01*
X0168208Y0199189D01*
X0169927Y0197470D01*
X0194736Y0197470D01*
X0195446Y0198180D01*
X0197780Y0198180D01*
X0197821Y0198139D01*
X0197831Y0198164D01*
X0198733Y0199066D01*
X0201686Y0202019D01*
X0214481Y0214814D01*
X0215660Y0215302D01*
X0290627Y0215302D01*
X0291163Y0215838D01*
X0291163Y0217806D01*
X0292280Y0218924D01*
X0293483Y0220127D01*
X0292824Y0220785D01*
X0292250Y0222172D01*
X0292250Y0223672D01*
X0292824Y0225059D01*
X0293886Y0226120D01*
X0295272Y0226694D01*
X0296773Y0226694D01*
X0298159Y0226120D01*
X0299221Y0225059D01*
X0299795Y0223672D01*
X0299795Y0222172D01*
X0299221Y0220785D01*
X0298159Y0219724D01*
X0297930Y0219629D01*
X0297930Y0219179D01*
X0297272Y0218521D01*
X0297854Y0217939D01*
X0300956Y0217939D01*
X0300956Y0218430D01*
X0302606Y0220080D01*
X0304940Y0220080D01*
X0305851Y0219170D01*
X0311104Y0219170D01*
X0327437Y0235503D01*
X0327777Y0235843D01*
X0327777Y0235880D01*
X0329427Y0237531D01*
X0331761Y0237531D01*
X0333412Y0235880D01*
X0333412Y0234278D01*
X0335815Y0234278D01*
X0335452Y0234641D01*
X0335452Y0236975D01*
X0336839Y0238362D01*
X0326586Y0238362D01*
X0320493Y0232270D01*
X0320493Y0230982D01*
X0318843Y0229332D01*
X0316509Y0229332D01*
X0314859Y0230982D01*
X0314859Y0233316D01*
X0316509Y0234967D01*
X0317796Y0234967D01*
X0322652Y0239823D01*
X0191692Y0239823D01*
X0185170Y0239640D01*
X0172209Y0238179D01*
X0159493Y0235277D01*
X0147182Y0230969D01*
X0135430Y0225310D01*
X0124386Y0218371D01*
X0114189Y0210238D01*
X0104966Y0201016D01*
X0096834Y0190818D01*
X0089894Y0179774D01*
X0084235Y0168023D01*
X0079927Y0155711D01*
X0077025Y0142995D01*
X0075564Y0130034D01*
X0075381Y0123513D01*
X0075381Y0123512D01*
X0075564Y0116991D01*
X0077025Y0104030D01*
X0079927Y0091314D01*
X0084235Y0079003D01*
X0089894Y0067251D01*
X0096834Y0056207D01*
X0104966Y0046010D01*
X0105240Y0045735D02*
X0197343Y0045735D01*
X0197343Y0044137D02*
X0106839Y0044137D01*
X0108437Y0042538D02*
X0197343Y0042538D01*
X0197343Y0040940D02*
X0110036Y0040940D01*
X0111634Y0039341D02*
X0197343Y0039341D01*
X0197343Y0037743D02*
X0113233Y0037743D01*
X0114995Y0036144D02*
X0197343Y0036144D01*
X0197343Y0034546D02*
X0116999Y0034546D01*
X0119004Y0032947D02*
X0197343Y0032947D01*
X0197343Y0031349D02*
X0121008Y0031349D01*
X0123013Y0029750D02*
X0197343Y0029750D01*
X0197343Y0028152D02*
X0125187Y0028152D01*
X0127731Y0026553D02*
X0197343Y0026553D01*
X0195367Y0024954D02*
X0130275Y0024954D01*
X0132819Y0023356D02*
X0194105Y0023356D01*
X0193596Y0021757D02*
X0135363Y0021757D01*
X0138662Y0020159D02*
X0193602Y0020159D01*
X0194264Y0018560D02*
X0141981Y0018560D01*
X0145300Y0016962D02*
X0195792Y0016962D01*
X0201214Y0016962D02*
X0205792Y0016962D01*
X0205723Y0016990D02*
X0207527Y0016243D01*
X0209479Y0016243D01*
X0211282Y0016990D01*
X0212663Y0018371D01*
X0213410Y0020174D01*
X0213410Y0022126D01*
X0212663Y0023930D01*
X0211282Y0025310D01*
X0209479Y0026057D01*
X0207527Y0026057D01*
X0205723Y0025310D01*
X0204343Y0023930D01*
X0203596Y0022126D01*
X0203596Y0020174D01*
X0204343Y0018371D01*
X0205723Y0016990D01*
X0204264Y0018560D02*
X0202741Y0018560D01*
X0203403Y0020159D02*
X0203602Y0020159D01*
X0203596Y0021757D02*
X0203425Y0021757D01*
X0203757Y0023356D02*
X0204105Y0023356D01*
X0203757Y0024954D02*
X0205367Y0024954D01*
X0203757Y0026553D02*
X0317429Y0026553D01*
X0316233Y0025357D02*
X0312902Y0025357D01*
X0310437Y0022893D01*
X0310437Y0019408D01*
X0312902Y0016943D01*
X0316387Y0016943D01*
X0318852Y0019408D01*
X0318852Y0022582D01*
X0324371Y0028102D01*
X0325489Y0029219D01*
X0325489Y0034821D01*
X0326399Y0035731D01*
X0326399Y0038065D01*
X0324748Y0039716D01*
X0322415Y0039716D01*
X0320764Y0038065D01*
X0320764Y0035731D01*
X0321674Y0034821D01*
X0321674Y0030799D01*
X0316233Y0025357D01*
X0312499Y0024954D02*
X0211638Y0024954D01*
X0212901Y0023356D02*
X0310900Y0023356D01*
X0310437Y0021757D02*
X0213410Y0021757D01*
X0213403Y0020159D02*
X0310437Y0020159D01*
X0311285Y0018560D02*
X0212741Y0018560D01*
X0211214Y0016962D02*
X0312883Y0016962D01*
X0316406Y0016962D02*
X0322610Y0016962D01*
X0322822Y0016750D02*
X0324644Y0016750D01*
X0324644Y0021150D01*
X0320244Y0021150D01*
X0320244Y0019328D01*
X0322822Y0016750D01*
X0324645Y0016750D02*
X0326467Y0016750D01*
X0329044Y0019328D01*
X0329044Y0021150D01*
X0324645Y0021150D01*
X0324645Y0021150D01*
X0324645Y0016750D01*
X0324644Y0016962D02*
X0324645Y0016962D01*
X0324644Y0018560D02*
X0324645Y0018560D01*
X0324644Y0020159D02*
X0324645Y0020159D01*
X0324644Y0021150D02*
X0324645Y0021150D01*
X0329044Y0021150D01*
X0329044Y0022973D01*
X0326467Y0025550D01*
X0324645Y0025550D01*
X0324645Y0021151D01*
X0324644Y0021151D01*
X0324644Y0025550D01*
X0322822Y0025550D01*
X0320244Y0022973D01*
X0320244Y0021150D01*
X0324644Y0021150D01*
X0324644Y0021150D01*
X0324644Y0021757D02*
X0324645Y0021757D01*
X0324644Y0023356D02*
X0324645Y0023356D01*
X0324644Y0024954D02*
X0324645Y0024954D01*
X0327063Y0024954D02*
X0332184Y0024954D01*
X0330585Y0023356D02*
X0328661Y0023356D01*
X0329044Y0021757D02*
X0330122Y0021757D01*
X0330122Y0020159D02*
X0329044Y0020159D01*
X0328277Y0018560D02*
X0330970Y0018560D01*
X0332568Y0016962D02*
X0326679Y0016962D01*
X0321012Y0018560D02*
X0318004Y0018560D01*
X0318852Y0020159D02*
X0320244Y0020159D01*
X0320244Y0021757D02*
X0318852Y0021757D01*
X0319626Y0023356D02*
X0320628Y0023356D01*
X0321224Y0024954D02*
X0322226Y0024954D01*
X0322823Y0026553D02*
X0337035Y0026553D01*
X0338634Y0028152D02*
X0324421Y0028152D01*
X0325489Y0029750D02*
X0340006Y0029750D01*
X0340006Y0031349D02*
X0325489Y0031349D01*
X0325489Y0032947D02*
X0340006Y0032947D01*
X0340006Y0034546D02*
X0325489Y0034546D01*
X0326399Y0036144D02*
X0340006Y0036144D01*
X0340006Y0037743D02*
X0326399Y0037743D01*
X0325123Y0039341D02*
X0339423Y0039341D01*
X0339096Y0040940D02*
X0311411Y0040940D01*
X0313009Y0039341D02*
X0322040Y0039341D01*
X0320764Y0037743D02*
X0314293Y0037743D01*
X0314295Y0036144D02*
X0320764Y0036144D01*
X0321674Y0034546D02*
X0315203Y0034546D01*
X0315203Y0032947D02*
X0321674Y0032947D01*
X0321674Y0031349D02*
X0313650Y0031349D01*
X0311121Y0031349D02*
X0244706Y0031349D01*
X0244706Y0032947D02*
X0309568Y0032947D01*
X0309568Y0034546D02*
X0243796Y0034546D01*
X0243796Y0036144D02*
X0310477Y0036144D01*
X0309214Y0037743D02*
X0243796Y0037743D01*
X0243796Y0039341D02*
X0268803Y0039341D01*
X0267861Y0040940D02*
X0243796Y0040940D01*
X0244320Y0042538D02*
X0267861Y0042538D01*
X0269380Y0044137D02*
X0245918Y0044137D01*
X0247517Y0045735D02*
X0285044Y0045735D01*
X0285044Y0044137D02*
X0271976Y0044137D01*
X0273495Y0042538D02*
X0285044Y0042538D01*
X0285044Y0047334D02*
X0249115Y0047334D01*
X0250714Y0048932D02*
X0285044Y0048932D01*
X0285044Y0050531D02*
X0252312Y0050531D01*
X0253638Y0052129D02*
X0285044Y0052129D01*
X0285044Y0053728D02*
X0253638Y0053728D01*
X0253638Y0055326D02*
X0285104Y0055326D01*
X0285044Y0056925D02*
X0253638Y0056925D01*
X0253638Y0058523D02*
X0285044Y0058523D01*
X0285044Y0060122D02*
X0272049Y0060122D01*
X0272757Y0061720D02*
X0285047Y0061720D01*
X0285876Y0063319D02*
X0272602Y0063319D01*
X0267122Y0061720D02*
X0256366Y0061720D01*
X0257452Y0063319D02*
X0265921Y0063319D01*
X0265695Y0064917D02*
X0257452Y0064917D01*
X0257452Y0066516D02*
X0265695Y0066516D01*
X0265695Y0068114D02*
X0258700Y0068114D01*
X0260299Y0069713D02*
X0267122Y0069713D01*
X0267519Y0071311D02*
X0260405Y0071311D01*
X0260405Y0072910D02*
X0267469Y0072910D01*
X0267122Y0074508D02*
X0260405Y0074508D01*
X0259757Y0076107D02*
X0267639Y0076107D01*
X0267122Y0077705D02*
X0259667Y0077705D01*
X0259667Y0079304D02*
X0267145Y0079304D01*
X0267122Y0080902D02*
X0259667Y0080902D01*
X0259667Y0082501D02*
X0267122Y0082501D01*
X0267352Y0084099D02*
X0259667Y0084099D01*
X0259667Y0085698D02*
X0267122Y0085698D01*
X0267756Y0087296D02*
X0259667Y0087296D01*
X0259667Y0088895D02*
X0274087Y0088895D01*
X0275685Y0090493D02*
X0259667Y0090493D01*
X0259667Y0092092D02*
X0277625Y0092092D01*
X0276026Y0093690D02*
X0259667Y0093690D01*
X0259667Y0095289D02*
X0274428Y0095289D01*
X0272829Y0096887D02*
X0259667Y0096887D01*
X0259667Y0098486D02*
X0271231Y0098486D01*
X0269632Y0100085D02*
X0259667Y0100085D01*
X0259667Y0101683D02*
X0268034Y0101683D01*
X0266435Y0103282D02*
X0259667Y0103282D01*
X0259667Y0104880D02*
X0264837Y0104880D01*
X0263238Y0106479D02*
X0259667Y0106479D01*
X0266051Y0111274D02*
X0268325Y0111274D01*
X0268325Y0109676D02*
X0267650Y0109676D01*
X0268325Y0109001D02*
X0263899Y0113427D01*
X0263899Y0114714D01*
X0262248Y0116364D01*
X0261059Y0116364D01*
X0267615Y0122920D01*
X0267615Y0120623D01*
X0268325Y0119913D01*
X0268325Y0109001D01*
X0268325Y0112873D02*
X0264453Y0112873D01*
X0263899Y0114471D02*
X0268325Y0114471D01*
X0268325Y0116070D02*
X0262543Y0116070D01*
X0262363Y0117668D02*
X0268325Y0117668D01*
X0268325Y0119267D02*
X0263962Y0119267D01*
X0265560Y0120865D02*
X0267615Y0120865D01*
X0267615Y0122464D02*
X0267159Y0122464D01*
X0274233Y0125767D02*
X0275246Y0124754D01*
X0275246Y0119441D01*
X0274507Y0118703D01*
X0274507Y0108391D01*
X0279794Y0103105D01*
X0281762Y0103105D01*
X0283362Y0101505D01*
X0283586Y0101281D01*
X0285013Y0102708D01*
X0287347Y0102708D01*
X0288997Y0101058D01*
X0288997Y0099770D01*
X0292260Y0096507D01*
X0410740Y0096507D01*
X0411016Y0096231D01*
X0425737Y0096231D01*
X0425139Y0096829D01*
X0425139Y0099163D01*
X0425928Y0099952D01*
X0420639Y0099952D01*
X0419729Y0099042D01*
X0417395Y0099042D01*
X0415744Y0100692D01*
X0415744Y0103026D01*
X0417395Y0104676D01*
X0419729Y0104676D01*
X0420639Y0103766D01*
X0434568Y0103766D01*
X0434568Y0104502D01*
X0436219Y0106153D01*
X0438553Y0106153D01*
X0440203Y0104502D01*
X0440203Y0102168D01*
X0439742Y0101708D01*
X0442482Y0098968D01*
X0443220Y0098968D01*
X0444337Y0097851D01*
X0450356Y0091832D01*
X0482836Y0091832D01*
X0483953Y0090715D01*
X0490843Y0083825D01*
X0490843Y0079822D01*
X0491753Y0078912D01*
X0491753Y0076578D01*
X0491682Y0076507D01*
X0504398Y0076507D01*
X0504081Y0076824D01*
X0504081Y0079158D01*
X0505731Y0080808D01*
X0508065Y0080808D01*
X0508068Y0080806D01*
X0510843Y0083580D01*
X0510843Y0143825D01*
X0510407Y0143825D01*
X0508756Y0145476D01*
X0508756Y0147809D01*
X0508874Y0147928D01*
X0508874Y0151986D01*
X0510167Y0153279D01*
X0510843Y0153954D01*
X0510843Y0177716D01*
X0508199Y0180361D01*
X0486305Y0180361D01*
X0486021Y0179675D01*
X0484585Y0178238D01*
X0482966Y0177568D01*
X0484585Y0176897D01*
X0486021Y0175461D01*
X0486799Y0173584D01*
X0486799Y0171552D01*
X0486021Y0169675D01*
X0484585Y0168238D01*
X0482708Y0167461D01*
X0480676Y0167461D01*
X0478799Y0168238D01*
X0478272Y0168765D01*
X0475689Y0166181D01*
X0474571Y0165064D01*
X0470571Y0165064D01*
X0469689Y0164181D01*
X0469689Y0163761D01*
X0478884Y0154565D01*
X0480001Y0153448D01*
X0480001Y0141248D01*
X0481511Y0139738D01*
X0482798Y0139738D01*
X0482937Y0139600D01*
X0482937Y0143598D01*
X0490132Y0150792D01*
X0490132Y0150802D01*
X0490777Y0151438D01*
X0491417Y0152078D01*
X0491427Y0152078D01*
X0491435Y0152085D01*
X0492340Y0152078D01*
X0493246Y0152078D01*
X0493253Y0152071D01*
X0494308Y0152062D01*
X0494515Y0152269D01*
X0493485Y0153299D01*
X0492198Y0153299D01*
X0490548Y0154949D01*
X0490548Y0157283D01*
X0492198Y0158933D01*
X0494532Y0158933D01*
X0496182Y0157283D01*
X0496182Y0155996D01*
X0499445Y0152733D01*
X0500562Y0151616D01*
X0500562Y0138697D01*
X0501045Y0138215D01*
X0501783Y0137477D01*
X0501861Y0137555D01*
X0502536Y0138046D01*
X0503279Y0138424D01*
X0504073Y0138682D01*
X0504897Y0138813D01*
X0505130Y0138813D01*
X0505130Y0133697D01*
X0505498Y0133697D01*
X0505498Y0138813D01*
X0505731Y0138813D01*
X0506555Y0138682D01*
X0507348Y0138424D01*
X0508092Y0138046D01*
X0508766Y0137555D01*
X0509356Y0136965D01*
X0509847Y0136290D01*
X0510225Y0135547D01*
X0510483Y0134754D01*
X0510614Y0133930D01*
X0510614Y0133697D01*
X0505498Y0133697D01*
X0505498Y0133328D01*
X0510614Y0133328D01*
X0510614Y0133095D01*
X0510483Y0132272D01*
X0510225Y0131478D01*
X0509847Y0130735D01*
X0509356Y0130060D01*
X0508766Y0129470D01*
X0508092Y0128980D01*
X0507348Y0128601D01*
X0506803Y0128424D01*
X0508207Y0127842D01*
X0509643Y0126406D01*
X0510421Y0124528D01*
X0510421Y0122497D01*
X0509643Y0120620D01*
X0508207Y0119183D01*
X0506588Y0118513D01*
X0508207Y0117842D01*
X0509643Y0116406D01*
X0510421Y0114528D01*
X0510421Y0112497D01*
X0509643Y0110620D01*
X0509328Y0110304D01*
X0510454Y0109178D01*
X0510454Y0106844D01*
X0508804Y0105193D01*
X0506470Y0105193D01*
X0505559Y0106104D01*
X0492575Y0106104D01*
X0491458Y0107221D01*
X0487162Y0111517D01*
X0457671Y0111517D01*
X0456761Y0110607D01*
X0454427Y0110607D01*
X0452777Y0112257D01*
X0452777Y0114591D01*
X0454427Y0116241D01*
X0456761Y0116241D01*
X0457671Y0115331D01*
X0488742Y0115331D01*
X0490207Y0113866D01*
X0490207Y0114528D01*
X0490984Y0116406D01*
X0491007Y0116429D01*
X0490540Y0116429D01*
X0488889Y0118079D01*
X0488889Y0119366D01*
X0488549Y0119706D01*
X0488549Y0132968D01*
X0484761Y0129180D01*
X0431533Y0129180D01*
X0427491Y0125138D01*
X0427744Y0124528D01*
X0427744Y0122497D01*
X0426966Y0120620D01*
X0425530Y0119183D01*
X0423911Y0118513D01*
X0425530Y0117842D01*
X0426966Y0116406D01*
X0427744Y0114528D01*
X0427744Y0112497D01*
X0426966Y0110620D01*
X0425530Y0109183D01*
X0423652Y0108406D01*
X0421621Y0108406D01*
X0420635Y0108814D01*
X0414563Y0102742D01*
X0414563Y0101230D01*
X0415474Y0100319D01*
X0415474Y0097985D01*
X0413823Y0096335D01*
X0411489Y0096335D01*
X0409839Y0097985D01*
X0409839Y0100319D01*
X0410749Y0101230D01*
X0410749Y0104322D01*
X0411866Y0105439D01*
X0415399Y0108972D01*
X0414671Y0108601D01*
X0413878Y0108343D01*
X0413054Y0108213D01*
X0412821Y0108213D01*
X0412821Y0113328D01*
X0412452Y0113328D01*
X0412452Y0108213D01*
X0412219Y0108213D01*
X0411396Y0108343D01*
X0410602Y0108601D01*
X0409859Y0108980D01*
X0409184Y0109470D01*
X0408594Y0110060D01*
X0408104Y0110735D01*
X0407725Y0111478D01*
X0407467Y0112272D01*
X0407337Y0113095D01*
X0407337Y0113328D01*
X0412452Y0113328D01*
X0412452Y0113697D01*
X0407337Y0113697D01*
X0407337Y0113930D01*
X0407467Y0114754D01*
X0407725Y0115547D01*
X0408104Y0116290D01*
X0408594Y0116965D01*
X0409184Y0117555D01*
X0409859Y0118046D01*
X0410602Y0118424D01*
X0411148Y0118602D01*
X0409744Y0119183D01*
X0408307Y0120620D01*
X0407530Y0122497D01*
X0407530Y0124528D01*
X0408307Y0126406D01*
X0408351Y0126450D01*
X0408339Y0126450D01*
X0399480Y0135308D01*
X0342394Y0135308D01*
X0331690Y0146012D01*
X0331610Y0146012D01*
X0331121Y0145523D01*
X0332130Y0145523D01*
X0333781Y0143872D01*
X0333781Y0141539D01*
X0332130Y0139888D01*
X0329796Y0139888D01*
X0329515Y0140170D01*
X0316556Y0128047D01*
X0316556Y0127267D01*
X0314906Y0125617D01*
X0312572Y0125617D01*
X0311127Y0127062D01*
X0309635Y0125570D01*
X0310067Y0124528D01*
X0310067Y0122497D01*
X0309289Y0120620D01*
X0307852Y0119183D01*
X0306234Y0118513D01*
X0307852Y0117842D01*
X0309289Y0116406D01*
X0310067Y0114528D01*
X0310067Y0112497D01*
X0309289Y0110620D01*
X0307852Y0109183D01*
X0305975Y0108406D01*
X0303944Y0108406D01*
X0302067Y0109183D01*
X0300630Y0110620D01*
X0299959Y0112238D01*
X0299289Y0110620D01*
X0297852Y0109183D01*
X0295975Y0108406D01*
X0293944Y0108406D01*
X0292067Y0109183D01*
X0290630Y0110620D01*
X0289852Y0112497D01*
X0289852Y0114528D01*
X0290630Y0116406D01*
X0292067Y0117842D01*
X0293685Y0118513D01*
X0292067Y0119183D01*
X0290630Y0120620D01*
X0289852Y0122497D01*
X0289852Y0124528D01*
X0290630Y0126406D01*
X0292067Y0127842D01*
X0293685Y0128513D01*
X0292067Y0129183D01*
X0290630Y0130620D01*
X0289852Y0132497D01*
X0289852Y0134528D01*
X0290630Y0136406D01*
X0292067Y0137842D01*
X0293944Y0138620D01*
X0295975Y0138620D01*
X0297852Y0137842D01*
X0299289Y0136406D01*
X0299871Y0135002D01*
X0300048Y0135547D01*
X0300426Y0136290D01*
X0300917Y0136965D01*
X0301507Y0137555D01*
X0302182Y0138046D01*
X0302925Y0138424D01*
X0303718Y0138682D01*
X0304542Y0138813D01*
X0304775Y0138813D01*
X0304775Y0133697D01*
X0305144Y0133697D01*
X0310259Y0133697D01*
X0310259Y0133930D01*
X0310129Y0134754D01*
X0309871Y0135547D01*
X0309492Y0136290D01*
X0309002Y0136965D01*
X0308412Y0137555D01*
X0307737Y0138046D01*
X0306994Y0138424D01*
X0306201Y0138682D01*
X0305377Y0138813D01*
X0305144Y0138813D01*
X0305144Y0133697D01*
X0305144Y0133328D01*
X0310259Y0133328D01*
X0310259Y0133095D01*
X0310129Y0132272D01*
X0309871Y0131478D01*
X0309582Y0130911D01*
X0310848Y0132177D01*
X0311965Y0133294D01*
X0313318Y0133294D01*
X0325488Y0145464D01*
X0325488Y0150641D01*
X0323387Y0150641D01*
X0322403Y0149657D01*
X0318978Y0149657D01*
X0317993Y0150641D01*
X0275282Y0150641D01*
X0273559Y0148919D01*
X0260206Y0148919D01*
X0259296Y0148008D01*
X0256962Y0148008D01*
X0255720Y0149251D01*
X0249901Y0143432D01*
X0249901Y0132280D01*
X0250611Y0131569D01*
X0250611Y0129235D01*
X0248961Y0127585D01*
X0248643Y0127585D01*
X0248643Y0126704D01*
X0256230Y0126704D01*
X0273766Y0144240D01*
X0273766Y0145841D01*
X0275416Y0147491D01*
X0277750Y0147491D01*
X0278675Y0146567D01*
X0279107Y0146999D01*
X0281441Y0146999D01*
X0282243Y0146198D01*
X0282798Y0146753D01*
X0285132Y0146753D01*
X0286118Y0145767D01*
X0286981Y0146630D01*
X0289315Y0146630D01*
X0290966Y0144980D01*
X0290966Y0142646D01*
X0289315Y0140995D01*
X0288028Y0140995D01*
X0286601Y0139568D01*
X0284878Y0139568D01*
X0282664Y0137354D01*
X0282049Y0137354D01*
X0272850Y0128155D01*
X0274233Y0126771D01*
X0274233Y0125767D01*
X0274339Y0125661D02*
X0290321Y0125661D01*
X0289852Y0124062D02*
X0275246Y0124062D01*
X0275246Y0122464D02*
X0289866Y0122464D01*
X0290528Y0120865D02*
X0275246Y0120865D01*
X0275071Y0119267D02*
X0291983Y0119267D01*
X0291892Y0117668D02*
X0274507Y0117668D01*
X0274507Y0116070D02*
X0290491Y0116070D01*
X0289852Y0114471D02*
X0274507Y0114471D01*
X0274507Y0112873D02*
X0289852Y0112873D01*
X0290359Y0111274D02*
X0274507Y0111274D01*
X0274507Y0109676D02*
X0291574Y0109676D01*
X0298345Y0109676D02*
X0301574Y0109676D01*
X0300359Y0111274D02*
X0299560Y0111274D01*
X0308345Y0109676D02*
X0408978Y0109676D01*
X0407829Y0111274D02*
X0309560Y0111274D01*
X0310067Y0112873D02*
X0407372Y0112873D01*
X0407422Y0114471D02*
X0310067Y0114471D01*
X0309428Y0116070D02*
X0407991Y0116070D01*
X0409339Y0117668D02*
X0378252Y0117668D01*
X0376751Y0116167D02*
X0371278Y0116167D01*
X0367407Y0120038D01*
X0367407Y0125511D01*
X0371278Y0129381D01*
X0376751Y0129381D01*
X0380622Y0125511D01*
X0380622Y0120038D01*
X0376751Y0116167D01*
X0379851Y0119267D02*
X0409660Y0119267D01*
X0408205Y0120865D02*
X0380622Y0120865D01*
X0380622Y0122464D02*
X0407543Y0122464D01*
X0407530Y0124062D02*
X0380622Y0124062D01*
X0380472Y0125661D02*
X0407999Y0125661D01*
X0407529Y0127259D02*
X0378874Y0127259D01*
X0377275Y0128858D02*
X0405931Y0128858D01*
X0404332Y0130456D02*
X0319132Y0130456D01*
X0320840Y0132055D02*
X0402734Y0132055D01*
X0401135Y0133653D02*
X0322549Y0133653D01*
X0324258Y0135252D02*
X0399537Y0135252D01*
X0403120Y0141368D02*
X0345124Y0141368D01*
X0340659Y0145833D01*
X0342024Y0147198D01*
X0342024Y0149532D01*
X0340991Y0150565D01*
X0340991Y0152969D01*
X0340252Y0153707D01*
X0340252Y0154957D01*
X0340688Y0155392D01*
X0341920Y0154160D01*
X0343279Y0154160D01*
X0343279Y0153103D01*
X0344929Y0151453D01*
X0346217Y0151453D01*
X0346537Y0151133D01*
X0367764Y0151133D01*
X0368674Y0150223D01*
X0371008Y0150223D01*
X0372659Y0151873D01*
X0372659Y0154207D01*
X0371008Y0155857D01*
X0368674Y0155857D01*
X0367764Y0154947D01*
X0348914Y0154947D01*
X0348914Y0155437D01*
X0348883Y0155468D01*
X0349603Y0156187D01*
X0360543Y0167127D01*
X0365796Y0167127D01*
X0366706Y0166217D01*
X0369040Y0166217D01*
X0370690Y0167867D01*
X0370690Y0170201D01*
X0369040Y0171852D01*
X0366706Y0171852D01*
X0365796Y0170941D01*
X0358963Y0170941D01*
X0354155Y0166133D01*
X0354155Y0170951D01*
X0361083Y0177879D01*
X0361359Y0177602D01*
X0363693Y0177602D01*
X0364305Y0178214D01*
X0365722Y0176798D01*
X0368056Y0176798D01*
X0368516Y0177259D01*
X0369051Y0176724D01*
X0369977Y0176724D01*
X0369977Y0174511D01*
X0371627Y0172861D01*
X0373961Y0172861D01*
X0375611Y0174511D01*
X0375611Y0176845D01*
X0374904Y0177552D01*
X0378013Y0180661D01*
X0401352Y0180661D01*
X0400489Y0179798D01*
X0400489Y0177464D01*
X0402139Y0175813D01*
X0402383Y0175813D01*
X0402383Y0146259D01*
X0401473Y0145349D01*
X0401473Y0143015D01*
X0403120Y0141368D01*
X0402842Y0141646D02*
X0344845Y0141646D01*
X0343247Y0143244D02*
X0401473Y0143244D01*
X0401473Y0144843D02*
X0341648Y0144843D01*
X0341267Y0146441D02*
X0402383Y0146441D01*
X0402383Y0148040D02*
X0342024Y0148040D01*
X0341917Y0149638D02*
X0402383Y0149638D01*
X0402383Y0151237D02*
X0372022Y0151237D01*
X0372659Y0152835D02*
X0402383Y0152835D01*
X0402383Y0154434D02*
X0372432Y0154434D01*
X0354243Y0160828D02*
X0402383Y0160828D01*
X0402383Y0162426D02*
X0355842Y0162426D01*
X0357441Y0164025D02*
X0402383Y0164025D01*
X0402383Y0165623D02*
X0359039Y0165623D01*
X0356842Y0168821D02*
X0354155Y0168821D01*
X0354155Y0170419D02*
X0358441Y0170419D01*
X0356820Y0173616D02*
X0370872Y0173616D01*
X0369977Y0175215D02*
X0358418Y0175215D01*
X0360017Y0176813D02*
X0365706Y0176813D01*
X0368071Y0176813D02*
X0368962Y0176813D01*
X0374716Y0173616D02*
X0402383Y0173616D01*
X0402383Y0172018D02*
X0355221Y0172018D01*
X0355243Y0167222D02*
X0354155Y0167222D01*
X0352645Y0159229D02*
X0402383Y0159229D01*
X0402383Y0157631D02*
X0351046Y0157631D01*
X0349448Y0156032D02*
X0402383Y0156032D01*
X0409239Y0156032D02*
X0458731Y0156032D01*
X0458731Y0154465D02*
X0460454Y0152742D01*
X0461571Y0151625D01*
X0464098Y0151625D01*
X0465008Y0150715D01*
X0467342Y0150715D01*
X0468972Y0152345D01*
X0471158Y0150159D01*
X0471158Y0141035D01*
X0469617Y0139494D01*
X0468330Y0139494D01*
X0466680Y0137844D01*
X0466680Y0135720D01*
X0455545Y0135720D01*
X0455582Y0135756D01*
X0455582Y0138090D01*
X0454795Y0138877D01*
X0454795Y0147149D01*
X0455705Y0148059D01*
X0455705Y0150393D01*
X0454055Y0152043D01*
X0451721Y0152043D01*
X0450981Y0151303D01*
X0450118Y0152167D01*
X0447784Y0152167D01*
X0446133Y0150516D01*
X0446133Y0148182D01*
X0447044Y0147272D01*
X0447044Y0139000D01*
X0446133Y0138090D01*
X0446133Y0135756D01*
X0446170Y0135720D01*
X0427250Y0135720D01*
X0426966Y0136406D01*
X0425530Y0137842D01*
X0423652Y0138620D01*
X0421621Y0138620D01*
X0420974Y0138352D01*
X0419193Y0140133D01*
X0417958Y0141368D01*
X0408905Y0141368D01*
X0409440Y0141903D01*
X0409915Y0141429D01*
X0412248Y0141429D01*
X0413899Y0143079D01*
X0413899Y0145413D01*
X0412248Y0147063D01*
X0410961Y0147063D01*
X0409239Y0148786D01*
X0409239Y0174081D01*
X0409996Y0174839D01*
X0410621Y0174839D01*
X0411586Y0175804D01*
X0412873Y0175804D01*
X0414524Y0177454D01*
X0414524Y0179788D01*
X0412873Y0181438D01*
X0410540Y0181438D01*
X0409664Y0180563D01*
X0408779Y0181448D01*
X0408338Y0181448D01*
X0408338Y0182137D01*
X0432044Y0182137D01*
X0434863Y0179317D01*
X0435981Y0178200D01*
X0438564Y0178200D01*
X0458731Y0158033D01*
X0458731Y0154465D01*
X0458762Y0154434D02*
X0409239Y0154434D01*
X0409239Y0152835D02*
X0460361Y0152835D01*
X0464486Y0151237D02*
X0454861Y0151237D01*
X0455705Y0149638D02*
X0471158Y0149638D01*
X0471158Y0148040D02*
X0455686Y0148040D01*
X0454795Y0146441D02*
X0471158Y0146441D01*
X0471158Y0144843D02*
X0454795Y0144843D01*
X0454795Y0143244D02*
X0471158Y0143244D01*
X0471158Y0141646D02*
X0454795Y0141646D01*
X0454795Y0140047D02*
X0470170Y0140047D01*
X0467284Y0138449D02*
X0455223Y0138449D01*
X0455582Y0136850D02*
X0466680Y0136850D01*
X0480001Y0141646D02*
X0482937Y0141646D01*
X0482937Y0143244D02*
X0480001Y0143244D01*
X0480001Y0144843D02*
X0484182Y0144843D01*
X0485781Y0146441D02*
X0480001Y0146441D01*
X0480001Y0148040D02*
X0487379Y0148040D01*
X0488978Y0149638D02*
X0480001Y0149638D01*
X0480001Y0151237D02*
X0490573Y0151237D01*
X0491063Y0154434D02*
X0479015Y0154434D01*
X0480001Y0152835D02*
X0493948Y0152835D01*
X0496182Y0156032D02*
X0510843Y0156032D01*
X0510843Y0154434D02*
X0497744Y0154434D01*
X0499343Y0152835D02*
X0509724Y0152835D01*
X0508874Y0151237D02*
X0500562Y0151237D01*
X0500562Y0149638D02*
X0508874Y0149638D01*
X0508874Y0148040D02*
X0500562Y0148040D01*
X0500562Y0146441D02*
X0508756Y0146441D01*
X0509389Y0144843D02*
X0500562Y0144843D01*
X0500562Y0143244D02*
X0510843Y0143244D01*
X0510843Y0141646D02*
X0500562Y0141646D01*
X0500562Y0140047D02*
X0510843Y0140047D01*
X0510843Y0138449D02*
X0507273Y0138449D01*
X0505498Y0138449D02*
X0505130Y0138449D01*
X0505130Y0136850D02*
X0505498Y0136850D01*
X0505498Y0135252D02*
X0505130Y0135252D01*
X0505498Y0133653D02*
X0510843Y0133653D01*
X0510843Y0132055D02*
X0510413Y0132055D01*
X0510843Y0130456D02*
X0509644Y0130456D01*
X0510843Y0128858D02*
X0507852Y0128858D01*
X0508790Y0127259D02*
X0510843Y0127259D01*
X0510843Y0125661D02*
X0509952Y0125661D01*
X0510421Y0124062D02*
X0510843Y0124062D01*
X0510843Y0122464D02*
X0510407Y0122464D01*
X0510843Y0120865D02*
X0509745Y0120865D01*
X0510843Y0119267D02*
X0508290Y0119267D01*
X0508381Y0117668D02*
X0510843Y0117668D01*
X0510843Y0116070D02*
X0509782Y0116070D01*
X0510421Y0114471D02*
X0510843Y0114471D01*
X0510843Y0112873D02*
X0510421Y0112873D01*
X0510843Y0111274D02*
X0509914Y0111274D01*
X0509956Y0109676D02*
X0510843Y0109676D01*
X0510843Y0108077D02*
X0510454Y0108077D01*
X0510089Y0106479D02*
X0510843Y0106479D01*
X0510843Y0104880D02*
X0439825Y0104880D01*
X0440203Y0103282D02*
X0510843Y0103282D01*
X0510843Y0101683D02*
X0439767Y0101683D01*
X0441365Y0100085D02*
X0510843Y0100085D01*
X0510843Y0098486D02*
X0443702Y0098486D01*
X0445300Y0096887D02*
X0510843Y0096887D01*
X0510843Y0095289D02*
X0446899Y0095289D01*
X0448497Y0093690D02*
X0510843Y0093690D01*
X0510843Y0092092D02*
X0450096Y0092092D01*
X0446300Y0090493D02*
X0439718Y0090493D01*
X0440156Y0091660D02*
X0442490Y0091660D01*
X0443812Y0092982D01*
X0448776Y0088018D01*
X0481256Y0088018D01*
X0487029Y0082245D01*
X0487029Y0079822D01*
X0486119Y0078912D01*
X0486119Y0077116D01*
X0486021Y0077350D01*
X0484585Y0078787D01*
X0482708Y0079565D01*
X0480676Y0079565D01*
X0478799Y0078787D01*
X0477362Y0077350D01*
X0476692Y0075732D01*
X0476021Y0077350D01*
X0474585Y0078787D01*
X0472708Y0079565D01*
X0470676Y0079565D01*
X0468799Y0078787D01*
X0468614Y0078602D01*
X0468614Y0080036D01*
X0467496Y0081153D01*
X0461246Y0087403D01*
X0445604Y0087403D01*
X0444979Y0086778D01*
X0443434Y0086778D01*
X0432184Y0098028D01*
X0430774Y0098028D01*
X0430774Y0099163D01*
X0429985Y0099952D01*
X0434012Y0099952D01*
X0438505Y0095459D01*
X0438505Y0093310D01*
X0440156Y0091660D01*
X0439724Y0092092D02*
X0438120Y0092092D01*
X0438505Y0093690D02*
X0436521Y0093690D01*
X0434923Y0095289D02*
X0438505Y0095289D01*
X0437076Y0096887D02*
X0433324Y0096887D01*
X0435478Y0098486D02*
X0430774Y0098486D01*
X0425139Y0098486D02*
X0415474Y0098486D01*
X0415474Y0100085D02*
X0416352Y0100085D01*
X0415744Y0101683D02*
X0414563Y0101683D01*
X0415103Y0103282D02*
X0416000Y0103282D01*
X0416701Y0104880D02*
X0434946Y0104880D01*
X0427237Y0111274D02*
X0453760Y0111274D01*
X0452777Y0112873D02*
X0427744Y0112873D01*
X0427744Y0114471D02*
X0452777Y0114471D01*
X0454256Y0116070D02*
X0427105Y0116070D01*
X0425704Y0117668D02*
X0489300Y0117668D01*
X0488889Y0119267D02*
X0425613Y0119267D01*
X0427068Y0120865D02*
X0488549Y0120865D01*
X0488549Y0122464D02*
X0427730Y0122464D01*
X0427744Y0124062D02*
X0488549Y0124062D01*
X0488549Y0125661D02*
X0428014Y0125661D01*
X0429613Y0127259D02*
X0488549Y0127259D01*
X0488549Y0128858D02*
X0431211Y0128858D01*
X0426521Y0136850D02*
X0446133Y0136850D01*
X0446492Y0138449D02*
X0424065Y0138449D01*
X0421208Y0138449D02*
X0420877Y0138449D01*
X0419279Y0140047D02*
X0447044Y0140047D01*
X0447044Y0141646D02*
X0412466Y0141646D01*
X0413899Y0143244D02*
X0447044Y0143244D01*
X0447044Y0144843D02*
X0413899Y0144843D01*
X0412870Y0146441D02*
X0447044Y0146441D01*
X0446276Y0148040D02*
X0409985Y0148040D01*
X0409239Y0149638D02*
X0446133Y0149638D01*
X0446854Y0151237D02*
X0409239Y0151237D01*
X0409239Y0157631D02*
X0458731Y0157631D01*
X0457535Y0159229D02*
X0409239Y0159229D01*
X0409239Y0160828D02*
X0455936Y0160828D01*
X0454338Y0162426D02*
X0409239Y0162426D01*
X0409239Y0164025D02*
X0452739Y0164025D01*
X0451141Y0165623D02*
X0409239Y0165623D01*
X0409239Y0167222D02*
X0449542Y0167222D01*
X0447944Y0168821D02*
X0409239Y0168821D01*
X0409239Y0170419D02*
X0446345Y0170419D01*
X0444747Y0172018D02*
X0409239Y0172018D01*
X0409239Y0173616D02*
X0443148Y0173616D01*
X0441550Y0175215D02*
X0410997Y0175215D01*
X0413883Y0176813D02*
X0439951Y0176813D01*
X0435769Y0178412D02*
X0414524Y0178412D01*
X0414302Y0180010D02*
X0434170Y0180010D01*
X0432572Y0181609D02*
X0408338Y0181609D01*
X0400701Y0180010D02*
X0377363Y0180010D01*
X0375764Y0178412D02*
X0400489Y0178412D01*
X0401139Y0176813D02*
X0375611Y0176813D01*
X0375611Y0175215D02*
X0402383Y0175215D01*
X0402383Y0170419D02*
X0370472Y0170419D01*
X0370690Y0168821D02*
X0402383Y0168821D01*
X0402383Y0167222D02*
X0370045Y0167222D01*
X0341458Y0178412D02*
X0313234Y0178412D01*
X0313234Y0177956D02*
X0313234Y0180290D01*
X0312958Y0180566D01*
X0315144Y0182752D01*
X0317255Y0182752D01*
X0317993Y0182014D01*
X0323104Y0182014D01*
X0323153Y0181965D01*
X0325487Y0181965D01*
X0327137Y0183615D01*
X0327137Y0185949D01*
X0326105Y0186981D01*
X0330538Y0186981D01*
X0331273Y0186246D01*
X0333607Y0186246D01*
X0335257Y0187897D01*
X0335257Y0190231D01*
X0335162Y0190326D01*
X0344391Y0190326D01*
X0343697Y0189632D01*
X0343697Y0180651D01*
X0325498Y0162452D01*
X0324617Y0162452D01*
X0324002Y0163067D01*
X0317255Y0163067D01*
X0316138Y0161950D01*
X0316025Y0161837D01*
X0301488Y0161837D01*
X0300882Y0162442D01*
X0300882Y0163919D01*
X0299765Y0165036D01*
X0298289Y0166512D01*
X0296684Y0166512D01*
X0301812Y0171602D01*
X0302142Y0171602D01*
X0302729Y0171015D01*
X0305063Y0171015D01*
X0306714Y0172666D01*
X0306714Y0174999D01*
X0306004Y0175710D01*
X0306004Y0175789D01*
X0307885Y0177671D01*
X0309250Y0176306D01*
X0311584Y0176306D01*
X0313234Y0177956D01*
X0312092Y0176813D02*
X0339859Y0176813D01*
X0338261Y0175215D02*
X0306499Y0175215D01*
X0306714Y0173616D02*
X0336662Y0173616D01*
X0335064Y0172018D02*
X0306066Y0172018D01*
X0300620Y0170419D02*
X0333465Y0170419D01*
X0331867Y0168821D02*
X0299010Y0168821D01*
X0297399Y0167222D02*
X0330268Y0167222D01*
X0328670Y0165623D02*
X0299177Y0165623D01*
X0300776Y0164025D02*
X0327071Y0164025D01*
X0316614Y0162426D02*
X0300898Y0162426D01*
X0288524Y0167222D02*
X0263868Y0167222D01*
X0262270Y0168821D02*
X0290122Y0168821D01*
X0291721Y0170419D02*
X0260671Y0170419D01*
X0259073Y0172018D02*
X0293319Y0172018D01*
X0294918Y0173616D02*
X0257474Y0173616D01*
X0255876Y0175215D02*
X0295454Y0175215D01*
X0295174Y0175495D02*
X0295884Y0174785D01*
X0295884Y0174582D01*
X0282354Y0161053D01*
X0278215Y0161053D01*
X0277504Y0161763D01*
X0275170Y0161763D01*
X0273621Y0160213D01*
X0273360Y0160473D01*
X0273864Y0160978D01*
X0273864Y0163311D01*
X0272214Y0164962D01*
X0269880Y0164962D01*
X0268230Y0163311D01*
X0268230Y0162861D01*
X0250580Y0180510D01*
X0251011Y0181552D01*
X0251011Y0183584D01*
X0250234Y0185461D01*
X0248797Y0186897D01*
X0247393Y0187479D01*
X0247939Y0187656D01*
X0248682Y0188035D01*
X0249357Y0188525D01*
X0249947Y0189115D01*
X0250437Y0189790D01*
X0250816Y0190533D01*
X0251074Y0191327D01*
X0251204Y0192151D01*
X0251204Y0192383D01*
X0246089Y0192383D01*
X0246089Y0192752D01*
X0251204Y0192752D01*
X0251204Y0192985D01*
X0251074Y0193809D01*
X0250816Y0194602D01*
X0250437Y0195346D01*
X0249947Y0196020D01*
X0249357Y0196610D01*
X0248682Y0197101D01*
X0247939Y0197479D01*
X0247145Y0197737D01*
X0246321Y0197868D01*
X0246089Y0197868D01*
X0246089Y0192752D01*
X0245720Y0192752D01*
X0245720Y0197868D01*
X0245487Y0197868D01*
X0244663Y0197737D01*
X0243870Y0197479D01*
X0243127Y0197101D01*
X0242452Y0196610D01*
X0241862Y0196020D01*
X0241371Y0195346D01*
X0240993Y0194602D01*
X0240815Y0194057D01*
X0240234Y0195461D01*
X0238797Y0196897D01*
X0236920Y0197675D01*
X0234888Y0197675D01*
X0233011Y0196897D01*
X0231575Y0195461D01*
X0230797Y0193584D01*
X0230797Y0191552D01*
X0231078Y0190873D01*
X0227195Y0186989D01*
X0208494Y0186989D01*
X0203757Y0182252D01*
X0203757Y0195019D01*
X0206222Y0197483D01*
X0217626Y0208888D01*
X0279235Y0208888D01*
X0278318Y0207972D01*
X0278318Y0205638D01*
X0279969Y0203988D01*
X0282303Y0203988D01*
X0283536Y0203988D01*
X0283537Y0203988D02*
X0284824Y0203988D01*
X0285380Y0203431D01*
X0286497Y0202314D01*
X0287728Y0202314D01*
X0292374Y0197668D01*
X0292221Y0197514D01*
X0292221Y0195180D01*
X0292661Y0194740D01*
X0289924Y0194740D01*
X0284141Y0200523D01*
X0256461Y0200523D01*
X0255851Y0201133D01*
X0253517Y0201133D01*
X0251867Y0199483D01*
X0251867Y0197149D01*
X0253517Y0195498D01*
X0255851Y0195498D01*
X0256461Y0196109D01*
X0282313Y0196109D01*
X0288095Y0190326D01*
X0311628Y0190326D01*
X0311263Y0189961D01*
X0300071Y0178769D01*
X0299868Y0178769D01*
X0299158Y0179480D01*
X0296824Y0179480D01*
X0295174Y0177829D01*
X0295174Y0175495D01*
X0295174Y0176813D02*
X0254277Y0176813D01*
X0252679Y0178412D02*
X0295756Y0178412D01*
X0301312Y0180010D02*
X0251080Y0180010D01*
X0251011Y0181609D02*
X0302910Y0181609D01*
X0304509Y0183207D02*
X0251011Y0183207D01*
X0250505Y0184806D02*
X0306107Y0184806D01*
X0307706Y0186404D02*
X0249290Y0186404D01*
X0248619Y0188003D02*
X0309304Y0188003D01*
X0310903Y0189601D02*
X0250300Y0189601D01*
X0251033Y0191200D02*
X0287222Y0191200D01*
X0285623Y0192798D02*
X0251204Y0192798D01*
X0250883Y0194397D02*
X0284025Y0194397D01*
X0282426Y0195995D02*
X0256348Y0195995D01*
X0253020Y0195995D02*
X0249965Y0195995D01*
X0251867Y0197594D02*
X0247587Y0197594D01*
X0246089Y0197594D02*
X0245720Y0197594D01*
X0244222Y0197594D02*
X0237116Y0197594D01*
X0234693Y0197594D02*
X0206332Y0197594D01*
X0207930Y0199192D02*
X0251867Y0199192D01*
X0253175Y0200791D02*
X0209529Y0200791D01*
X0211127Y0202389D02*
X0286422Y0202389D01*
X0289251Y0200791D02*
X0256193Y0200791D01*
X0246089Y0195995D02*
X0245720Y0195995D01*
X0245720Y0194397D02*
X0246089Y0194397D01*
X0246089Y0192798D02*
X0245720Y0192798D01*
X0241843Y0195995D02*
X0239699Y0195995D01*
X0240675Y0194397D02*
X0240926Y0194397D01*
X0232109Y0195995D02*
X0204733Y0195995D01*
X0203757Y0194397D02*
X0231134Y0194397D01*
X0230797Y0192798D02*
X0203757Y0192798D01*
X0203757Y0191200D02*
X0230943Y0191200D01*
X0229807Y0189601D02*
X0203757Y0189601D01*
X0203757Y0188003D02*
X0228208Y0188003D01*
X0207909Y0186404D02*
X0203757Y0186404D01*
X0203757Y0184806D02*
X0206310Y0184806D01*
X0204712Y0183207D02*
X0203757Y0183207D01*
X0197343Y0183207D02*
X0196142Y0183207D01*
X0197343Y0182006D02*
X0192360Y0186989D01*
X0172183Y0186989D01*
X0168125Y0191047D01*
X0168334Y0191552D01*
X0168334Y0193256D01*
X0194736Y0193256D01*
X0195446Y0192546D01*
X0197343Y0192546D01*
X0197343Y0182006D01*
X0197343Y0184806D02*
X0194544Y0184806D01*
X0192945Y0186404D02*
X0197343Y0186404D01*
X0197343Y0188003D02*
X0171169Y0188003D01*
X0169571Y0189601D02*
X0197343Y0189601D01*
X0197343Y0191200D02*
X0168188Y0191200D01*
X0168334Y0192798D02*
X0195194Y0192798D01*
X0194859Y0197594D02*
X0169803Y0197594D01*
X0168205Y0199192D02*
X0198859Y0199192D01*
X0200458Y0200791D02*
X0104787Y0200791D01*
X0103512Y0199192D02*
X0158935Y0199192D01*
X0157337Y0197594D02*
X0154439Y0197594D01*
X0152016Y0197594D02*
X0102237Y0197594D01*
X0100962Y0195995D02*
X0149432Y0195995D01*
X0148457Y0194397D02*
X0099688Y0194397D01*
X0098413Y0192798D02*
X0148120Y0192798D01*
X0148266Y0191200D02*
X0097138Y0191200D01*
X0096069Y0189601D02*
X0148971Y0189601D01*
X0150903Y0188003D02*
X0095065Y0188003D01*
X0094060Y0186404D02*
X0149841Y0186404D01*
X0148626Y0184806D02*
X0093056Y0184806D01*
X0092051Y0183207D02*
X0148120Y0183207D01*
X0148120Y0181609D02*
X0091047Y0181609D01*
X0090043Y0180010D02*
X0148759Y0180010D01*
X0150161Y0178412D02*
X0089238Y0178412D01*
X0088468Y0176813D02*
X0150053Y0176813D01*
X0148627Y0175215D02*
X0087699Y0175215D01*
X0086929Y0173616D02*
X0148027Y0173616D01*
X0147948Y0172018D02*
X0086159Y0172018D01*
X0085389Y0170419D02*
X0148374Y0170419D01*
X0149479Y0168821D02*
X0084619Y0168821D01*
X0083955Y0167222D02*
X0165876Y0167222D01*
X0167474Y0165623D02*
X0083396Y0165623D01*
X0082836Y0164025D02*
X0169073Y0164025D01*
X0170671Y0162426D02*
X0082277Y0162426D01*
X0081718Y0160828D02*
X0172270Y0160828D01*
X0174467Y0164025D02*
X0179007Y0164025D01*
X0182723Y0164025D02*
X0192930Y0164025D01*
X0192930Y0165623D02*
X0172868Y0165623D01*
X0171270Y0167222D02*
X0192930Y0167222D01*
X0192930Y0168821D02*
X0169671Y0168821D01*
X0168073Y0170419D02*
X0192930Y0170419D01*
X0192930Y0172018D02*
X0168334Y0172018D01*
X0168321Y0173616D02*
X0192930Y0173616D01*
X0192930Y0175215D02*
X0167659Y0175215D01*
X0166204Y0176813D02*
X0192930Y0176813D01*
X0191496Y0178412D02*
X0166294Y0178412D01*
X0167696Y0180010D02*
X0189898Y0180010D01*
X0208170Y0177224D02*
X0211307Y0180361D01*
X0231291Y0180361D01*
X0231575Y0179675D01*
X0233011Y0178238D01*
X0234630Y0177568D01*
X0233011Y0176897D01*
X0231575Y0175461D01*
X0230797Y0173584D01*
X0230797Y0171552D01*
X0231575Y0169675D01*
X0233011Y0168238D01*
X0234888Y0167461D01*
X0236920Y0167461D01*
X0238797Y0168238D01*
X0240234Y0169675D01*
X0240904Y0171293D01*
X0241575Y0169675D01*
X0243011Y0168238D01*
X0244888Y0167461D01*
X0246920Y0167461D01*
X0248797Y0168238D01*
X0250234Y0169675D01*
X0251011Y0171552D01*
X0251011Y0173584D01*
X0250234Y0175461D01*
X0248797Y0176897D01*
X0247179Y0177568D01*
X0247850Y0177846D01*
X0272462Y0153234D01*
X0272472Y0153225D01*
X0271980Y0152733D01*
X0260206Y0152733D01*
X0259704Y0153235D01*
X0262597Y0156128D01*
X0263602Y0156128D01*
X0265252Y0157779D01*
X0265252Y0160113D01*
X0263602Y0161763D01*
X0262176Y0161763D01*
X0262176Y0163311D01*
X0260526Y0164962D01*
X0258192Y0164962D01*
X0256542Y0163311D01*
X0256542Y0160978D01*
X0257252Y0160267D01*
X0257252Y0159572D01*
X0244830Y0147150D01*
X0243595Y0145916D01*
X0243595Y0139248D01*
X0243182Y0139248D01*
X0241532Y0137598D01*
X0241532Y0135264D01*
X0242242Y0134554D01*
X0242242Y0131080D01*
X0242071Y0131251D01*
X0240784Y0131251D01*
X0216163Y0155873D01*
X0216163Y0157160D01*
X0214512Y0158810D01*
X0212178Y0158810D01*
X0210528Y0157160D01*
X0210528Y0154826D01*
X0212178Y0153176D01*
X0213466Y0153176D01*
X0238087Y0128554D01*
X0238087Y0127267D01*
X0239737Y0125617D01*
X0242071Y0125617D01*
X0243008Y0126554D01*
X0243008Y0126283D01*
X0243257Y0126034D01*
X0238022Y0120798D01*
X0226686Y0120798D01*
X0227389Y0122497D01*
X0227389Y0124528D01*
X0226612Y0126406D01*
X0225175Y0127842D01*
X0223557Y0128513D01*
X0225175Y0129183D01*
X0226612Y0130620D01*
X0227389Y0132497D01*
X0227389Y0134528D01*
X0226612Y0136406D01*
X0225175Y0137842D01*
X0223298Y0138620D01*
X0221266Y0138620D01*
X0220100Y0138136D01*
X0220100Y0139443D01*
X0218449Y0141094D01*
X0216115Y0141094D01*
X0214465Y0139443D01*
X0214465Y0138136D01*
X0213298Y0138620D01*
X0211266Y0138620D01*
X0209389Y0137842D01*
X0208170Y0136623D01*
X0208170Y0177224D01*
X0208170Y0176813D02*
X0232927Y0176813D01*
X0232838Y0178412D02*
X0209358Y0178412D01*
X0210956Y0180010D02*
X0231436Y0180010D01*
X0231473Y0175215D02*
X0208170Y0175215D01*
X0208170Y0173616D02*
X0230811Y0173616D01*
X0230797Y0172018D02*
X0208170Y0172018D01*
X0208170Y0170419D02*
X0231266Y0170419D01*
X0232429Y0168821D02*
X0208170Y0168821D01*
X0208170Y0167222D02*
X0258474Y0167222D01*
X0256876Y0168821D02*
X0249380Y0168821D01*
X0250542Y0170419D02*
X0255277Y0170419D01*
X0253679Y0172018D02*
X0251011Y0172018D01*
X0250998Y0173616D02*
X0252080Y0173616D01*
X0250482Y0175215D02*
X0250336Y0175215D01*
X0248883Y0176813D02*
X0248881Y0176813D01*
X0241266Y0170419D02*
X0240542Y0170419D01*
X0239380Y0168821D02*
X0242429Y0168821D01*
X0256542Y0162426D02*
X0208170Y0162426D01*
X0208170Y0160828D02*
X0256691Y0160828D01*
X0256909Y0159229D02*
X0208170Y0159229D01*
X0208170Y0157631D02*
X0210999Y0157631D01*
X0210528Y0156032D02*
X0208170Y0156032D01*
X0208170Y0154434D02*
X0210920Y0154434D01*
X0208170Y0152835D02*
X0213806Y0152835D01*
X0215404Y0151237D02*
X0208170Y0151237D01*
X0208170Y0149638D02*
X0217003Y0149638D01*
X0218601Y0148040D02*
X0208170Y0148040D01*
X0208170Y0146441D02*
X0220200Y0146441D01*
X0221798Y0144843D02*
X0208170Y0144843D01*
X0208170Y0143244D02*
X0223397Y0143244D01*
X0224995Y0141646D02*
X0208170Y0141646D01*
X0208170Y0140047D02*
X0215069Y0140047D01*
X0214465Y0138449D02*
X0213711Y0138449D01*
X0210854Y0138449D02*
X0208170Y0138449D01*
X0208170Y0136850D02*
X0208397Y0136850D01*
X0219496Y0140047D02*
X0226594Y0140047D01*
X0228192Y0138449D02*
X0223711Y0138449D01*
X0220854Y0138449D02*
X0220100Y0138449D01*
X0226167Y0136850D02*
X0229791Y0136850D01*
X0231389Y0135252D02*
X0227090Y0135252D01*
X0227389Y0133653D02*
X0232988Y0133653D01*
X0234586Y0132055D02*
X0227206Y0132055D01*
X0226448Y0130456D02*
X0236185Y0130456D01*
X0237783Y0128858D02*
X0224390Y0128858D01*
X0225758Y0127259D02*
X0238095Y0127259D01*
X0239693Y0125661D02*
X0226920Y0125661D01*
X0227389Y0124062D02*
X0241285Y0124062D01*
X0242115Y0125661D02*
X0242884Y0125661D01*
X0248643Y0127259D02*
X0256786Y0127259D01*
X0258384Y0128858D02*
X0250234Y0128858D01*
X0250611Y0130456D02*
X0259983Y0130456D01*
X0261581Y0132055D02*
X0250126Y0132055D01*
X0249901Y0133653D02*
X0263180Y0133653D01*
X0264778Y0135252D02*
X0249901Y0135252D01*
X0249901Y0136850D02*
X0266377Y0136850D01*
X0267975Y0138449D02*
X0249901Y0138449D01*
X0249901Y0140047D02*
X0269574Y0140047D01*
X0271172Y0141646D02*
X0249901Y0141646D01*
X0249901Y0143244D02*
X0272771Y0143244D01*
X0273766Y0144843D02*
X0251312Y0144843D01*
X0252910Y0146441D02*
X0274367Y0146441D01*
X0274279Y0149638D02*
X0325488Y0149638D01*
X0325488Y0148040D02*
X0259327Y0148040D01*
X0256930Y0148040D02*
X0254509Y0148040D01*
X0250515Y0152835D02*
X0219200Y0152835D01*
X0220798Y0151237D02*
X0248916Y0151237D01*
X0247318Y0149638D02*
X0222397Y0149638D01*
X0223995Y0148040D02*
X0245719Y0148040D01*
X0244121Y0146441D02*
X0225594Y0146441D01*
X0227192Y0144843D02*
X0243595Y0144843D01*
X0243595Y0143244D02*
X0228791Y0143244D01*
X0230389Y0141646D02*
X0243595Y0141646D01*
X0243595Y0140047D02*
X0231988Y0140047D01*
X0233586Y0138449D02*
X0242383Y0138449D01*
X0241532Y0136850D02*
X0235185Y0136850D01*
X0236783Y0135252D02*
X0241544Y0135252D01*
X0242242Y0133653D02*
X0238382Y0133653D01*
X0239980Y0132055D02*
X0242242Y0132055D01*
X0239687Y0122464D02*
X0227376Y0122464D01*
X0226714Y0120865D02*
X0238088Y0120865D01*
X0241143Y0117677D02*
X0245592Y0122126D01*
X0245592Y0120623D01*
X0246502Y0119713D01*
X0246502Y0112056D01*
X0245592Y0111146D01*
X0245592Y0108812D01*
X0247242Y0107162D01*
X0249576Y0107162D01*
X0251227Y0108812D01*
X0251227Y0111146D01*
X0250316Y0112056D01*
X0250316Y0119713D01*
X0251227Y0120623D01*
X0251227Y0122290D01*
X0255261Y0122290D01*
X0251493Y0118521D01*
X0251493Y0074109D01*
X0251163Y0073779D01*
X0251204Y0074040D01*
X0251204Y0074273D01*
X0246089Y0074273D01*
X0246089Y0074642D01*
X0251204Y0074642D01*
X0251204Y0074875D01*
X0251074Y0075699D01*
X0250816Y0076492D01*
X0250437Y0077235D01*
X0249947Y0077910D01*
X0249357Y0078500D01*
X0248682Y0078990D01*
X0247939Y0079369D01*
X0247145Y0079627D01*
X0246321Y0079757D01*
X0246089Y0079757D01*
X0246089Y0074642D01*
X0245720Y0074642D01*
X0245720Y0079757D01*
X0245487Y0079757D01*
X0244663Y0079627D01*
X0243870Y0079369D01*
X0243127Y0078990D01*
X0242452Y0078500D01*
X0241862Y0077910D01*
X0241371Y0077235D01*
X0240993Y0076492D01*
X0240815Y0075947D01*
X0240234Y0077350D01*
X0238797Y0078787D01*
X0236920Y0079565D01*
X0234888Y0079565D01*
X0233011Y0078787D01*
X0231575Y0077350D01*
X0231225Y0076507D01*
X0214686Y0076507D01*
X0214686Y0078666D01*
X0213036Y0080316D01*
X0210702Y0080316D01*
X0210576Y0080190D01*
X0208170Y0082596D01*
X0208170Y0110155D01*
X0208240Y0110060D01*
X0208830Y0109470D01*
X0209504Y0108980D01*
X0210248Y0108601D01*
X0211041Y0108343D01*
X0211865Y0108213D01*
X0212098Y0108213D01*
X0212098Y0113328D01*
X0212467Y0113328D01*
X0212467Y0108213D01*
X0212699Y0108213D01*
X0213523Y0108343D01*
X0214317Y0108601D01*
X0215060Y0108980D01*
X0215735Y0109470D01*
X0216325Y0110060D01*
X0216815Y0110735D01*
X0217194Y0111478D01*
X0217371Y0112024D01*
X0217953Y0110620D01*
X0219389Y0109183D01*
X0221266Y0108406D01*
X0223298Y0108406D01*
X0225175Y0109183D01*
X0226612Y0110620D01*
X0227389Y0112497D01*
X0227389Y0114528D01*
X0226621Y0116384D01*
X0239850Y0116384D01*
X0241143Y0117677D01*
X0241134Y0117668D02*
X0246502Y0117668D01*
X0246502Y0116070D02*
X0226751Y0116070D01*
X0227389Y0114471D02*
X0246502Y0114471D01*
X0246502Y0112873D02*
X0227389Y0112873D01*
X0226883Y0111274D02*
X0245720Y0111274D01*
X0245592Y0109676D02*
X0225668Y0109676D01*
X0218897Y0109676D02*
X0215941Y0109676D01*
X0217090Y0111274D02*
X0217682Y0111274D01*
X0212467Y0111274D02*
X0212098Y0111274D01*
X0212098Y0109676D02*
X0212467Y0109676D01*
X0212467Y0112873D02*
X0212098Y0112873D01*
X0208624Y0109676D02*
X0208170Y0109676D01*
X0208170Y0108077D02*
X0246327Y0108077D01*
X0250491Y0108077D02*
X0251493Y0108077D01*
X0251493Y0106479D02*
X0208170Y0106479D01*
X0208170Y0104880D02*
X0251493Y0104880D01*
X0251493Y0103282D02*
X0208170Y0103282D01*
X0208170Y0101683D02*
X0251493Y0101683D01*
X0251493Y0100085D02*
X0208170Y0100085D01*
X0208170Y0098486D02*
X0251493Y0098486D01*
X0251493Y0096887D02*
X0208170Y0096887D01*
X0208170Y0095289D02*
X0251493Y0095289D01*
X0251493Y0093690D02*
X0208170Y0093690D01*
X0208170Y0092092D02*
X0251493Y0092092D01*
X0251493Y0090493D02*
X0208170Y0090493D01*
X0208170Y0088895D02*
X0251493Y0088895D01*
X0251493Y0087296D02*
X0208170Y0087296D01*
X0208170Y0085698D02*
X0251493Y0085698D01*
X0251493Y0084099D02*
X0208170Y0084099D01*
X0208266Y0082501D02*
X0251493Y0082501D01*
X0251493Y0080902D02*
X0209864Y0080902D01*
X0214048Y0079304D02*
X0234259Y0079304D01*
X0231930Y0077705D02*
X0214686Y0077705D01*
X0208415Y0072910D02*
X0203757Y0072910D01*
X0203757Y0074508D02*
X0206817Y0074508D01*
X0205218Y0076107D02*
X0203757Y0076107D01*
X0197343Y0076107D02*
X0196128Y0076107D01*
X0197343Y0074508D02*
X0194529Y0074508D01*
X0192931Y0072910D02*
X0197343Y0072910D01*
X0197343Y0071311D02*
X0191310Y0071311D01*
X0191089Y0069713D02*
X0197343Y0069713D01*
X0197343Y0068114D02*
X0170005Y0068114D01*
X0168407Y0066516D02*
X0197343Y0066516D01*
X0197343Y0064917D02*
X0168334Y0064917D01*
X0168283Y0063319D02*
X0197343Y0063319D01*
X0197343Y0061720D02*
X0187586Y0061720D01*
X0188604Y0060122D02*
X0197343Y0060122D01*
X0197343Y0058523D02*
X0188604Y0058523D01*
X0187159Y0056925D02*
X0197343Y0056925D01*
X0197343Y0055326D02*
X0168334Y0055326D01*
X0168334Y0053728D02*
X0197343Y0053728D01*
X0197343Y0052129D02*
X0167791Y0052129D01*
X0166523Y0050531D02*
X0197343Y0050531D01*
X0197343Y0048932D02*
X0102635Y0048932D01*
X0101361Y0050531D02*
X0149659Y0050531D01*
X0148465Y0052129D02*
X0100086Y0052129D01*
X0098811Y0053728D02*
X0147977Y0053728D01*
X0147999Y0055326D02*
X0097536Y0055326D01*
X0096383Y0056925D02*
X0148536Y0056925D01*
X0149806Y0058523D02*
X0095378Y0058523D01*
X0094374Y0060122D02*
X0150349Y0060122D01*
X0148833Y0061720D02*
X0093370Y0061720D01*
X0092365Y0063319D02*
X0148171Y0063319D01*
X0148120Y0064917D02*
X0091361Y0064917D01*
X0090356Y0066516D02*
X0148552Y0066516D01*
X0149661Y0068114D02*
X0089479Y0068114D01*
X0088709Y0069713D02*
X0151336Y0069713D01*
X0149151Y0071311D02*
X0087939Y0071311D01*
X0087169Y0072910D02*
X0148340Y0072910D01*
X0148120Y0074508D02*
X0086399Y0074508D01*
X0085630Y0076107D02*
X0148382Y0076107D01*
X0149253Y0077705D02*
X0084860Y0077705D01*
X0084130Y0079304D02*
X0151582Y0079304D01*
X0154872Y0079304D02*
X0161582Y0079304D01*
X0159253Y0077705D02*
X0157202Y0077705D01*
X0158072Y0076107D02*
X0158382Y0076107D01*
X0164872Y0079304D02*
X0186314Y0079304D01*
X0185676Y0077705D02*
X0167202Y0077705D01*
X0171604Y0069713D02*
X0185897Y0069713D01*
X0203757Y0069713D02*
X0209273Y0069713D01*
X0209052Y0071311D02*
X0203757Y0071311D01*
X0203757Y0068114D02*
X0229126Y0068114D01*
X0230725Y0066516D02*
X0203757Y0066516D01*
X0203757Y0064917D02*
X0230797Y0064917D01*
X0230848Y0063319D02*
X0203757Y0063319D01*
X0203757Y0061720D02*
X0210561Y0061720D01*
X0209544Y0060122D02*
X0203757Y0060122D01*
X0203757Y0058523D02*
X0209544Y0058523D01*
X0210988Y0056925D02*
X0203757Y0056925D01*
X0203757Y0055326D02*
X0230797Y0055326D01*
X0230797Y0053728D02*
X0203757Y0053728D01*
X0203757Y0052129D02*
X0231341Y0052129D01*
X0232609Y0050531D02*
X0203757Y0050531D01*
X0203757Y0048932D02*
X0245320Y0048932D01*
X0243721Y0047334D02*
X0203757Y0047334D01*
X0203757Y0045735D02*
X0242123Y0045735D01*
X0240524Y0044137D02*
X0203757Y0044137D01*
X0203757Y0042538D02*
X0239981Y0042538D01*
X0239981Y0040940D02*
X0203757Y0040940D01*
X0203757Y0039341D02*
X0239981Y0039341D01*
X0239981Y0037743D02*
X0203757Y0037743D01*
X0203757Y0036144D02*
X0239981Y0036144D01*
X0239981Y0034546D02*
X0203757Y0034546D01*
X0203757Y0032947D02*
X0239071Y0032947D01*
X0239071Y0031349D02*
X0203757Y0031349D01*
X0203757Y0029750D02*
X0240131Y0029750D01*
X0243646Y0029750D02*
X0320626Y0029750D01*
X0319027Y0028152D02*
X0203757Y0028152D01*
X0197343Y0047334D02*
X0103910Y0047334D01*
X0153043Y0050531D02*
X0153411Y0050531D01*
X0153411Y0052129D02*
X0153043Y0052129D01*
X0153043Y0053728D02*
X0153411Y0053728D01*
X0156796Y0050531D02*
X0159931Y0050531D01*
X0158664Y0052129D02*
X0157989Y0052129D01*
X0167733Y0056925D02*
X0184413Y0056925D01*
X0213734Y0056925D02*
X0231398Y0056925D01*
X0239200Y0050531D02*
X0242609Y0050531D01*
X0241341Y0052129D02*
X0240468Y0052129D01*
X0254768Y0060122D02*
X0267831Y0060122D01*
X0294301Y0058552D02*
X0294301Y0051662D01*
X0294301Y0051662D01*
X0297351Y0051662D01*
X0297351Y0054399D01*
X0297229Y0054857D01*
X0297084Y0055107D01*
X0297229Y0055357D01*
X0297351Y0055815D01*
X0297351Y0058552D01*
X0294301Y0058552D01*
X0294301Y0058552D01*
X0294301Y0058523D02*
X0294301Y0058523D01*
X0294301Y0056925D02*
X0294301Y0056925D01*
X0294301Y0055326D02*
X0294301Y0055326D01*
X0294301Y0053728D02*
X0294301Y0053728D01*
X0294301Y0052129D02*
X0294301Y0052129D01*
X0294301Y0050531D02*
X0294301Y0050531D01*
X0294301Y0048932D02*
X0294301Y0048932D01*
X0294301Y0047334D02*
X0294301Y0047334D01*
X0294301Y0045735D02*
X0294301Y0045735D01*
X0297351Y0045735D02*
X0327451Y0045735D01*
X0327600Y0047334D02*
X0297351Y0047334D01*
X0297351Y0048932D02*
X0328552Y0048932D01*
X0329528Y0050531D02*
X0297351Y0050531D01*
X0297351Y0052129D02*
X0327920Y0052129D01*
X0327451Y0053728D02*
X0297351Y0053728D01*
X0297211Y0055326D02*
X0327649Y0055326D01*
X0328671Y0056925D02*
X0297351Y0056925D01*
X0297351Y0058523D02*
X0329242Y0058523D01*
X0327871Y0060122D02*
X0313388Y0060122D01*
X0313699Y0061720D02*
X0327451Y0061720D01*
X0327699Y0063319D02*
X0315297Y0063319D01*
X0313100Y0066516D02*
X0297415Y0066516D01*
X0297415Y0067253D02*
X0297415Y0064516D01*
X0297383Y0064396D01*
X0310592Y0064396D01*
X0310666Y0064322D01*
X0310907Y0064322D01*
X0313185Y0066601D01*
X0314302Y0067718D01*
X0320518Y0067718D01*
X0320518Y0068269D01*
X0317245Y0071542D01*
X0317245Y0078866D01*
X0316335Y0079777D01*
X0316335Y0082111D01*
X0316583Y0082358D01*
X0297415Y0082358D01*
X0297415Y0080058D01*
X0294365Y0080058D01*
X0294365Y0080058D01*
X0294365Y0077832D01*
X0294365Y0073532D01*
X0294365Y0073532D01*
X0294365Y0071553D01*
X0294365Y0067253D01*
X0294365Y0067253D01*
X0294365Y0073532D01*
X0294365Y0073532D01*
X0297415Y0073532D01*
X0297415Y0070795D01*
X0297307Y0070393D01*
X0297415Y0069990D01*
X0297415Y0067253D01*
X0294365Y0067253D01*
X0294365Y0067253D01*
X0297415Y0067253D01*
X0297415Y0068114D02*
X0320518Y0068114D01*
X0319074Y0069713D02*
X0297415Y0069713D01*
X0297415Y0071311D02*
X0317476Y0071311D01*
X0317245Y0072910D02*
X0297415Y0072910D01*
X0297415Y0073532D02*
X0297415Y0076269D01*
X0297292Y0076727D01*
X0297253Y0076795D01*
X0297292Y0076863D01*
X0297415Y0077321D01*
X0297415Y0080058D01*
X0294365Y0080058D01*
X0294365Y0080058D01*
X0294365Y0073532D01*
X0294365Y0073532D01*
X0297415Y0073532D01*
X0297415Y0074508D02*
X0317245Y0074508D01*
X0317245Y0076107D02*
X0297415Y0076107D01*
X0297415Y0077705D02*
X0317245Y0077705D01*
X0316808Y0079304D02*
X0297415Y0079304D01*
X0297415Y0080902D02*
X0316335Y0080902D01*
X0321059Y0078866D02*
X0321970Y0079777D01*
X0321970Y0082111D01*
X0321722Y0082358D01*
X0326716Y0082358D01*
X0326716Y0080695D01*
X0327759Y0079652D01*
X0326104Y0079652D01*
X0324986Y0078535D01*
X0322405Y0075953D01*
X0321059Y0075953D01*
X0321059Y0078866D01*
X0321497Y0079304D02*
X0325755Y0079304D01*
X0326716Y0080902D02*
X0321970Y0080902D01*
X0321059Y0077705D02*
X0324157Y0077705D01*
X0322558Y0076107D02*
X0321059Y0076107D01*
X0294365Y0076107D02*
X0294365Y0076107D01*
X0294365Y0077705D02*
X0294365Y0077705D01*
X0294365Y0079304D02*
X0294365Y0079304D01*
X0294365Y0074508D02*
X0294365Y0074508D01*
X0294365Y0072910D02*
X0294365Y0072910D01*
X0294365Y0071311D02*
X0294365Y0071311D01*
X0294365Y0069713D02*
X0294365Y0069713D01*
X0294365Y0068114D02*
X0294365Y0068114D01*
X0297415Y0064917D02*
X0311502Y0064917D01*
X0308185Y0060122D02*
X0297351Y0060122D01*
X0332344Y0057991D02*
X0333693Y0058550D01*
X0334814Y0059671D01*
X0335421Y0061135D01*
X0335421Y0062673D01*
X0337865Y0062673D01*
X0337865Y0060819D01*
X0337795Y0060697D01*
X0337672Y0060240D01*
X0337672Y0058753D01*
X0341972Y0058753D01*
X0341972Y0058752D01*
X0337672Y0058752D01*
X0337672Y0057266D01*
X0337795Y0056808D01*
X0338032Y0056397D01*
X0338367Y0056062D01*
X0338777Y0055825D01*
X0339235Y0055703D01*
X0341231Y0055703D01*
X0340695Y0055167D01*
X0340695Y0052833D01*
X0341312Y0052216D01*
X0339684Y0052216D01*
X0336987Y0054913D01*
X0335870Y0056030D01*
X0334931Y0056030D01*
X0334814Y0056311D01*
X0333693Y0057432D01*
X0332344Y0057991D01*
X0333630Y0058523D02*
X0337672Y0058523D01*
X0337672Y0060122D02*
X0335001Y0060122D01*
X0335421Y0061720D02*
X0337865Y0061720D01*
X0341972Y0058753D02*
X0346272Y0058753D01*
X0346272Y0060045D01*
X0347457Y0060045D01*
X0348593Y0061181D01*
X0348593Y0061135D01*
X0349199Y0059671D01*
X0350320Y0058550D01*
X0351669Y0057991D01*
X0350320Y0057432D01*
X0349199Y0056311D01*
X0349032Y0055907D01*
X0345590Y0055907D01*
X0345487Y0056010D01*
X0345577Y0056062D01*
X0345913Y0056397D01*
X0346150Y0056808D01*
X0346272Y0057266D01*
X0346272Y0058752D01*
X0341972Y0058752D01*
X0341972Y0058753D01*
X0346272Y0058523D02*
X0350384Y0058523D01*
X0349813Y0056925D02*
X0346181Y0056925D01*
X0347533Y0060122D02*
X0349012Y0060122D01*
X0354771Y0058523D02*
X0363179Y0058523D01*
X0362608Y0056925D02*
X0355342Y0056925D01*
X0356364Y0055326D02*
X0361586Y0055326D01*
X0361388Y0053728D02*
X0356563Y0053728D01*
X0356094Y0052129D02*
X0361857Y0052129D01*
X0363465Y0050531D02*
X0354485Y0050531D01*
X0355461Y0048932D02*
X0362489Y0048932D01*
X0361537Y0047334D02*
X0356413Y0047334D01*
X0356563Y0045735D02*
X0361388Y0045735D01*
X0361906Y0044137D02*
X0356045Y0044137D01*
X0356863Y0043653D02*
X0355213Y0042002D01*
X0355213Y0039668D01*
X0356123Y0038758D01*
X0356123Y0025877D01*
X0355603Y0025357D01*
X0352272Y0025357D01*
X0349807Y0022893D01*
X0349807Y0019408D01*
X0352272Y0016943D01*
X0355757Y0016943D01*
X0358222Y0019408D01*
X0358222Y0022582D01*
X0358820Y0023180D01*
X0359937Y0024297D01*
X0359937Y0038758D01*
X0360848Y0039668D01*
X0360848Y0042002D01*
X0359197Y0043653D01*
X0356863Y0043653D01*
X0355749Y0042538D02*
X0354199Y0042538D01*
X0355213Y0040940D02*
X0351169Y0040940D01*
X0350956Y0042538D02*
X0350802Y0042538D01*
X0347388Y0039341D02*
X0355540Y0039341D01*
X0356123Y0037743D02*
X0351169Y0037743D01*
X0350570Y0036144D02*
X0356123Y0036144D01*
X0356123Y0034546D02*
X0343820Y0034546D01*
X0343820Y0036144D02*
X0343838Y0036144D01*
X0347019Y0036144D02*
X0347388Y0036144D01*
X0347388Y0037743D02*
X0347019Y0037743D01*
X0343820Y0032947D02*
X0356123Y0032947D01*
X0356123Y0031349D02*
X0343820Y0031349D01*
X0343820Y0029750D02*
X0356123Y0029750D01*
X0356123Y0028152D02*
X0343820Y0028152D01*
X0342429Y0026553D02*
X0356123Y0026553D01*
X0359937Y0026553D02*
X0367565Y0026553D01*
X0367565Y0028152D02*
X0359937Y0028152D01*
X0359937Y0029750D02*
X0367565Y0029750D01*
X0367565Y0031349D02*
X0359937Y0031349D01*
X0359937Y0032947D02*
X0367565Y0032947D01*
X0367565Y0034546D02*
X0359937Y0034546D01*
X0359937Y0036144D02*
X0367565Y0036144D01*
X0367565Y0037743D02*
X0359937Y0037743D01*
X0360520Y0039341D02*
X0366982Y0039341D01*
X0366655Y0040940D02*
X0360848Y0040940D01*
X0360312Y0042538D02*
X0363752Y0042538D01*
X0366994Y0042538D02*
X0367191Y0042538D01*
X0368840Y0044137D02*
X0371840Y0044137D01*
X0371754Y0042538D02*
X0373439Y0042538D01*
X0372290Y0040940D02*
X0375037Y0040940D01*
X0371962Y0039341D02*
X0381468Y0039341D01*
X0381468Y0037743D02*
X0381837Y0037743D01*
X0381837Y0036144D02*
X0381468Y0036144D01*
X0384082Y0034546D02*
X0371379Y0034546D01*
X0371379Y0036144D02*
X0378286Y0036144D01*
X0377687Y0037743D02*
X0371379Y0037743D01*
X0371379Y0032947D02*
X0384082Y0032947D01*
X0384082Y0031349D02*
X0371379Y0031349D01*
X0371379Y0029750D02*
X0384082Y0029750D01*
X0384082Y0028152D02*
X0371379Y0028152D01*
X0371379Y0026553D02*
X0385364Y0026553D01*
X0385522Y0025550D02*
X0383700Y0025550D01*
X0383700Y0021151D01*
X0383700Y0021151D01*
X0383700Y0021150D02*
X0388100Y0021150D01*
X0383700Y0021150D01*
X0383700Y0021150D01*
X0383700Y0016750D01*
X0385522Y0016750D01*
X0388100Y0019328D01*
X0388100Y0021150D01*
X0388100Y0022973D01*
X0385522Y0025550D01*
X0386118Y0024954D02*
X0386962Y0024954D01*
X0387717Y0023356D02*
X0388561Y0023356D01*
X0388100Y0021757D02*
X0389178Y0021757D01*
X0389178Y0020159D02*
X0388100Y0020159D01*
X0387332Y0018560D02*
X0390025Y0018560D01*
X0391623Y0016962D02*
X0385734Y0016962D01*
X0383700Y0016962D02*
X0383700Y0016962D01*
X0383700Y0016750D02*
X0383700Y0021150D01*
X0383700Y0021150D01*
X0383699Y0021150D02*
X0379300Y0021150D01*
X0379300Y0019328D01*
X0381877Y0016750D01*
X0383700Y0016750D01*
X0383700Y0018560D02*
X0383700Y0018560D01*
X0383700Y0020159D02*
X0383700Y0020159D01*
X0383699Y0021150D02*
X0383699Y0021150D01*
X0379300Y0021150D01*
X0379300Y0022973D01*
X0381877Y0025550D01*
X0383700Y0025550D01*
X0383700Y0021151D01*
X0383700Y0021757D02*
X0383700Y0021757D01*
X0383700Y0023356D02*
X0383700Y0023356D01*
X0383700Y0024954D02*
X0383700Y0024954D01*
X0381281Y0024954D02*
X0375845Y0024954D01*
X0377444Y0023356D02*
X0379683Y0023356D01*
X0379300Y0021757D02*
X0377907Y0021757D01*
X0377907Y0020159D02*
X0379300Y0020159D01*
X0380067Y0018560D02*
X0377059Y0018560D01*
X0375461Y0016962D02*
X0381666Y0016962D01*
X0395146Y0016962D02*
X0401351Y0016962D01*
X0401562Y0016750D02*
X0403385Y0016750D01*
X0405207Y0016750D01*
X0407785Y0019328D01*
X0407785Y0021150D01*
X0403385Y0021150D01*
X0403385Y0021150D01*
X0403385Y0016750D01*
X0403385Y0021150D01*
X0403385Y0021150D01*
X0407785Y0021150D01*
X0407785Y0022973D01*
X0405207Y0025550D01*
X0403385Y0025550D01*
X0403385Y0021151D01*
X0403385Y0021151D01*
X0403385Y0025550D01*
X0401562Y0025550D01*
X0398985Y0022973D01*
X0398985Y0021150D01*
X0398985Y0019328D01*
X0401562Y0016750D01*
X0403385Y0016962D02*
X0403385Y0016962D01*
X0403385Y0018560D02*
X0403385Y0018560D01*
X0403385Y0020159D02*
X0403385Y0020159D01*
X0403385Y0021150D02*
X0398985Y0021150D01*
X0403385Y0021150D01*
X0403385Y0021150D01*
X0403385Y0021757D02*
X0403385Y0021757D01*
X0403385Y0023356D02*
X0403385Y0023356D01*
X0403385Y0024954D02*
X0403385Y0024954D01*
X0405803Y0024954D02*
X0506164Y0024954D01*
X0506520Y0025310D02*
X0505140Y0023930D01*
X0504393Y0022126D01*
X0504393Y0020174D01*
X0505140Y0018371D01*
X0506520Y0016990D01*
X0508324Y0016243D01*
X0510276Y0016243D01*
X0512080Y0016990D01*
X0513460Y0018371D01*
X0514207Y0020174D01*
X0514207Y0022126D01*
X0513460Y0023930D01*
X0512080Y0025310D01*
X0510276Y0026057D01*
X0508324Y0026057D01*
X0506520Y0025310D01*
X0504902Y0023356D02*
X0407402Y0023356D01*
X0407785Y0021757D02*
X0504393Y0021757D01*
X0504399Y0020159D02*
X0407785Y0020159D01*
X0407017Y0018560D02*
X0505061Y0018560D01*
X0506589Y0016962D02*
X0405419Y0016962D01*
X0399752Y0018560D02*
X0396744Y0018560D01*
X0397592Y0020159D02*
X0398985Y0020159D01*
X0398985Y0021757D02*
X0397592Y0021757D01*
X0397129Y0023356D02*
X0399368Y0023356D01*
X0400966Y0024954D02*
X0395530Y0024954D01*
X0390758Y0026553D02*
X0515256Y0026553D01*
X0515256Y0024954D02*
X0512436Y0024954D01*
X0513698Y0023356D02*
X0514902Y0023356D01*
X0514393Y0021757D02*
X0514207Y0021757D01*
X0514201Y0020159D02*
X0514399Y0020159D01*
X0515061Y0018560D02*
X0513539Y0018560D01*
X0512011Y0016962D02*
X0516589Y0016962D01*
X0522011Y0016962D02*
X0572729Y0016962D01*
X0576048Y0018560D02*
X0523539Y0018560D01*
X0524201Y0020159D02*
X0579367Y0020159D01*
X0582666Y0021757D02*
X0524207Y0021757D01*
X0523698Y0023356D02*
X0585210Y0023356D01*
X0587754Y0024954D02*
X0522436Y0024954D01*
X0521670Y0026553D02*
X0590298Y0026553D01*
X0592842Y0028152D02*
X0521670Y0028152D01*
X0521670Y0029750D02*
X0595017Y0029750D01*
X0597021Y0031349D02*
X0521670Y0031349D01*
X0521670Y0032947D02*
X0599025Y0032947D01*
X0601030Y0034546D02*
X0521670Y0034546D01*
X0521670Y0036144D02*
X0603034Y0036144D01*
X0604796Y0037743D02*
X0521670Y0037743D01*
X0521670Y0039341D02*
X0606395Y0039341D01*
X0607993Y0040940D02*
X0521670Y0040940D01*
X0521670Y0042538D02*
X0609592Y0042538D01*
X0611190Y0044137D02*
X0521670Y0044137D01*
X0521670Y0045735D02*
X0612789Y0045735D01*
X0614119Y0047334D02*
X0521670Y0047334D01*
X0521670Y0048932D02*
X0615394Y0048932D01*
X0616669Y0050531D02*
X0567665Y0050531D01*
X0568932Y0052129D02*
X0617943Y0052129D01*
X0619218Y0053728D02*
X0569476Y0053728D01*
X0569476Y0055326D02*
X0620493Y0055326D01*
X0621646Y0056925D02*
X0568875Y0056925D01*
X0567526Y0058523D02*
X0622651Y0058523D01*
X0623655Y0060122D02*
X0567247Y0060122D01*
X0568763Y0061720D02*
X0624660Y0061720D01*
X0625664Y0063319D02*
X0569425Y0063319D01*
X0569476Y0064917D02*
X0626668Y0064917D01*
X0627673Y0066516D02*
X0569044Y0066516D01*
X0567935Y0068114D02*
X0628551Y0068114D01*
X0629320Y0069713D02*
X0566731Y0069713D01*
X0568634Y0071311D02*
X0630090Y0071311D01*
X0630860Y0072910D02*
X0569439Y0072910D01*
X0569406Y0076107D02*
X0632400Y0076107D01*
X0633169Y0077705D02*
X0568560Y0077705D01*
X0566532Y0079304D02*
X0633899Y0079304D01*
X0634459Y0080902D02*
X0528516Y0080902D01*
X0526917Y0082501D02*
X0635018Y0082501D01*
X0635578Y0084099D02*
X0526084Y0084099D01*
X0526084Y0085698D02*
X0636137Y0085698D01*
X0636696Y0087296D02*
X0526084Y0087296D01*
X0526084Y0088895D02*
X0637256Y0088895D01*
X0637815Y0090493D02*
X0526084Y0090493D01*
X0526084Y0092092D02*
X0638280Y0092092D01*
X0638644Y0093690D02*
X0526084Y0093690D01*
X0526084Y0095289D02*
X0639009Y0095289D01*
X0639374Y0096887D02*
X0526084Y0096887D01*
X0526084Y0098486D02*
X0533482Y0098486D01*
X0532564Y0100085D02*
X0526084Y0100085D01*
X0526084Y0101683D02*
X0532564Y0101683D01*
X0534108Y0103282D02*
X0526084Y0103282D01*
X0526084Y0104880D02*
X0534474Y0104880D01*
X0534474Y0106479D02*
X0526084Y0106479D01*
X0526084Y0108077D02*
X0534474Y0108077D01*
X0531364Y0109676D02*
X0530996Y0109676D01*
X0530996Y0111274D02*
X0531364Y0111274D01*
X0531364Y0112873D02*
X0530996Y0112873D01*
X0527522Y0109676D02*
X0526084Y0109676D01*
X0526084Y0111274D02*
X0526372Y0111274D01*
X0538289Y0108077D02*
X0641460Y0108077D01*
X0641280Y0106479D02*
X0538289Y0106479D01*
X0538289Y0104880D02*
X0641100Y0104880D01*
X0640833Y0103282D02*
X0538289Y0103282D01*
X0538289Y0101683D02*
X0640469Y0101683D01*
X0640104Y0100085D02*
X0538199Y0100085D01*
X0537281Y0098486D02*
X0639739Y0098486D01*
X0626750Y0109183D02*
X0624873Y0108406D01*
X0622841Y0108406D01*
X0620964Y0109183D01*
X0619528Y0110620D01*
X0618857Y0112238D01*
X0618187Y0110620D01*
X0616750Y0109183D01*
X0614873Y0108406D01*
X0612841Y0108406D01*
X0610964Y0109183D01*
X0609528Y0110620D01*
X0608750Y0112497D01*
X0608750Y0114528D01*
X0609528Y0116406D01*
X0610964Y0117842D01*
X0612583Y0118513D01*
X0610964Y0119183D01*
X0609528Y0120620D01*
X0608750Y0122497D01*
X0608750Y0124528D01*
X0609528Y0126406D01*
X0610964Y0127842D01*
X0612583Y0128513D01*
X0610964Y0129183D01*
X0609528Y0130620D01*
X0608750Y0132497D01*
X0608750Y0134528D01*
X0609528Y0136406D01*
X0610964Y0137842D01*
X0612841Y0138620D01*
X0614873Y0138620D01*
X0616750Y0137842D01*
X0618187Y0136406D01*
X0618768Y0135002D01*
X0618945Y0135547D01*
X0619324Y0136290D01*
X0619814Y0136965D01*
X0620404Y0137555D01*
X0621079Y0138046D01*
X0621823Y0138424D01*
X0622616Y0138682D01*
X0623440Y0138813D01*
X0623673Y0138813D01*
X0623673Y0133697D01*
X0624041Y0133697D01*
X0624041Y0138813D01*
X0624274Y0138813D01*
X0625098Y0138682D01*
X0625892Y0138424D01*
X0626635Y0138046D01*
X0627310Y0137555D01*
X0627900Y0136965D01*
X0628390Y0136290D01*
X0628769Y0135547D01*
X0629027Y0134754D01*
X0629157Y0133930D01*
X0629157Y0133697D01*
X0624041Y0133697D01*
X0624041Y0133328D01*
X0629157Y0133328D01*
X0629157Y0133095D01*
X0629027Y0132272D01*
X0628769Y0131478D01*
X0628390Y0130735D01*
X0627900Y0130060D01*
X0627310Y0129470D01*
X0626635Y0128980D01*
X0625892Y0128601D01*
X0625346Y0128424D01*
X0626750Y0127842D01*
X0628187Y0126406D01*
X0628964Y0124528D01*
X0628964Y0122497D01*
X0628187Y0120620D01*
X0626750Y0119183D01*
X0625131Y0118513D01*
X0626750Y0117842D01*
X0628187Y0116406D01*
X0628964Y0114528D01*
X0628964Y0112497D01*
X0628187Y0110620D01*
X0626750Y0109183D01*
X0627243Y0109676D02*
X0641640Y0109676D01*
X0641821Y0111274D02*
X0628458Y0111274D01*
X0628964Y0112873D02*
X0642001Y0112873D01*
X0642181Y0114471D02*
X0628964Y0114471D01*
X0628326Y0116070D02*
X0642361Y0116070D01*
X0642484Y0117668D02*
X0626924Y0117668D01*
X0626834Y0119267D02*
X0642529Y0119267D01*
X0642573Y0120865D02*
X0628288Y0120865D01*
X0628950Y0122464D02*
X0642618Y0122464D01*
X0642632Y0124062D02*
X0628964Y0124062D01*
X0628495Y0125661D02*
X0642587Y0125661D01*
X0642543Y0127259D02*
X0627333Y0127259D01*
X0626396Y0128858D02*
X0642498Y0128858D01*
X0642417Y0130456D02*
X0628188Y0130456D01*
X0628956Y0132055D02*
X0642237Y0132055D01*
X0642057Y0133653D02*
X0624041Y0133653D01*
X0624041Y0135252D02*
X0623673Y0135252D01*
X0623673Y0136850D02*
X0624041Y0136850D01*
X0624041Y0138449D02*
X0623673Y0138449D01*
X0621898Y0138449D02*
X0615285Y0138449D01*
X0612429Y0138449D02*
X0542608Y0138449D01*
X0539752Y0138449D02*
X0538997Y0138449D01*
X0538997Y0140047D02*
X0641336Y0140047D01*
X0641517Y0138449D02*
X0625816Y0138449D01*
X0627983Y0136850D02*
X0641697Y0136850D01*
X0641877Y0135252D02*
X0628865Y0135252D01*
X0619731Y0136850D02*
X0617742Y0136850D01*
X0618665Y0135252D02*
X0618849Y0135252D01*
X0609972Y0136850D02*
X0545065Y0136850D01*
X0545987Y0135252D02*
X0609050Y0135252D01*
X0608750Y0133653D02*
X0546287Y0133653D01*
X0546104Y0132055D02*
X0608933Y0132055D01*
X0609691Y0130456D02*
X0545346Y0130456D01*
X0543288Y0128858D02*
X0611749Y0128858D01*
X0610381Y0127259D02*
X0544656Y0127259D01*
X0545818Y0125661D02*
X0609219Y0125661D01*
X0608750Y0124062D02*
X0546287Y0124062D01*
X0546273Y0122464D02*
X0608764Y0122464D01*
X0609426Y0120865D02*
X0545611Y0120865D01*
X0544156Y0119267D02*
X0610881Y0119267D01*
X0610790Y0117668D02*
X0544247Y0117668D01*
X0545649Y0116070D02*
X0609388Y0116070D01*
X0608750Y0114471D02*
X0546287Y0114471D01*
X0546287Y0112873D02*
X0608750Y0112873D01*
X0609256Y0111274D02*
X0545781Y0111274D01*
X0544565Y0109676D02*
X0610472Y0109676D01*
X0617243Y0109676D02*
X0620472Y0109676D01*
X0619256Y0111274D02*
X0618458Y0111274D01*
X0533363Y0138449D02*
X0532608Y0138449D01*
X0533363Y0140047D02*
X0526084Y0140047D01*
X0526084Y0138449D02*
X0529752Y0138449D01*
X0527295Y0136850D02*
X0526084Y0136850D01*
X0526084Y0135252D02*
X0526372Y0135252D01*
X0526084Y0141646D02*
X0534949Y0141646D01*
X0537411Y0141646D02*
X0641156Y0141646D01*
X0640947Y0143244D02*
X0526084Y0143244D01*
X0526084Y0144843D02*
X0640583Y0144843D01*
X0640218Y0146441D02*
X0526084Y0146441D01*
X0526084Y0148040D02*
X0639853Y0148040D01*
X0639488Y0149638D02*
X0526084Y0149638D01*
X0526084Y0151237D02*
X0639123Y0151237D01*
X0638758Y0152835D02*
X0526084Y0152835D01*
X0526084Y0154434D02*
X0638393Y0154434D01*
X0637990Y0156032D02*
X0526084Y0156032D01*
X0526084Y0157631D02*
X0637430Y0157631D01*
X0636871Y0159229D02*
X0526084Y0159229D01*
X0526084Y0160828D02*
X0636312Y0160828D01*
X0635752Y0162426D02*
X0526084Y0162426D01*
X0526084Y0164025D02*
X0635193Y0164025D01*
X0634634Y0165623D02*
X0526084Y0165623D01*
X0526084Y0167222D02*
X0634074Y0167222D01*
X0633410Y0168821D02*
X0567844Y0168821D01*
X0569007Y0170419D02*
X0632640Y0170419D01*
X0631870Y0172018D02*
X0569476Y0172018D01*
X0569463Y0173616D02*
X0631100Y0173616D01*
X0630331Y0175215D02*
X0568800Y0175215D01*
X0567346Y0176813D02*
X0629561Y0176813D01*
X0628791Y0178412D02*
X0567435Y0178412D01*
X0568837Y0180010D02*
X0627987Y0180010D01*
X0626982Y0181609D02*
X0569476Y0181609D01*
X0569476Y0183207D02*
X0625978Y0183207D01*
X0624973Y0184806D02*
X0568970Y0184806D01*
X0567755Y0186404D02*
X0623969Y0186404D01*
X0622964Y0188003D02*
X0567084Y0188003D01*
X0568765Y0189601D02*
X0621960Y0189601D01*
X0620891Y0191200D02*
X0569497Y0191200D01*
X0569669Y0192798D02*
X0619616Y0192798D01*
X0618342Y0194397D02*
X0569347Y0194397D01*
X0568430Y0195995D02*
X0617067Y0195995D01*
X0615792Y0197594D02*
X0566052Y0197594D01*
X0564553Y0197594D02*
X0564185Y0197594D01*
X0562686Y0197594D02*
X0555580Y0197594D01*
X0553157Y0197594D02*
X0521418Y0197594D01*
X0521670Y0195995D02*
X0550574Y0195995D01*
X0549599Y0194397D02*
X0521670Y0194397D01*
X0521670Y0192798D02*
X0549262Y0192798D01*
X0549408Y0191200D02*
X0521670Y0191200D01*
X0521670Y0189601D02*
X0548458Y0189601D01*
X0546860Y0188003D02*
X0521670Y0188003D01*
X0521670Y0186404D02*
X0525822Y0186404D01*
X0524224Y0184806D02*
X0521670Y0184806D01*
X0521670Y0183207D02*
X0522625Y0183207D01*
X0528870Y0180010D02*
X0549900Y0180010D01*
X0551303Y0178412D02*
X0527271Y0178412D01*
X0526084Y0176813D02*
X0551392Y0176813D01*
X0549937Y0175215D02*
X0526084Y0175215D01*
X0526084Y0173616D02*
X0549275Y0173616D01*
X0549262Y0172018D02*
X0526084Y0172018D01*
X0526084Y0170419D02*
X0549731Y0170419D01*
X0550894Y0168821D02*
X0526084Y0168821D01*
X0510843Y0168821D02*
X0485167Y0168821D01*
X0486330Y0170419D02*
X0510843Y0170419D01*
X0510843Y0172018D02*
X0486799Y0172018D01*
X0486785Y0173616D02*
X0510843Y0173616D01*
X0510843Y0175215D02*
X0486123Y0175215D01*
X0484669Y0176813D02*
X0510843Y0176813D01*
X0510148Y0178412D02*
X0484758Y0178412D01*
X0486160Y0180010D02*
X0508549Y0180010D01*
X0514794Y0183207D02*
X0515256Y0183207D01*
X0515256Y0182744D02*
X0511011Y0186989D01*
X0490342Y0186989D01*
X0486500Y0190831D01*
X0486799Y0191552D01*
X0486799Y0193584D01*
X0486021Y0195461D01*
X0484585Y0196897D01*
X0482708Y0197675D01*
X0480676Y0197675D01*
X0478799Y0196897D01*
X0477362Y0195461D01*
X0476692Y0193842D01*
X0476021Y0195461D01*
X0474585Y0196897D01*
X0472708Y0197675D01*
X0470676Y0197675D01*
X0468799Y0196897D01*
X0467362Y0195461D01*
X0466585Y0193584D01*
X0466585Y0191552D01*
X0467362Y0189675D01*
X0468375Y0188662D01*
X0467874Y0188161D01*
X0465904Y0186190D01*
X0455771Y0186190D01*
X0439171Y0202790D01*
X0412649Y0202790D01*
X0412649Y0204475D01*
X0410998Y0206126D01*
X0408665Y0206126D01*
X0407014Y0204475D01*
X0407014Y0204278D01*
X0385934Y0204278D01*
X0382304Y0207908D01*
X0398551Y0207904D01*
X0398551Y0207904D01*
X0399189Y0207904D01*
X0399826Y0207904D01*
X0399827Y0207904D01*
X0502371Y0207904D01*
X0509839Y0200436D01*
X0515256Y0195019D01*
X0515256Y0182744D01*
X0515256Y0184806D02*
X0513195Y0184806D01*
X0511597Y0186404D02*
X0515256Y0186404D01*
X0515256Y0188003D02*
X0489329Y0188003D01*
X0487730Y0189601D02*
X0515256Y0189601D01*
X0515256Y0191200D02*
X0486653Y0191200D01*
X0486799Y0192798D02*
X0515256Y0192798D01*
X0515256Y0194397D02*
X0486462Y0194397D01*
X0485487Y0195995D02*
X0514280Y0195995D01*
X0512681Y0197594D02*
X0482903Y0197594D01*
X0480480Y0197594D02*
X0472903Y0197594D01*
X0470480Y0197594D02*
X0444368Y0197594D01*
X0442770Y0199192D02*
X0511083Y0199192D01*
X0509484Y0200791D02*
X0441171Y0200791D01*
X0439573Y0202389D02*
X0507886Y0202389D01*
X0506287Y0203988D02*
X0412649Y0203988D01*
X0411538Y0205586D02*
X0504689Y0205586D01*
X0503090Y0207185D02*
X0383027Y0207185D01*
X0384626Y0205586D02*
X0408125Y0205586D01*
X0412033Y0214318D02*
X0416389Y0214318D01*
X0416389Y0216038D01*
X0418040Y0217688D01*
X0419327Y0217688D01*
X0431987Y0230348D01*
X0431987Y0232304D01*
X0431205Y0231522D01*
X0430027Y0231034D01*
X0428748Y0231034D01*
X0412033Y0214318D01*
X0412892Y0215177D02*
X0416389Y0215177D01*
X0417127Y0216776D02*
X0414490Y0216776D01*
X0416089Y0218374D02*
X0420013Y0218374D01*
X0421611Y0219973D02*
X0417687Y0219973D01*
X0419286Y0221571D02*
X0423210Y0221571D01*
X0424809Y0223170D02*
X0420885Y0223170D01*
X0422483Y0224768D02*
X0426407Y0224768D01*
X0428006Y0226367D02*
X0424082Y0226367D01*
X0425680Y0227965D02*
X0429604Y0227965D01*
X0431203Y0229564D02*
X0427279Y0229564D01*
X0430337Y0231162D02*
X0431987Y0231162D01*
X0435801Y0231162D02*
X0570295Y0231162D01*
X0573766Y0229564D02*
X0435801Y0229564D01*
X0434998Y0227965D02*
X0577085Y0227965D01*
X0580404Y0226367D02*
X0433400Y0226367D01*
X0431801Y0224768D02*
X0583461Y0224768D01*
X0586005Y0223170D02*
X0430203Y0223170D01*
X0428604Y0221571D02*
X0588549Y0221571D01*
X0591093Y0219973D02*
X0427006Y0219973D01*
X0425407Y0218374D02*
X0593637Y0218374D01*
X0595643Y0216776D02*
X0423809Y0216776D01*
X0422210Y0215177D02*
X0597647Y0215177D01*
X0599652Y0213579D02*
X0505767Y0213579D01*
X0507366Y0211980D02*
X0601656Y0211980D01*
X0603661Y0210382D02*
X0508964Y0210382D01*
X0510563Y0208783D02*
X0605295Y0208783D01*
X0606894Y0207185D02*
X0512161Y0207185D01*
X0513760Y0205586D02*
X0608492Y0205586D01*
X0610091Y0203988D02*
X0515358Y0203988D01*
X0516957Y0202389D02*
X0611689Y0202389D01*
X0613242Y0200791D02*
X0518555Y0200791D01*
X0520154Y0199192D02*
X0614517Y0199192D01*
X0564553Y0195995D02*
X0564185Y0195995D01*
X0564185Y0194397D02*
X0564553Y0194397D01*
X0564553Y0192798D02*
X0564185Y0192798D01*
X0560308Y0195995D02*
X0558164Y0195995D01*
X0559139Y0194397D02*
X0559390Y0194397D01*
X0559731Y0170419D02*
X0559007Y0170419D01*
X0557844Y0168821D02*
X0560894Y0168821D01*
X0510843Y0167222D02*
X0476730Y0167222D01*
X0475131Y0165623D02*
X0510843Y0165623D01*
X0510843Y0164025D02*
X0469689Y0164025D01*
X0471023Y0162426D02*
X0510843Y0162426D01*
X0510843Y0160828D02*
X0472621Y0160828D01*
X0474220Y0159229D02*
X0510843Y0159229D01*
X0510843Y0157631D02*
X0495834Y0157631D01*
X0490896Y0157631D02*
X0475818Y0157631D01*
X0477417Y0156032D02*
X0490548Y0156032D01*
X0470079Y0151237D02*
X0467864Y0151237D01*
X0481202Y0140047D02*
X0482937Y0140047D01*
X0487637Y0132055D02*
X0488549Y0132055D01*
X0488549Y0130456D02*
X0486038Y0130456D01*
X0500811Y0138449D02*
X0503355Y0138449D01*
X0509440Y0136850D02*
X0510843Y0136850D01*
X0510843Y0135252D02*
X0510321Y0135252D01*
X0490845Y0116070D02*
X0456933Y0116070D01*
X0457429Y0111274D02*
X0487404Y0111274D01*
X0489003Y0109676D02*
X0426022Y0109676D01*
X0419898Y0108077D02*
X0490601Y0108077D01*
X0492200Y0106479D02*
X0418300Y0106479D01*
X0414504Y0108077D02*
X0274822Y0108077D01*
X0276420Y0106479D02*
X0412906Y0106479D01*
X0411307Y0104880D02*
X0278019Y0104880D01*
X0279617Y0103282D02*
X0410749Y0103282D01*
X0410749Y0101683D02*
X0288372Y0101683D01*
X0288997Y0100085D02*
X0409839Y0100085D01*
X0409839Y0098486D02*
X0290281Y0098486D01*
X0291880Y0096887D02*
X0410937Y0096887D01*
X0414376Y0096887D02*
X0425139Y0096887D01*
X0442922Y0092092D02*
X0444702Y0092092D01*
X0447899Y0088895D02*
X0441317Y0088895D01*
X0442915Y0087296D02*
X0445498Y0087296D01*
X0450292Y0082501D02*
X0460754Y0082501D01*
X0462353Y0080902D02*
X0450393Y0080902D01*
X0450415Y0079304D02*
X0463951Y0079304D01*
X0464799Y0077705D02*
X0450022Y0077705D01*
X0450538Y0076107D02*
X0464799Y0076107D01*
X0464799Y0074508D02*
X0450190Y0074508D01*
X0450538Y0072910D02*
X0464799Y0072910D01*
X0464799Y0071311D02*
X0450538Y0071311D01*
X0448963Y0069713D02*
X0464799Y0069713D01*
X0464411Y0068114D02*
X0465338Y0068114D01*
X0465609Y0066516D02*
X0466936Y0066516D01*
X0466585Y0064917D02*
X0465609Y0064917D01*
X0466636Y0063319D02*
X0464345Y0063319D01*
X0461460Y0061720D02*
X0467298Y0061720D01*
X0468814Y0060122D02*
X0459861Y0060122D01*
X0458658Y0058523D02*
X0468271Y0058523D01*
X0467001Y0056925D02*
X0462067Y0056925D01*
X0463210Y0055326D02*
X0466463Y0055326D01*
X0466441Y0053728D02*
X0463210Y0053728D01*
X0461891Y0052129D02*
X0466930Y0052129D01*
X0468123Y0050531D02*
X0456971Y0050531D01*
X0457427Y0052129D02*
X0458894Y0052129D01*
X0450990Y0054061D02*
X0438356Y0054061D01*
X0436953Y0055464D01*
X0434619Y0055464D01*
X0433960Y0054805D01*
X0433960Y0057445D01*
X0433960Y0059229D01*
X0445823Y0059229D01*
X0450990Y0054061D01*
X0449725Y0055326D02*
X0437091Y0055326D01*
X0434482Y0055326D02*
X0433960Y0055326D01*
X0433960Y0056925D02*
X0448127Y0056925D01*
X0446528Y0058523D02*
X0433960Y0058523D01*
X0433960Y0057445D02*
X0430911Y0057445D01*
X0430911Y0057445D01*
X0433960Y0057445D01*
X0430910Y0057445D02*
X0430910Y0053145D01*
X0430910Y0050678D01*
X0430910Y0057445D01*
X0430910Y0057445D01*
X0430910Y0056925D02*
X0430910Y0056925D01*
X0430910Y0055326D02*
X0430910Y0055326D01*
X0430910Y0053728D02*
X0430910Y0053728D01*
X0430910Y0052129D02*
X0430910Y0052129D01*
X0430910Y0050678D02*
X0430910Y0050678D01*
X0430910Y0050678D01*
X0430910Y0043788D01*
X0430910Y0043788D01*
X0430910Y0046378D01*
X0430910Y0050678D01*
X0430910Y0050531D02*
X0430910Y0050531D01*
X0430910Y0048932D02*
X0430910Y0048932D01*
X0430910Y0047334D02*
X0430910Y0047334D01*
X0430910Y0045735D02*
X0430910Y0045735D01*
X0430910Y0044137D02*
X0430910Y0044137D01*
X0437676Y0044137D02*
X0446299Y0044137D01*
X0444780Y0042538D02*
X0437676Y0042538D01*
X0438586Y0040940D02*
X0444780Y0040940D01*
X0445690Y0039341D02*
X0438586Y0039341D01*
X0448895Y0044137D02*
X0515256Y0044137D01*
X0515256Y0045735D02*
X0438743Y0045735D01*
X0439211Y0047334D02*
X0515256Y0047334D01*
X0515256Y0048932D02*
X0438817Y0048932D01*
X0450415Y0042538D02*
X0515256Y0042538D01*
X0515256Y0040940D02*
X0450415Y0040940D01*
X0449504Y0039341D02*
X0515256Y0039341D01*
X0515256Y0037743D02*
X0449504Y0037743D01*
X0448556Y0036144D02*
X0515256Y0036144D01*
X0515256Y0034546D02*
X0387896Y0034546D01*
X0387896Y0036144D02*
X0394741Y0036144D01*
X0393143Y0037743D02*
X0387896Y0037743D01*
X0388807Y0039341D02*
X0391544Y0039341D01*
X0393741Y0042538D02*
X0396987Y0042538D01*
X0396987Y0043427D02*
X0396987Y0040643D01*
X0398825Y0038805D01*
X0397474Y0038805D01*
X0391692Y0044588D01*
X0390169Y0044588D01*
X0390500Y0045387D01*
X0390500Y0046973D01*
X0389960Y0048276D01*
X0391883Y0048276D01*
X0396987Y0043427D01*
X0396240Y0044137D02*
X0392143Y0044137D01*
X0390500Y0045735D02*
X0394557Y0045735D01*
X0392875Y0047334D02*
X0390350Y0047334D01*
X0392298Y0055414D02*
X0401228Y0046778D01*
X0401246Y0046778D01*
X0401794Y0046231D01*
X0402350Y0045693D01*
X0402350Y0045674D01*
X0402356Y0045668D01*
X0403160Y0045668D01*
X0406197Y0048705D01*
X0406197Y0050400D01*
X0405287Y0051310D01*
X0405287Y0053644D01*
X0406937Y0055295D01*
X0409271Y0055295D01*
X0410921Y0053644D01*
X0410921Y0051310D01*
X0410011Y0050400D01*
X0410011Y0047125D01*
X0405857Y0042971D01*
X0405857Y0042090D01*
X0421653Y0042090D01*
X0421653Y0046954D01*
X0421933Y0047233D01*
X0421653Y0047512D01*
X0421653Y0053844D01*
X0421871Y0054061D01*
X0421653Y0054279D01*
X0421653Y0055538D01*
X0420479Y0055538D01*
X0415434Y0060582D01*
X0411291Y0060582D01*
X0411291Y0060215D01*
X0409640Y0058564D01*
X0407306Y0058564D01*
X0406396Y0059475D01*
X0399601Y0059475D01*
X0399726Y0059350D01*
X0399726Y0057016D01*
X0398075Y0055366D01*
X0395741Y0055366D01*
X0395077Y0056030D01*
X0390010Y0056030D01*
X0390038Y0055961D01*
X0390945Y0055961D01*
X0391719Y0055974D01*
X0391732Y0055961D01*
X0391751Y0055961D01*
X0392298Y0055414D01*
X0392389Y0055326D02*
X0421653Y0055326D01*
X0421653Y0053728D02*
X0410838Y0053728D01*
X0410921Y0052129D02*
X0421653Y0052129D01*
X0421653Y0050531D02*
X0410142Y0050531D01*
X0410011Y0048932D02*
X0421653Y0048932D01*
X0421832Y0047334D02*
X0410011Y0047334D01*
X0408622Y0045735D02*
X0421653Y0045735D01*
X0421653Y0044137D02*
X0407023Y0044137D01*
X0405857Y0042538D02*
X0421653Y0042538D01*
X0406197Y0048932D02*
X0399000Y0048932D01*
X0397347Y0050531D02*
X0406067Y0050531D01*
X0405287Y0052129D02*
X0395694Y0052129D01*
X0394042Y0053728D02*
X0405370Y0053728D01*
X0399634Y0056925D02*
X0419091Y0056925D01*
X0417493Y0058523D02*
X0399726Y0058523D01*
X0411198Y0060122D02*
X0415894Y0060122D01*
X0418607Y0065042D02*
X0417364Y0066286D01*
X0416246Y0067403D01*
X0407184Y0067403D01*
X0404239Y0070348D01*
X0404239Y0077206D01*
X0405533Y0078500D01*
X0405533Y0076209D01*
X0407183Y0074558D01*
X0409517Y0074558D01*
X0410427Y0075469D01*
X0411724Y0075469D01*
X0413446Y0077191D01*
X0414563Y0078308D01*
X0414563Y0085331D01*
X0415474Y0086241D01*
X0415474Y0087988D01*
X0428137Y0087988D01*
X0431225Y0084899D01*
X0430910Y0084899D01*
X0429423Y0084899D01*
X0428966Y0084777D01*
X0428844Y0084706D01*
X0422595Y0084706D01*
X0421653Y0083765D01*
X0421653Y0077434D01*
X0421746Y0077341D01*
X0421653Y0077249D01*
X0421653Y0070918D01*
X0421746Y0070826D01*
X0421653Y0070733D01*
X0421653Y0066291D01*
X0419855Y0066291D01*
X0418607Y0065042D01*
X0417134Y0066516D02*
X0421653Y0066516D01*
X0421653Y0068114D02*
X0406473Y0068114D01*
X0404874Y0069713D02*
X0421653Y0069713D01*
X0421653Y0071311D02*
X0404239Y0071311D01*
X0404239Y0072910D02*
X0421653Y0072910D01*
X0421653Y0074508D02*
X0404239Y0074508D01*
X0404239Y0076107D02*
X0405635Y0076107D01*
X0405533Y0077705D02*
X0404738Y0077705D01*
X0400942Y0079304D02*
X0390154Y0079304D01*
X0390500Y0077705D02*
X0400424Y0077705D01*
X0400424Y0076107D02*
X0394410Y0076107D01*
X0395912Y0074508D02*
X0400424Y0074508D01*
X0400424Y0072910D02*
X0395912Y0072910D01*
X0394951Y0071311D02*
X0400424Y0071311D01*
X0400424Y0069713D02*
X0390500Y0069713D01*
X0390203Y0071311D02*
X0391237Y0071311D01*
X0390129Y0068114D02*
X0401079Y0068114D01*
X0402677Y0066516D02*
X0392872Y0066516D01*
X0394470Y0064917D02*
X0404276Y0064917D01*
X0406426Y0063319D02*
X0396069Y0063319D01*
X0383389Y0059418D02*
X0382698Y0058727D01*
X0382698Y0058727D01*
X0378525Y0054554D01*
X0373584Y0054554D01*
X0372856Y0055282D01*
X0372856Y0055698D01*
X0373133Y0055624D01*
X0375870Y0055624D01*
X0378607Y0055624D01*
X0379065Y0055746D01*
X0379475Y0055983D01*
X0379810Y0056319D01*
X0380047Y0056729D01*
X0380170Y0057187D01*
X0380170Y0058674D01*
X0380170Y0060161D01*
X0380047Y0060619D01*
X0379977Y0060740D01*
X0379977Y0063167D01*
X0382714Y0063167D01*
X0382530Y0062721D01*
X0382530Y0061135D01*
X0383136Y0059671D01*
X0383389Y0059418D01*
X0382949Y0060122D02*
X0380170Y0060122D01*
X0380170Y0058674D02*
X0375870Y0058674D01*
X0375870Y0058674D01*
X0380170Y0058674D01*
X0380170Y0058523D02*
X0382495Y0058523D01*
X0380896Y0056925D02*
X0380100Y0056925D01*
X0379298Y0055326D02*
X0372856Y0055326D01*
X0375870Y0055624D02*
X0375870Y0058674D01*
X0375870Y0055624D01*
X0375870Y0056925D02*
X0375870Y0056925D01*
X0375870Y0058523D02*
X0375870Y0058523D01*
X0375870Y0058674D02*
X0375870Y0058674D01*
X0379977Y0061720D02*
X0382530Y0061720D01*
X0383700Y0066981D02*
X0379977Y0066981D01*
X0379977Y0066989D01*
X0379152Y0067815D01*
X0379548Y0068212D01*
X0379548Y0069827D01*
X0380476Y0069827D01*
X0382408Y0067895D01*
X0382991Y0067895D01*
X0383136Y0067545D01*
X0383700Y0066981D01*
X0382188Y0068114D02*
X0379451Y0068114D01*
X0379548Y0069713D02*
X0380590Y0069713D01*
X0363023Y0066516D02*
X0354927Y0066516D01*
X0355224Y0064917D02*
X0362726Y0064917D01*
X0361636Y0063319D02*
X0356315Y0063319D01*
X0356563Y0061720D02*
X0361388Y0061720D01*
X0361808Y0060122D02*
X0356143Y0060122D01*
X0340855Y0055326D02*
X0336574Y0055326D01*
X0337764Y0056925D02*
X0334201Y0056925D01*
X0338172Y0053728D02*
X0340695Y0053728D01*
X0335975Y0050531D02*
X0333343Y0050531D01*
X0334319Y0048932D02*
X0337574Y0048932D01*
X0335271Y0047334D02*
X0343431Y0047334D01*
X0343431Y0045735D02*
X0335421Y0045735D01*
X0334903Y0044137D02*
X0343431Y0044137D01*
X0339632Y0042538D02*
X0333057Y0042538D01*
X0329814Y0042538D02*
X0297351Y0042538D01*
X0297351Y0044137D02*
X0327969Y0044137D01*
X0369358Y0045735D02*
X0370242Y0045735D01*
X0372439Y0048932D02*
X0378028Y0048932D01*
X0377880Y0048785D02*
X0377880Y0044588D01*
X0376783Y0044588D01*
X0372157Y0049214D01*
X0378309Y0049214D01*
X0377880Y0048785D01*
X0377880Y0047334D02*
X0374037Y0047334D01*
X0375636Y0045735D02*
X0377880Y0045735D01*
X0395340Y0040940D02*
X0396987Y0040940D01*
X0396938Y0039341D02*
X0398289Y0039341D01*
X0402306Y0045735D02*
X0403228Y0045735D01*
X0404826Y0047334D02*
X0400653Y0047334D01*
X0387896Y0032947D02*
X0515256Y0032947D01*
X0515256Y0031349D02*
X0387896Y0031349D01*
X0387896Y0029750D02*
X0515256Y0029750D01*
X0515256Y0028152D02*
X0389159Y0028152D01*
X0368797Y0023356D02*
X0368031Y0023356D01*
X0368415Y0022973D02*
X0365837Y0025550D01*
X0364015Y0025550D01*
X0364015Y0021151D01*
X0364014Y0021151D01*
X0364014Y0025550D01*
X0362192Y0025550D01*
X0359615Y0022973D01*
X0359615Y0021150D01*
X0359615Y0019328D01*
X0362192Y0016750D01*
X0364014Y0016750D01*
X0364014Y0021150D01*
X0359615Y0021150D01*
X0364014Y0021150D01*
X0364014Y0021150D01*
X0364015Y0021150D01*
X0364015Y0021150D01*
X0368415Y0021150D01*
X0368415Y0019328D01*
X0365837Y0016750D01*
X0364015Y0016750D01*
X0364015Y0021150D01*
X0368415Y0021150D01*
X0368415Y0022973D01*
X0368415Y0021757D02*
X0369493Y0021757D01*
X0369493Y0020159D02*
X0368415Y0020159D01*
X0367647Y0018560D02*
X0370340Y0018560D01*
X0371938Y0016962D02*
X0366049Y0016962D01*
X0364015Y0016962D02*
X0364014Y0016962D01*
X0364014Y0018560D02*
X0364015Y0018560D01*
X0364014Y0020159D02*
X0364015Y0020159D01*
X0364014Y0021757D02*
X0364015Y0021757D01*
X0364014Y0023356D02*
X0364015Y0023356D01*
X0364014Y0024954D02*
X0364015Y0024954D01*
X0366433Y0024954D02*
X0367565Y0024954D01*
X0361596Y0024954D02*
X0359937Y0024954D01*
X0359998Y0023356D02*
X0358996Y0023356D01*
X0359615Y0021757D02*
X0358222Y0021757D01*
X0358222Y0020159D02*
X0359615Y0020159D01*
X0360382Y0018560D02*
X0357374Y0018560D01*
X0355776Y0016962D02*
X0361980Y0016962D01*
X0352253Y0016962D02*
X0346364Y0016962D01*
X0346152Y0016750D02*
X0348730Y0019328D01*
X0348730Y0021150D01*
X0344330Y0021150D01*
X0344330Y0021150D01*
X0344330Y0016750D01*
X0346152Y0016750D01*
X0344329Y0016750D02*
X0344329Y0021150D01*
X0339930Y0021150D01*
X0339930Y0019328D01*
X0342507Y0016750D01*
X0344329Y0016750D01*
X0344329Y0016962D02*
X0344330Y0016962D01*
X0344329Y0018560D02*
X0344330Y0018560D01*
X0344329Y0020159D02*
X0344330Y0020159D01*
X0344329Y0021150D02*
X0344330Y0021150D01*
X0348730Y0021150D01*
X0348730Y0022973D01*
X0346152Y0025550D01*
X0344330Y0025550D01*
X0344330Y0021151D01*
X0344329Y0021151D01*
X0344329Y0025550D01*
X0342507Y0025550D01*
X0339930Y0022973D01*
X0339930Y0021150D01*
X0344329Y0021150D01*
X0344329Y0021150D01*
X0344329Y0021757D02*
X0344330Y0021757D01*
X0344329Y0023356D02*
X0344330Y0023356D01*
X0344329Y0024954D02*
X0344330Y0024954D01*
X0346748Y0024954D02*
X0351869Y0024954D01*
X0350270Y0023356D02*
X0348346Y0023356D01*
X0348730Y0021757D02*
X0349807Y0021757D01*
X0349807Y0020159D02*
X0348730Y0020159D01*
X0347962Y0018560D02*
X0350655Y0018560D01*
X0342295Y0016962D02*
X0336091Y0016962D01*
X0337689Y0018560D02*
X0340697Y0018560D01*
X0339930Y0020159D02*
X0338537Y0020159D01*
X0338537Y0021757D02*
X0339930Y0021757D01*
X0340313Y0023356D02*
X0339232Y0023356D01*
X0340831Y0024954D02*
X0341911Y0024954D01*
X0457828Y0056925D02*
X0458718Y0056925D01*
X0471507Y0053728D02*
X0471876Y0053728D01*
X0471876Y0052129D02*
X0471507Y0052129D01*
X0471507Y0050531D02*
X0471876Y0050531D01*
X0475260Y0050531D02*
X0478396Y0050531D01*
X0477128Y0052129D02*
X0476454Y0052129D01*
X0484987Y0050531D02*
X0515256Y0050531D01*
X0515256Y0052129D02*
X0486255Y0052129D01*
X0486799Y0053728D02*
X0515256Y0053728D01*
X0515256Y0055326D02*
X0486799Y0055326D01*
X0486198Y0056925D02*
X0515256Y0056925D01*
X0515256Y0058523D02*
X0484848Y0058523D01*
X0484570Y0060122D02*
X0515256Y0060122D01*
X0515256Y0061720D02*
X0486086Y0061720D01*
X0486748Y0063319D02*
X0515256Y0063319D01*
X0515256Y0064917D02*
X0486799Y0064917D01*
X0486871Y0066516D02*
X0515256Y0066516D01*
X0515256Y0068114D02*
X0488470Y0068114D01*
X0490068Y0069713D02*
X0504302Y0069713D01*
X0509494Y0069713D02*
X0515256Y0069713D01*
X0515256Y0071311D02*
X0509716Y0071311D01*
X0509614Y0072910D02*
X0515256Y0072910D01*
X0515256Y0074508D02*
X0511212Y0074508D01*
X0512811Y0076107D02*
X0515256Y0076107D01*
X0515256Y0077705D02*
X0514409Y0077705D01*
X0521670Y0077705D02*
X0522271Y0077705D01*
X0521670Y0076107D02*
X0523870Y0076107D01*
X0525468Y0074508D02*
X0521670Y0074508D01*
X0521670Y0072910D02*
X0527067Y0072910D01*
X0527703Y0071311D02*
X0521670Y0071311D01*
X0521670Y0069713D02*
X0527925Y0069713D01*
X0533116Y0069713D02*
X0545992Y0069713D01*
X0547591Y0068114D02*
X0521670Y0068114D01*
X0521670Y0066516D02*
X0549189Y0066516D01*
X0549262Y0064917D02*
X0521670Y0064917D01*
X0521670Y0063319D02*
X0549313Y0063319D01*
X0549975Y0061720D02*
X0521670Y0061720D01*
X0521670Y0060122D02*
X0551491Y0060122D01*
X0551212Y0058523D02*
X0521670Y0058523D01*
X0521670Y0056925D02*
X0549863Y0056925D01*
X0549262Y0055326D02*
X0521670Y0055326D01*
X0521670Y0053728D02*
X0549262Y0053728D01*
X0549805Y0052129D02*
X0521670Y0052129D01*
X0521670Y0050531D02*
X0551073Y0050531D01*
X0557665Y0050531D02*
X0561073Y0050531D01*
X0559805Y0052129D02*
X0558932Y0052129D01*
X0564553Y0074508D02*
X0631630Y0074508D01*
X0564553Y0076107D02*
X0564185Y0076107D01*
X0564185Y0077705D02*
X0564553Y0077705D01*
X0564553Y0079304D02*
X0564185Y0079304D01*
X0562206Y0079304D02*
X0556014Y0079304D01*
X0558344Y0077705D02*
X0560177Y0077705D01*
X0559332Y0076107D02*
X0559214Y0076107D01*
X0552724Y0079304D02*
X0533192Y0079304D01*
X0533338Y0077705D02*
X0550394Y0077705D01*
X0510843Y0084099D02*
X0490569Y0084099D01*
X0490843Y0082501D02*
X0509763Y0082501D01*
X0508165Y0080902D02*
X0490843Y0080902D01*
X0491361Y0079304D02*
X0504227Y0079304D01*
X0504081Y0077705D02*
X0491753Y0077705D01*
X0486511Y0079304D02*
X0483337Y0079304D01*
X0485666Y0077705D02*
X0486119Y0077705D01*
X0480047Y0079304D02*
X0473337Y0079304D01*
X0475666Y0077705D02*
X0477717Y0077705D01*
X0476847Y0076107D02*
X0476536Y0076107D01*
X0470047Y0079304D02*
X0468614Y0079304D01*
X0467747Y0080902D02*
X0487029Y0080902D01*
X0486773Y0082501D02*
X0466148Y0082501D01*
X0464550Y0084099D02*
X0485175Y0084099D01*
X0483576Y0085698D02*
X0462951Y0085698D01*
X0461353Y0087296D02*
X0481978Y0087296D01*
X0484175Y0090493D02*
X0510843Y0090493D01*
X0510843Y0088895D02*
X0485773Y0088895D01*
X0487372Y0087296D02*
X0510843Y0087296D01*
X0510843Y0085698D02*
X0488970Y0085698D01*
X0444691Y0072910D02*
X0433960Y0072910D01*
X0433960Y0074508D02*
X0443092Y0074508D01*
X0441494Y0076107D02*
X0433960Y0076107D01*
X0433918Y0077705D02*
X0438419Y0077705D01*
X0436821Y0079304D02*
X0433960Y0079304D01*
X0433960Y0080902D02*
X0435222Y0080902D01*
X0430910Y0080902D02*
X0430910Y0080902D01*
X0430910Y0080599D02*
X0430910Y0084899D01*
X0430910Y0080599D01*
X0430910Y0080599D01*
X0430910Y0074084D01*
X0430910Y0074084D01*
X0430910Y0078383D01*
X0430910Y0080599D01*
X0430910Y0080599D01*
X0430910Y0079304D02*
X0430910Y0079304D01*
X0430910Y0077705D02*
X0430910Y0077705D01*
X0430910Y0076107D02*
X0430910Y0076107D01*
X0430910Y0074508D02*
X0430910Y0074508D01*
X0430910Y0072910D02*
X0430910Y0072910D01*
X0430910Y0071311D02*
X0430910Y0071311D01*
X0430910Y0069713D02*
X0430910Y0069713D01*
X0430910Y0068114D02*
X0430910Y0068114D01*
X0433960Y0068114D02*
X0456005Y0068114D01*
X0455411Y0066516D02*
X0433960Y0066516D01*
X0433960Y0069713D02*
X0446478Y0069713D01*
X0444903Y0071311D02*
X0433951Y0071311D01*
X0421653Y0076107D02*
X0412362Y0076107D01*
X0413960Y0077705D02*
X0421653Y0077705D01*
X0421653Y0079304D02*
X0414563Y0079304D01*
X0414563Y0080902D02*
X0421653Y0080902D01*
X0421653Y0082501D02*
X0414563Y0082501D01*
X0414563Y0084099D02*
X0421988Y0084099D01*
X0414931Y0085698D02*
X0430427Y0085698D01*
X0430910Y0084099D02*
X0430910Y0084099D01*
X0430910Y0082501D02*
X0430910Y0082501D01*
X0428828Y0087296D02*
X0415474Y0087296D01*
X0410382Y0085698D02*
X0346500Y0085698D01*
X0344901Y0087296D02*
X0409839Y0087296D01*
X0410749Y0084099D02*
X0349385Y0084099D01*
X0356463Y0082501D02*
X0404140Y0082501D01*
X0402541Y0080902D02*
X0388924Y0080902D01*
X0384105Y0080902D02*
X0367782Y0080902D01*
X0369012Y0079304D02*
X0382875Y0079304D01*
X0390178Y0076107D02*
X0391778Y0076107D01*
X0410654Y0082501D02*
X0410749Y0082501D01*
X0362964Y0080902D02*
X0358062Y0080902D01*
X0358281Y0079304D02*
X0361734Y0079304D01*
X0361388Y0077705D02*
X0358281Y0077705D01*
X0358281Y0076107D02*
X0361709Y0076107D01*
X0362905Y0074508D02*
X0358281Y0074508D01*
X0358281Y0072910D02*
X0362845Y0072910D01*
X0361685Y0071311D02*
X0356784Y0071311D01*
X0356563Y0069713D02*
X0361388Y0069713D01*
X0361759Y0068114D02*
X0356192Y0068114D01*
X0283988Y0101683D02*
X0283184Y0101683D01*
X0251493Y0109676D02*
X0251227Y0109676D01*
X0251099Y0111274D02*
X0251493Y0111274D01*
X0251493Y0112873D02*
X0250316Y0112873D01*
X0250316Y0114471D02*
X0251493Y0114471D01*
X0251493Y0116070D02*
X0250316Y0116070D01*
X0250316Y0117668D02*
X0251493Y0117668D01*
X0252238Y0119267D02*
X0250316Y0119267D01*
X0251227Y0120865D02*
X0253836Y0120865D01*
X0246502Y0119267D02*
X0242732Y0119267D01*
X0244331Y0120865D02*
X0245592Y0120865D01*
X0273745Y0127259D02*
X0291484Y0127259D01*
X0292852Y0128858D02*
X0273553Y0128858D01*
X0275151Y0130456D02*
X0290793Y0130456D01*
X0290035Y0132055D02*
X0276750Y0132055D01*
X0278348Y0133653D02*
X0289852Y0133653D01*
X0290152Y0135252D02*
X0279947Y0135252D01*
X0281545Y0136850D02*
X0291075Y0136850D01*
X0293531Y0138449D02*
X0283759Y0138449D01*
X0287080Y0140047D02*
X0320072Y0140047D01*
X0318473Y0138449D02*
X0306919Y0138449D01*
X0305144Y0138449D02*
X0304775Y0138449D01*
X0304775Y0136850D02*
X0305144Y0136850D01*
X0305144Y0135252D02*
X0304775Y0135252D01*
X0305144Y0133653D02*
X0313678Y0133653D01*
X0315276Y0135252D02*
X0309967Y0135252D01*
X0309086Y0136850D02*
X0316875Y0136850D01*
X0321670Y0141646D02*
X0289966Y0141646D01*
X0290966Y0143244D02*
X0323269Y0143244D01*
X0324867Y0144843D02*
X0290966Y0144843D01*
X0289504Y0146441D02*
X0325488Y0146441D01*
X0332810Y0144843D02*
X0332859Y0144843D01*
X0333781Y0143244D02*
X0334457Y0143244D01*
X0333781Y0141646D02*
X0336056Y0141646D01*
X0337655Y0140047D02*
X0332289Y0140047D01*
X0329637Y0140047D02*
X0329384Y0140047D01*
X0327675Y0138449D02*
X0339253Y0138449D01*
X0340852Y0136850D02*
X0325967Y0136850D01*
X0310726Y0132055D02*
X0310059Y0132055D01*
X0317423Y0128858D02*
X0340754Y0128858D01*
X0341278Y0129381D02*
X0337407Y0125511D01*
X0337407Y0120038D01*
X0341278Y0116167D01*
X0346751Y0116167D01*
X0350622Y0120038D01*
X0350622Y0125511D01*
X0346751Y0129381D01*
X0341278Y0129381D01*
X0339156Y0127259D02*
X0316549Y0127259D01*
X0314950Y0125661D02*
X0337557Y0125661D01*
X0337407Y0124062D02*
X0310067Y0124062D01*
X0310053Y0122464D02*
X0337407Y0122464D01*
X0337407Y0120865D02*
X0309391Y0120865D01*
X0307936Y0119267D02*
X0338178Y0119267D01*
X0339777Y0117668D02*
X0308026Y0117668D01*
X0309726Y0125661D02*
X0312528Y0125661D01*
X0299952Y0135252D02*
X0299767Y0135252D01*
X0298844Y0136850D02*
X0300833Y0136850D01*
X0303000Y0138449D02*
X0296388Y0138449D01*
X0286793Y0146441D02*
X0285444Y0146441D01*
X0282487Y0146441D02*
X0281999Y0146441D01*
X0272462Y0153234D02*
X0272462Y0153234D01*
X0272082Y0152835D02*
X0260103Y0152835D01*
X0260903Y0154434D02*
X0271262Y0154434D01*
X0269664Y0156032D02*
X0262501Y0156032D01*
X0265104Y0157631D02*
X0268065Y0157631D01*
X0266467Y0159229D02*
X0265252Y0159229D01*
X0264868Y0160828D02*
X0264537Y0160828D01*
X0263270Y0162426D02*
X0262176Y0162426D01*
X0261671Y0164025D02*
X0261463Y0164025D01*
X0260073Y0165623D02*
X0208170Y0165623D01*
X0208170Y0164025D02*
X0257255Y0164025D01*
X0265467Y0165623D02*
X0286925Y0165623D01*
X0285327Y0164025D02*
X0273151Y0164025D01*
X0273864Y0162426D02*
X0283728Y0162426D01*
X0274235Y0160828D02*
X0273715Y0160828D01*
X0268943Y0164025D02*
X0267065Y0164025D01*
X0255311Y0157631D02*
X0215692Y0157631D01*
X0216163Y0156032D02*
X0253712Y0156032D01*
X0252113Y0154434D02*
X0217601Y0154434D01*
X0192930Y0154434D02*
X0191822Y0154434D01*
X0192930Y0156032D02*
X0183825Y0156032D01*
X0183016Y0156842D02*
X0184667Y0155191D01*
X0184667Y0152857D01*
X0183016Y0151207D01*
X0182153Y0151207D01*
X0181104Y0150157D01*
X0181104Y0143022D01*
X0179811Y0141729D01*
X0178088Y0140006D01*
X0176120Y0140006D01*
X0163078Y0126965D01*
X0121248Y0126965D01*
X0110667Y0116384D01*
X0108510Y0116384D01*
X0109279Y0114528D01*
X0109279Y0112497D01*
X0108502Y0110620D01*
X0107065Y0109183D01*
X0105188Y0108406D01*
X0103156Y0108406D01*
X0101279Y0109183D01*
X0099842Y0110620D01*
X0099261Y0112024D01*
X0099084Y0111478D01*
X0098705Y0110735D01*
X0098215Y0110060D01*
X0097625Y0109470D01*
X0096950Y0108980D01*
X0096207Y0108601D01*
X0095413Y0108343D01*
X0094589Y0108213D01*
X0094356Y0108213D01*
X0094356Y0113328D01*
X0093988Y0113328D01*
X0093988Y0108213D01*
X0093755Y0108213D01*
X0092931Y0108343D01*
X0092138Y0108601D01*
X0091394Y0108980D01*
X0090719Y0109470D01*
X0090129Y0110060D01*
X0089639Y0110735D01*
X0089260Y0111478D01*
X0089003Y0112272D01*
X0088872Y0113095D01*
X0088872Y0113328D01*
X0093988Y0113328D01*
X0093988Y0113697D01*
X0088872Y0113697D01*
X0088872Y0113930D01*
X0089003Y0114754D01*
X0089260Y0115547D01*
X0089639Y0116290D01*
X0090129Y0116965D01*
X0090719Y0117555D01*
X0091394Y0118046D01*
X0092138Y0118424D01*
X0092683Y0118602D01*
X0091279Y0119183D01*
X0089842Y0120620D01*
X0089065Y0122497D01*
X0089065Y0124528D01*
X0089842Y0126406D01*
X0091279Y0127842D01*
X0092898Y0128513D01*
X0091279Y0129183D01*
X0089842Y0130620D01*
X0089065Y0132497D01*
X0089065Y0134528D01*
X0089842Y0136406D01*
X0091279Y0137842D01*
X0093156Y0138620D01*
X0095188Y0138620D01*
X0097065Y0137842D01*
X0098502Y0136406D01*
X0099172Y0134787D01*
X0099842Y0136406D01*
X0101279Y0137842D01*
X0103156Y0138620D01*
X0105188Y0138620D01*
X0107065Y0137842D01*
X0108502Y0136406D01*
X0108786Y0135720D01*
X0159439Y0135720D01*
X0173126Y0149407D01*
X0173126Y0150270D01*
X0174777Y0151920D01*
X0176689Y0151920D01*
X0176689Y0151986D01*
X0179032Y0154328D01*
X0179032Y0155191D01*
X0180682Y0156842D01*
X0183016Y0156842D01*
X0182180Y0159229D02*
X0192930Y0159229D01*
X0192930Y0157631D02*
X0080599Y0157631D01*
X0081158Y0159229D02*
X0179550Y0159229D01*
X0183682Y0160828D02*
X0192930Y0160828D01*
X0192930Y0162426D02*
X0183682Y0162426D01*
X0179873Y0156032D02*
X0080040Y0156032D01*
X0079636Y0154434D02*
X0179032Y0154434D01*
X0177539Y0152835D02*
X0079271Y0152835D01*
X0078906Y0151237D02*
X0174093Y0151237D01*
X0173126Y0149638D02*
X0078541Y0149638D01*
X0078176Y0148040D02*
X0171759Y0148040D01*
X0170161Y0146441D02*
X0077811Y0146441D01*
X0077447Y0144843D02*
X0168562Y0144843D01*
X0166964Y0143244D02*
X0077082Y0143244D01*
X0076873Y0141646D02*
X0165365Y0141646D01*
X0163767Y0140047D02*
X0076693Y0140047D01*
X0076513Y0138449D02*
X0092744Y0138449D01*
X0095600Y0138449D02*
X0102744Y0138449D01*
X0105600Y0138449D02*
X0162168Y0138449D01*
X0160570Y0136850D02*
X0108057Y0136850D01*
X0100287Y0136850D02*
X0098057Y0136850D01*
X0098980Y0135252D02*
X0099365Y0135252D01*
X0090287Y0136850D02*
X0076332Y0136850D01*
X0076152Y0135252D02*
X0089365Y0135252D01*
X0089065Y0133653D02*
X0075972Y0133653D01*
X0075792Y0132055D02*
X0089248Y0132055D01*
X0090006Y0130456D02*
X0075612Y0130456D01*
X0075531Y0128858D02*
X0092064Y0128858D01*
X0090696Y0127259D02*
X0075487Y0127259D01*
X0075442Y0125661D02*
X0089534Y0125661D01*
X0089065Y0124062D02*
X0075397Y0124062D01*
X0075411Y0122464D02*
X0089079Y0122464D01*
X0089741Y0120865D02*
X0075456Y0120865D01*
X0075501Y0119267D02*
X0091195Y0119267D01*
X0090875Y0117668D02*
X0075545Y0117668D01*
X0075668Y0116070D02*
X0089527Y0116070D01*
X0088958Y0114471D02*
X0075848Y0114471D01*
X0076028Y0112873D02*
X0088907Y0112873D01*
X0089364Y0111274D02*
X0076209Y0111274D01*
X0076389Y0109676D02*
X0090514Y0109676D01*
X0093988Y0109676D02*
X0094356Y0109676D01*
X0094356Y0111274D02*
X0093988Y0111274D01*
X0093988Y0112873D02*
X0094356Y0112873D01*
X0097830Y0109676D02*
X0100787Y0109676D01*
X0099571Y0111274D02*
X0098980Y0111274D01*
X0107558Y0109676D02*
X0173464Y0109676D01*
X0172249Y0111274D02*
X0108773Y0111274D01*
X0109279Y0112873D02*
X0171742Y0112873D01*
X0171742Y0114471D02*
X0109279Y0114471D01*
X0108641Y0116070D02*
X0172381Y0116070D01*
X0173782Y0117668D02*
X0111951Y0117668D01*
X0113549Y0119267D02*
X0173873Y0119267D01*
X0172418Y0120865D02*
X0115148Y0120865D01*
X0116746Y0122464D02*
X0171756Y0122464D01*
X0171742Y0124062D02*
X0118345Y0124062D01*
X0119943Y0125661D02*
X0172211Y0125661D01*
X0173373Y0127259D02*
X0163373Y0127259D01*
X0164971Y0128858D02*
X0174742Y0128858D01*
X0172683Y0130456D02*
X0166570Y0130456D01*
X0168168Y0132055D02*
X0171925Y0132055D01*
X0171742Y0133653D02*
X0169767Y0133653D01*
X0171365Y0135252D02*
X0172042Y0135252D01*
X0172964Y0136850D02*
X0172964Y0136850D01*
X0174562Y0138449D02*
X0175421Y0138449D01*
X0178278Y0138449D02*
X0180869Y0138449D01*
X0182467Y0140047D02*
X0178129Y0140047D01*
X0179728Y0141646D02*
X0184066Y0141646D01*
X0181104Y0143244D02*
X0187387Y0143244D01*
X0188008Y0144843D02*
X0181104Y0144843D01*
X0181104Y0146441D02*
X0188008Y0146441D01*
X0188008Y0148040D02*
X0181104Y0148040D01*
X0181104Y0149638D02*
X0188008Y0149638D01*
X0187398Y0151237D02*
X0183046Y0151237D01*
X0184644Y0152835D02*
X0187398Y0152835D01*
X0188609Y0154434D02*
X0184667Y0154434D01*
X0192422Y0143244D02*
X0192707Y0143244D01*
X0192930Y0141646D02*
X0192031Y0141646D01*
X0192930Y0140047D02*
X0190432Y0140047D01*
X0188834Y0138449D02*
X0192930Y0138449D01*
X0192930Y0136850D02*
X0190975Y0136850D01*
X0191857Y0135252D02*
X0192930Y0135252D01*
X0192930Y0133653D02*
X0187034Y0133653D01*
X0191948Y0132055D02*
X0192930Y0132055D01*
X0192930Y0130456D02*
X0191180Y0130456D01*
X0192930Y0128858D02*
X0189388Y0128858D01*
X0190325Y0127259D02*
X0192930Y0127259D01*
X0192930Y0125661D02*
X0191487Y0125661D01*
X0191956Y0124062D02*
X0192930Y0124062D01*
X0192930Y0122464D02*
X0191943Y0122464D01*
X0191280Y0120865D02*
X0192930Y0120865D01*
X0192930Y0119267D02*
X0189826Y0119267D01*
X0189916Y0117668D02*
X0192930Y0117668D01*
X0192930Y0116070D02*
X0191318Y0116070D01*
X0191956Y0114471D02*
X0192930Y0114471D01*
X0192930Y0112873D02*
X0191956Y0112873D01*
X0191450Y0111274D02*
X0192930Y0111274D01*
X0192930Y0109676D02*
X0190235Y0109676D01*
X0192930Y0108077D02*
X0076569Y0108077D01*
X0076749Y0106479D02*
X0192930Y0106479D01*
X0192930Y0104880D02*
X0076929Y0104880D01*
X0077196Y0103282D02*
X0192930Y0103282D01*
X0192930Y0101683D02*
X0077560Y0101683D01*
X0077925Y0100085D02*
X0192930Y0100085D01*
X0192930Y0098486D02*
X0078290Y0098486D01*
X0078655Y0096887D02*
X0192930Y0096887D01*
X0192930Y0095289D02*
X0079020Y0095289D01*
X0079385Y0093690D02*
X0192930Y0093690D01*
X0192930Y0092092D02*
X0079750Y0092092D01*
X0080214Y0090493D02*
X0192930Y0090493D01*
X0192930Y0088895D02*
X0080774Y0088895D01*
X0081333Y0087296D02*
X0192930Y0087296D01*
X0192930Y0085698D02*
X0081892Y0085698D01*
X0082452Y0084099D02*
X0192930Y0084099D01*
X0192930Y0082501D02*
X0083011Y0082501D01*
X0083570Y0080902D02*
X0191482Y0080902D01*
X0214465Y0069713D02*
X0227528Y0069713D01*
X0240749Y0076107D02*
X0240868Y0076107D01*
X0241713Y0077705D02*
X0239879Y0077705D01*
X0237550Y0079304D02*
X0243742Y0079304D01*
X0245720Y0079304D02*
X0246089Y0079304D01*
X0246089Y0077705D02*
X0245720Y0077705D01*
X0245720Y0076107D02*
X0246089Y0076107D01*
X0246089Y0074508D02*
X0251493Y0074508D01*
X0251493Y0076107D02*
X0250941Y0076107D01*
X0251493Y0077705D02*
X0250096Y0077705D01*
X0251493Y0079304D02*
X0248067Y0079304D01*
X0183464Y0109676D02*
X0180235Y0109676D01*
X0181450Y0111274D02*
X0182249Y0111274D01*
X0340991Y0151237D02*
X0346433Y0151237D01*
X0343547Y0152835D02*
X0340991Y0152835D01*
X0341646Y0154434D02*
X0340252Y0154434D01*
X0308743Y0176813D02*
X0307027Y0176813D01*
X0313234Y0180010D02*
X0343056Y0180010D01*
X0343697Y0181609D02*
X0314000Y0181609D01*
X0326729Y0183207D02*
X0343697Y0183207D01*
X0343697Y0184806D02*
X0327137Y0184806D01*
X0326682Y0186404D02*
X0331115Y0186404D01*
X0333764Y0186404D02*
X0343697Y0186404D01*
X0343697Y0188003D02*
X0335257Y0188003D01*
X0335257Y0189601D02*
X0343697Y0189601D01*
X0355196Y0195784D02*
X0356360Y0194620D01*
X0357477Y0193503D01*
X0357477Y0192339D01*
X0357723Y0192585D01*
X0358840Y0193702D01*
X0360193Y0193702D01*
X0361915Y0195424D01*
X0360769Y0195424D01*
X0359859Y0194514D01*
X0357525Y0194514D01*
X0355875Y0196165D01*
X0355875Y0196429D01*
X0355196Y0196429D01*
X0355196Y0195784D01*
X0355196Y0195995D02*
X0356044Y0195995D01*
X0356583Y0194397D02*
X0360888Y0194397D01*
X0357936Y0192798D02*
X0357477Y0192798D01*
X0370311Y0192521D02*
X0370336Y0192546D01*
X0371623Y0192546D01*
X0373274Y0194196D01*
X0373274Y0196530D01*
X0372841Y0196962D01*
X0373274Y0197395D01*
X0373274Y0199361D01*
X0376802Y0199361D01*
X0379050Y0197114D01*
X0377851Y0195915D01*
X0377851Y0193581D01*
X0379501Y0191931D01*
X0381835Y0191931D01*
X0382745Y0192841D01*
X0435119Y0192841D01*
X0446594Y0181366D01*
X0446133Y0180905D01*
X0446133Y0180577D01*
X0439283Y0187428D01*
X0404684Y0187428D01*
X0404524Y0187588D01*
X0404524Y0189163D01*
X0402873Y0190813D01*
X0400540Y0190813D01*
X0398889Y0189163D01*
X0398889Y0186829D01*
X0399767Y0185951D01*
X0375695Y0185951D01*
X0374578Y0184834D01*
X0372823Y0183079D01*
X0371500Y0184401D01*
X0370213Y0184401D01*
X0369032Y0185582D01*
X0370336Y0186886D01*
X0371623Y0186886D01*
X0373274Y0188537D01*
X0373274Y0190871D01*
X0371623Y0192521D01*
X0370311Y0192521D01*
X0371876Y0192798D02*
X0378633Y0192798D01*
X0377851Y0194397D02*
X0373274Y0194397D01*
X0373274Y0195995D02*
X0377931Y0195995D01*
X0378570Y0197594D02*
X0373274Y0197594D01*
X0373274Y0199192D02*
X0376972Y0199192D01*
X0382703Y0192798D02*
X0435162Y0192798D01*
X0436760Y0191200D02*
X0372945Y0191200D01*
X0373274Y0189601D02*
X0399327Y0189601D01*
X0398889Y0188003D02*
X0372740Y0188003D01*
X0369854Y0186404D02*
X0399314Y0186404D01*
X0404524Y0188003D02*
X0439957Y0188003D01*
X0440306Y0186404D02*
X0441556Y0186404D01*
X0441905Y0184806D02*
X0443154Y0184806D01*
X0443503Y0183207D02*
X0444753Y0183207D01*
X0445102Y0181609D02*
X0446351Y0181609D01*
X0456640Y0180661D02*
X0466954Y0180661D01*
X0467362Y0179675D01*
X0468799Y0178238D01*
X0470203Y0177657D01*
X0469657Y0177479D01*
X0468914Y0177101D01*
X0468239Y0176610D01*
X0467649Y0176020D01*
X0467159Y0175346D01*
X0466780Y0174602D01*
X0466522Y0173809D01*
X0466392Y0172985D01*
X0466392Y0172752D01*
X0471507Y0172752D01*
X0471507Y0172383D01*
X0466392Y0172383D01*
X0466392Y0172151D01*
X0466522Y0171327D01*
X0466780Y0170533D01*
X0467159Y0169790D01*
X0467649Y0169115D01*
X0468239Y0168525D01*
X0468471Y0168357D01*
X0466992Y0166878D01*
X0465874Y0165761D01*
X0465874Y0165511D01*
X0456640Y0174745D01*
X0456640Y0180661D01*
X0456640Y0180010D02*
X0467223Y0180010D01*
X0468625Y0178412D02*
X0456640Y0178412D01*
X0456640Y0176813D02*
X0468518Y0176813D01*
X0467092Y0175215D02*
X0456640Y0175215D01*
X0457770Y0173616D02*
X0466492Y0173616D01*
X0466413Y0172018D02*
X0459368Y0172018D01*
X0460967Y0170419D02*
X0466838Y0170419D01*
X0467944Y0168821D02*
X0462565Y0168821D01*
X0464164Y0167222D02*
X0467336Y0167222D01*
X0465874Y0165623D02*
X0465762Y0165623D01*
X0466118Y0186404D02*
X0455558Y0186404D01*
X0453959Y0188003D02*
X0467716Y0188003D01*
X0467436Y0189601D02*
X0452361Y0189601D01*
X0450762Y0191200D02*
X0466731Y0191200D01*
X0466585Y0192798D02*
X0449164Y0192798D01*
X0447565Y0194397D02*
X0466921Y0194397D01*
X0467897Y0195995D02*
X0445967Y0195995D01*
X0438359Y0189601D02*
X0404085Y0189601D01*
X0374550Y0184806D02*
X0369808Y0184806D01*
X0372694Y0183207D02*
X0372951Y0183207D01*
X0320028Y0202560D02*
X0311965Y0202560D01*
X0310414Y0201010D01*
X0309127Y0201010D01*
X0307772Y0199655D01*
X0307772Y0203128D01*
X0308682Y0204039D01*
X0308682Y0206251D01*
X0317624Y0206251D01*
X0318550Y0205326D01*
X0318550Y0204039D01*
X0320028Y0202560D01*
X0318600Y0203988D02*
X0308631Y0203988D01*
X0308682Y0205586D02*
X0318289Y0205586D01*
X0311794Y0202389D02*
X0307772Y0202389D01*
X0307772Y0200791D02*
X0308908Y0200791D01*
X0292300Y0197594D02*
X0287070Y0197594D01*
X0285472Y0199192D02*
X0290850Y0199192D01*
X0292221Y0195995D02*
X0288669Y0195995D01*
X0283537Y0203988D02*
X0282920Y0204605D01*
X0282303Y0203988D01*
X0279968Y0203988D02*
X0212726Y0203988D01*
X0214325Y0205586D02*
X0278370Y0205586D01*
X0278318Y0207185D02*
X0215923Y0207185D01*
X0217522Y0208783D02*
X0279130Y0208783D01*
X0291163Y0216776D02*
X0122386Y0216776D01*
X0120382Y0215177D02*
X0215358Y0215177D01*
X0213246Y0213579D02*
X0118378Y0213579D01*
X0116373Y0211980D02*
X0211648Y0211980D01*
X0210049Y0210382D02*
X0114369Y0210382D01*
X0112734Y0208783D02*
X0208451Y0208783D01*
X0206852Y0207185D02*
X0111135Y0207185D01*
X0109537Y0205586D02*
X0205254Y0205586D01*
X0203655Y0203988D02*
X0107938Y0203988D01*
X0106340Y0202389D02*
X0202057Y0202389D01*
X0134568Y0224768D02*
X0272810Y0224768D01*
X0272823Y0224800D02*
X0272524Y0224079D01*
X0272372Y0223313D01*
X0272372Y0223205D01*
X0276055Y0223205D01*
X0276055Y0226887D01*
X0275947Y0226887D01*
X0275181Y0226735D01*
X0274459Y0226436D01*
X0273810Y0226002D01*
X0273257Y0225450D01*
X0272823Y0224800D01*
X0274356Y0226367D02*
X0137625Y0226367D01*
X0140944Y0227965D02*
X0278440Y0227965D01*
X0278216Y0226436D02*
X0277494Y0226735D01*
X0276728Y0226887D01*
X0276620Y0226887D01*
X0276620Y0223205D01*
X0276055Y0223205D01*
X0276055Y0222639D01*
X0276620Y0222639D01*
X0276620Y0218957D01*
X0276728Y0218957D01*
X0277494Y0219109D01*
X0278216Y0219408D01*
X0278865Y0219842D01*
X0279417Y0220394D01*
X0279851Y0221044D01*
X0280150Y0221765D01*
X0280303Y0222531D01*
X0280303Y0222639D01*
X0276620Y0222639D01*
X0276620Y0223205D01*
X0280303Y0223205D01*
X0280303Y0223313D01*
X0280150Y0224079D01*
X0279851Y0224800D01*
X0279417Y0225450D01*
X0278865Y0226002D01*
X0278216Y0226436D01*
X0278319Y0226367D02*
X0280038Y0226367D01*
X0280469Y0225936D02*
X0283241Y0225936D01*
X0283414Y0225764D01*
X0283100Y0225450D01*
X0282666Y0224800D01*
X0282367Y0224079D01*
X0282215Y0223313D01*
X0282215Y0223205D01*
X0285897Y0223205D01*
X0285897Y0222639D01*
X0286463Y0222639D01*
X0286463Y0223205D01*
X0290145Y0223205D01*
X0290145Y0223313D01*
X0289993Y0224079D01*
X0289694Y0224800D01*
X0289461Y0225149D01*
X0289808Y0225149D01*
X0290718Y0226059D01*
X0292014Y0226059D01*
X0295042Y0229087D01*
X0295272Y0228992D01*
X0296773Y0228992D01*
X0298159Y0229566D01*
X0299221Y0230628D01*
X0299795Y0232014D01*
X0299795Y0233515D01*
X0299221Y0234901D01*
X0298159Y0235963D01*
X0296773Y0236537D01*
X0295272Y0236537D01*
X0293886Y0235963D01*
X0292824Y0234901D01*
X0292250Y0233515D01*
X0292250Y0232014D01*
X0292345Y0231784D01*
X0290576Y0230015D01*
X0289808Y0230784D01*
X0289443Y0230784D01*
X0289952Y0232014D01*
X0289952Y0233515D01*
X0289857Y0233745D01*
X0289874Y0233761D01*
X0291161Y0233761D01*
X0292811Y0235412D01*
X0292811Y0237746D01*
X0291161Y0239396D01*
X0288827Y0239396D01*
X0287177Y0237746D01*
X0287177Y0236458D01*
X0287160Y0236442D01*
X0286930Y0236537D01*
X0285430Y0236537D01*
X0284043Y0235963D01*
X0282982Y0234901D01*
X0282407Y0233515D01*
X0282407Y0232014D01*
X0282982Y0230628D01*
X0283550Y0230059D01*
X0283241Y0229750D01*
X0282049Y0229750D01*
X0280015Y0231784D01*
X0280110Y0232014D01*
X0280110Y0233515D01*
X0279536Y0234901D01*
X0278474Y0235963D01*
X0277088Y0236537D01*
X0275587Y0236537D01*
X0274200Y0235963D01*
X0273139Y0234901D01*
X0272565Y0233515D01*
X0272565Y0232014D01*
X0273139Y0230628D01*
X0274200Y0229566D01*
X0275587Y0228992D01*
X0277088Y0228992D01*
X0277318Y0229087D01*
X0280469Y0225936D01*
X0279865Y0224768D02*
X0282653Y0224768D01*
X0282215Y0222639D02*
X0282215Y0222531D01*
X0282367Y0221765D01*
X0282666Y0221044D01*
X0283100Y0220394D01*
X0283652Y0219842D01*
X0284302Y0219408D01*
X0285023Y0219109D01*
X0285789Y0218957D01*
X0285897Y0218957D01*
X0285897Y0222639D01*
X0282215Y0222639D01*
X0282447Y0221571D02*
X0280070Y0221571D01*
X0278996Y0219973D02*
X0283521Y0219973D01*
X0285897Y0219973D02*
X0286463Y0219973D01*
X0286463Y0218957D02*
X0286570Y0218957D01*
X0287337Y0219109D01*
X0288058Y0219408D01*
X0288708Y0219842D01*
X0289260Y0220394D01*
X0289694Y0221044D01*
X0289993Y0221765D01*
X0290145Y0222531D01*
X0290145Y0222639D01*
X0286463Y0222639D01*
X0286463Y0218957D01*
X0288839Y0219973D02*
X0293329Y0219973D01*
X0292499Y0221571D02*
X0289913Y0221571D01*
X0292250Y0223170D02*
X0286463Y0223170D01*
X0285897Y0223170D02*
X0276620Y0223170D01*
X0276055Y0223170D02*
X0132024Y0223170D01*
X0129480Y0221571D02*
X0272605Y0221571D01*
X0272524Y0221765D02*
X0272823Y0221044D01*
X0273257Y0220394D01*
X0273810Y0219842D01*
X0274459Y0219408D01*
X0275181Y0219109D01*
X0275947Y0218957D01*
X0276055Y0218957D01*
X0276055Y0222639D01*
X0272372Y0222639D01*
X0272372Y0222531D01*
X0272524Y0221765D01*
X0273679Y0219973D02*
X0126936Y0219973D01*
X0124392Y0218374D02*
X0291730Y0218374D01*
X0297419Y0218374D02*
X0300956Y0218374D01*
X0302499Y0219973D02*
X0298408Y0219973D01*
X0299546Y0221571D02*
X0313505Y0221571D01*
X0311907Y0219973D02*
X0305047Y0219973D01*
X0313176Y0215848D02*
X0327924Y0230596D01*
X0327924Y0227206D01*
X0329042Y0226089D01*
X0331854Y0223276D01*
X0343417Y0223276D01*
X0343862Y0222831D01*
X0343862Y0221948D01*
X0342952Y0221038D01*
X0342952Y0218954D01*
X0341433Y0217435D01*
X0341433Y0215848D01*
X0313176Y0215848D01*
X0314104Y0216776D02*
X0341433Y0216776D01*
X0342372Y0218374D02*
X0315702Y0218374D01*
X0317301Y0219973D02*
X0342952Y0219973D01*
X0343485Y0221571D02*
X0318899Y0221571D01*
X0320498Y0223170D02*
X0343523Y0223170D01*
X0351301Y0226768D02*
X0352496Y0227964D01*
X0357167Y0227964D01*
X0357612Y0227518D01*
X0358729Y0226401D01*
X0366048Y0226401D01*
X0365017Y0225370D01*
X0364380Y0223833D01*
X0364380Y0222169D01*
X0365017Y0220632D01*
X0366193Y0219456D01*
X0367730Y0218819D01*
X0369394Y0218819D01*
X0370931Y0219456D01*
X0372107Y0220632D01*
X0372744Y0222169D01*
X0372744Y0223833D01*
X0372107Y0225370D01*
X0371075Y0226401D01*
X0373508Y0226401D01*
X0374406Y0225503D01*
X0374406Y0224216D01*
X0376056Y0222565D01*
X0378390Y0222565D01*
X0380041Y0224216D01*
X0380041Y0226550D01*
X0378390Y0228200D01*
X0377103Y0228200D01*
X0375917Y0229386D01*
X0378381Y0229386D01*
X0379322Y0230327D01*
X0379322Y0238362D01*
X0388244Y0238362D01*
X0390041Y0236566D01*
X0388359Y0236566D01*
X0386709Y0234916D01*
X0386709Y0232582D01*
X0387619Y0231672D01*
X0387619Y0220078D01*
X0386709Y0219168D01*
X0386709Y0217324D01*
X0383550Y0217324D01*
X0381335Y0219539D01*
X0380164Y0219539D01*
X0380164Y0220890D01*
X0378513Y0222541D01*
X0376179Y0222541D01*
X0374529Y0220890D01*
X0374529Y0219603D01*
X0372988Y0218062D01*
X0359558Y0218062D01*
X0357277Y0220343D01*
X0352724Y0220343D01*
X0353013Y0220632D01*
X0353649Y0222169D01*
X0353649Y0223833D01*
X0353013Y0225370D01*
X0351836Y0226546D01*
X0351301Y0226768D01*
X0352015Y0226367D02*
X0366014Y0226367D01*
X0364768Y0224768D02*
X0353262Y0224768D01*
X0353649Y0223170D02*
X0364380Y0223170D01*
X0364627Y0221571D02*
X0353402Y0221571D01*
X0357648Y0219973D02*
X0365676Y0219973D01*
X0371448Y0219973D02*
X0374529Y0219973D01*
X0375210Y0221571D02*
X0372496Y0221571D01*
X0372744Y0223170D02*
X0375452Y0223170D01*
X0374406Y0224768D02*
X0372356Y0224768D01*
X0373542Y0226367D02*
X0371110Y0226367D01*
X0378625Y0227965D02*
X0387619Y0227965D01*
X0387619Y0226367D02*
X0380041Y0226367D01*
X0380041Y0224768D02*
X0387619Y0224768D01*
X0387619Y0223170D02*
X0378995Y0223170D01*
X0379482Y0221571D02*
X0387619Y0221571D01*
X0387514Y0219973D02*
X0380164Y0219973D01*
X0382499Y0218374D02*
X0386709Y0218374D01*
X0373300Y0218374D02*
X0359246Y0218374D01*
X0378559Y0229564D02*
X0387619Y0229564D01*
X0387619Y0231162D02*
X0379322Y0231162D01*
X0379322Y0232761D02*
X0386709Y0232761D01*
X0386709Y0234359D02*
X0379322Y0234359D01*
X0379322Y0235958D02*
X0387751Y0235958D01*
X0389050Y0237556D02*
X0379322Y0237556D01*
X0392178Y0239823D02*
X0431112Y0239823D01*
X0431077Y0239788D01*
X0431077Y0237454D01*
X0431987Y0236544D01*
X0431987Y0236178D01*
X0431205Y0236960D01*
X0430027Y0237448D01*
X0426782Y0237448D01*
X0425603Y0236960D01*
X0413549Y0224906D01*
X0412347Y0226108D01*
X0410013Y0226108D01*
X0408363Y0224458D01*
X0408363Y0222124D01*
X0408516Y0221971D01*
X0408071Y0221526D01*
X0406934Y0222664D01*
X0404600Y0222664D01*
X0403921Y0221985D01*
X0403368Y0222539D01*
X0403368Y0228633D01*
X0402250Y0229750D01*
X0392178Y0239823D01*
X0392846Y0239155D02*
X0431077Y0239155D01*
X0431077Y0237556D02*
X0394444Y0237556D01*
X0396043Y0235958D02*
X0424602Y0235958D01*
X0423003Y0234359D02*
X0397641Y0234359D01*
X0399240Y0232761D02*
X0421405Y0232761D01*
X0419806Y0231162D02*
X0400838Y0231162D01*
X0402437Y0229564D02*
X0418208Y0229564D01*
X0416609Y0227965D02*
X0403368Y0227965D01*
X0403368Y0226367D02*
X0415011Y0226367D01*
X0408673Y0224768D02*
X0403368Y0224768D01*
X0403368Y0223170D02*
X0408363Y0223170D01*
X0408116Y0221571D02*
X0408026Y0221571D01*
X0435801Y0232761D02*
X0565727Y0232761D01*
X0561159Y0234359D02*
X0435801Y0234359D01*
X0435801Y0235958D02*
X0555553Y0235958D01*
X0548550Y0237556D02*
X0436711Y0237556D01*
X0436711Y0239155D02*
X0537162Y0239155D01*
X0477897Y0195995D02*
X0475487Y0195995D01*
X0476462Y0194397D02*
X0476921Y0194397D01*
X0335734Y0234359D02*
X0333412Y0234359D01*
X0333334Y0235958D02*
X0335452Y0235958D01*
X0336033Y0237556D02*
X0325780Y0237556D01*
X0324182Y0235958D02*
X0327855Y0235958D01*
X0326293Y0234359D02*
X0322583Y0234359D01*
X0320985Y0232761D02*
X0324695Y0232761D01*
X0323096Y0231162D02*
X0320493Y0231162D01*
X0321498Y0229564D02*
X0319075Y0229564D01*
X0319899Y0227965D02*
X0293920Y0227965D01*
X0294481Y0226367D02*
X0292322Y0226367D01*
X0292704Y0224768D02*
X0289707Y0224768D01*
X0286463Y0221571D02*
X0285897Y0221571D01*
X0276620Y0221571D02*
X0276055Y0221571D01*
X0276055Y0219973D02*
X0276620Y0219973D01*
X0276620Y0224768D02*
X0276055Y0224768D01*
X0276055Y0226367D02*
X0276620Y0226367D01*
X0274207Y0229564D02*
X0144264Y0229564D01*
X0147734Y0231162D02*
X0272918Y0231162D01*
X0272565Y0232761D02*
X0152302Y0232761D01*
X0156870Y0234359D02*
X0272915Y0234359D01*
X0274196Y0235958D02*
X0162476Y0235958D01*
X0169480Y0237556D02*
X0287177Y0237556D01*
X0288586Y0239155D02*
X0180867Y0239155D01*
X0278479Y0235958D02*
X0284038Y0235958D01*
X0282757Y0234359D02*
X0279760Y0234359D01*
X0280110Y0232761D02*
X0282407Y0232761D01*
X0282760Y0231162D02*
X0280637Y0231162D01*
X0289600Y0231162D02*
X0291723Y0231162D01*
X0292250Y0232761D02*
X0289952Y0232761D01*
X0291759Y0234359D02*
X0292600Y0234359D01*
X0292811Y0235958D02*
X0293881Y0235958D01*
X0292811Y0237556D02*
X0320386Y0237556D01*
X0318788Y0235958D02*
X0298164Y0235958D01*
X0299445Y0234359D02*
X0315902Y0234359D01*
X0314859Y0232761D02*
X0299795Y0232761D01*
X0299442Y0231162D02*
X0314859Y0231162D01*
X0316277Y0229564D02*
X0298153Y0229564D01*
X0297564Y0226367D02*
X0318301Y0226367D01*
X0316702Y0224768D02*
X0299341Y0224768D01*
X0299795Y0223170D02*
X0315104Y0223170D01*
X0322096Y0224768D02*
X0330362Y0224768D01*
X0329042Y0226089D02*
X0329042Y0226089D01*
X0328763Y0226367D02*
X0323695Y0226367D01*
X0325293Y0227965D02*
X0327924Y0227965D01*
X0327924Y0229564D02*
X0326892Y0229564D01*
X0321985Y0239155D02*
X0291402Y0239155D01*
X0158589Y0170419D02*
X0158081Y0170419D01*
X0156975Y0168821D02*
X0159752Y0168821D01*
X0153411Y0168821D02*
X0153043Y0168821D01*
X0153043Y0170419D02*
X0153411Y0170419D01*
X0153411Y0172018D02*
X0153043Y0172018D01*
X0347275Y0128858D02*
X0370754Y0128858D01*
X0369156Y0127259D02*
X0348874Y0127259D01*
X0350472Y0125661D02*
X0367557Y0125661D01*
X0367407Y0124062D02*
X0350622Y0124062D01*
X0350622Y0122464D02*
X0367407Y0122464D01*
X0367407Y0120865D02*
X0350622Y0120865D01*
X0349851Y0119267D02*
X0368178Y0119267D01*
X0369777Y0117668D02*
X0348252Y0117668D01*
X0412452Y0112873D02*
X0412821Y0112873D01*
X0412821Y0111274D02*
X0412452Y0111274D01*
X0412452Y0109676D02*
X0412821Y0109676D01*
X0489601Y0114471D02*
X0490207Y0114471D01*
X0409697Y0141646D02*
X0409183Y0141646D01*
X0568868Y0015363D02*
X0149161Y0015363D01*
X0153729Y0013765D02*
X0564300Y0013765D01*
X0559732Y0012166D02*
X0158297Y0012166D01*
X0164664Y0010568D02*
X0553366Y0010568D01*
X0546362Y0008969D02*
X0171667Y0008969D01*
X0185685Y0007371D02*
X0532344Y0007371D01*
D27*
X0554369Y0064457D02*
X0546741Y0072085D01*
X0531751Y0072085D01*
X0530767Y0071101D01*
X0530520Y0071101D01*
X0528798Y0074300D02*
X0554211Y0074300D01*
X0554369Y0074457D01*
X0530520Y0077991D02*
X0528306Y0077991D01*
X0523877Y0082420D01*
X0523877Y0117853D01*
X0525599Y0119576D01*
X0523877Y0121298D01*
X0523877Y0124989D01*
X0526091Y0127204D01*
X0526091Y0129664D01*
X0523877Y0131879D01*
X0523877Y0178139D01*
X0528306Y0182568D01*
X0554369Y0182568D01*
X0546761Y0184782D02*
X0527322Y0184782D01*
X0521662Y0179123D01*
X0521662Y0129910D01*
X0523139Y0128434D01*
X0523139Y0128188D01*
X0521662Y0126711D01*
X0521662Y0081436D01*
X0528798Y0074300D01*
X0515265Y0081682D02*
X0507883Y0074300D01*
X0481849Y0074300D01*
X0481692Y0074457D01*
X0489320Y0072085D02*
X0481692Y0064457D01*
X0489320Y0072085D02*
X0505914Y0072085D01*
X0506898Y0071101D01*
X0506898Y0077991D02*
X0508375Y0077991D01*
X0513050Y0082666D01*
X0513050Y0145166D01*
X0511574Y0146643D01*
X0511574Y0148119D01*
X0511081Y0148611D01*
X0511081Y0151072D01*
X0513050Y0153040D01*
X0513050Y0178631D01*
X0509113Y0182568D01*
X0481692Y0182568D01*
X0489428Y0184782D02*
X0510097Y0184782D01*
X0515265Y0179615D01*
X0515265Y0151318D01*
X0513788Y0149841D01*
X0515265Y0148365D01*
X0515265Y0081682D01*
X0541101Y0123513D02*
X0536180Y0128434D01*
X0536180Y0138892D01*
X0523139Y0128434D02*
X0521662Y0126957D01*
X0521662Y0126711D01*
X0541101Y0123513D02*
X0541180Y0123513D01*
X0493572Y0146150D02*
X0487644Y0140223D01*
X0487644Y0135183D01*
X0483847Y0131387D01*
X0430619Y0131387D01*
X0422745Y0123513D01*
X0422637Y0123513D01*
X0422637Y0133513D02*
X0482243Y0133513D01*
X0482243Y0133532D01*
X0485144Y0136433D01*
X0485144Y0142683D01*
X0492331Y0149871D01*
X0496072Y0149841D01*
X0489428Y0184782D02*
X0481692Y0192519D01*
X0481692Y0192568D01*
X0546761Y0184782D02*
X0554369Y0192391D01*
X0554369Y0192568D01*
X0347875Y0195050D02*
X0345358Y0192533D01*
X0289010Y0192533D01*
X0283227Y0198316D01*
X0254684Y0198316D01*
X0235904Y0192568D02*
X0235894Y0192568D01*
X0228109Y0184782D01*
X0209408Y0184782D01*
X0203749Y0179123D01*
X0203749Y0130156D01*
X0205471Y0128434D01*
X0203749Y0126711D01*
X0203749Y0080698D01*
X0210146Y0074300D01*
X0235747Y0074300D01*
X0235904Y0074457D01*
X0228276Y0072085D02*
X0235904Y0064457D01*
X0228276Y0072085D02*
X0212853Y0072085D01*
X0211869Y0071101D01*
X0211869Y0077499D02*
X0210146Y0077499D01*
X0205963Y0081682D01*
X0205963Y0117115D01*
X0207440Y0118591D01*
X0205963Y0120068D01*
X0205963Y0124497D01*
X0208424Y0126957D01*
X0208424Y0130402D01*
X0205963Y0132863D01*
X0205963Y0178139D01*
X0210393Y0182568D01*
X0235904Y0182568D01*
X0197351Y0178877D02*
X0191446Y0184782D01*
X0171269Y0184782D01*
X0163483Y0192568D01*
X0163227Y0192568D01*
X0158227Y0195363D02*
X0161180Y0198316D01*
X0158227Y0195363D02*
X0158227Y0187489D01*
X0153306Y0182568D01*
X0153227Y0182568D01*
X0163227Y0182568D02*
X0190461Y0182568D01*
X0195137Y0177893D01*
X0195137Y0152548D01*
X0193168Y0150333D01*
X0193168Y0146150D01*
X0193168Y0145904D01*
X0195137Y0143936D01*
X0195137Y0081436D01*
X0191200Y0077499D01*
X0188493Y0077499D01*
X0191200Y0074300D02*
X0163385Y0074300D01*
X0163227Y0074457D01*
X0170855Y0072085D02*
X0163227Y0064457D01*
X0158227Y0059536D02*
X0153306Y0064457D01*
X0153227Y0064457D01*
X0158227Y0059536D02*
X0185786Y0059536D01*
X0188493Y0071101D02*
X0187509Y0072085D01*
X0170855Y0072085D01*
X0191200Y0074300D02*
X0197351Y0080452D01*
X0197351Y0147873D01*
X0196244Y0148980D01*
X0196244Y0149226D01*
X0197351Y0150333D01*
X0197351Y0178877D01*
X0181849Y0154024D02*
X0178896Y0151072D01*
X0178896Y0143936D01*
X0177174Y0142213D01*
X0175206Y0142213D01*
X0162164Y0129172D01*
X0120333Y0129172D01*
X0109753Y0118591D01*
X0099172Y0118591D01*
X0094251Y0123513D01*
X0094172Y0123513D01*
X0104172Y0123513D02*
X0104172Y0123591D01*
X0111967Y0131387D01*
X0161180Y0131387D01*
X0174959Y0145166D01*
X0175944Y0145166D01*
X0175944Y0149103D02*
X0160353Y0133513D01*
X0104172Y0133513D01*
X0181849Y0136308D02*
X0181849Y0128434D01*
X0186770Y0123513D01*
X0186849Y0123513D01*
X0212282Y0123513D02*
X0212361Y0123513D01*
X0217282Y0118591D01*
X0238936Y0118591D01*
X0244841Y0124497D01*
X0257144Y0124497D01*
X0276583Y0143936D01*
X0276583Y0144674D01*
X0280274Y0144182D02*
X0253700Y0117607D01*
X0253700Y0072331D01*
X0256652Y0071347D02*
X0253700Y0068394D01*
X0253700Y0064457D01*
X0248778Y0059536D01*
X0212361Y0059536D01*
X0256652Y0071347D02*
X0256652Y0073808D01*
X0255914Y0074546D01*
X0255914Y0116623D01*
X0280520Y0141229D01*
X0281259Y0141229D01*
X0283965Y0143936D01*
X0288394Y0156239D02*
X0288148Y0156362D01*
X0313739Y0128434D02*
X0328995Y0142706D01*
X0330963Y0142706D01*
X0222282Y0123513D02*
X0217361Y0128434D01*
X0217282Y0128434D01*
X0217282Y0138276D01*
X0190215Y0142952D02*
X0187509Y0140245D01*
X0185786Y0140245D01*
X0181849Y0136308D01*
X0190215Y0142952D02*
X0190215Y0152056D01*
X0196121Y0149103D02*
X0196244Y0148980D01*
X0196121Y0149103D02*
X0196244Y0149226D01*
M02*
