G75*
%MOIN*%
%OFA0B0*%
%FSLAX25Y25*%
%IPPOS*%
%LPD*%
%AMOC8*
5,1,8,0,0,1.08239X$1,22.5*
%
%ADD10C,0.00000*%
%ADD11C,0.00472*%
%ADD12R,0.03937X0.04331*%
%ADD13R,0.05709X0.01181*%
%ADD14R,0.01181X0.05709*%
%ADD15R,0.03150X0.03543*%
%ADD16R,0.05906X0.05118*%
%ADD17R,0.04331X0.03937*%
%ADD18R,0.07087X0.06299*%
%ADD19R,0.02371X0.03551*%
%ADD20R,0.02367X0.01966*%
%ADD21R,0.02357X0.01963*%
%ADD22R,0.02357X0.01977*%
%ADD23R,0.02756X0.03937*%
%ADD24R,0.02756X0.02362*%
%ADD25R,0.07500X0.04300*%
%ADD26R,0.05906X0.09055*%
%ADD27R,0.04724X0.04724*%
%ADD28R,0.01575X0.06890*%
%ADD29R,0.05000X0.03937*%
%ADD30R,0.05512X0.05512*%
%ADD31R,0.03937X0.05000*%
%ADD32R,0.04724X0.02165*%
D10*
X0191692Y0005402D02*
X0526337Y0005402D01*
X0644447Y0123513D02*
X0644413Y0126367D01*
X0644309Y0129219D01*
X0644137Y0132068D01*
X0643896Y0134912D01*
X0643586Y0137750D01*
X0643208Y0140579D01*
X0642761Y0143398D01*
X0642247Y0146205D01*
X0641664Y0148999D01*
X0641015Y0151779D01*
X0640298Y0154541D01*
X0639515Y0157286D01*
X0638666Y0160011D01*
X0637752Y0162715D01*
X0636772Y0165395D01*
X0635727Y0168052D01*
X0634619Y0170682D01*
X0633448Y0173285D01*
X0632214Y0175858D01*
X0630918Y0178401D01*
X0629561Y0180913D01*
X0628144Y0183390D01*
X0626668Y0185833D01*
X0625132Y0188239D01*
X0623540Y0190607D01*
X0621890Y0192936D01*
X0620185Y0195225D01*
X0618424Y0197472D01*
X0616610Y0199675D01*
X0614744Y0201834D01*
X0612825Y0203948D01*
X0610856Y0206014D01*
X0608838Y0208032D01*
X0606772Y0210001D01*
X0604658Y0211920D01*
X0602499Y0213786D01*
X0600296Y0215600D01*
X0598049Y0217361D01*
X0595760Y0219066D01*
X0593431Y0220716D01*
X0591063Y0222308D01*
X0588657Y0223844D01*
X0586214Y0225320D01*
X0583737Y0226737D01*
X0581225Y0228094D01*
X0578682Y0229390D01*
X0576109Y0230624D01*
X0573506Y0231795D01*
X0570876Y0232903D01*
X0568219Y0233948D01*
X0565539Y0234928D01*
X0562835Y0235842D01*
X0560110Y0236691D01*
X0557365Y0237474D01*
X0554603Y0238191D01*
X0551823Y0238840D01*
X0549029Y0239423D01*
X0546222Y0239937D01*
X0543403Y0240384D01*
X0540574Y0240762D01*
X0537736Y0241072D01*
X0534892Y0241313D01*
X0532043Y0241485D01*
X0529191Y0241589D01*
X0526337Y0241623D01*
X0191692Y0241623D01*
X0188838Y0241589D01*
X0185986Y0241485D01*
X0183137Y0241313D01*
X0180293Y0241072D01*
X0177455Y0240762D01*
X0174626Y0240384D01*
X0171807Y0239937D01*
X0169000Y0239423D01*
X0166206Y0238840D01*
X0163426Y0238191D01*
X0160664Y0237474D01*
X0157919Y0236691D01*
X0155194Y0235842D01*
X0152490Y0234928D01*
X0149810Y0233948D01*
X0147153Y0232903D01*
X0144523Y0231795D01*
X0141920Y0230624D01*
X0139347Y0229390D01*
X0136804Y0228094D01*
X0134292Y0226737D01*
X0131815Y0225320D01*
X0129372Y0223844D01*
X0126966Y0222308D01*
X0124598Y0220716D01*
X0122269Y0219066D01*
X0119980Y0217361D01*
X0117733Y0215600D01*
X0115530Y0213786D01*
X0113371Y0211920D01*
X0111257Y0210001D01*
X0109191Y0208032D01*
X0107173Y0206014D01*
X0105204Y0203948D01*
X0103285Y0201834D01*
X0101419Y0199675D01*
X0099605Y0197472D01*
X0097844Y0195225D01*
X0096139Y0192936D01*
X0094489Y0190607D01*
X0092897Y0188239D01*
X0091361Y0185833D01*
X0089885Y0183390D01*
X0088468Y0180913D01*
X0087111Y0178401D01*
X0085815Y0175858D01*
X0084581Y0173285D01*
X0083410Y0170682D01*
X0082302Y0168052D01*
X0081257Y0165395D01*
X0080277Y0162715D01*
X0079363Y0160011D01*
X0078514Y0157286D01*
X0077731Y0154541D01*
X0077014Y0151779D01*
X0076365Y0148999D01*
X0075782Y0146205D01*
X0075268Y0143398D01*
X0074821Y0140579D01*
X0074443Y0137750D01*
X0074133Y0134912D01*
X0073892Y0132068D01*
X0073720Y0129219D01*
X0073616Y0126367D01*
X0073582Y0123513D01*
X0073616Y0120659D01*
X0073720Y0117807D01*
X0073892Y0114958D01*
X0074133Y0112114D01*
X0074443Y0109276D01*
X0074821Y0106447D01*
X0075268Y0103628D01*
X0075782Y0100821D01*
X0076365Y0098027D01*
X0077014Y0095247D01*
X0077731Y0092485D01*
X0078514Y0089740D01*
X0079363Y0087015D01*
X0080277Y0084311D01*
X0081257Y0081631D01*
X0082302Y0078974D01*
X0083410Y0076344D01*
X0084581Y0073741D01*
X0085815Y0071168D01*
X0087111Y0068625D01*
X0088468Y0066113D01*
X0089885Y0063636D01*
X0091361Y0061193D01*
X0092897Y0058787D01*
X0094489Y0056419D01*
X0096139Y0054090D01*
X0097844Y0051801D01*
X0099605Y0049554D01*
X0101419Y0047351D01*
X0103285Y0045192D01*
X0105204Y0043078D01*
X0107173Y0041012D01*
X0109191Y0038994D01*
X0111257Y0037025D01*
X0113371Y0035106D01*
X0115530Y0033240D01*
X0117733Y0031426D01*
X0119980Y0029665D01*
X0122269Y0027960D01*
X0124598Y0026310D01*
X0126966Y0024718D01*
X0129372Y0023182D01*
X0131815Y0021706D01*
X0134292Y0020289D01*
X0136804Y0018932D01*
X0139347Y0017636D01*
X0141920Y0016402D01*
X0144523Y0015231D01*
X0147153Y0014123D01*
X0149810Y0013078D01*
X0152490Y0012098D01*
X0155194Y0011184D01*
X0157919Y0010335D01*
X0160664Y0009552D01*
X0163426Y0008835D01*
X0166206Y0008186D01*
X0169000Y0007603D01*
X0171807Y0007089D01*
X0174626Y0006642D01*
X0177455Y0006264D01*
X0180293Y0005954D01*
X0183137Y0005713D01*
X0185986Y0005541D01*
X0188838Y0005437D01*
X0191692Y0005403D01*
X0526337Y0005403D02*
X0529191Y0005437D01*
X0532043Y0005541D01*
X0534892Y0005713D01*
X0537736Y0005954D01*
X0540574Y0006264D01*
X0543403Y0006642D01*
X0546222Y0007089D01*
X0549029Y0007603D01*
X0551823Y0008186D01*
X0554603Y0008835D01*
X0557365Y0009552D01*
X0560110Y0010335D01*
X0562835Y0011184D01*
X0565539Y0012098D01*
X0568219Y0013078D01*
X0570876Y0014123D01*
X0573506Y0015231D01*
X0576109Y0016402D01*
X0578682Y0017636D01*
X0581225Y0018932D01*
X0583737Y0020289D01*
X0586214Y0021706D01*
X0588657Y0023182D01*
X0591063Y0024718D01*
X0593431Y0026310D01*
X0595760Y0027960D01*
X0598049Y0029665D01*
X0600296Y0031426D01*
X0602499Y0033240D01*
X0604658Y0035106D01*
X0606772Y0037025D01*
X0608838Y0038994D01*
X0610856Y0041012D01*
X0612825Y0043078D01*
X0614744Y0045192D01*
X0616610Y0047351D01*
X0618424Y0049554D01*
X0620185Y0051801D01*
X0621890Y0054090D01*
X0623540Y0056419D01*
X0625132Y0058787D01*
X0626668Y0061193D01*
X0628144Y0063636D01*
X0629561Y0066113D01*
X0630918Y0068625D01*
X0632214Y0071168D01*
X0633448Y0073741D01*
X0634619Y0076344D01*
X0635727Y0078974D01*
X0636772Y0081631D01*
X0637752Y0084311D01*
X0638666Y0087015D01*
X0639515Y0089740D01*
X0640298Y0092485D01*
X0641015Y0095247D01*
X0641664Y0098027D01*
X0642247Y0100821D01*
X0642761Y0103628D01*
X0643208Y0106447D01*
X0643586Y0109276D01*
X0643896Y0112114D01*
X0644137Y0114958D01*
X0644309Y0117807D01*
X0644413Y0120659D01*
X0644447Y0123513D01*
D11*
X0445215Y0084950D02*
X0438207Y0084950D01*
X0445215Y0084950D02*
X0445215Y0083532D01*
X0438207Y0083532D01*
X0438207Y0084950D01*
X0438207Y0084003D02*
X0445215Y0084003D01*
X0445215Y0084474D02*
X0438207Y0084474D01*
X0438207Y0084945D02*
X0445215Y0084945D01*
X0445215Y0082391D02*
X0438207Y0082391D01*
X0445215Y0082391D02*
X0445215Y0080973D01*
X0438207Y0080973D01*
X0438207Y0082391D01*
X0438207Y0081444D02*
X0445215Y0081444D01*
X0445215Y0081915D02*
X0438207Y0081915D01*
X0438207Y0082386D02*
X0445215Y0082386D01*
X0445215Y0079832D02*
X0438207Y0079832D01*
X0445215Y0079832D02*
X0445215Y0078414D01*
X0438207Y0078414D01*
X0438207Y0079832D01*
X0438207Y0078885D02*
X0445215Y0078885D01*
X0445215Y0079356D02*
X0438207Y0079356D01*
X0438207Y0079827D02*
X0445215Y0079827D01*
X0445215Y0077273D02*
X0438207Y0077273D01*
X0445215Y0077273D02*
X0445215Y0075855D01*
X0438207Y0075855D01*
X0438207Y0077273D01*
X0438207Y0076326D02*
X0445215Y0076326D01*
X0445215Y0076797D02*
X0438207Y0076797D01*
X0438207Y0077268D02*
X0445215Y0077268D01*
X0445215Y0074714D02*
X0438207Y0074714D01*
X0445215Y0074714D02*
X0445215Y0073296D01*
X0438207Y0073296D01*
X0438207Y0074714D01*
X0438207Y0073767D02*
X0445215Y0073767D01*
X0445215Y0074238D02*
X0438207Y0074238D01*
X0438207Y0074709D02*
X0445215Y0074709D01*
X0445215Y0072155D02*
X0438207Y0072155D01*
X0445215Y0072155D02*
X0445215Y0070737D01*
X0438207Y0070737D01*
X0438207Y0072155D01*
X0438207Y0071208D02*
X0445215Y0071208D01*
X0445215Y0071679D02*
X0438207Y0071679D01*
X0438207Y0072150D02*
X0445215Y0072150D01*
X0445215Y0069596D02*
X0438207Y0069596D01*
X0445215Y0069596D02*
X0445215Y0068178D01*
X0438207Y0068178D01*
X0438207Y0069596D01*
X0438207Y0068649D02*
X0445215Y0068649D01*
X0445215Y0069120D02*
X0438207Y0069120D01*
X0438207Y0069591D02*
X0445215Y0069591D01*
X0445215Y0067037D02*
X0438207Y0067037D01*
X0445215Y0067037D02*
X0445215Y0065619D01*
X0438207Y0065619D01*
X0438207Y0067037D01*
X0438207Y0066090D02*
X0445215Y0066090D01*
X0445215Y0066561D02*
X0438207Y0066561D01*
X0438207Y0067032D02*
X0445215Y0067032D01*
X0445215Y0056957D02*
X0438207Y0056957D01*
X0438207Y0058375D01*
X0445215Y0058375D01*
X0445215Y0056957D01*
X0445215Y0057428D02*
X0438207Y0057428D01*
X0438207Y0057899D02*
X0445215Y0057899D01*
X0445215Y0058370D02*
X0438207Y0058370D01*
X0438207Y0054398D02*
X0445215Y0054398D01*
X0438207Y0054398D02*
X0438207Y0055816D01*
X0445215Y0055816D01*
X0445215Y0054398D01*
X0445215Y0054869D02*
X0438207Y0054869D01*
X0438207Y0055340D02*
X0445215Y0055340D01*
X0445215Y0055811D02*
X0438207Y0055811D01*
X0438207Y0051839D02*
X0445215Y0051839D01*
X0438207Y0051839D02*
X0438207Y0053257D01*
X0445215Y0053257D01*
X0445215Y0051839D01*
X0445215Y0052310D02*
X0438207Y0052310D01*
X0438207Y0052781D02*
X0445215Y0052781D01*
X0445215Y0053252D02*
X0438207Y0053252D01*
X0438207Y0049280D02*
X0445215Y0049280D01*
X0438207Y0049280D02*
X0438207Y0050698D01*
X0445215Y0050698D01*
X0445215Y0049280D01*
X0445215Y0049751D02*
X0438207Y0049751D01*
X0438207Y0050222D02*
X0445215Y0050222D01*
X0445215Y0050693D02*
X0438207Y0050693D01*
X0438207Y0046721D02*
X0445215Y0046721D01*
X0438207Y0046721D02*
X0438207Y0048139D01*
X0445215Y0048139D01*
X0445215Y0046721D01*
X0445215Y0047192D02*
X0438207Y0047192D01*
X0438207Y0047663D02*
X0445215Y0047663D01*
X0445215Y0048134D02*
X0438207Y0048134D01*
X0438207Y0044162D02*
X0445215Y0044162D01*
X0438207Y0044162D02*
X0438207Y0045580D01*
X0445215Y0045580D01*
X0445215Y0044162D01*
X0445215Y0044633D02*
X0438207Y0044633D01*
X0438207Y0045104D02*
X0445215Y0045104D01*
X0445215Y0045575D02*
X0438207Y0045575D01*
X0438207Y0041603D02*
X0445215Y0041603D01*
X0438207Y0041603D02*
X0438207Y0043021D01*
X0445215Y0043021D01*
X0445215Y0041603D01*
X0445215Y0042074D02*
X0438207Y0042074D01*
X0438207Y0042545D02*
X0445215Y0042545D01*
X0445215Y0043016D02*
X0438207Y0043016D01*
X0438207Y0039044D02*
X0445215Y0039044D01*
X0438207Y0039044D02*
X0438207Y0040462D01*
X0445215Y0040462D01*
X0445215Y0039044D01*
X0445215Y0039515D02*
X0438207Y0039515D01*
X0438207Y0039986D02*
X0445215Y0039986D01*
X0445215Y0040457D02*
X0438207Y0040457D01*
X0417617Y0039044D02*
X0410609Y0039044D01*
X0410609Y0040462D01*
X0417617Y0040462D01*
X0417617Y0039044D01*
X0417617Y0039515D02*
X0410609Y0039515D01*
X0410609Y0039986D02*
X0417617Y0039986D01*
X0417617Y0040457D02*
X0410609Y0040457D01*
X0410609Y0041603D02*
X0417617Y0041603D01*
X0410609Y0041603D02*
X0410609Y0043021D01*
X0417617Y0043021D01*
X0417617Y0041603D01*
X0417617Y0042074D02*
X0410609Y0042074D01*
X0410609Y0042545D02*
X0417617Y0042545D01*
X0417617Y0043016D02*
X0410609Y0043016D01*
X0410609Y0044162D02*
X0417617Y0044162D01*
X0410609Y0044162D02*
X0410609Y0045580D01*
X0417617Y0045580D01*
X0417617Y0044162D01*
X0417617Y0044633D02*
X0410609Y0044633D01*
X0410609Y0045104D02*
X0417617Y0045104D01*
X0417617Y0045575D02*
X0410609Y0045575D01*
X0410609Y0046721D02*
X0417617Y0046721D01*
X0410609Y0046721D02*
X0410609Y0048139D01*
X0417617Y0048139D01*
X0417617Y0046721D01*
X0417617Y0047192D02*
X0410609Y0047192D01*
X0410609Y0047663D02*
X0417617Y0047663D01*
X0417617Y0048134D02*
X0410609Y0048134D01*
X0410609Y0049280D02*
X0417617Y0049280D01*
X0410609Y0049280D02*
X0410609Y0050698D01*
X0417617Y0050698D01*
X0417617Y0049280D01*
X0417617Y0049751D02*
X0410609Y0049751D01*
X0410609Y0050222D02*
X0417617Y0050222D01*
X0417617Y0050693D02*
X0410609Y0050693D01*
X0410609Y0051839D02*
X0417617Y0051839D01*
X0410609Y0051839D02*
X0410609Y0053257D01*
X0417617Y0053257D01*
X0417617Y0051839D01*
X0417617Y0052310D02*
X0410609Y0052310D01*
X0410609Y0052781D02*
X0417617Y0052781D01*
X0417617Y0053252D02*
X0410609Y0053252D01*
X0410609Y0054398D02*
X0417617Y0054398D01*
X0410609Y0054398D02*
X0410609Y0055816D01*
X0417617Y0055816D01*
X0417617Y0054398D01*
X0417617Y0054869D02*
X0410609Y0054869D01*
X0410609Y0055340D02*
X0417617Y0055340D01*
X0417617Y0055811D02*
X0410609Y0055811D01*
X0410609Y0056957D02*
X0417617Y0056957D01*
X0410609Y0056957D02*
X0410609Y0058375D01*
X0417617Y0058375D01*
X0417617Y0056957D01*
X0417617Y0057428D02*
X0410609Y0057428D01*
X0410609Y0057899D02*
X0417617Y0057899D01*
X0417617Y0058370D02*
X0410609Y0058370D01*
X0410609Y0067037D02*
X0417617Y0067037D01*
X0417617Y0065619D01*
X0410609Y0065619D01*
X0410609Y0067037D01*
X0410609Y0066090D02*
X0417617Y0066090D01*
X0417617Y0066561D02*
X0410609Y0066561D01*
X0410609Y0067032D02*
X0417617Y0067032D01*
X0417617Y0069596D02*
X0410609Y0069596D01*
X0417617Y0069596D02*
X0417617Y0068178D01*
X0410609Y0068178D01*
X0410609Y0069596D01*
X0410609Y0068649D02*
X0417617Y0068649D01*
X0417617Y0069120D02*
X0410609Y0069120D01*
X0410609Y0069591D02*
X0417617Y0069591D01*
X0417617Y0072155D02*
X0410609Y0072155D01*
X0417617Y0072155D02*
X0417617Y0070737D01*
X0410609Y0070737D01*
X0410609Y0072155D01*
X0410609Y0071208D02*
X0417617Y0071208D01*
X0417617Y0071679D02*
X0410609Y0071679D01*
X0410609Y0072150D02*
X0417617Y0072150D01*
X0417617Y0074714D02*
X0410609Y0074714D01*
X0417617Y0074714D02*
X0417617Y0073296D01*
X0410609Y0073296D01*
X0410609Y0074714D01*
X0410609Y0073767D02*
X0417617Y0073767D01*
X0417617Y0074238D02*
X0410609Y0074238D01*
X0410609Y0074709D02*
X0417617Y0074709D01*
X0417617Y0077273D02*
X0410609Y0077273D01*
X0417617Y0077273D02*
X0417617Y0075855D01*
X0410609Y0075855D01*
X0410609Y0077273D01*
X0410609Y0076326D02*
X0417617Y0076326D01*
X0417617Y0076797D02*
X0410609Y0076797D01*
X0410609Y0077268D02*
X0417617Y0077268D01*
X0417617Y0079832D02*
X0410609Y0079832D01*
X0417617Y0079832D02*
X0417617Y0078414D01*
X0410609Y0078414D01*
X0410609Y0079832D01*
X0410609Y0078885D02*
X0417617Y0078885D01*
X0417617Y0079356D02*
X0410609Y0079356D01*
X0410609Y0079827D02*
X0417617Y0079827D01*
X0417617Y0082391D02*
X0410609Y0082391D01*
X0417617Y0082391D02*
X0417617Y0080973D01*
X0410609Y0080973D01*
X0410609Y0082391D01*
X0410609Y0081444D02*
X0417617Y0081444D01*
X0417617Y0081915D02*
X0410609Y0081915D01*
X0410609Y0082386D02*
X0417617Y0082386D01*
X0417617Y0084950D02*
X0410609Y0084950D01*
X0417617Y0084950D02*
X0417617Y0083532D01*
X0410609Y0083532D01*
X0410609Y0084950D01*
X0410609Y0084003D02*
X0417617Y0084003D01*
X0417617Y0084474D02*
X0410609Y0084474D01*
X0410609Y0084945D02*
X0417617Y0084945D01*
X0308404Y0084950D02*
X0301396Y0084950D01*
X0308404Y0084950D02*
X0308404Y0083532D01*
X0301396Y0083532D01*
X0301396Y0084950D01*
X0301396Y0084003D02*
X0308404Y0084003D01*
X0308404Y0084474D02*
X0301396Y0084474D01*
X0301396Y0084945D02*
X0308404Y0084945D01*
X0308404Y0082391D02*
X0301396Y0082391D01*
X0308404Y0082391D02*
X0308404Y0080973D01*
X0301396Y0080973D01*
X0301396Y0082391D01*
X0301396Y0081444D02*
X0308404Y0081444D01*
X0308404Y0081915D02*
X0301396Y0081915D01*
X0301396Y0082386D02*
X0308404Y0082386D01*
X0308404Y0079832D02*
X0301396Y0079832D01*
X0308404Y0079832D02*
X0308404Y0078414D01*
X0301396Y0078414D01*
X0301396Y0079832D01*
X0301396Y0078885D02*
X0308404Y0078885D01*
X0308404Y0079356D02*
X0301396Y0079356D01*
X0301396Y0079827D02*
X0308404Y0079827D01*
X0308404Y0077273D02*
X0301396Y0077273D01*
X0308404Y0077273D02*
X0308404Y0075855D01*
X0301396Y0075855D01*
X0301396Y0077273D01*
X0301396Y0076326D02*
X0308404Y0076326D01*
X0308404Y0076797D02*
X0301396Y0076797D01*
X0301396Y0077268D02*
X0308404Y0077268D01*
X0308404Y0074714D02*
X0301396Y0074714D01*
X0308404Y0074714D02*
X0308404Y0073296D01*
X0301396Y0073296D01*
X0301396Y0074714D01*
X0301396Y0073767D02*
X0308404Y0073767D01*
X0308404Y0074238D02*
X0301396Y0074238D01*
X0301396Y0074709D02*
X0308404Y0074709D01*
X0308404Y0072155D02*
X0301396Y0072155D01*
X0308404Y0072155D02*
X0308404Y0070737D01*
X0301396Y0070737D01*
X0301396Y0072155D01*
X0301396Y0071208D02*
X0308404Y0071208D01*
X0308404Y0071679D02*
X0301396Y0071679D01*
X0301396Y0072150D02*
X0308404Y0072150D01*
X0308404Y0069596D02*
X0301396Y0069596D01*
X0308404Y0069596D02*
X0308404Y0068178D01*
X0301396Y0068178D01*
X0301396Y0069596D01*
X0301396Y0068649D02*
X0308404Y0068649D01*
X0308404Y0069120D02*
X0301396Y0069120D01*
X0301396Y0069591D02*
X0308404Y0069591D01*
X0308404Y0067037D02*
X0301396Y0067037D01*
X0308404Y0067037D02*
X0308404Y0065619D01*
X0301396Y0065619D01*
X0301396Y0067037D01*
X0301396Y0066090D02*
X0308404Y0066090D01*
X0308404Y0066561D02*
X0301396Y0066561D01*
X0301396Y0067032D02*
X0308404Y0067032D01*
X0308404Y0056957D02*
X0301396Y0056957D01*
X0301396Y0058375D01*
X0308404Y0058375D01*
X0308404Y0056957D01*
X0308404Y0057428D02*
X0301396Y0057428D01*
X0301396Y0057899D02*
X0308404Y0057899D01*
X0308404Y0058370D02*
X0301396Y0058370D01*
X0301396Y0054398D02*
X0308404Y0054398D01*
X0301396Y0054398D02*
X0301396Y0055816D01*
X0308404Y0055816D01*
X0308404Y0054398D01*
X0308404Y0054869D02*
X0301396Y0054869D01*
X0301396Y0055340D02*
X0308404Y0055340D01*
X0308404Y0055811D02*
X0301396Y0055811D01*
X0301396Y0051839D02*
X0308404Y0051839D01*
X0301396Y0051839D02*
X0301396Y0053257D01*
X0308404Y0053257D01*
X0308404Y0051839D01*
X0308404Y0052310D02*
X0301396Y0052310D01*
X0301396Y0052781D02*
X0308404Y0052781D01*
X0308404Y0053252D02*
X0301396Y0053252D01*
X0301396Y0049280D02*
X0308404Y0049280D01*
X0301396Y0049280D02*
X0301396Y0050698D01*
X0308404Y0050698D01*
X0308404Y0049280D01*
X0308404Y0049751D02*
X0301396Y0049751D01*
X0301396Y0050222D02*
X0308404Y0050222D01*
X0308404Y0050693D02*
X0301396Y0050693D01*
X0301396Y0046721D02*
X0308404Y0046721D01*
X0301396Y0046721D02*
X0301396Y0048139D01*
X0308404Y0048139D01*
X0308404Y0046721D01*
X0308404Y0047192D02*
X0301396Y0047192D01*
X0301396Y0047663D02*
X0308404Y0047663D01*
X0308404Y0048134D02*
X0301396Y0048134D01*
X0301396Y0044162D02*
X0308404Y0044162D01*
X0301396Y0044162D02*
X0301396Y0045580D01*
X0308404Y0045580D01*
X0308404Y0044162D01*
X0308404Y0044633D02*
X0301396Y0044633D01*
X0301396Y0045104D02*
X0308404Y0045104D01*
X0308404Y0045575D02*
X0301396Y0045575D01*
X0301396Y0041603D02*
X0308404Y0041603D01*
X0301396Y0041603D02*
X0301396Y0043021D01*
X0308404Y0043021D01*
X0308404Y0041603D01*
X0308404Y0042074D02*
X0301396Y0042074D01*
X0301396Y0042545D02*
X0308404Y0042545D01*
X0308404Y0043016D02*
X0301396Y0043016D01*
X0301396Y0039044D02*
X0308404Y0039044D01*
X0301396Y0039044D02*
X0301396Y0040462D01*
X0308404Y0040462D01*
X0308404Y0039044D01*
X0308404Y0039515D02*
X0301396Y0039515D01*
X0301396Y0039986D02*
X0308404Y0039986D01*
X0308404Y0040457D02*
X0301396Y0040457D01*
X0280806Y0039044D02*
X0273798Y0039044D01*
X0273798Y0040462D01*
X0280806Y0040462D01*
X0280806Y0039044D01*
X0280806Y0039515D02*
X0273798Y0039515D01*
X0273798Y0039986D02*
X0280806Y0039986D01*
X0280806Y0040457D02*
X0273798Y0040457D01*
X0273798Y0041603D02*
X0280806Y0041603D01*
X0273798Y0041603D02*
X0273798Y0043021D01*
X0280806Y0043021D01*
X0280806Y0041603D01*
X0280806Y0042074D02*
X0273798Y0042074D01*
X0273798Y0042545D02*
X0280806Y0042545D01*
X0280806Y0043016D02*
X0273798Y0043016D01*
X0273798Y0044162D02*
X0280806Y0044162D01*
X0273798Y0044162D02*
X0273798Y0045580D01*
X0280806Y0045580D01*
X0280806Y0044162D01*
X0280806Y0044633D02*
X0273798Y0044633D01*
X0273798Y0045104D02*
X0280806Y0045104D01*
X0280806Y0045575D02*
X0273798Y0045575D01*
X0273798Y0046721D02*
X0280806Y0046721D01*
X0273798Y0046721D02*
X0273798Y0048139D01*
X0280806Y0048139D01*
X0280806Y0046721D01*
X0280806Y0047192D02*
X0273798Y0047192D01*
X0273798Y0047663D02*
X0280806Y0047663D01*
X0280806Y0048134D02*
X0273798Y0048134D01*
X0273798Y0049280D02*
X0280806Y0049280D01*
X0273798Y0049280D02*
X0273798Y0050698D01*
X0280806Y0050698D01*
X0280806Y0049280D01*
X0280806Y0049751D02*
X0273798Y0049751D01*
X0273798Y0050222D02*
X0280806Y0050222D01*
X0280806Y0050693D02*
X0273798Y0050693D01*
X0273798Y0051839D02*
X0280806Y0051839D01*
X0273798Y0051839D02*
X0273798Y0053257D01*
X0280806Y0053257D01*
X0280806Y0051839D01*
X0280806Y0052310D02*
X0273798Y0052310D01*
X0273798Y0052781D02*
X0280806Y0052781D01*
X0280806Y0053252D02*
X0273798Y0053252D01*
X0273798Y0054398D02*
X0280806Y0054398D01*
X0273798Y0054398D02*
X0273798Y0055816D01*
X0280806Y0055816D01*
X0280806Y0054398D01*
X0280806Y0054869D02*
X0273798Y0054869D01*
X0273798Y0055340D02*
X0280806Y0055340D01*
X0280806Y0055811D02*
X0273798Y0055811D01*
X0273798Y0056957D02*
X0280806Y0056957D01*
X0273798Y0056957D02*
X0273798Y0058375D01*
X0280806Y0058375D01*
X0280806Y0056957D01*
X0280806Y0057428D02*
X0273798Y0057428D01*
X0273798Y0057899D02*
X0280806Y0057899D01*
X0280806Y0058370D02*
X0273798Y0058370D01*
X0273798Y0067037D02*
X0280806Y0067037D01*
X0280806Y0065619D01*
X0273798Y0065619D01*
X0273798Y0067037D01*
X0273798Y0066090D02*
X0280806Y0066090D01*
X0280806Y0066561D02*
X0273798Y0066561D01*
X0273798Y0067032D02*
X0280806Y0067032D01*
X0280806Y0069596D02*
X0273798Y0069596D01*
X0280806Y0069596D02*
X0280806Y0068178D01*
X0273798Y0068178D01*
X0273798Y0069596D01*
X0273798Y0068649D02*
X0280806Y0068649D01*
X0280806Y0069120D02*
X0273798Y0069120D01*
X0273798Y0069591D02*
X0280806Y0069591D01*
X0280806Y0072155D02*
X0273798Y0072155D01*
X0280806Y0072155D02*
X0280806Y0070737D01*
X0273798Y0070737D01*
X0273798Y0072155D01*
X0273798Y0071208D02*
X0280806Y0071208D01*
X0280806Y0071679D02*
X0273798Y0071679D01*
X0273798Y0072150D02*
X0280806Y0072150D01*
X0280806Y0074714D02*
X0273798Y0074714D01*
X0280806Y0074714D02*
X0280806Y0073296D01*
X0273798Y0073296D01*
X0273798Y0074714D01*
X0273798Y0073767D02*
X0280806Y0073767D01*
X0280806Y0074238D02*
X0273798Y0074238D01*
X0273798Y0074709D02*
X0280806Y0074709D01*
X0280806Y0077273D02*
X0273798Y0077273D01*
X0280806Y0077273D02*
X0280806Y0075855D01*
X0273798Y0075855D01*
X0273798Y0077273D01*
X0273798Y0076326D02*
X0280806Y0076326D01*
X0280806Y0076797D02*
X0273798Y0076797D01*
X0273798Y0077268D02*
X0280806Y0077268D01*
X0280806Y0079832D02*
X0273798Y0079832D01*
X0280806Y0079832D02*
X0280806Y0078414D01*
X0273798Y0078414D01*
X0273798Y0079832D01*
X0273798Y0078885D02*
X0280806Y0078885D01*
X0280806Y0079356D02*
X0273798Y0079356D01*
X0273798Y0079827D02*
X0280806Y0079827D01*
X0280806Y0082391D02*
X0273798Y0082391D01*
X0280806Y0082391D02*
X0280806Y0080973D01*
X0273798Y0080973D01*
X0273798Y0082391D01*
X0273798Y0081444D02*
X0280806Y0081444D01*
X0280806Y0081915D02*
X0273798Y0081915D01*
X0273798Y0082386D02*
X0280806Y0082386D01*
X0280806Y0084950D02*
X0273798Y0084950D01*
X0280806Y0084950D02*
X0280806Y0083532D01*
X0273798Y0083532D01*
X0273798Y0084950D01*
X0273798Y0084003D02*
X0280806Y0084003D01*
X0280806Y0084474D02*
X0273798Y0084474D01*
X0273798Y0084945D02*
X0280806Y0084945D01*
D12*
X0265191Y0072410D03*
X0265191Y0065717D03*
X0314846Y0059684D03*
X0314846Y0052991D03*
X0406554Y0065781D03*
X0406554Y0072474D03*
X0448581Y0058946D03*
X0448581Y0052253D03*
X0387952Y0087095D03*
X0381259Y0087095D03*
X0336770Y0087095D03*
X0330078Y0087095D03*
X0393463Y0170363D03*
X0393463Y0177056D03*
X0393463Y0182174D03*
X0393463Y0188867D03*
X0384728Y0196485D03*
X0384728Y0203178D03*
X0332440Y0201859D03*
X0325058Y0201859D03*
X0317676Y0201859D03*
X0310294Y0201859D03*
X0310294Y0208552D03*
X0317676Y0208552D03*
X0325058Y0208552D03*
X0332440Y0208552D03*
X0325058Y0214654D03*
X0317676Y0214654D03*
X0310294Y0214654D03*
X0310294Y0221347D03*
X0317676Y0221347D03*
X0325058Y0221347D03*
X0325058Y0195757D03*
X0332440Y0195757D03*
X0332440Y0189064D03*
X0325058Y0189064D03*
X0332440Y0181977D03*
X0332440Y0175284D03*
D13*
X0342479Y0179615D03*
X0342479Y0181583D03*
X0342479Y0183552D03*
X0342479Y0185520D03*
X0342479Y0187489D03*
X0342479Y0189457D03*
X0342479Y0191426D03*
X0342479Y0193394D03*
X0342479Y0195363D03*
X0342479Y0197331D03*
X0342479Y0199300D03*
X0342597Y0201269D03*
X0375550Y0201269D03*
X0375550Y0199300D03*
X0375550Y0197331D03*
X0375550Y0195363D03*
X0375550Y0193394D03*
X0375550Y0191426D03*
X0375550Y0189457D03*
X0375550Y0187489D03*
X0375550Y0185520D03*
X0375550Y0183552D03*
X0375550Y0181583D03*
X0375550Y0179615D03*
D14*
X0369841Y0173906D03*
X0367873Y0173906D03*
X0365904Y0173906D03*
X0363936Y0173906D03*
X0361967Y0173906D03*
X0359999Y0173906D03*
X0358030Y0173906D03*
X0356062Y0173906D03*
X0354093Y0173906D03*
X0352125Y0173906D03*
X0350156Y0173906D03*
X0348188Y0173906D03*
X0348188Y0206977D03*
X0350156Y0206977D03*
X0352125Y0206977D03*
X0354093Y0206977D03*
X0356062Y0206977D03*
X0358030Y0206977D03*
X0359999Y0206977D03*
X0361967Y0206977D03*
X0363936Y0206977D03*
X0365904Y0206977D03*
X0367873Y0206977D03*
X0369841Y0206977D03*
D15*
X0398461Y0202113D03*
X0398461Y0196113D03*
D16*
X0391618Y0197076D03*
X0391618Y0204556D03*
X0393463Y0228040D03*
X0393463Y0235520D03*
X0418070Y0234536D03*
X0425944Y0234536D03*
X0425944Y0227056D03*
X0418070Y0227056D03*
D17*
X0393463Y0221347D03*
X0393463Y0214654D03*
X0369290Y0214455D03*
X0362597Y0214455D03*
X0364526Y0165343D03*
X0371219Y0165343D03*
X0371219Y0158700D03*
X0364526Y0158700D03*
X0357440Y0158387D03*
X0350747Y0158387D03*
X0348581Y0034930D03*
X0341889Y0034930D03*
X0334802Y0034930D03*
X0328109Y0034930D03*
X0355668Y0034930D03*
X0362361Y0034930D03*
X0369448Y0034930D03*
X0376141Y0034930D03*
X0383227Y0034930D03*
X0389920Y0034930D03*
D18*
X0384123Y0222272D03*
X0384123Y0233296D03*
D19*
X0339058Y0215571D03*
D20*
X0339057Y0222269D03*
D21*
X0331177Y0222270D03*
D22*
X0331177Y0214783D03*
D23*
X0339054Y0215575D03*
D24*
X0331180Y0214787D03*
X0331180Y0222268D03*
X0339054Y0222268D03*
D25*
X0385511Y0184405D03*
X0385511Y0174805D03*
D26*
X0296269Y0204654D03*
X0296269Y0231032D03*
D27*
X0310294Y0227646D03*
X0317676Y0227646D03*
X0325058Y0227646D03*
X0325058Y0235914D03*
X0317676Y0235914D03*
X0310294Y0235914D03*
D28*
X0353896Y0221839D03*
X0356456Y0221839D03*
X0359015Y0221839D03*
X0361574Y0221839D03*
X0364133Y0221839D03*
D29*
X0381652Y0165639D03*
X0389526Y0161898D03*
X0381652Y0158158D03*
D30*
X0496810Y0028434D03*
X0496810Y0013867D03*
X0221219Y0013867D03*
X0221219Y0028434D03*
D31*
X0234211Y0025087D03*
X0241692Y0025087D03*
X0237952Y0017213D03*
X0476337Y0025087D03*
X0483818Y0025087D03*
X0480078Y0017213D03*
D32*
X0410393Y0227056D03*
X0400156Y0227056D03*
X0400156Y0230796D03*
X0400156Y0234536D03*
X0410393Y0234536D03*
M02*
