G75*
%MOIN*%
%OFA0B0*%
%FSLAX25Y25*%
%IPPOS*%
%LPD*%
%AMOC8*
5,1,8,0,0,1.08239X$1,22.5*
%
%ADD10C,0.00000*%
%ADD11R,0.04331X0.03937*%
D10*
X0191692Y0005402D02*
X0526337Y0005402D01*
X0644447Y0123513D02*
X0644413Y0126367D01*
X0644309Y0129219D01*
X0644137Y0132068D01*
X0643896Y0134912D01*
X0643586Y0137750D01*
X0643208Y0140579D01*
X0642761Y0143398D01*
X0642247Y0146205D01*
X0641664Y0148999D01*
X0641015Y0151779D01*
X0640298Y0154541D01*
X0639515Y0157286D01*
X0638666Y0160011D01*
X0637752Y0162715D01*
X0636772Y0165395D01*
X0635727Y0168052D01*
X0634619Y0170682D01*
X0633448Y0173285D01*
X0632214Y0175858D01*
X0630918Y0178401D01*
X0629561Y0180913D01*
X0628144Y0183390D01*
X0626668Y0185833D01*
X0625132Y0188239D01*
X0623540Y0190607D01*
X0621890Y0192936D01*
X0620185Y0195225D01*
X0618424Y0197472D01*
X0616610Y0199675D01*
X0614744Y0201834D01*
X0612825Y0203948D01*
X0610856Y0206014D01*
X0608838Y0208032D01*
X0606772Y0210001D01*
X0604658Y0211920D01*
X0602499Y0213786D01*
X0600296Y0215600D01*
X0598049Y0217361D01*
X0595760Y0219066D01*
X0593431Y0220716D01*
X0591063Y0222308D01*
X0588657Y0223844D01*
X0586214Y0225320D01*
X0583737Y0226737D01*
X0581225Y0228094D01*
X0578682Y0229390D01*
X0576109Y0230624D01*
X0573506Y0231795D01*
X0570876Y0232903D01*
X0568219Y0233948D01*
X0565539Y0234928D01*
X0562835Y0235842D01*
X0560110Y0236691D01*
X0557365Y0237474D01*
X0554603Y0238191D01*
X0551823Y0238840D01*
X0549029Y0239423D01*
X0546222Y0239937D01*
X0543403Y0240384D01*
X0540574Y0240762D01*
X0537736Y0241072D01*
X0534892Y0241313D01*
X0532043Y0241485D01*
X0529191Y0241589D01*
X0526337Y0241623D01*
X0191692Y0241623D01*
X0188838Y0241589D01*
X0185986Y0241485D01*
X0183137Y0241313D01*
X0180293Y0241072D01*
X0177455Y0240762D01*
X0174626Y0240384D01*
X0171807Y0239937D01*
X0169000Y0239423D01*
X0166206Y0238840D01*
X0163426Y0238191D01*
X0160664Y0237474D01*
X0157919Y0236691D01*
X0155194Y0235842D01*
X0152490Y0234928D01*
X0149810Y0233948D01*
X0147153Y0232903D01*
X0144523Y0231795D01*
X0141920Y0230624D01*
X0139347Y0229390D01*
X0136804Y0228094D01*
X0134292Y0226737D01*
X0131815Y0225320D01*
X0129372Y0223844D01*
X0126966Y0222308D01*
X0124598Y0220716D01*
X0122269Y0219066D01*
X0119980Y0217361D01*
X0117733Y0215600D01*
X0115530Y0213786D01*
X0113371Y0211920D01*
X0111257Y0210001D01*
X0109191Y0208032D01*
X0107173Y0206014D01*
X0105204Y0203948D01*
X0103285Y0201834D01*
X0101419Y0199675D01*
X0099605Y0197472D01*
X0097844Y0195225D01*
X0096139Y0192936D01*
X0094489Y0190607D01*
X0092897Y0188239D01*
X0091361Y0185833D01*
X0089885Y0183390D01*
X0088468Y0180913D01*
X0087111Y0178401D01*
X0085815Y0175858D01*
X0084581Y0173285D01*
X0083410Y0170682D01*
X0082302Y0168052D01*
X0081257Y0165395D01*
X0080277Y0162715D01*
X0079363Y0160011D01*
X0078514Y0157286D01*
X0077731Y0154541D01*
X0077014Y0151779D01*
X0076365Y0148999D01*
X0075782Y0146205D01*
X0075268Y0143398D01*
X0074821Y0140579D01*
X0074443Y0137750D01*
X0074133Y0134912D01*
X0073892Y0132068D01*
X0073720Y0129219D01*
X0073616Y0126367D01*
X0073582Y0123513D01*
X0073616Y0120659D01*
X0073720Y0117807D01*
X0073892Y0114958D01*
X0074133Y0112114D01*
X0074443Y0109276D01*
X0074821Y0106447D01*
X0075268Y0103628D01*
X0075782Y0100821D01*
X0076365Y0098027D01*
X0077014Y0095247D01*
X0077731Y0092485D01*
X0078514Y0089740D01*
X0079363Y0087015D01*
X0080277Y0084311D01*
X0081257Y0081631D01*
X0082302Y0078974D01*
X0083410Y0076344D01*
X0084581Y0073741D01*
X0085815Y0071168D01*
X0087111Y0068625D01*
X0088468Y0066113D01*
X0089885Y0063636D01*
X0091361Y0061193D01*
X0092897Y0058787D01*
X0094489Y0056419D01*
X0096139Y0054090D01*
X0097844Y0051801D01*
X0099605Y0049554D01*
X0101419Y0047351D01*
X0103285Y0045192D01*
X0105204Y0043078D01*
X0107173Y0041012D01*
X0109191Y0038994D01*
X0111257Y0037025D01*
X0113371Y0035106D01*
X0115530Y0033240D01*
X0117733Y0031426D01*
X0119980Y0029665D01*
X0122269Y0027960D01*
X0124598Y0026310D01*
X0126966Y0024718D01*
X0129372Y0023182D01*
X0131815Y0021706D01*
X0134292Y0020289D01*
X0136804Y0018932D01*
X0139347Y0017636D01*
X0141920Y0016402D01*
X0144523Y0015231D01*
X0147153Y0014123D01*
X0149810Y0013078D01*
X0152490Y0012098D01*
X0155194Y0011184D01*
X0157919Y0010335D01*
X0160664Y0009552D01*
X0163426Y0008835D01*
X0166206Y0008186D01*
X0169000Y0007603D01*
X0171807Y0007089D01*
X0174626Y0006642D01*
X0177455Y0006264D01*
X0180293Y0005954D01*
X0183137Y0005713D01*
X0185986Y0005541D01*
X0188838Y0005437D01*
X0191692Y0005403D01*
X0526337Y0005403D02*
X0529191Y0005437D01*
X0532043Y0005541D01*
X0534892Y0005713D01*
X0537736Y0005954D01*
X0540574Y0006264D01*
X0543403Y0006642D01*
X0546222Y0007089D01*
X0549029Y0007603D01*
X0551823Y0008186D01*
X0554603Y0008835D01*
X0557365Y0009552D01*
X0560110Y0010335D01*
X0562835Y0011184D01*
X0565539Y0012098D01*
X0568219Y0013078D01*
X0570876Y0014123D01*
X0573506Y0015231D01*
X0576109Y0016402D01*
X0578682Y0017636D01*
X0581225Y0018932D01*
X0583737Y0020289D01*
X0586214Y0021706D01*
X0588657Y0023182D01*
X0591063Y0024718D01*
X0593431Y0026310D01*
X0595760Y0027960D01*
X0598049Y0029665D01*
X0600296Y0031426D01*
X0602499Y0033240D01*
X0604658Y0035106D01*
X0606772Y0037025D01*
X0608838Y0038994D01*
X0610856Y0041012D01*
X0612825Y0043078D01*
X0614744Y0045192D01*
X0616610Y0047351D01*
X0618424Y0049554D01*
X0620185Y0051801D01*
X0621890Y0054090D01*
X0623540Y0056419D01*
X0625132Y0058787D01*
X0626668Y0061193D01*
X0628144Y0063636D01*
X0629561Y0066113D01*
X0630918Y0068625D01*
X0632214Y0071168D01*
X0633448Y0073741D01*
X0634619Y0076344D01*
X0635727Y0078974D01*
X0636772Y0081631D01*
X0637752Y0084311D01*
X0638666Y0087015D01*
X0639515Y0089740D01*
X0640298Y0092485D01*
X0641015Y0095247D01*
X0641664Y0098027D01*
X0642247Y0100821D01*
X0642761Y0103628D01*
X0643208Y0106447D01*
X0643586Y0109276D01*
X0643896Y0112114D01*
X0644137Y0114958D01*
X0644309Y0117807D01*
X0644413Y0120659D01*
X0644447Y0123513D01*
D11*
X0381652Y0046150D03*
X0381652Y0039457D03*
X0347204Y0039457D03*
X0347204Y0046150D03*
M02*
